<svg width="400" height="99" viewBox="0 0 400 99" fill="none" xmlns="http://www.w3.org/2000/svg">
<g clip-path="url(#clip0_117_106)">
<path fill-rule="evenodd" clip-rule="evenodd" d="M8.90001 4.71001H390.95C393.27 4.71001 395.17 6.61001 395.17 8.91001V89.19C395.17 91.51 393.27 93.41 390.95 93.41H8.90001C6.60001 93.41 4.70001 91.51 4.70001 89.19V8.90001C4.71001 6.60001 6.60001 4.71001 8.90001 4.71001Z" fill="#2D8A7A"/>
<path fill-rule="evenodd" clip-rule="evenodd" d="M310.96 4.71001H390.95C393.27 4.71001 395.17 6.61001 395.17 8.91001V89.19C395.17 91.51 393.27 93.41 390.95 93.41H310.96V4.71001Z" fill="#419687"/>
<path fill-rule="evenodd" clip-rule="evenodd" d="M27.3 22.62H54.06L66.16 34.75V73.24C66.16 74.49 65.11 75.45 63.86 75.45H27.3C26.08 75.45 25.03 74.49 25.03 73.24V24.92C25.03 23.7 26.08 22.62 27.3 22.62Z" fill="white"/>
<path d="M63.86 75.67H27.3C25.93 75.67 24.82 74.58 24.82 73.25V24.92C24.82 23.58 25.98 22.41 27.3 22.41H54.06C54.12 22.41 54.17 22.43 54.21 22.47L66.31 34.6C66.35 34.64 66.37 34.69 66.37 34.75V73.24C66.37 74.58 65.25 75.67 63.86 75.67ZM27.3 22.83C26.21 22.83 25.24 23.8 25.24 24.91V73.24C25.24 74.34 26.16 75.24 27.3 75.24H63.87C65.02 75.24 65.95 74.34 65.95 73.24V34.84L53.97 22.83H27.3Z" fill="#007D6F"/>
<path fill-rule="evenodd" clip-rule="evenodd" d="M54.26 22.82V32.74C54.26 33.79 55.14 34.58 56.41 34.58H65.96L54.26 22.82Z" fill="#007D6F"/>
<path fill-rule="evenodd" clip-rule="evenodd" d="M32.91 51.56H58.25C58.87 51.56 59.36 52.04 59.36 52.67C59.36 53.35 58.88 53.83 58.25 53.83H32.91C32.31 53.83 31.8 53.35 31.8 52.67C31.8 52.04 32.31 51.56 32.91 51.56Z" fill="#007D6F"/>
<path fill-rule="evenodd" clip-rule="evenodd" d="M32.91 58.59H58.25C58.87 58.59 59.36 59.07 59.36 59.7C59.36 60.38 58.88 60.86 58.25 60.86H32.91C32.31 60.86 31.8 60.38 31.8 59.7C31.8 59.07 32.31 58.59 32.91 58.59Z" fill="#007D6F"/>
<path fill-rule="evenodd" clip-rule="evenodd" d="M32.91 65.59H58.25C58.87 65.59 59.36 66.1 59.36 66.72C59.36 67.37 58.88 67.88 58.25 67.88H32.91C32.31 67.88 31.8 67.37 31.8 66.72C31.8 66.1 32.31 65.59 32.91 65.59Z" fill="#007D6F"/>
<path fill-rule="evenodd" clip-rule="evenodd" d="M25.03 31.95H50.29C50.74 31.95 51.03 32.32 51.03 32.74V42.55C51.03 42.98 50.75 43.29 50.29 43.29H25.03V31.95Z" fill="#007D6F"/>
<path fill-rule="evenodd" clip-rule="evenodd" d="M21.77 35.6V45.95C22.42 44.48 23.44 43.54 25.03 43.29L25.09 31.95C23.36 32 21.77 33.99 21.77 35.6Z" fill="#007D6F"/>
<path fill-rule="evenodd" clip-rule="evenodd" d="M21.77 45.95V47.57C21.77 48.53 23.19 50.66 25.03 50.66V43.29C23.44 43.54 22.42 44.48 21.77 45.95Z" fill="#007D6F"/>
<path d="M29.23 41.02V34.3H31.38C32.26 34.3 32.71 34.3 33 34.36C33.43 34.47 33.74 34.73 33.96 35.04C34.22 35.41 34.33 35.83 34.33 36.34C34.33 36.77 34.27 37.13 34.13 37.39C33.96 37.67 33.79 37.87 33.59 38.04C33.36 38.24 33.11 38.3 32.85 38.35C32.54 38.41 32.06 38.49 31.43 38.49H30.55V41.01H29.23V41.02ZM30.56 35.4V37.3H31.33C31.87 37.3 32.18 37.3 32.35 37.24C32.55 37.1 32.72 37.04 32.8 36.87C32.91 36.73 33 36.56 33 36.36C33 36.13 32.91 35.88 32.74 35.76C32.63 35.59 32.43 35.5 32.17 35.45C32.06 35.39 31.74 35.39 31.23 35.39H30.56V35.4ZM35.52 34.3H37.96C38.53 34.3 38.95 34.3 39.26 34.41C39.63 34.52 39.94 34.72 40.25 35.03C40.56 35.31 40.76 35.68 40.85 36.14C41.05 36.57 41.13 37.08 41.13 37.67C41.13 38.24 41.04 38.72 40.93 39.14C40.73 39.65 40.48 40.02 40.19 40.33C39.93 40.56 39.62 40.76 39.25 40.9C38.97 40.93 38.51 41.01 38.03 41.01H35.51V34.3H35.52ZM36.85 35.4V39.91H37.84C38.24 39.91 38.52 39.82 38.66 39.77C38.89 39.77 39.09 39.63 39.23 39.51C39.43 39.4 39.54 39.14 39.6 38.86C39.71 38.6 39.71 38.18 39.71 37.61C39.71 37.1 39.71 36.67 39.6 36.45C39.51 36.14 39.34 35.97 39.2 35.77C39.03 35.63 38.83 35.51 38.6 35.46C38.4 35.46 38.03 35.4 37.47 35.4H36.85ZM42.29 41.02V34.3H46.91V35.41H43.65V37H46.48V38.19H43.65V41.02H42.29Z" fill="white"/>
<path d="M85.52 45.36L89.78 34.28H91.36L95.9 45.36H94.23L92.93 42H88.29L87.07 45.35H85.52V45.36ZM88.72 40.81H92.48L91.32 37.74C90.97 36.81 90.7 36.04 90.53 35.44C90.39 36.15 90.19 36.86 89.93 37.56L88.72 40.81Z" fill="white"/>
<path d="M104.56 34.28H106.03V40.68C106.03 41.79 105.9 42.68 105.65 43.33C105.4 43.98 104.94 44.52 104.28 44.93C103.62 45.34 102.76 45.55 101.69 45.55C100.65 45.55 99.8 45.37 99.14 45.01C98.48 44.65 98.01 44.13 97.73 43.46C97.45 42.78 97.31 41.86 97.31 40.68V34.28H98.78V40.67C98.78 41.63 98.87 42.34 99.05 42.8C99.23 43.26 99.54 43.61 99.97 43.85C100.41 44.1 100.94 44.22 101.57 44.22C102.65 44.22 103.42 43.98 103.88 43.49C104.34 43 104.57 42.06 104.57 40.67V34.28H104.56Z" fill="white"/>
<path d="M111.37 45.36V35.59H107.72V34.28H116.51V35.59H112.84V45.36H111.37Z" fill="white"/>
<path d="M117.28 39.96C117.28 38.12 117.77 36.68 118.76 35.64C119.75 34.6 121.02 34.08 122.59 34.08C123.61 34.08 124.54 34.32 125.36 34.81C126.18 35.3 126.81 35.98 127.24 36.85C127.67 37.72 127.89 38.72 127.89 39.82C127.89 40.94 127.66 41.95 127.21 42.83C126.76 43.72 126.11 44.39 125.28 44.84C124.45 45.3 123.55 45.52 122.59 45.52C121.55 45.52 120.61 45.27 119.79 44.76C118.97 44.26 118.35 43.57 117.92 42.7C117.49 41.86 117.28 40.94 117.28 39.96ZM118.79 39.99C118.79 41.32 119.15 42.38 119.87 43.14C120.59 43.9 121.49 44.29 122.57 44.29C123.67 44.29 124.58 43.9 125.3 43.13C126.01 42.35 126.37 41.25 126.37 39.83C126.37 38.93 126.22 38.14 125.91 37.47C125.6 36.8 125.16 36.28 124.57 35.91C123.98 35.54 123.32 35.35 122.59 35.35C121.55 35.35 120.66 35.71 119.91 36.42C119.16 37.13 118.79 38.32 118.79 39.99Z" fill="white"/>
<path d="M129.72 45.36V34.28H134.64C135.63 34.28 136.38 34.38 136.89 34.58C137.4 34.78 137.82 35.13 138.12 35.63C138.43 36.13 138.58 36.69 138.58 37.3C138.58 38.09 138.33 38.75 137.82 39.29C137.31 39.83 136.52 40.17 135.46 40.32C135.85 40.51 136.14 40.69 136.34 40.87C136.77 41.26 137.17 41.75 137.56 42.34L139.49 45.36H137.64L136.17 43.06C135.74 42.39 135.39 41.89 135.11 41.53C134.83 41.17 134.58 40.93 134.36 40.79C134.14 40.65 133.92 40.55 133.69 40.5C133.52 40.46 133.25 40.45 132.87 40.45H131.17V45.37H129.72V45.36ZM131.19 39.17H134.34C135.01 39.17 135.54 39.1 135.91 38.96C136.29 38.82 136.58 38.6 136.77 38.3C136.97 37.99 137.07 37.66 137.07 37.31C137.07 36.79 136.88 36.36 136.5 36.02C136.12 35.68 135.52 35.51 134.7 35.51H131.19V39.17Z" fill="white"/>
<path d="M141.21 45.36V34.28H142.68V45.36H141.21Z" fill="white"/>
<path d="M144.3 45.36V44L149.98 36.9C150.38 36.4 150.77 35.96 151.13 35.59H144.94V34.28H152.88V35.59L146.65 43.27L145.98 44.05H153.06V45.36H144.3Z" fill="white"/>
<path d="M153.14 45.36L157.4 34.28H158.98L163.52 45.36H161.85L160.55 42H155.91L154.69 45.35H153.14V45.36ZM156.34 40.81H160.1L158.94 37.74C158.59 36.81 158.32 36.04 158.15 35.44C158.01 36.15 157.81 36.86 157.55 37.56L156.34 40.81Z" fill="white"/>
<path d="M172.82 41.48L174.29 41.85C173.98 43.05 173.43 43.97 172.63 44.6C171.83 45.23 170.85 45.55 169.7 45.55C168.5 45.55 167.53 45.31 166.78 44.82C166.03 44.33 165.46 43.63 165.07 42.71C164.68 41.79 164.48 40.8 164.48 39.74C164.48 38.59 164.7 37.58 165.14 36.72C165.58 35.86 166.21 35.21 167.02 34.76C167.83 34.31 168.73 34.09 169.71 34.09C170.82 34.09 171.75 34.37 172.51 34.94C173.27 35.51 173.79 36.3 174.09 37.32L172.65 37.66C172.39 36.85 172.02 36.27 171.53 35.9C171.04 35.53 170.43 35.35 169.68 35.35C168.83 35.35 168.12 35.55 167.54 35.96C166.97 36.37 166.57 36.92 166.33 37.6C166.1 38.29 165.98 39 165.98 39.73C165.98 40.67 166.12 41.49 166.39 42.2C166.66 42.91 167.09 43.43 167.67 43.78C168.25 44.13 168.88 44.3 169.55 44.3C170.37 44.3 171.07 44.06 171.64 43.59C172.23 43.11 172.62 42.41 172.82 41.48ZM168.4 46.52L168.79 45.18H169.8L169.55 45.99C169.98 46.04 170.3 46.17 170.52 46.39C170.74 46.6 170.85 46.84 170.85 47.1C170.85 47.48 170.67 47.81 170.31 48.1C169.95 48.39 169.4 48.53 168.67 48.53C168.26 48.53 167.89 48.5 167.58 48.44L167.66 47.56C167.98 47.58 168.22 47.59 168.37 47.59C168.84 47.59 169.18 47.52 169.37 47.39C169.52 47.29 169.59 47.17 169.59 47.02C169.59 46.93 169.56 46.85 169.5 46.78C169.44 46.71 169.33 46.65 169.18 46.6C169.03 46.56 168.77 46.53 168.4 46.52Z" fill="white"/>
<path d="M174.96 45.36L179.22 34.28H180.8L185.34 45.36H183.67L182.37 42H177.73L176.51 45.35H174.96V45.36ZM177.62 33.6C177.62 33.08 177.76 32.66 178.05 32.35C178.34 32.04 178.71 31.88 179.15 31.88C179.46 31.88 179.89 32.02 180.43 32.29C180.73 32.44 180.96 32.52 181.14 32.52C181.3 32.52 181.42 32.48 181.51 32.39C181.6 32.3 181.66 32.13 181.69 31.86H182.67C182.65 32.43 182.51 32.86 182.23 33.15C181.95 33.44 181.61 33.58 181.18 33.58C180.86 33.58 180.44 33.44 179.92 33.16C179.58 32.98 179.34 32.89 179.18 32.89C179.01 32.89 178.87 32.95 178.76 33.07C178.65 33.19 178.6 33.37 178.6 33.61H177.62V33.6ZM178.16 40.81H181.92L180.76 37.74C180.41 36.81 180.14 36.04 179.97 35.44C179.83 36.15 179.63 36.86 179.37 37.56L178.16 40.81Z" fill="white"/>
<path d="M186.28 39.96C186.28 38.12 186.77 36.68 187.76 35.64C188.75 34.6 190.02 34.08 191.59 34.08C192.61 34.08 193.54 34.32 194.36 34.81C195.18 35.3 195.81 35.98 196.24 36.85C196.67 37.72 196.89 38.72 196.89 39.82C196.89 40.94 196.66 41.95 196.21 42.83C195.76 43.72 195.11 44.39 194.28 44.84C193.45 45.3 192.55 45.52 191.59 45.52C190.55 45.52 189.61 45.27 188.79 44.76C187.97 44.26 187.35 43.57 186.92 42.7C186.49 41.86 186.28 40.94 186.28 39.96ZM187.79 39.99C187.79 41.32 188.15 42.38 188.87 43.14C189.59 43.9 190.49 44.29 191.57 44.29C192.67 44.29 193.58 43.9 194.3 43.13C195.01 42.35 195.37 41.25 195.37 39.83C195.37 38.93 195.22 38.14 194.91 37.47C194.6 36.8 194.16 36.28 193.57 35.91C192.98 35.54 192.32 35.35 191.59 35.35C190.55 35.35 189.66 35.71 188.91 36.42C188.17 37.13 187.79 38.32 187.79 39.99Z" fill="white"/>
<path d="M86.74 62.95V51.87H90.56C91.42 51.87 92.08 51.92 92.53 52.03C93.17 52.18 93.71 52.44 94.16 52.82C94.74 53.31 95.18 53.94 95.47 54.71C95.76 55.48 95.91 56.36 95.91 57.34C95.91 58.18 95.81 58.93 95.61 59.58C95.41 60.23 95.16 60.77 94.85 61.19C94.54 61.61 94.21 61.95 93.84 62.19C93.47 62.43 93.03 62.62 92.52 62.75C92 62.88 91.41 62.94 90.74 62.94H86.74V62.95ZM88.2 61.64H90.57C91.3 61.64 91.87 61.57 92.29 61.44C92.71 61.3 93.04 61.11 93.28 60.87C93.63 60.52 93.9 60.06 94.09 59.47C94.28 58.88 94.38 58.17 94.38 57.34C94.38 56.18 94.19 55.29 93.81 54.67C93.43 54.05 92.97 53.63 92.42 53.42C92.03 53.27 91.39 53.19 90.52 53.19H88.2V61.64Z" fill="white"/>
<path d="M98.03 62.95V51.87H106.05V53.18H99.5V56.57H105.63V57.87H99.5V61.64H106.31V62.95H98.03Z" fill="white"/>
<path d="M113.03 62.95V51.87H114.5V62.95H113.03Z" fill="white"/>
<path d="M116.96 62.95V51.87H119.17L121.8 59.71C122.04 60.44 122.22 60.99 122.33 61.35C122.46 60.95 122.65 60.36 122.92 59.57L125.58 51.86H127.55V62.94H126.14V53.67L122.92 62.94H121.6L118.39 53.51V62.94H116.96V62.95Z" fill="white"/>
<path d="M129.7 62.95V51.87H133.88C134.62 51.87 135.18 51.91 135.57 51.98C136.11 52.07 136.57 52.24 136.94 52.5C137.31 52.75 137.6 53.11 137.83 53.57C138.05 54.03 138.17 54.53 138.17 55.08C138.17 56.02 137.87 56.82 137.27 57.47C136.67 58.12 135.59 58.45 134.02 58.45H131.18V62.95H129.7ZM131.16 57.13H134.03C134.98 57.13 135.65 56.95 136.05 56.6C136.45 56.25 136.65 55.75 136.65 55.11C136.65 54.65 136.53 54.25 136.3 53.92C136.07 53.59 135.76 53.37 135.37 53.27C135.12 53.2 134.67 53.17 134 53.17H131.16V57.13Z" fill="white"/>
<path d="M139.8 57.55C139.8 55.71 140.29 54.27 141.28 53.23C142.27 52.19 143.54 51.67 145.11 51.67C146.13 51.67 147.06 51.91 147.88 52.4C148.7 52.89 149.33 53.57 149.76 54.44C150.19 55.31 150.41 56.31 150.41 57.41C150.41 58.53 150.18 59.54 149.73 60.42C149.28 61.31 148.63 61.98 147.8 62.43C146.97 62.88 146.07 63.11 145.11 63.11C144.07 63.11 143.13 62.86 142.31 62.36C141.49 61.86 140.87 61.17 140.44 60.3C140.01 59.44 139.8 58.52 139.8 57.55ZM141.31 57.57C141.31 58.9 141.67 59.96 142.39 60.72C143.11 61.48 144.01 61.87 145.09 61.87C146.19 61.87 147.1 61.48 147.82 60.71C148.53 59.93 148.89 58.83 148.89 57.41C148.89 56.51 148.74 55.72 148.43 55.05C148.12 54.38 147.68 53.86 147.09 53.49C146.5 53.12 145.84 52.94 145.11 52.94C144.07 52.94 143.18 53.3 142.43 54.01C141.68 54.72 141.31 55.91 141.31 57.57Z" fill="white"/>
<path d="M152.24 62.95V51.87H157.16C158.15 51.87 158.9 51.97 159.41 52.17C159.92 52.37 160.34 52.72 160.64 53.22C160.94 53.72 161.1 54.28 161.1 54.89C161.1 55.68 160.85 56.34 160.34 56.88C159.83 57.42 159.04 57.76 157.98 57.91C158.37 58.1 158.66 58.28 158.86 58.46C159.29 58.85 159.69 59.34 160.08 59.93L162.01 62.94H160.16L158.69 60.64C158.26 59.97 157.91 59.47 157.63 59.11C157.35 58.75 157.1 58.51 156.88 58.37C156.66 58.23 156.44 58.13 156.21 58.08C156.04 58.04 155.77 58.03 155.39 58.03H153.69V62.95H152.24ZM153.71 56.76H156.86C157.53 56.76 158.06 56.69 158.43 56.55C158.81 56.41 159.1 56.19 159.29 55.88C159.49 55.58 159.59 55.24 159.59 54.89C159.59 54.37 159.4 53.93 159.02 53.6C158.64 53.26 158.04 53.09 157.22 53.09H153.71V56.76Z" fill="white"/>
<path d="M165.61 62.95V53.18H161.96V51.87H170.75V53.18H167.08V62.95H165.61Z" fill="white"/>
<path d="M170.03 62.95L174.29 51.87H175.87L180.41 62.95H178.74L177.45 59.6H172.81L171.59 62.95H170.03ZM173.23 58.4H176.99L175.83 55.33C175.48 54.4 175.21 53.63 175.04 53.03C174.9 53.74 174.7 54.45 174.44 55.15L173.23 58.4Z" fill="white"/>
<path d="M189.71 59.06L191.18 59.43C190.87 60.63 190.32 61.55 189.52 62.18C188.72 62.81 187.74 63.13 186.59 63.13C185.39 63.13 184.42 62.89 183.67 62.4C182.92 61.91 182.35 61.21 181.96 60.29C181.57 59.37 181.37 58.38 181.37 57.32C181.37 56.17 181.59 55.16 182.03 54.3C182.47 53.44 183.1 52.79 183.91 52.34C184.72 51.89 185.62 51.67 186.6 51.67C187.71 51.67 188.64 51.95 189.4 52.52C190.16 53.09 190.68 53.88 190.98 54.9L189.54 55.24C189.28 54.43 188.91 53.85 188.42 53.48C187.93 53.11 187.32 52.93 186.57 52.93C185.72 52.93 185.01 53.13 184.43 53.54C183.86 53.95 183.46 54.5 183.22 55.18C182.99 55.87 182.87 56.58 182.87 57.31C182.87 58.25 183.01 59.07 183.28 59.78C183.55 60.48 183.98 61.01 184.56 61.36C185.14 61.71 185.77 61.88 186.44 61.88C187.26 61.88 187.96 61.64 188.53 61.17C189.1 60.7 189.51 59.99 189.71 59.06ZM185.29 64.11L185.68 62.77H186.69L186.44 63.58C186.87 63.63 187.19 63.76 187.41 63.98C187.63 64.2 187.74 64.43 187.74 64.69C187.74 65.07 187.56 65.4 187.2 65.69C186.84 65.98 186.29 66.12 185.56 66.12C185.15 66.12 184.78 66.09 184.47 66.03L184.55 65.15C184.87 65.17 185.11 65.18 185.26 65.18C185.73 65.18 186.07 65.11 186.26 64.98C186.41 64.88 186.48 64.76 186.48 64.61C186.48 64.52 186.45 64.44 186.39 64.37C186.33 64.3 186.22 64.24 186.07 64.19C185.91 64.14 185.65 64.11 185.29 64.11Z" fill="white"/>
<path d="M191.84 62.95L196.1 51.87H197.68L202.22 62.95H200.55L199.26 59.6H194.62L193.4 62.95H191.84ZM194.51 51.19C194.51 50.67 194.65 50.25 194.94 49.94C195.23 49.63 195.6 49.47 196.04 49.47C196.35 49.47 196.78 49.61 197.32 49.88C197.62 50.03 197.85 50.11 198.03 50.11C198.19 50.11 198.31 50.07 198.4 49.98C198.49 49.89 198.55 49.72 198.58 49.45H199.56C199.54 50.02 199.4 50.45 199.12 50.74C198.84 51.03 198.5 51.17 198.07 51.17C197.75 51.17 197.33 51.03 196.81 50.75C196.47 50.57 196.23 50.48 196.07 50.48C195.9 50.48 195.76 50.54 195.65 50.66C195.54 50.78 195.49 50.96 195.49 51.2H194.51V51.19ZM195.04 58.4H198.8L197.64 55.33C197.29 54.4 197.02 53.63 196.85 53.03C196.71 53.74 196.51 54.45 196.25 55.15L195.04 58.4Z" fill="white"/>
<path d="M203.17 57.55C203.17 55.71 203.66 54.27 204.65 53.23C205.64 52.19 206.91 51.67 208.48 51.67C209.5 51.67 210.43 51.91 211.25 52.4C212.07 52.89 212.7 53.57 213.13 54.44C213.56 55.31 213.78 56.31 213.78 57.41C213.78 58.53 213.55 59.54 213.1 60.42C212.65 61.31 212 61.98 211.17 62.43C210.34 62.88 209.44 63.11 208.48 63.11C207.44 63.11 206.5 62.86 205.68 62.36C204.86 61.86 204.23 61.17 203.81 60.3C203.38 59.44 203.17 58.52 203.17 57.55ZM204.68 57.57C204.68 58.9 205.04 59.96 205.76 60.72C206.48 61.48 207.38 61.87 208.46 61.87C209.56 61.87 210.47 61.48 211.19 60.71C211.9 59.93 212.26 58.83 212.26 57.41C212.26 56.51 212.11 55.72 211.8 55.05C211.49 54.38 211.05 53.86 210.46 53.49C209.87 53.12 209.21 52.94 208.48 52.94C207.44 52.94 206.55 53.3 205.8 54.01C205.05 54.72 204.68 55.91 204.68 57.57Z" fill="white"/>
<path fill-rule="evenodd" clip-rule="evenodd" d="M329.05 55.39C325.68 56.01 326.36 60.01 326.36 63.16C326.36 67.04 326.42 69.11 328.71 71.41C330.95 73.68 332.42 74.1 336.56 74.07H368.36C371.96 74.07 374.54 74.13 376.81 72C378.94 70.04 379.76 68.34 379.76 64.35C379.76 60.86 380.41 56.89 378 55.68C376.47 54.91 375.08 55.45 374.17 56.39C372.38 58.23 373.74 63.42 373.21 66.06C372.84 67.73 371.28 67.62 369.55 67.62H337.72C332.16 67.62 332.87 67.39 332.87 62.01C332.87 60.56 333.1 58.24 332.47 57.05C331.91 56.01 330.63 55.11 329.05 55.39ZM349.8 50.12C349.2 49.81 346.14 46.15 345.52 45.56C344.1 44.26 343.51 43.32 342.74 42.64C341.92 41.9 340.13 39.78 337.69 41.73C334.37 44.37 338.82 47.82 339.59 48.73C342.65 52.3 347.22 56.78 350.39 60.3C353.22 63.45 355.21 60.73 356.26 59.7C356.69 59.3 356.88 59.19 357.28 58.76L368.08 47.17C371.11 44.28 369.1 40.71 366.04 40.99C364.88 41.1 364.37 41.64 363.63 42.32C363.01 42.94 362.47 43.62 361.87 44.3L356.31 50.08V28.2C356.31 26.13 355.66 24 353.05 24C350.61 24 349.79 25.84 349.82 28.2C349.85 34.95 350.02 43.8 349.8 50.12Z" fill="white"/>
<path fill-rule="evenodd" clip-rule="evenodd" d="M8.9 0H390.95C395.85 0 399.88 4.03 399.88 8.9V89.18C399.88 94.08 395.85 98.08 390.95 98.08H8.9C4.02 98.08 0 94.08 0 89.18V8.9C0 4.03 4.03 0 8.9 0ZM8.9 2.35H390.95C394.58 2.35 397.53 5.3 397.53 8.9V89.18C397.53 92.78 394.58 95.73 390.95 95.73H8.9C5.3 95.73 2.35 92.78 2.35 89.18V8.9C2.35 5.3 5.3 2.35 8.9 2.35Z" fill="#E5E6E7"/>
</g>
<defs>
<clipPath id="clip0_117_106">
<rect width="400" height="99" fill="white"/>
</clipPath>
</defs>
</svg>
