<svg width="400" height="99" viewBox="0 0 400 99" fill="none" xmlns="http://www.w3.org/2000/svg">
<g clip-path="url(#clip0_117_158)">
<path fill-rule="evenodd" clip-rule="evenodd" d="M8.90001 4.71H390.95C393.27 4.71 395.17 6.61 395.17 8.91V89.19C395.17 91.51 393.27 93.41 390.95 93.41H8.90001C6.60001 93.41 4.70001 91.51 4.70001 89.19V8.9C4.71001 6.6 6.60001 4.71 8.90001 4.71Z" fill="#2D8A7A"/>
<path fill-rule="evenodd" clip-rule="evenodd" d="M310.96 4.71H390.95C393.27 4.71 395.17 6.61 395.17 8.91V89.19C395.17 91.51 393.27 93.41 390.95 93.41H310.96V4.71Z" fill="#419687"/>
<path fill-rule="evenodd" clip-rule="evenodd" d="M27.3 22.62H54.06L66.16 34.75V73.24C66.16 74.49 65.11 75.45 63.86 75.45H27.3C26.08 75.45 25.03 74.49 25.03 73.24V24.92C25.03 23.7 26.08 22.62 27.3 22.62Z" fill="white"/>
<path d="M63.86 75.67H27.3C25.93 75.67 24.82 74.58 24.82 73.25V24.92C24.82 23.58 25.98 22.41 27.3 22.41H54.06C54.12 22.41 54.17 22.43 54.21 22.47L66.31 34.6C66.35 34.64 66.37 34.69 66.37 34.75V73.24C66.37 74.58 65.25 75.67 63.86 75.67ZM27.3 22.83C26.21 22.83 25.24 23.8 25.24 24.91V73.24C25.24 74.34 26.16 75.24 27.3 75.24H63.87C65.02 75.24 65.95 74.34 65.95 73.24V34.84L53.97 22.83H27.3Z" fill="#007D6F"/>
<path fill-rule="evenodd" clip-rule="evenodd" d="M54.26 22.82V32.74C54.26 33.79 55.14 34.58 56.41 34.58H65.96L54.26 22.82Z" fill="#007D6F"/>
<path fill-rule="evenodd" clip-rule="evenodd" d="M32.91 51.56H58.25C58.87 51.56 59.36 52.04 59.36 52.67C59.36 53.35 58.88 53.83 58.25 53.83H32.91C32.31 53.83 31.8 53.35 31.8 52.67C31.8 52.04 32.31 51.56 32.91 51.56Z" fill="#007D6F"/>
<path fill-rule="evenodd" clip-rule="evenodd" d="M32.91 58.59H58.25C58.87 58.59 59.36 59.07 59.36 59.7C59.36 60.38 58.88 60.86 58.25 60.86H32.91C32.31 60.86 31.8 60.38 31.8 59.7C31.8 59.07 32.31 58.59 32.91 58.59Z" fill="#007D6F"/>
<path fill-rule="evenodd" clip-rule="evenodd" d="M32.91 65.59H58.25C58.87 65.59 59.36 66.1 59.36 66.72C59.36 67.37 58.88 67.88 58.25 67.88H32.91C32.31 67.88 31.8 67.37 31.8 66.72C31.8 66.1 32.31 65.59 32.91 65.59Z" fill="#007D6F"/>
<path fill-rule="evenodd" clip-rule="evenodd" d="M25.03 31.95H50.29C50.74 31.95 51.03 32.32 51.03 32.74V42.55C51.03 42.98 50.75 43.29 50.29 43.29H25.03V31.95Z" fill="#007D6F"/>
<path fill-rule="evenodd" clip-rule="evenodd" d="M21.77 35.6V45.95C22.42 44.48 23.44 43.54 25.03 43.29L25.09 31.95C23.36 32 21.77 33.99 21.77 35.6Z" fill="#007D6F"/>
<path fill-rule="evenodd" clip-rule="evenodd" d="M21.77 45.95V47.57C21.77 48.53 23.19 50.66 25.03 50.66V43.29C23.44 43.54 22.42 44.48 21.77 45.95Z" fill="#007D6F"/>
<path d="M29.23 41.02V34.3H31.38C32.26 34.3 32.71 34.3 33 34.36C33.43 34.47 33.74 34.73 33.96 35.04C34.22 35.41 34.33 35.83 34.33 36.34C34.33 36.77 34.27 37.13 34.13 37.39C33.96 37.67 33.79 37.87 33.59 38.04C33.36 38.24 33.11 38.3 32.85 38.35C32.54 38.41 32.06 38.49 31.43 38.49H30.55V41.01H29.23V41.02ZM30.56 35.4V37.3H31.33C31.87 37.3 32.18 37.3 32.35 37.24C32.55 37.1 32.72 37.04 32.8 36.87C32.91 36.73 33 36.56 33 36.36C33 36.13 32.91 35.88 32.74 35.76C32.63 35.59 32.43 35.5 32.17 35.45C32.06 35.39 31.74 35.39 31.23 35.39H30.56V35.4ZM35.52 34.3H37.96C38.53 34.3 38.95 34.3 39.26 34.41C39.63 34.52 39.94 34.72 40.25 35.03C40.56 35.31 40.76 35.68 40.85 36.14C41.05 36.57 41.13 37.08 41.13 37.67C41.13 38.24 41.04 38.72 40.93 39.14C40.73 39.65 40.48 40.02 40.19 40.33C39.93 40.56 39.62 40.76 39.25 40.9C38.97 40.93 38.51 41.01 38.03 41.01H35.51V34.3H35.52ZM36.85 35.4V39.91H37.84C38.24 39.91 38.52 39.82 38.66 39.77C38.89 39.77 39.09 39.63 39.23 39.51C39.43 39.4 39.54 39.14 39.6 38.86C39.71 38.6 39.71 38.18 39.71 37.61C39.71 37.1 39.71 36.67 39.6 36.45C39.51 36.14 39.34 35.97 39.2 35.77C39.03 35.63 38.83 35.51 38.6 35.46C38.4 35.46 38.03 35.4 37.47 35.4H36.85ZM42.29 41.02V34.3H46.91V35.41H43.65V37H46.48V38.19H43.65V41.02H42.29Z" fill="white"/>
<path d="M89.56 46.06V36.29H85.9V34.98H94.69V36.29H91.02V46.06H89.56Z" fill="white"/>
<path d="M95.93 46.06V34.99H103.95V36.3H97.4V39.69H103.53V40.99H97.4V44.76H104.21V46.07H95.93V46.06Z" fill="white"/>
<path d="M106.48 46.06V34.99H111.4C112.39 34.99 113.14 35.09 113.65 35.29C114.16 35.49 114.58 35.84 114.88 36.34C115.19 36.84 115.34 37.4 115.34 38.01C115.34 38.8 115.09 39.46 114.58 40C114.07 40.54 113.28 40.88 112.22 41.03C112.61 41.22 112.9 41.4 113.1 41.58C113.53 41.97 113.93 42.46 114.32 43.05L116.25 46.07H114.4L112.93 43.77C112.5 43.1 112.15 42.6 111.87 42.24C111.59 41.88 111.34 41.64 111.12 41.5C110.9 41.36 110.68 41.26 110.45 41.21C110.28 41.17 110.01 41.16 109.63 41.16H107.93V46.08H106.48V46.06ZM107.95 39.87H111.1C111.77 39.87 112.3 39.8 112.67 39.66C113.05 39.52 113.34 39.3 113.53 38.99C113.73 38.69 113.83 38.35 113.83 38C113.83 37.48 113.64 37.04 113.26 36.71C112.88 36.37 112.28 36.2 111.46 36.2H107.95V39.87Z" fill="white"/>
<path d="M117.68 46.06V34.99H119.89L122.52 42.83C122.76 43.56 122.94 44.11 123.05 44.47C123.18 44.07 123.37 43.47 123.64 42.69L126.3 34.98H128.27V46.06H126.86V36.79L123.64 46.06H122.32L119.11 36.63V46.06H117.68Z" fill="white"/>
<path d="M129.96 40.67C129.96 38.83 130.45 37.39 131.44 36.35C132.43 35.31 133.7 34.79 135.27 34.79C136.29 34.79 137.22 35.04 138.04 35.52C138.86 36.01 139.49 36.69 139.92 37.56C140.35 38.43 140.57 39.43 140.57 40.53C140.57 41.65 140.34 42.66 139.89 43.54C139.44 44.43 138.79 45.1 137.96 45.55C137.13 46 136.23 46.23 135.27 46.23C134.23 46.23 133.29 45.98 132.47 45.47C131.65 44.97 131.03 44.28 130.6 43.41C130.18 42.56 129.96 41.64 129.96 40.67ZM131.48 40.69C131.48 42.02 131.84 43.08 132.56 43.85C133.28 44.62 134.18 45 135.26 45C136.36 45 137.27 44.61 137.99 43.84C138.7 43.06 139.06 41.96 139.06 40.54C139.06 39.64 138.91 38.85 138.6 38.18C138.29 37.51 137.85 36.99 137.26 36.62C136.67 36.25 136.01 36.07 135.28 36.07C134.24 36.07 133.35 36.43 132.6 37.14C131.85 37.83 131.48 39.02 131.48 40.69Z" fill="white"/>
<path d="M146.61 46.06V34.99H150.43C151.29 34.99 151.95 35.04 152.4 35.15C153.04 35.3 153.58 35.56 154.03 35.94C154.61 36.43 155.05 37.07 155.34 37.83C155.63 38.6 155.78 39.48 155.78 40.46C155.78 41.3 155.68 42.05 155.48 42.7C155.28 43.35 155.03 43.89 154.72 44.31C154.41 44.73 154.08 45.07 153.71 45.31C153.34 45.55 152.9 45.74 152.39 45.86C151.87 45.99 151.28 46.05 150.61 46.05H146.61V46.06ZM148.08 44.76H150.45C151.18 44.76 151.75 44.69 152.17 44.56C152.59 44.42 152.92 44.23 153.16 43.99C153.51 43.64 153.78 43.18 153.97 42.59C154.16 42 154.26 41.29 154.26 40.46C154.26 39.3 154.07 38.41 153.69 37.79C153.31 37.17 152.85 36.75 152.3 36.54C151.91 36.39 151.27 36.31 150.4 36.31H148.07V44.76H148.08Z" fill="white"/>
<path d="M157.91 46.06V34.99H165.93V36.3H159.38V39.69H165.51V40.99H159.38V44.76H166.19V46.07H157.91V46.06Z" fill="white"/>
<path d="M94.65 59.06L96.12 59.43C95.81 60.63 95.26 61.55 94.46 62.18C93.66 62.81 92.68 63.13 91.53 63.13C90.33 63.13 89.36 62.89 88.61 62.4C87.86 61.91 87.29 61.21 86.9 60.29C86.51 59.37 86.31 58.38 86.31 57.32C86.31 56.17 86.53 55.16 86.97 54.3C87.41 53.44 88.04 52.79 88.85 52.34C89.66 51.89 90.56 51.67 91.54 51.67C92.65 51.67 93.58 51.95 94.34 52.52C95.1 53.09 95.62 53.88 95.92 54.9L94.48 55.24C94.22 54.43 93.85 53.85 93.36 53.48C92.87 53.11 92.26 52.93 91.51 52.93C90.66 52.93 89.95 53.13 89.37 53.54C88.8 53.95 88.4 54.5 88.16 55.18C87.93 55.87 87.81 56.58 87.81 57.31C87.81 58.25 87.95 59.07 88.22 59.78C88.49 60.48 88.92 61.01 89.5 61.36C90.08 61.71 90.71 61.88 91.38 61.88C92.2 61.88 92.9 61.64 93.47 61.17C94.04 60.7 94.45 59.99 94.65 59.06Z" fill="white"/>
<path d="M97.56 57.55C97.56 55.71 98.05 54.27 99.04 53.23C100.03 52.19 101.3 51.67 102.87 51.67C103.89 51.67 104.82 51.91 105.64 52.4C106.46 52.89 107.09 53.57 107.52 54.44C107.95 55.31 108.17 56.31 108.17 57.41C108.17 58.53 107.94 59.54 107.49 60.42C107.04 61.31 106.39 61.98 105.56 62.43C104.73 62.88 103.83 63.11 102.87 63.11C101.83 63.11 100.89 62.86 100.07 62.36C99.25 61.86 98.63 61.17 98.2 60.3C97.77 59.44 97.56 58.52 97.56 57.55ZM99.07 57.57C99.07 58.9 99.43 59.96 100.15 60.72C100.87 61.48 101.77 61.87 102.85 61.87C103.95 61.87 104.86 61.48 105.58 60.71C106.29 59.93 106.65 58.83 106.65 57.41C106.65 56.51 106.5 55.72 106.19 55.05C105.88 54.38 105.44 53.86 104.85 53.49C104.26 53.12 103.6 52.94 102.87 52.94C101.83 52.94 100.94 53.3 100.19 54.01C99.44 54.72 99.07 55.91 99.07 57.57Z" fill="white"/>
<path d="M109.96 62.95V51.87H111.47L117.3 60.57V51.87H118.71V62.95H117.2L111.38 54.24V62.95H109.96Z" fill="white"/>
<path d="M120.74 59.39L122.12 59.27C122.19 59.82 122.34 60.28 122.58 60.63C122.82 60.99 123.19 61.27 123.7 61.49C124.2 61.71 124.77 61.82 125.4 61.82C125.96 61.82 126.45 61.74 126.88 61.57C127.31 61.4 127.63 61.18 127.84 60.89C128.05 60.6 128.15 60.28 128.15 59.94C128.15 59.59 128.05 59.29 127.85 59.03C127.65 58.77 127.32 58.55 126.85 58.38C126.55 58.26 125.89 58.08 124.88 57.84C123.86 57.59 123.15 57.36 122.74 57.15C122.21 56.87 121.82 56.53 121.56 56.12C121.3 55.71 121.17 55.25 121.17 54.74C121.17 54.18 121.33 53.66 121.65 53.17C121.97 52.68 122.43 52.31 123.04 52.06C123.65 51.81 124.33 51.68 125.07 51.68C125.89 51.68 126.62 51.81 127.25 52.08C127.88 52.34 128.36 52.73 128.7 53.25C129.04 53.76 129.22 54.35 129.24 55L127.83 55.11C127.75 54.41 127.5 53.88 127.06 53.52C126.62 53.16 125.98 52.98 125.13 52.98C124.24 52.98 123.6 53.14 123.19 53.47C122.78 53.79 122.58 54.19 122.58 54.64C122.58 55.04 122.72 55.37 123.01 55.62C123.29 55.88 124.03 56.14 125.22 56.41C126.41 56.68 127.23 56.91 127.68 57.12C128.33 57.42 128.8 57.79 129.11 58.25C129.42 58.71 129.57 59.23 129.57 59.83C129.57 60.42 129.4 60.97 129.06 61.5C128.72 62.03 128.24 62.43 127.6 62.72C126.97 63.01 126.25 63.15 125.46 63.15C124.46 63.15 123.62 63 122.94 62.71C122.26 62.42 121.73 61.98 121.34 61.39C120.96 60.79 120.76 60.13 120.74 59.39Z" fill="white"/>
<path d="M131.82 62.95V51.87H139.84V53.18H133.29V56.57H139.42V57.87H133.29V61.64H140.1V62.95H131.82Z" fill="white"/>
<path d="M142.33 62.95V51.87H143.84L149.67 60.57V51.87H151.08V62.95H149.57L143.75 54.24V62.95H142.33Z" fill="white"/>
<path d="M156.43 62.95V53.18H152.78V51.87H161.57V53.18H157.9V62.95H156.43Z" fill="white"/>
<path d="M163.03 62.95V51.87H164.5V62.95H163.03Z" fill="white"/>
<path d="M166.96 62.95V51.87H169.17L171.8 59.71C172.04 60.44 172.22 60.99 172.33 61.35C172.46 60.95 172.65 60.36 172.92 59.57L175.58 51.86H177.55V62.94H176.14V53.67L172.92 62.94H171.6L168.39 53.51V62.94H166.96V62.95Z" fill="white"/>
<path d="M179.72 62.95V51.87H187.74V53.18H181.19V56.57H187.32V57.87H181.19V61.64H188V62.95H179.72Z" fill="white"/>
<path d="M190.23 62.95V51.87H191.74L197.57 60.57V51.87H198.98V62.95H197.47L191.65 54.24V62.95H190.23Z" fill="white"/>
<path d="M204.33 62.95V53.18H200.68V51.87H209.47V53.18H205.8V62.95H204.33Z" fill="white"/>
<path d="M210.23 57.55C210.23 55.71 210.72 54.27 211.71 53.23C212.7 52.19 213.97 51.67 215.54 51.67C216.56 51.67 217.49 51.91 218.31 52.4C219.13 52.89 219.76 53.57 220.19 54.44C220.62 55.31 220.84 56.31 220.84 57.41C220.84 58.53 220.61 59.54 220.16 60.42C219.71 61.31 219.06 61.98 218.23 62.43C217.4 62.88 216.5 63.11 215.54 63.11C214.5 63.11 213.56 62.86 212.74 62.36C211.92 61.86 211.29 61.17 210.87 60.3C210.44 59.44 210.23 58.52 210.23 57.55ZM211.75 57.57C211.75 58.9 212.11 59.96 212.83 60.72C213.55 61.48 214.45 61.87 215.53 61.87C216.63 61.87 217.54 61.48 218.26 60.71C218.97 59.93 219.33 58.83 219.33 57.41C219.33 56.51 219.18 55.72 218.87 55.05C218.56 54.38 218.12 53.86 217.53 53.49C216.94 53.12 216.28 52.94 215.55 52.94C214.51 52.94 213.62 53.3 212.87 54.01C212.12 54.72 211.75 55.91 211.75 57.57Z" fill="white"/>
<path fill-rule="evenodd" clip-rule="evenodd" d="M329.05 55.39C325.68 56.01 326.36 60.01 326.36 63.16C326.36 67.04 326.42 69.11 328.71 71.41C330.95 73.68 332.42 74.1 336.56 74.07H368.36C371.96 74.07 374.54 74.13 376.81 72C378.94 70.04 379.76 68.34 379.76 64.35C379.76 60.86 380.41 56.89 378 55.68C376.47 54.91 375.08 55.45 374.17 56.39C372.38 58.23 373.74 63.42 373.21 66.06C372.84 67.73 371.28 67.62 369.55 67.62H337.72C332.16 67.62 332.87 67.39 332.87 62.01C332.87 60.56 333.1 58.24 332.47 57.05C331.91 56.01 330.63 55.11 329.05 55.39ZM349.8 50.12C349.2 49.81 346.14 46.15 345.52 45.56C344.1 44.26 343.51 43.32 342.74 42.64C341.92 41.9 340.13 39.78 337.69 41.73C334.37 44.37 338.82 47.82 339.59 48.73C342.65 52.3 347.22 56.78 350.39 60.3C353.22 63.45 355.21 60.73 356.26 59.7C356.69 59.3 356.88 59.19 357.28 58.76L368.08 47.17C371.11 44.28 369.1 40.71 366.04 40.99C364.88 41.1 364.37 41.64 363.63 42.32C363.01 42.94 362.47 43.62 361.87 44.3L356.31 50.08V28.2C356.31 26.13 355.66 24 353.05 24C350.61 24 349.79 25.84 349.82 28.2C349.85 34.95 350.02 43.8 349.8 50.12Z" fill="white"/>
<path fill-rule="evenodd" clip-rule="evenodd" d="M8.9 0H390.95C395.85 0 399.88 4.03 399.88 8.9V89.18C399.88 94.08 395.85 98.08 390.95 98.08H8.9C4.02 98.08 0 94.08 0 89.18V8.9C0 4.03 4.03 0 8.9 0ZM8.9 2.35H390.95C394.58 2.35 397.53 5.3 397.53 8.9V89.18C397.53 92.78 394.58 95.73 390.95 95.73H8.9C5.3 95.73 2.35 92.78 2.35 89.18V8.9C2.35 5.3 5.3 2.35 8.9 2.35Z" fill="#E5E6E7"/>
</g>
<defs>
<clipPath id="clip0_117_158">
<rect width="399.88" height="98.08" fill="white"/>
</clipPath>
</defs>
</svg>
