<?xml version="1.0" encoding="utf-8"?>
<svg viewBox="447.597 234.992 14 14" xmlns="http://www.w3.org/2000/svg">
  <path d="M 447.597 237.674 C 447.597 236.193 448.797 234.992 450.278 234.992 L 458.915 234.992 C 460.396 234.992 461.597 236.193 461.597 237.674 L 461.597 246.31 C 461.597 247.791 460.396 248.992 458.915 248.992 L 450.278 248.992 C 448.797 248.992 447.597 247.791 447.597 246.31 L 447.597 237.674 Z M 458.45 239.846 C 458.645 239.65 458.645 239.334 458.45 239.139 C 458.255 238.943 457.938 238.943 457.743 239.139 L 453.097 243.785 L 451.45 242.139 C 451.255 241.943 450.938 241.943 450.743 242.139 C 450.548 242.334 450.548 242.65 450.743 242.846 L 452.743 244.846 C 452.938 245.041 453.255 245.041 453.45 244.846 L 458.45 239.846 Z" style="fill: rgb(78, 185, 169);"/>
</svg>