<svg width="500" height="502" viewBox="0 0 500 502" fill="none" xmlns="http://www.w3.org/2000/svg">
<g clip-path="url(#clip0_120_2)">
<path fill-rule="evenodd" clip-rule="evenodd" d="M249.034 2.05686C239.773 2.07599 230.627 2.58304 221.529 3.57798C212.45 4.57293 203.429 6.06536 194.388 8.07439C191.537 8.85887 190.007 10.7627 189.576 12.8482C189.394 13.7667 189.404 14.7329 189.614 15.6418C189.825 16.5506 190.217 17.4212 190.791 18.177C192.073 19.8703 194.264 20.9322 197.153 20.4252C217.846 15.8905 238.329 14.0537 258.715 14.9051C279.083 15.747 299.336 19.258 319.589 25.419C322.689 26.2609 325.004 25.2373 326.353 23.477C326.889 22.7786 327.281 21.9559 327.52 21.0853C327.75 20.2147 327.826 19.2963 327.731 18.4066C327.482 16.1679 326.114 14.0919 323.425 13.3553L323.378 13.3361C311.046 9.58595 298.915 6.78287 286.641 4.90777C274.357 3.03268 261.939 2.08556 249.034 2.05686ZM221.319 1.53068C230.465 0.526168 239.677 0.0286928 249.034 -7.62939e-06C262.073 0.0382597 274.587 0.985375 286.947 2.87004C299.298 4.7547 311.524 7.58648 323.98 11.3749C327.606 12.3699 329.443 15.173 329.778 18.1865C329.902 19.3345 329.807 20.5113 329.51 21.621C329.204 22.7403 328.697 23.8118 327.989 24.7302C326.162 27.1028 323.091 28.5091 319.044 27.4089L319.015 27.3994C298.925 21.2862 278.835 17.7943 258.629 16.9524C238.434 16.1201 218.123 17.9378 197.583 22.4438H197.555C193.776 23.1326 190.868 21.6976 189.146 19.4206C188.399 18.4353 187.883 17.2968 187.605 16.101C187.337 14.9051 187.318 13.6519 187.557 12.4464C188.131 9.65292 190.131 7.11771 193.843 6.09406L193.929 6.06536C203.056 4.03719 212.163 2.5352 221.319 1.53068ZM130.683 46.4374C133.314 44.8588 134.136 42.4767 133.782 40.2668C133.648 39.3962 133.323 38.5447 132.854 37.7698L132.826 37.7124C132.366 36.9662 131.773 36.2965 131.075 35.7608C129.295 34.4023 126.827 33.9814 124.311 35.4929L124.254 35.5216C122.139 36.7366 119.996 38.0281 117.834 39.377C115.634 40.7451 113.529 42.1036 111.492 43.4429C109.119 45.031 108.373 47.3749 108.727 49.537C108.87 50.4459 109.215 51.326 109.703 52.1105C110.2 52.8854 110.841 53.5646 111.597 54.0813C113.376 55.2962 115.844 55.5641 118.504 53.9952C120.494 52.6654 122.513 51.3738 124.531 50.111C126.512 48.8769 128.568 47.6523 130.683 46.4374ZM135.82 39.9511C136.289 42.9263 135.208 46.1121 131.735 48.1977L131.716 48.2072C129.726 49.3552 127.688 50.5798 125.622 51.8617C123.594 53.1246 121.594 54.4065 119.633 55.7076L119.595 55.7363C116.131 57.8123 112.85 57.4201 110.439 55.7842C109.444 55.1049 108.602 54.2152 107.961 53.2011C107.33 52.1966 106.89 51.0486 106.699 49.8719C106.22 46.9635 107.206 43.8352 110.344 41.7401C112.515 40.305 114.658 38.9274 116.744 37.6263C118.829 36.3252 120.991 35.0337 123.23 33.7422L123.249 33.7326C126.607 31.714 129.917 32.2976 132.328 34.1249C133.227 34.8137 133.993 35.6747 134.586 36.6505L134.624 36.7079C135.217 37.6933 135.638 38.803 135.82 39.9511ZM84.9819 80.8971C87.1823 78.6967 87.4119 76.1806 86.5413 74.1333C86.1969 73.3201 85.6803 72.5644 85.0393 71.933C84.4079 71.292 83.6521 70.7754 82.8294 70.4214C80.7629 69.5317 78.2756 69.7134 76.2283 71.7607L76.1613 71.8181C68.5461 79.1463 64.7194 85.5083 64.1454 89.4498C63.9636 90.6935 64.1167 91.6119 64.5854 92.1477C65.0351 92.6547 65.8578 92.8747 67.0345 92.7408C70.6412 92.3199 76.7544 88.7897 84.9819 80.8971ZM88.4355 73.3297C89.6123 76.1041 89.3348 79.462 86.4456 82.3512L86.4265 82.3704C77.8355 90.617 71.2726 94.3289 67.2737 94.7881C65.3795 95.0081 63.954 94.5394 63.0452 93.5061C62.1555 92.5016 61.8302 91.0092 62.0981 89.1437C62.739 84.829 66.7667 77.9983 74.7263 70.3353L74.7645 70.297C77.5102 67.5609 80.8586 67.3313 83.6426 68.5272C84.6949 68.9864 85.6707 69.656 86.4935 70.4692C87.3162 71.292 87.9859 72.2678 88.4355 73.3297ZM35.1292 150.314C36.4016 147.769 35.7702 145.349 34.2682 143.675C33.675 143.014 32.948 142.46 32.1443 142.058C31.3407 141.656 30.4606 141.398 29.5804 141.331C27.3609 141.158 25.0458 142.182 23.6394 144.995C18.1768 156.618 13.7473 168.29 10.2172 180.229C6.69658 192.169 4.07527 204.386 2.25758 217.11C2.01841 220.018 3.26209 222.103 5.06066 223.232C5.8547 223.73 6.76355 224.055 7.69153 224.179C8.61952 224.304 9.5762 224.237 10.4755 223.969C12.5132 223.357 14.2735 221.673 14.8093 218.765C16.426 206.921 18.9421 195.288 22.3096 183.913C25.7154 172.461 29.9918 161.249 35.1196 150.343L35.1292 150.314ZM35.8084 142.307C37.827 144.564 38.6785 147.807 36.9756 151.223C31.9052 162.024 27.6575 173.131 24.29 184.496C20.9416 195.776 18.4542 207.304 16.8566 219.042L16.847 219.09C16.1486 222.897 13.7952 225.127 11.0686 225.949C9.88234 226.303 8.62908 226.389 7.4141 226.217C6.19911 226.055 5.01282 225.634 3.96047 224.973C1.5592 223.462 -0.105428 220.726 0.210277 216.937L0.219844 216.813C2.05667 204.003 4.68755 191.69 8.24641 179.646C11.7957 167.611 16.273 155.844 21.7835 144.115L21.793 144.086C23.649 140.384 26.7391 139.044 29.7335 139.274C30.8815 139.36 32.02 139.695 33.0628 140.211C34.096 140.738 35.0335 141.446 35.8084 142.307ZM15.8042 290.114C15.2493 287.148 13.3264 285.56 11.1452 285.111C10.2746 284.938 9.35616 284.929 8.47601 285.091L8.43775 285.101C7.56717 285.264 6.71572 285.589 5.96951 286.048C4.07527 287.244 2.81245 289.406 3.33863 292.305C3.76914 294.802 4.21878 297.27 4.70668 299.729C5.19459 302.206 5.7112 304.665 6.26608 307.095C7.12709 310.185 9.18396 311.658 11.3748 311.926C12.2549 312.032 13.1638 311.955 14.0248 311.716L14.063 311.706C14.9145 311.467 15.7277 311.065 16.4356 310.539C18.2437 309.19 19.3439 306.961 18.6168 304.292L18.6073 304.254C18.062 301.91 17.5645 299.566 17.1053 297.222C16.6461 294.897 16.2156 292.544 15.8138 290.152L15.8042 290.114ZM11.5565 283.092C14.4935 283.695 17.0862 285.809 17.8228 289.731L17.8419 289.817C18.2342 292.142 18.6647 294.476 19.1239 296.83C19.5831 299.155 20.0806 301.47 20.6163 303.795C21.573 307.382 20.0997 310.376 17.6697 312.194C16.7705 312.864 15.7181 313.38 14.6179 313.687L14.5701 313.696C13.4508 314.012 12.274 314.108 11.126 313.974C8.16988 313.61 5.41463 311.687 4.29531 307.66L4.26661 307.554C3.6926 305.048 3.16643 302.58 2.67852 300.121C2.20018 297.653 1.74097 295.175 1.31046 292.668C0.621651 288.813 2.32455 285.914 4.88845 284.307C5.8547 283.704 6.94532 283.283 8.06464 283.082L8.10291 283.073C9.24136 282.862 10.4276 282.862 11.5565 283.092ZM31.9913 345.037C30.518 342.11 28.2124 341.057 26.012 341.22C25.1414 341.287 24.2613 341.536 23.4672 341.937C22.6636 342.349 21.927 342.904 21.3338 343.564C19.8127 345.248 19.1622 347.639 20.3676 350.05L20.3963 350.108C21.4104 352.442 22.4436 354.728 23.5055 356.986C24.5578 359.215 25.658 361.482 26.8252 363.769C28.1358 366.4 30.4414 367.376 32.6801 367.184C33.5698 367.108 34.4499 366.849 35.2536 366.457C36.0667 366.046 36.7938 365.491 37.3774 364.831C38.8602 363.166 39.4438 360.717 38.0853 357.991C37.033 355.934 35.9902 353.781 34.9379 351.552C33.9142 349.371 32.9384 347.199 31.9913 345.037ZM25.8685 339.163C28.8342 338.943 31.9052 340.311 33.8281 344.1L33.8759 344.205C34.8326 346.396 35.8084 348.558 36.8034 350.682C37.7696 352.748 38.8124 354.872 39.9222 357.063C41.7207 360.669 40.9171 363.941 38.9177 366.199C38.1523 367.07 37.2052 367.777 36.172 368.294C35.1292 368.811 33.9907 369.145 32.8523 369.241C29.8387 369.49 26.7295 368.198 24.9788 364.697C23.8499 362.468 22.7402 360.191 21.6495 357.857C20.5589 355.541 19.5066 353.236 18.5116 350.921C16.8948 347.658 17.7654 344.444 19.8031 342.186C20.5685 341.335 21.506 340.617 22.5392 340.101C23.582 339.574 24.7109 339.249 25.8685 339.163ZM79.6532 416.08C77.4815 413.909 74.975 413.689 72.9277 414.559C72.105 414.913 71.3492 415.43 70.7178 416.061C70.0864 416.702 69.5602 417.458 69.2158 418.281C68.3261 420.338 68.5174 422.835 70.5838 424.901L70.5934 424.911C79.5097 433.999 88.9139 442.313 98.8825 449.87C108.851 457.419 119.375 464.221 130.558 470.286C133.4 471.702 135.868 471.137 137.532 469.674C138.202 469.09 138.747 468.363 139.149 467.559C139.551 466.746 139.8 465.866 139.876 464.976C140.077 462.728 139.13 460.423 136.604 459.16L136.576 459.141C126.129 453.515 116.189 447.106 106.785 439.988C97.1892 432.727 88.1294 424.719 79.6532 416.08ZM72.1145 412.665C74.8889 411.488 78.2469 411.756 81.1073 414.617C89.5166 423.189 98.4998 431.129 108.028 438.342C117.356 445.403 127.2 451.755 137.552 457.333C140.938 459.035 142.201 462.145 141.933 465.158C141.838 466.297 141.512 467.435 140.996 468.478C140.479 469.511 139.762 470.458 138.901 471.224C136.643 473.204 133.352 473.988 129.64 472.132L129.611 472.113C118.313 465.981 107.684 459.121 97.6388 451.516C87.6032 443.901 78.1225 435.53 69.1297 426.355C66.3649 423.59 66.1257 420.242 67.312 417.468C67.7712 416.406 68.4409 415.43 69.2636 414.617C70.0768 413.794 71.0526 413.115 72.1145 412.665ZM203.725 483.22C200.75 482.704 198.588 483.947 197.411 485.823C196.933 486.578 196.608 487.43 196.455 488.31C196.292 489.2 196.292 490.118 196.474 490.998C196.914 493.189 198.492 495.141 201.381 495.657L201.391 495.667C203.888 496.136 206.375 496.585 208.834 496.987C211.331 497.398 213.818 497.762 216.277 498.087C219.472 498.365 221.577 496.958 222.591 494.988C223.003 494.203 223.242 493.323 223.328 492.433C223.404 491.524 223.318 490.606 223.069 489.754L223.06 489.716C222.419 487.573 220.706 485.784 217.951 485.526H217.913C215.531 485.21 213.168 484.866 210.824 484.483L210.786 484.474C208.413 484.091 206.069 483.68 203.773 483.239L203.725 483.22ZM195.67 484.722C197.258 482.197 200.147 480.513 204.079 481.202L204.165 481.211C206.519 481.661 208.834 482.072 211.12 482.445L211.159 482.455C213.503 482.828 215.837 483.182 218.171 483.488C221.874 483.833 224.16 486.234 225.031 489.123L225.04 489.18C225.366 490.281 225.48 491.457 225.385 492.605C225.279 493.763 224.964 494.901 224.428 495.935C223.05 498.594 220.266 500.508 216.086 500.125H216.047C213.503 499.8 210.987 499.427 208.499 499.015C205.974 498.604 203.477 498.154 201.008 497.685C197.162 496.977 195.048 494.356 194.455 491.4C194.225 490.271 194.225 489.085 194.426 487.946C194.637 486.808 195.058 485.698 195.67 484.722ZM260.849 487.267C257.654 487.564 255.845 489.334 255.195 491.448L255.176 491.486C254.927 492.318 254.85 493.218 254.937 494.098C255.023 494.987 255.271 495.877 255.673 496.671L255.702 496.719C256.716 498.719 258.715 500.163 261.452 499.914H261.499C263.958 499.8 266.474 499.627 269.029 499.427C271.583 499.226 274.089 498.977 276.558 498.709H276.615C279.447 498.432 281.159 496.633 281.8 494.49C282.049 493.629 282.135 492.72 282.059 491.821C281.972 490.931 281.733 490.051 281.322 489.257C280.308 487.286 278.232 485.861 275.123 486.129C272.721 486.406 270.32 486.636 267.947 486.817C265.632 486.999 263.26 487.152 260.849 487.267ZM253.224 490.845C254.104 487.994 256.477 485.612 260.638 485.22L260.744 485.21C263.04 485.105 265.393 484.952 267.785 484.761C270.186 484.579 272.559 484.349 274.893 484.091H274.912C279.016 483.718 281.781 485.641 283.159 488.319C283.685 489.343 284.001 490.482 284.106 491.639C284.211 492.797 284.096 493.973 283.771 495.074C282.92 497.963 280.614 500.383 276.825 500.756H276.778C274.223 501.034 271.688 501.282 269.191 501.483C266.694 501.684 264.159 501.847 261.586 501.962C257.912 502.277 255.233 500.335 253.865 497.657L253.836 497.599C253.32 496.576 252.995 495.437 252.889 494.28C252.784 493.141 252.889 491.984 253.215 490.893L253.224 490.845ZM344.052 467.693C341.182 469.148 340.139 471.444 340.301 473.644C340.368 474.524 340.617 475.395 341.028 476.198C341.43 477.002 341.985 477.739 342.655 478.332C344.329 479.843 346.73 480.484 349.179 479.26L349.227 479.241C360.765 474.161 371.891 468.22 382.501 461.475C393.11 454.73 403.203 447.192 412.684 438.916C414.789 437.041 415.238 434.63 414.626 432.545C414.368 431.655 413.918 430.823 413.325 430.096C412.732 429.378 411.995 428.785 411.172 428.383L411.134 428.364C409.211 427.436 406.743 427.522 404.294 429.436L404.275 429.445C395.253 437.309 385.696 444.446 375.66 450.817C365.596 457.218 355.034 462.853 344.061 467.684L344.052 467.693ZM338.244 473.797C338.024 470.831 339.373 467.76 343.114 465.857L343.229 465.799C354.106 461.006 364.572 455.419 374.56 449.076C384.529 442.743 394.009 435.664 402.926 427.895L403.031 427.8C406.198 425.341 409.45 425.265 412.024 426.508L412.081 426.537C413.172 427.073 414.138 427.848 414.913 428.785C415.678 429.713 416.262 430.804 416.606 431.971C417.42 434.774 416.836 437.979 414.052 440.457C404.466 448.818 394.287 456.424 383.601 463.216C372.915 470.009 361.693 475.997 350.05 481.125C346.749 482.752 343.525 481.891 341.277 479.862C340.416 479.097 339.708 478.159 339.182 477.126C338.665 476.083 338.331 474.945 338.244 473.797ZM450.473 374.962C448.942 377.545 449.344 380.013 450.693 381.783C451.229 382.491 451.917 383.094 452.683 383.563C453.458 384.022 454.319 384.347 455.189 384.491C457.409 384.845 459.791 384.051 461.312 381.515C462.613 379.363 463.933 377.182 465.196 375.01C466.459 372.829 467.693 370.628 468.822 368.428C470.219 365.634 469.645 363.166 468.172 361.502C467.588 360.832 466.861 360.287 466.057 359.885C465.244 359.483 464.364 359.225 463.484 359.158C461.236 358.957 458.93 359.914 457.638 362.487L457.619 362.516C456.443 364.687 455.285 366.773 454.137 368.763C452.97 370.81 451.755 372.857 450.502 374.924L450.473 374.962ZM449.057 383.027C447.239 380.635 446.675 377.344 448.703 373.919L448.741 373.852C449.966 371.834 451.171 369.796 452.348 367.739C453.563 365.625 454.711 363.568 455.821 361.53C457.543 358.115 460.642 356.843 463.646 357.101C464.804 357.197 465.933 357.522 466.976 358.038C468.009 358.555 468.956 359.273 469.721 360.134C471.711 362.391 472.505 365.673 470.668 369.346L470.659 369.356C469.52 371.585 468.267 373.824 466.976 376.043C465.675 378.282 464.354 380.463 463.072 382.577C461.044 385.945 457.849 386.997 454.864 386.519C453.726 386.337 452.625 385.916 451.63 385.323C450.636 384.73 449.755 383.945 449.057 383.027ZM474.371 322.88C473.586 325.75 474.466 328.037 476.055 329.472C476.753 330.094 477.585 330.563 478.475 330.84C479.365 331.127 480.321 331.223 481.249 331.117C483.383 330.869 485.421 329.51 486.435 326.726C487.133 324.421 487.841 322.077 488.578 319.522C489.266 317.121 489.936 314.701 490.567 312.223V312.204C491.323 309.429 490.242 307.181 488.444 305.832C487.736 305.297 486.903 304.895 486.042 304.656C485.172 304.416 484.263 304.34 483.373 304.445C481.173 304.713 479.106 306.158 478.284 309.162C477.719 311.391 477.078 313.696 476.399 316.059C475.796 318.164 475.098 320.489 474.371 322.88ZM474.687 331.003C472.553 329.089 471.367 326.066 472.391 322.335V322.306C473.06 320.135 473.72 317.934 474.419 315.504C475.05 313.323 475.672 311.065 476.284 308.654L476.294 308.635C477.375 304.675 480.149 302.752 483.134 302.398C484.282 302.264 485.459 302.369 486.578 302.675C487.697 302.981 488.759 303.498 489.678 304.187C492.108 306.004 493.571 309.028 492.557 312.749C491.935 315.208 491.256 317.647 490.558 320.087C489.917 322.325 489.18 324.775 488.405 327.319L488.377 327.425C487.056 331.05 484.339 332.839 481.489 333.165C480.274 333.308 479.03 333.174 477.853 332.801C476.696 332.428 475.595 331.825 474.687 331.003ZM485.095 238.08C485.401 241.247 487.171 243.045 489.276 243.686C490.127 243.944 491.036 244.031 491.936 243.944C492.825 243.858 493.705 243.61 494.509 243.208C496.518 242.194 497.991 240.185 497.743 237.391L497.733 237.353C497.063 224.763 495.427 212.336 492.873 200.1C490.29 187.759 486.769 175.618 482.34 163.707C481.335 160.962 479.154 159.737 476.906 159.67C476.016 159.642 475.117 159.795 474.266 160.101C473.414 160.407 472.63 160.866 471.97 161.469C470.315 162.952 469.453 165.315 470.506 168.213C474.648 179.053 477.958 190.533 480.398 202.195C482.885 214.106 484.464 226.227 485.095 238.08ZM488.683 245.657C485.832 244.786 483.45 242.414 483.058 238.29L483.038 238.185C482.417 226.447 480.848 214.431 478.379 202.606C475.968 191.069 472.687 179.703 468.573 168.941V168.931C467.186 165.104 468.353 161.947 470.592 159.929C471.443 159.163 472.467 158.561 473.558 158.168C474.648 157.776 475.815 157.575 476.963 157.613C479.996 157.7 482.933 159.335 484.272 163C488.74 175.015 492.289 187.251 494.882 199.679C497.465 212.01 499.111 224.543 499.79 237.248C500.115 240.988 498.135 243.686 495.437 245.045C494.413 245.561 493.275 245.887 492.117 245.992C490.969 246.097 489.793 245.992 488.683 245.657ZM435.616 105.924C437.433 108.268 439.892 108.775 442.035 108.153C442.886 107.904 443.7 107.483 444.417 106.928C445.135 106.374 445.737 105.694 446.187 104.929C447.316 102.996 447.412 100.48 445.556 98.0982L445.508 98.0312C444.025 96.1275 442.465 94.195 440.83 92.2146C439.222 90.2821 437.586 88.3688 435.931 86.4841C433.932 84.2455 431.444 83.8915 429.34 84.6473C428.507 84.9438 427.723 85.4222 427.053 86.0249L426.996 86.0727C426.345 86.6563 425.81 87.3642 425.417 88.1391L425.379 88.2157C424.413 90.196 424.489 92.6738 426.46 94.8838L426.508 94.9412C428.115 96.7684 429.655 98.567 431.119 100.337C432.593 102.116 434.095 103.982 435.616 105.924ZM442.609 110.133C439.71 110.966 436.41 110.305 433.989 107.187C432.583 105.388 431.091 103.542 429.531 101.657C427.991 99.7915 426.47 98.0121 424.968 96.3092L424.92 96.2518C422.308 93.3148 422.222 89.9951 423.533 87.3068L423.571 87.2207C424.068 86.2162 424.776 85.3074 425.618 84.542L425.676 84.4846C426.546 83.7193 427.56 83.107 428.651 82.7148C431.483 81.6911 434.812 82.1408 437.452 85.0873L437.481 85.116C439.155 87.0294 440.801 88.9619 442.418 90.904C443.967 92.7695 445.536 94.7211 447.134 96.7684L447.182 96.8258C449.641 99.9924 449.488 103.36 447.966 105.962C447.383 106.967 446.598 107.847 445.68 108.555C444.771 109.263 443.719 109.808 442.609 110.133ZM395.253 65.351C397.645 67.2069 400.151 67.1017 402.084 65.9728C402.859 65.5232 403.538 64.9205 404.093 64.203C404.648 63.495 405.069 62.6818 405.317 61.8304C405.939 59.6778 405.432 57.2287 403.088 55.4015L403.031 55.3632C401.079 53.8134 399.09 52.2923 397.09 50.8094C395.004 49.2787 392.967 47.815 390.967 46.4278C388.585 44.8397 386.136 44.9928 384.28 46.093C383.476 46.5617 382.768 47.2027 382.223 47.9585C381.678 48.7238 381.286 49.5848 381.104 50.4841C380.673 52.5888 381.362 54.9614 383.792 56.8556L383.821 56.8748C385.782 58.2524 387.705 59.63 389.561 60.9981C391.484 62.414 393.388 63.8681 395.253 65.351ZM403.127 67.7522C400.515 69.2734 397.147 69.436 393.99 66.9773L393.981 66.9678C392.144 65.504 390.25 64.069 388.346 62.6531C386.413 61.2277 384.51 59.8692 382.644 58.5585L382.52 58.482C379.382 56.0329 378.511 52.8854 379.085 50.0728C379.334 48.8769 379.851 47.7384 380.559 46.7531C381.266 45.7772 382.185 44.9354 383.237 44.3135C385.734 42.8498 388.977 42.6298 392.106 44.7058L392.125 44.7249C394.249 46.2078 396.325 47.6906 398.305 49.1543C400.352 50.6563 402.361 52.1966 404.313 53.756L404.351 53.7751C407.47 56.2051 408.13 59.4961 407.288 62.4044C406.973 63.5141 406.427 64.5665 405.719 65.4753C405.002 66.3842 404.122 67.1782 403.127 67.7522Z" fill="#03E3C1"/>
<path fill-rule="evenodd" clip-rule="evenodd" d="M250 33.5413C370.092 33.5413 467.463 130.903 467.463 250.995C467.463 371.097 370.092 468.459 250 468.459C129.908 468.459 32.5365 371.097 32.5365 250.995C32.5365 130.903 129.908 33.5413 250 33.5413ZM250 50.8094C139.446 50.8094 49.8142 140.441 49.8142 250.995C49.8142 361.559 139.446 451.191 250 451.191C360.564 451.191 450.186 361.559 450.186 250.995C450.186 140.441 360.564 50.8094 250 50.8094Z" fill="#03E3C1"/>
</g>
<defs>
<clipPath id="clip0_120_2">
<rect width="500" height="502" fill="white"/>
</clipPath>
</defs>
</svg>
