<svg width="200" height="200" viewBox="0 0 200 200" fill="none" xmlns="http://www.w3.org/2000/svg">
<path fill-rule="evenodd" clip-rule="evenodd" d="M99.6129 0.812711C95.875 0.873664 92.2387 1.03621 88.6227 1.44256C85.0066 1.84892 81.3703 2.41782 77.734 3.23053C76.576 3.51498 76.0072 4.32769 75.8244 5.1404C75.7025 5.4858 75.7025 5.89215 75.8244 6.23756C75.8853 6.64391 76.0479 6.98931 76.2916 7.27376C76.8198 7.96457 77.673 8.37092 78.831 8.14743C87.1194 6.35946 95.3062 5.60771 103.473 5.95311C111.66 6.29851 119.704 7.68012 127.83 10.1589C129.09 10.5043 130.024 10.0979 130.532 9.40713C130.755 9.12268 130.938 8.77728 130.999 8.43188C131.121 8.08648 131.121 7.74107 131.121 7.33472C130.999 6.46105 130.491 5.66866 129.394 5.32326C124.437 3.81974 119.603 2.72258 114.646 1.99114C109.73 1.21907 104.793 0.873664 99.6129 0.812711ZM88.4805 0.629851C92.1777 0.223496 95.8547 0 99.6129 0C104.793 0 109.811 0.406355 114.768 1.15811C119.724 1.90987 124.62 3.06798 129.618 4.55118C131.06 4.95754 131.812 6.0547 131.913 7.25345C131.974 7.72075 131.913 8.16775 131.791 8.63505C131.67 9.04141 131.507 9.50872 131.223 9.85412C130.471 10.8294 129.272 11.3576 127.586 10.9513C119.582 8.47251 111.517 7.0909 103.452 6.7455C95.3265 6.46105 87.2209 7.15186 78.9732 8.93982C77.4699 9.22427 76.3323 8.65537 75.6416 7.72075C75.2962 7.37535 75.1337 6.90804 75.0118 6.4001C74.8899 5.93279 74.8899 5.4858 75.0118 4.95754C75.2353 3.86038 75.9869 2.82417 77.4902 2.41782H77.5511C81.1672 1.6051 84.8644 1.03621 88.4805 0.629851ZM52.2187 18.4892C53.2548 17.8593 53.6001 16.9247 53.4782 16.0714C53.4173 15.726 53.2954 15.3806 53.0719 15.0352C52.8891 14.7507 52.6656 14.4663 52.3812 14.2834C51.6905 13.7145 50.6545 13.5316 49.6794 14.1615C48.8058 14.6288 47.9526 15.1367 47.0791 15.726C46.2056 16.2542 45.3523 16.7622 44.5398 17.3311C43.5647 17.9609 43.2802 18.8955 43.4428 19.7489C43.5037 20.0943 43.6256 20.4397 43.7881 20.7851C44.0116 21.0695 44.2553 21.354 44.6007 21.5368C45.2914 22.0651 46.2665 22.1667 47.3635 21.5368C48.1151 20.9679 48.9277 20.4397 49.72 19.9724C50.5326 19.4644 51.4061 18.9971 52.2187 18.4892ZM54.2908 15.8885C54.4736 17.1076 54.0674 18.3673 52.686 19.2206H52.625C51.8734 19.6879 51.0201 20.1349 50.2076 20.6632C49.395 21.1914 48.6027 21.6994 47.7901 22.2276C46.4087 23.0404 45.0883 22.8575 44.1538 22.2276C43.7475 21.9432 43.4021 21.5978 43.1177 21.1914C42.8943 20.7851 42.7114 20.3178 42.5895 19.8708C42.4067 18.7127 42.813 17.453 44.0928 16.6403C44.9664 16.0714 45.8196 15.4821 46.6322 14.9742C47.5057 14.4459 48.3589 13.938 49.2325 13.4707L49.2934 13.4097C50.6139 12.658 51.9343 12.8815 52.9297 13.5926C53.2548 13.877 53.5392 14.2224 53.7626 14.6288H53.8236C54.047 15.0352 54.2299 15.5025 54.2908 15.8885ZM33.9558 32.2443C34.8293 31.3706 34.87 30.3344 34.5246 29.542C34.4027 29.1966 34.1793 28.9122 33.9558 28.6684C33.7323 28.3839 33.387 28.2011 33.0823 28.0385C32.2087 27.6931 31.2336 27.7541 30.4414 28.6074H30.3804C27.3332 31.5535 25.8299 34.0729 25.6065 35.6374C25.4846 36.1656 25.6065 36.511 25.7893 36.7345C25.9721 36.9174 26.3175 37.019 26.7644 36.958C28.2067 36.7955 30.6242 35.3529 33.9558 32.2443ZM35.3372 29.1966C35.8044 30.3548 35.6825 31.6754 34.5246 32.8335C31.0711 36.125 28.4302 37.6082 26.805 37.7911C26.0534 37.852 25.4846 37.6692 25.1392 37.2628C24.7939 36.8564 24.672 36.2875 24.7939 35.5358C25.0173 33.8088 26.6425 31.1065 29.8116 28.0385L29.8725 27.9776C30.9695 26.8804 32.29 26.8195 33.387 27.2868C33.8542 27.4696 34.1996 27.7541 34.5449 28.0995C34.87 28.3839 35.1137 28.7903 35.3372 29.1966ZM13.9661 59.8968C14.4943 58.8606 14.2505 57.9463 13.6208 57.2555C13.3973 56.971 13.0926 56.7882 12.7472 56.6256C12.4628 56.4428 12.1175 56.3412 11.7721 56.3412C10.858 56.2802 9.9235 56.6866 9.35469 57.7838C7.1607 62.4568 5.373 67.0487 3.9916 71.8437C2.54926 76.6183 1.51321 81.454 0.82251 86.5334C0.700622 87.6915 1.2288 88.5449 1.9195 88.9512C2.26485 89.1747 2.6102 89.2966 2.95555 89.3576C3.36185 89.4185 3.7072 89.3576 4.11349 89.2966C4.92608 89.0122 5.61678 88.3823 5.84024 87.2242C6.47 82.5105 7.50605 77.8374 8.8265 73.2862C10.2282 68.7147 11.894 64.2651 13.9661 59.8968ZM14.2708 56.7272C15.0834 57.6009 15.4288 58.9216 14.7381 60.2422C12.7269 64.5699 11.0002 68.9992 9.67972 73.4894C8.29832 78.0406 7.32322 82.5918 6.69346 87.2445V87.3055C6.40905 88.809 5.47458 89.7233 4.3979 90.0077C3.93066 90.1906 3.42279 90.1906 2.89461 90.1297C2.42737 90.0687 1.98045 89.9062 1.51321 89.6623C0.599048 89.0325 -0.0916516 87.9353 0.00992194 86.4318V86.3709C0.761566 81.2508 1.85856 76.3542 3.23996 71.5592C4.6823 66.7845 6.47 62.0505 8.64367 57.3977C9.39532 55.8942 10.6548 55.3863 11.8737 55.4878C12.3409 55.4878 12.7472 55.6707 13.1942 55.8332C13.5801 56.0974 13.9255 56.3818 14.2708 56.7272ZM6.26685 115.588C6.04339 114.43 5.29175 113.8 4.35727 113.637C4.01192 113.515 3.66657 113.515 3.32122 113.576C2.97587 113.698 2.63052 113.8 2.28517 113.983C1.53352 114.45 1.02566 115.303 1.24912 116.461C1.43195 117.498 1.59447 118.473 1.81793 119.448C2.00076 120.423 2.22422 121.399 2.38674 122.394C2.73209 123.613 3.60562 124.182 4.45884 124.304C4.80419 124.365 5.14954 124.304 5.49489 124.243H5.55584C5.90119 124.121 6.18559 123.959 6.47 123.715C7.22164 123.187 7.62794 122.333 7.34353 121.236C7.12007 120.322 6.93724 119.387 6.77472 118.412C6.6122 117.498 6.42937 116.563 6.26685 115.588ZM4.5401 112.825C5.75898 113.048 6.79503 113.861 7.07944 115.425V115.486C7.26227 116.401 7.42479 117.335 7.60762 118.31C7.79045 119.225 7.95297 120.159 8.17643 121.074C8.58273 122.516 7.9936 123.674 7.0185 124.406C6.6122 124.69 6.20591 124.873 5.79961 124.975H5.73867C5.27143 125.097 4.82451 125.158 4.35727 125.097C3.19933 124.975 2.10234 124.182 1.65541 122.618V122.557C1.43195 121.521 1.18817 120.545 1.02566 119.57C0.802195 118.595 0.619363 117.62 0.456845 116.624C0.17244 115.06 0.86314 113.922 1.89919 113.292C2.30548 113.068 2.71178 112.886 3.1587 112.764C3.60562 112.703 4.07286 112.703 4.5401 112.825ZM12.7066 137.47C12.1378 136.312 11.2033 135.906 10.3501 135.967C10.0048 135.967 9.65941 136.088 9.31406 136.251C8.96871 136.373 8.6843 136.596 8.44053 136.881C7.87171 137.572 7.56699 138.486 8.03423 139.482H8.09517C8.50147 140.396 8.90776 141.33 9.31406 142.245C9.7813 143.118 10.1876 144.033 10.6345 144.947C11.2033 145.983 12.1378 146.39 12.991 146.268C13.3364 146.268 13.6817 146.146 14.0271 145.983C14.3724 145.8 14.6568 145.638 14.9006 145.353C15.4694 144.663 15.7132 143.748 15.185 142.651C14.7178 141.838 14.3115 140.985 13.9255 140.05C13.5192 139.197 13.1129 138.344 12.7066 137.47ZM10.2892 135.113C11.4471 135.052 12.7066 135.581 13.4583 137.125C13.8646 138.039 14.2708 138.852 14.6771 139.725C15.0225 140.538 15.4897 141.391 15.896 142.265C16.6477 143.708 16.3023 145.028 15.4897 145.902C15.2053 146.308 14.86 146.532 14.3927 146.776C13.9864 146.999 13.5192 147.121 13.0723 147.182C11.8534 147.243 10.6548 146.715 9.96413 145.333C9.49689 144.459 9.04997 143.545 8.58273 142.631C8.17643 141.716 7.77014 140.782 7.36385 139.868C6.67315 138.547 7.0185 137.267 7.89203 136.353C8.17643 136.068 8.52178 135.784 8.98902 135.54C9.375 135.296 9.82192 135.174 10.2892 135.113ZM31.8228 165.813C30.9086 164.94 29.9132 164.838 29.1209 165.184C28.7755 165.305 28.4911 165.529 28.2067 165.752C27.9833 166.037 27.7395 166.321 27.6379 166.667C27.2926 167.479 27.3535 168.455 28.2067 169.308C31.7821 172.945 35.52 176.216 39.5017 179.223C43.4834 182.271 47.7292 184.973 52.1781 187.411C53.336 187.939 54.3111 187.696 55.0018 187.127C55.2253 186.903 55.4691 186.598 55.6316 186.314C55.8144 185.969 55.916 185.623 55.916 185.278C56.0379 184.364 55.6316 183.429 54.5955 182.982V182.921C50.4513 180.727 46.4697 178.146 42.6708 175.322C38.7907 172.437 35.1747 169.206 31.8228 165.813ZM28.7755 164.432C29.8725 163.964 31.2539 164.086 32.4119 165.184C35.7435 168.638 39.3798 171.807 43.1787 174.692C46.9166 177.455 50.8373 179.995 54.9815 182.23C56.302 182.921 56.8302 184.14 56.7083 185.339C56.7083 185.806 56.5254 186.253 56.3629 186.659C56.1395 187.066 55.8347 187.472 55.4894 187.757C54.6159 188.569 53.2954 188.854 51.8124 188.102C47.2619 185.684 42.9958 182.921 39.0345 179.914C35.0122 176.866 31.193 173.514 27.577 169.897C26.48 168.8 26.419 167.418 26.8863 166.321C27.0691 165.915 27.3535 165.509 27.6379 165.163C27.963 164.899 28.3693 164.594 28.7755 164.432ZM81.4719 192.531C80.253 192.348 79.3998 192.816 78.9325 193.567C78.7497 193.852 78.5872 194.197 78.5263 194.543C78.4653 194.888 78.4653 195.294 78.5263 195.64C78.7497 196.514 79.3998 197.245 80.5374 197.489C81.5125 197.672 82.4876 197.895 83.483 198.017C84.5191 198.2 85.4942 198.362 86.4693 198.484C87.7288 198.606 88.6024 198.017 89.0086 197.225C89.1915 196.94 89.2931 196.595 89.2931 196.249C89.354 195.904 89.293 195.498 89.1712 195.152C88.9477 194.279 88.257 193.588 87.16 193.486C86.1849 193.364 85.2504 193.202 84.2753 193.08C83.3002 192.877 82.386 192.714 81.4719 192.531ZM78.2418 193.12C78.8716 192.145 80.0295 191.454 81.5735 191.739H81.6344C82.5486 191.922 83.483 192.084 84.3972 192.267H84.4581C85.3723 192.389 86.3068 192.552 87.221 192.673C88.7242 192.795 89.6384 193.771 89.9838 194.929C90.1056 195.396 90.1666 195.843 90.1056 196.31C90.1056 196.778 89.9838 197.225 89.7603 197.631C89.1915 198.667 88.0945 199.48 86.4287 199.297C85.3926 199.175 84.3566 199.013 83.3815 198.83C82.4064 198.647 81.3703 198.484 80.3952 198.301C78.831 198.017 78.0387 196.981 77.7543 195.823C77.6934 195.355 77.6934 194.908 77.7543 194.441C77.8356 193.974 78.0184 193.507 78.2418 193.12ZM104.326 194.157C103.066 194.279 102.315 194.969 102.071 195.823C101.949 196.168 101.888 196.514 101.949 196.859C101.949 197.204 102.071 197.611 102.234 197.895C102.64 198.708 103.452 199.277 104.529 199.216C105.565 199.155 106.54 199.094 107.576 198.992C108.612 198.931 109.587 198.809 110.563 198.708H110.623C111.72 198.586 112.411 197.895 112.696 197.042C112.757 196.696 112.817 196.351 112.757 196.006C112.757 195.599 112.635 195.254 112.472 194.969C112.066 194.157 111.253 193.588 109.994 193.71C109.019 193.832 108.084 193.933 107.109 193.994C106.236 194.035 105.301 194.096 104.326 194.157ZM101.279 195.579C101.624 194.421 102.599 193.507 104.265 193.324C105.179 193.263 106.175 193.202 107.089 193.141C108.064 193.019 108.998 192.958 109.973 192.856C111.578 192.673 112.675 193.486 113.264 194.522C113.488 194.929 113.61 195.396 113.671 195.843C113.671 196.31 113.671 196.757 113.488 197.225C113.143 198.383 112.228 199.358 110.725 199.48C109.689 199.602 108.653 199.703 107.678 199.764C106.703 199.886 105.667 199.947 104.631 199.988C103.188 200.11 102.091 199.297 101.523 198.261C101.34 197.794 101.177 197.387 101.177 196.94C101.096 196.514 101.157 196.046 101.279 195.579ZM137.601 186.375C136.443 186.944 136.037 187.878 136.098 188.732C136.159 189.077 136.22 189.423 136.383 189.707C136.565 190.052 136.789 190.337 137.073 190.581C137.703 191.211 138.678 191.454 139.674 190.987C144.285 188.915 148.775 186.558 152.98 183.896C157.246 181.194 161.268 178.187 165.067 174.916C165.94 174.164 166.103 173.189 165.879 172.315C165.758 171.97 165.595 171.685 165.351 171.401C165.128 171.116 164.823 170.832 164.478 170.71H164.417C163.665 170.304 162.69 170.365 161.715 171.116C158.079 174.225 154.28 177.11 150.257 179.65C146.255 182.169 142.05 184.424 137.601 186.375ZM135.306 188.793C135.184 187.574 135.773 186.375 137.256 185.623H137.317C141.644 183.673 145.849 181.478 149.811 178.939C153.833 176.399 157.591 173.575 161.146 170.466H161.207C162.467 169.491 163.807 169.43 164.843 169.938C165.311 170.161 165.656 170.466 166.001 170.812C166.286 171.218 166.53 171.624 166.692 172.132C166.976 173.229 166.753 174.489 165.656 175.464C161.796 178.796 157.713 181.864 153.447 184.567C149.181 187.269 144.691 189.626 140.039 191.698C138.719 192.328 137.439 191.983 136.525 191.17C136.179 190.885 135.895 190.479 135.651 190.073C135.489 189.707 135.367 189.26 135.306 188.793ZM180.222 149.397C179.592 150.433 179.754 151.408 180.283 152.099C180.506 152.383 180.811 152.627 181.095 152.851C181.441 153.033 181.786 153.135 182.131 153.196C183.005 153.318 183.98 153.013 184.549 151.977C185.077 151.164 185.646 150.25 186.113 149.376C186.641 148.503 187.149 147.649 187.555 146.776C188.124 145.678 187.901 144.703 187.332 144.012C187.108 143.728 186.804 143.545 186.458 143.383C186.174 143.2 185.829 143.098 185.422 143.098C184.549 142.976 183.635 143.383 183.127 144.419C182.599 145.292 182.152 146.085 181.684 146.898C181.197 147.731 180.75 148.584 180.222 149.397ZM179.653 152.627C178.901 151.652 178.739 150.372 179.531 148.99V148.929C179.998 148.117 180.506 147.324 180.973 146.511C181.441 145.699 181.887 144.845 182.355 144.033C183.045 142.712 184.305 142.184 185.524 142.306C185.991 142.306 186.397 142.428 186.844 142.651C187.251 142.875 187.596 143.179 187.941 143.525C188.754 144.398 189.038 145.719 188.287 147.162C187.819 148.076 187.372 148.95 186.844 149.864C186.316 150.738 185.747 151.591 185.239 152.465C184.427 153.785 183.167 154.192 181.948 154.029C181.542 153.968 181.075 153.806 180.689 153.562C180.283 153.318 179.937 152.973 179.653 152.627ZM189.79 128.672C189.506 129.831 189.851 130.745 190.481 131.273C190.765 131.558 191.049 131.74 191.456 131.842C191.801 131.964 192.146 132.025 192.553 131.964C193.426 131.842 194.219 131.334 194.625 130.176C194.909 129.262 195.194 128.327 195.498 127.352C195.803 126.377 196.027 125.401 196.311 124.406C196.595 123.309 196.128 122.394 195.437 121.866C195.153 121.643 194.808 121.46 194.462 121.399C194.117 121.277 193.772 121.277 193.426 121.277C192.512 121.399 191.699 121.968 191.354 123.187C191.131 124.06 190.887 124.975 190.602 125.95C190.359 126.763 190.074 127.677 189.79 128.672ZM189.891 131.883C189.018 131.131 188.571 129.932 188.977 128.429C189.262 127.555 189.546 126.702 189.79 125.726C190.074 124.853 190.318 123.938 190.542 122.963C191.009 121.399 192.106 120.667 193.304 120.484C193.772 120.423 194.219 120.484 194.686 120.606C195.153 120.728 195.559 120.952 195.905 121.175C196.88 121.927 197.469 123.126 197.063 124.629C196.839 125.604 196.534 126.58 196.311 127.514C196.027 128.429 195.742 129.424 195.437 130.46H195.376C194.848 131.903 193.772 132.655 192.675 132.756C192.146 132.817 191.639 132.756 191.171 132.573C190.704 132.472 190.298 132.228 189.891 131.883ZM194.097 94.8637C194.219 96.1234 194.909 96.8142 195.762 97.119C196.108 97.2409 196.453 97.2409 196.798 97.2409C197.144 97.1799 197.489 97.058 197.835 96.9564C198.647 96.5501 199.216 95.7374 199.094 94.5996C198.871 89.5811 198.18 84.6439 197.184 79.7473C196.148 74.8507 194.706 70.0151 192.918 65.3013C192.512 64.2042 191.659 63.6962 190.785 63.6962C190.44 63.6962 190.034 63.7572 189.688 63.8791C189.343 64.001 189.059 64.1635 188.774 64.4074C188.144 64.9762 187.799 65.9718 188.205 67.1096C189.871 71.4373 191.192 75.9885 192.187 80.6413C193.182 85.294 193.812 90.1297 194.097 94.8637ZM195.539 97.9114C194.381 97.566 193.406 96.5907 193.243 94.9653V94.9043C193.02 90.2312 192.37 85.4566 191.395 80.7428C190.42 76.1307 189.099 71.5795 187.474 67.3331C186.905 65.7686 187.352 64.5089 188.287 63.7572C188.632 63.4118 189.038 63.1883 189.445 63.0054C189.912 62.8835 190.359 62.7819 190.826 62.7819C192.045 62.8429 193.243 63.4727 193.772 64.9762C195.559 69.7509 197.002 74.6475 198.038 79.605C199.074 84.5016 199.703 89.5201 199.988 94.5183C200.11 96.0218 199.297 97.119 198.2 97.6269C197.794 97.8504 197.327 97.9723 196.88 98.0333C196.412 98.0739 195.945 98.0333 195.539 97.9114ZM174.29 42.2203C174.98 43.1346 175.956 43.3785 176.829 43.094C177.174 43.033 177.52 42.8705 177.804 42.6267C178.089 42.3829 178.332 42.0984 178.495 41.814C178.962 41.0622 179.023 40.026 178.271 39.1117L178.211 39.0508C177.642 38.299 176.992 37.5473 176.362 36.7549C175.732 36.0031 175.041 35.1904 174.412 34.4589C173.599 33.5853 172.624 33.4227 171.771 33.7681C171.425 33.8901 171.141 34.0526 170.857 34.2964V34.3574C170.572 34.5809 170.328 34.8247 170.227 35.1701C169.821 35.9828 169.821 36.958 170.633 37.8723C171.324 38.6241 171.893 39.3149 172.482 40.0057C173.091 40.7168 173.66 41.4076 174.29 42.2203ZM177.053 43.8864C175.895 44.2318 174.574 43.9474 173.599 42.7283C173.071 41.9765 172.441 41.2248 171.811 40.473C171.243 39.7822 170.593 39.0304 170.024 38.3396H169.963C168.927 37.1815 168.927 35.8609 169.435 34.7637C169.617 34.3574 169.902 33.951 170.247 33.6666H170.308C170.653 33.3212 171.06 33.0977 171.466 32.9148C172.624 32.5084 173.944 32.6913 174.98 33.8901H175.041C175.671 34.6418 176.362 35.4545 176.992 36.186C177.621 36.9377 178.251 37.6895 178.901 38.5428C179.876 39.8025 179.815 41.1435 179.247 42.1797C178.962 42.5861 178.678 42.9315 178.332 43.2159C177.926 43.541 177.52 43.7645 177.053 43.8864ZM158.119 26.0271C159.094 26.7788 160.069 26.7179 160.882 26.3115C161.166 26.088 161.451 25.8442 161.695 25.5598C161.877 25.2753 162.04 24.9909 162.162 24.6455C162.385 23.7718 162.223 22.7965 161.288 22.0448H161.227C160.476 21.4149 159.663 20.8257 158.871 20.2568C157.997 19.6473 157.185 19.0581 156.393 18.4892C155.478 17.8593 154.483 17.9203 153.752 18.3673C153.406 18.5501 153.122 18.8346 152.939 19.119C152.716 19.4035 152.533 19.7489 152.472 20.0943C152.289 20.9679 152.594 21.8822 153.508 22.634L153.569 22.695C154.32 23.2232 155.133 23.7921 155.864 24.3001C156.616 24.8893 157.368 25.4582 158.119 26.0271ZM161.268 27.0023C160.232 27.5712 158.851 27.6322 157.591 26.6569C156.9 26.088 156.088 25.4988 155.336 24.9909C154.585 24.422 153.772 23.8328 153.041 23.3248C151.781 22.3496 151.436 21.0695 151.659 19.9927C151.72 19.4644 151.944 19.0174 152.228 18.672C152.512 18.2657 152.858 17.9203 153.325 17.6968C154.3 17.1279 155.621 17.006 156.839 17.8187V17.8796C157.713 18.4485 158.566 19.0378 159.318 19.6067C160.191 20.2365 160.984 20.8257 161.735 21.4556C162.995 22.4308 163.3 23.7515 162.954 24.9096C162.832 25.3159 162.609 25.7833 162.324 26.1287C162.02 26.4334 161.674 26.7788 161.268 27.0023Z" fill="#3F3F41"/>
<path fill-rule="evenodd" clip-rule="evenodd" d="M99.5308 12C148.359 12 188 51.641 188 100.531C188 149.359 148.359 189 99.5308 189C50.641 189 11 149.359 11 100.531C11 51.641 50.641 12 99.5308 12ZM99.5308 19.6083C144.176 19.6083 180.453 55.8245 180.453 100.531C180.453 145.176 144.176 181.453 99.5308 181.453C54.8245 181.453 18.6083 145.176 18.6083 100.531C18.6288 55.8245 54.845 19.6083 99.5308 19.6083Z" fill="#3F3F41"/>
</svg>
