<svg width="250" height="250" viewBox="0 0 250 250" fill="none" xmlns="http://www.w3.org/2000/svg">
<path fill-rule="evenodd" clip-rule="evenodd" d="M124.517 1.02435C119.884 1.03387 115.308 1.28639 110.756 1.78189C106.213 2.27738 101.699 3.02063 97.1756 4.02115C95.7491 4.41183 94.9832 5.35995 94.7678 6.39859C94.6769 6.85597 94.6817 7.33717 94.787 7.78979C94.8923 8.24241 95.0885 8.67597 95.3757 9.05236C96.0172 9.89566 97.1133 10.4245 98.5589 10.172C108.913 7.91367 119.161 6.9989 129.362 7.42293C139.553 7.8422 149.686 9.59073 159.82 12.659C161.37 13.0783 162.529 12.5685 163.204 11.6918C163.472 11.344 163.668 10.9343 163.788 10.5007C163.903 10.0672 163.941 9.60979 163.893 9.1667C163.769 8.05183 163.084 7.01796 161.739 6.6511L161.715 6.64157C155.545 4.77393 149.475 3.37796 143.334 2.44414C137.188 1.51031 130.975 1.03864 124.517 1.02435ZM110.65 0.762304C115.226 0.262042 119.836 0.0142932 124.517 0C131.042 0.0190576 137.303 0.490733 143.487 1.42932C149.667 2.36791 155.784 3.77817 162.017 5.66487C163.831 6.16037 164.75 7.55634 164.917 9.05712C164.98 9.62885 164.932 10.2149 164.783 10.7675C164.63 11.325 164.377 11.8586 164.022 12.316C163.108 13.4975 161.572 14.1979 159.547 13.65L159.532 13.6452C149.48 10.6008 139.428 8.86178 129.318 8.44251C119.214 8.02801 109.051 8.93325 98.7743 11.1773H98.76C96.8692 11.5203 95.414 10.8057 94.5524 9.67173C94.1791 9.181 93.9206 8.61403 93.7818 8.01848C93.6477 7.42293 93.6382 6.7988 93.7578 6.19848C94.045 4.80728 95.0455 3.54471 96.9027 3.03492L96.9458 3.02063C101.512 2.01058 106.069 1.26257 110.65 0.762304ZM65.3007 23.1264C66.617 22.3403 67.0287 21.1539 66.8516 20.0534C66.7846 19.6198 66.6218 19.1958 66.3873 18.8098L66.3729 18.7813C66.1432 18.4096 65.8464 18.0761 65.497 17.8093C64.6066 17.1328 63.3716 16.9231 62.1127 17.6759L62.084 17.6902C61.0261 18.2953 59.9539 18.9385 58.8721 19.6103C57.7712 20.2916 56.7181 20.9681 55.6985 21.6351C54.5114 22.426 54.138 23.5933 54.3151 24.6701C54.3869 25.1227 54.5593 25.561 54.8034 25.9517C55.0523 26.3376 55.373 26.6759 55.7512 26.9331C56.6415 27.5382 57.8765 27.6716 59.2072 26.8903C60.2028 26.228 61.2128 25.5848 62.2228 24.9559C63.2137 24.3413 64.2428 23.7315 65.3007 23.1264ZM67.8712 19.8961C68.1057 21.3779 67.5648 22.9644 65.8272 24.003L65.8177 24.0078C64.822 24.5795 63.8024 25.1894 62.7685 25.8278C61.7537 26.4567 60.7533 27.0951 59.772 27.7431L59.7529 27.7574C58.0201 28.7913 56.3782 28.5959 55.172 27.7812C54.6741 27.4429 54.2529 26.9998 53.9322 26.4948C53.6163 25.9946 53.3961 25.4228 53.3004 24.8368C53.061 23.3884 53.5541 21.8305 55.1241 20.7871C56.2107 20.0724 57.2829 19.3863 58.3264 18.7384C59.3699 18.0904 60.4517 17.4472 61.5718 16.804L61.5814 16.7993C63.2615 15.794 64.9178 16.0846 66.124 16.9946C66.574 17.3376 66.9569 17.7664 67.2537 18.2524L67.2728 18.281C67.5696 18.7717 67.7802 19.3244 67.8712 19.8961ZM42.4345 40.2878C43.5354 39.1919 43.6503 37.9389 43.2147 36.9193C43.0424 36.5144 42.7839 36.138 42.4632 35.8235C42.1473 35.5043 41.7691 35.247 41.3575 35.0707C40.3235 34.6277 39.079 34.7182 38.0546 35.7378L38.0211 35.7663C34.2109 39.4159 32.2962 42.5842 32.009 44.5471C31.918 45.1665 31.9946 45.6239 32.2291 45.8907C32.4541 46.1432 32.8658 46.2528 33.4546 46.1861C35.2592 45.9765 38.3179 44.2184 42.4345 40.2878ZM44.1625 36.5191C44.7512 37.9008 44.6124 39.5731 43.1668 41.0119L43.1573 41.0215C38.8588 45.1284 35.5751 46.977 33.5742 47.2057C32.6264 47.3152 31.9132 47.0818 31.4585 46.5672C31.0133 46.067 30.8506 45.3237 30.9846 44.3947C31.3053 42.2459 33.3205 38.8441 37.3031 35.0279L37.3222 35.0088C38.696 33.6462 40.3714 33.5318 41.7643 34.1274C42.2909 34.3561 42.7791 34.6896 43.1908 35.0946C43.6024 35.5043 43.9375 35.9903 44.1625 36.5191ZM17.4908 74.8582C18.1274 73.5909 17.8115 72.3855 17.06 71.5517C16.7632 71.223 16.3994 70.9467 15.9973 70.7466C15.5952 70.5465 15.1549 70.4178 14.7145 70.3845C13.604 70.2987 12.4456 70.8085 11.7419 72.2092C9.0087 77.998 6.79244 83.8105 5.02614 89.7565C3.26462 95.7025 1.95306 101.787 1.04358 108.123C0.923907 109.572 1.54618 110.61 2.44609 111.172C2.84339 111.42 3.29813 111.582 3.76244 111.644C4.22675 111.706 4.70543 111.673 5.15538 111.539C6.17496 111.234 7.05571 110.396 7.32377 108.948C8.13273 103.049 9.39164 97.2557 11.0766 91.5908C12.7806 85.8878 14.9203 80.3039 17.486 74.8725L17.4908 74.8582ZM17.8307 70.8704C18.8407 71.9948 19.2667 73.61 18.4146 75.3109C15.8777 80.6899 13.7524 86.2213 12.0674 91.8814C10.3921 97.4987 9.14752 103.24 8.34813 109.086L8.34335 109.109C7.99391 111.006 6.81638 112.116 5.45216 112.526C4.8586 112.702 4.23154 112.745 3.62363 112.659C3.01571 112.578 2.42216 112.368 1.89561 112.04C0.694144 111.287 -0.138748 109.924 0.0192144 108.038L0.0240011 107.976C0.943054 101.596 2.25941 95.4643 4.04007 89.4659C5.81595 83.4723 8.05614 77.6121 10.8133 71.7709L10.8181 71.7566C11.7467 69.9128 13.2928 69.2458 14.7911 69.3601C15.3655 69.403 15.9351 69.5698 16.4569 69.827C16.9738 70.0891 17.4429 70.4416 17.8307 70.8704ZM7.82159 144.48C7.54396 143.003 6.58183 142.213 5.49045 141.989C5.05486 141.903 4.59533 141.898 4.15495 141.979L4.13581 141.984C3.70021 142.065 3.27419 142.227 2.90083 142.456C1.95306 143.051 1.32121 144.128 1.58448 145.571C1.79988 146.815 2.02486 148.044 2.26898 149.269C2.5131 150.503 2.77159 151.727 3.04922 152.937C3.48002 154.476 4.50917 155.21 5.60533 155.343C6.04571 155.396 6.50045 155.358 6.93126 155.238L6.95041 155.234C7.37643 155.115 7.7833 154.914 8.13752 154.652C9.04221 153.981 9.59268 152.871 9.22889 151.541L9.2241 151.522C8.95126 150.355 8.70235 149.188 8.47259 148.02C8.24282 146.863 8.02742 145.691 7.82638 144.499L7.82159 144.48ZM5.69628 140.983C7.16581 141.283 8.46301 142.336 8.83159 144.29L8.84117 144.333C9.03742 145.49 9.25282 146.653 9.48259 147.825C9.71235 148.983 9.96126 150.136 10.2293 151.293C10.708 153.08 9.97084 154.571 8.75501 155.477C8.30505 155.81 7.77851 156.067 7.22804 156.22L7.2041 156.225C6.64405 156.382 6.05529 156.43 5.48088 156.363C4.00178 156.182 2.6232 155.224 2.06315 153.218L2.04879 153.166C1.76159 151.918 1.49832 150.688 1.25419 149.464C1.01486 148.235 0.785092 147.001 0.569689 145.752C0.225044 143.832 1.07708 142.389 2.35993 141.588C2.84339 141.288 3.38908 141.079 3.94912 140.979L3.96827 140.974C4.53789 140.869 5.13145 140.869 5.69628 140.983ZM15.9207 171.833C15.1836 170.375 14.03 169.851 12.929 169.932C12.4934 169.965 12.0531 170.089 11.6558 170.289C11.2537 170.494 10.8851 170.77 10.5883 171.099C9.82723 171.938 9.50174 173.129 10.1049 174.329L10.1192 174.358C10.6266 175.52 11.1436 176.659 11.6749 177.784C12.2015 178.894 12.7519 180.023 13.3359 181.162C13.9917 182.472 15.1453 182.958 16.2654 182.862C16.7106 182.824 17.1509 182.696 17.553 182.5C17.9599 182.295 18.3237 182.019 18.6157 181.69C19.3576 180.861 19.6496 179.642 18.9699 178.284C18.4434 177.259 17.9216 176.187 17.3951 175.077C16.8829 173.991 16.3946 172.91 15.9207 171.833ZM12.8572 168.907C14.3411 168.798 15.8777 169.479 16.8398 171.366L16.8637 171.418C17.3424 172.509 17.8307 173.586 18.3285 174.644C18.8119 175.673 19.3337 176.731 19.8889 177.822C20.7889 179.618 20.3868 181.247 19.3863 182.372C19.0034 182.805 18.5295 183.158 18.0125 183.415C17.4908 183.672 16.9212 183.839 16.3516 183.887C14.8437 184.011 13.288 183.367 12.4121 181.624C11.8472 180.514 11.292 179.38 10.7463 178.217C10.2006 177.064 9.67406 175.916 9.17624 174.763C8.36728 173.138 8.80287 171.537 9.82245 170.413C10.2054 169.989 10.6745 169.632 11.1915 169.374C11.7132 169.112 12.278 168.95 12.8572 168.907ZM39.7683 207.213C38.6817 206.132 37.4275 206.022 36.4032 206.456C35.9915 206.632 35.6134 206.889 35.2974 207.204C34.9815 207.523 34.7182 207.899 34.5459 208.309C34.1008 209.333 34.1965 210.577 35.2304 211.606L35.2352 211.611C39.6965 216.137 44.4018 220.277 49.3896 224.041C54.3774 227.8 59.6428 231.188 65.2385 234.208C66.6601 234.913 67.8951 234.632 68.728 233.903C69.0631 233.613 69.3359 233.251 69.537 232.85C69.738 232.446 69.8625 232.007 69.9007 231.564C70.0013 230.444 69.5274 229.296 68.2637 228.667L68.2493 228.658C63.0222 225.856 58.0488 222.664 53.3434 219.119C48.5423 215.503 44.0093 211.515 39.7683 207.213ZM35.9963 205.512C37.3845 204.926 39.0646 205.06 40.4958 206.484C44.7034 210.753 49.1981 214.708 53.9657 218.3C58.6328 221.816 63.5583 224.98 68.7376 227.757C70.4321 228.605 71.0639 230.154 70.9299 231.655C70.882 232.222 70.7193 232.789 70.4608 233.308C70.2023 233.822 69.8433 234.294 69.4125 234.675C68.2828 235.661 66.6362 236.052 64.7789 235.128L64.7646 235.118C59.1114 232.064 53.7934 228.648 48.7673 224.861C43.746 221.068 39.0024 216.899 34.5028 212.33C33.1195 210.953 32.9998 209.286 33.5934 207.904C33.8231 207.375 34.1582 206.889 34.5699 206.484C34.9767 206.075 35.465 205.736 35.9963 205.512ZM101.847 240.65C100.359 240.393 99.2769 241.012 98.6882 241.946C98.4488 242.322 98.2861 242.746 98.2095 243.184C98.1281 243.628 98.1281 244.085 98.2191 244.523C98.4393 245.614 99.2291 246.586 100.675 246.843L100.679 246.848C101.929 247.082 103.173 247.306 104.404 247.506C105.653 247.711 106.897 247.892 108.128 248.054C109.726 248.192 110.779 247.491 111.287 246.51C111.493 246.119 111.612 245.681 111.655 245.238C111.694 244.785 111.651 244.328 111.526 243.904L111.521 243.885C111.201 242.818 110.344 241.927 108.965 241.798H108.946C107.754 241.641 106.572 241.469 105.399 241.279L105.38 241.274C104.193 241.083 103.02 240.878 101.871 240.659L101.847 240.65ZM97.817 241.398C98.6116 240.14 100.057 239.301 102.025 239.644L102.068 239.649C103.245 239.873 104.404 240.078 105.548 240.264L105.567 240.269C106.739 240.454 107.907 240.631 109.075 240.783C110.928 240.955 112.072 242.151 112.507 243.589L112.512 243.618C112.675 244.166 112.732 244.752 112.685 245.324C112.632 245.9 112.474 246.467 112.206 246.982C111.517 248.306 110.124 249.259 108.032 249.068H108.013C106.739 248.907 105.481 248.721 104.236 248.516C102.972 248.311 101.723 248.087 100.488 247.854C98.5637 247.501 97.5058 246.196 97.2091 244.723C97.0942 244.161 97.0942 243.57 97.1947 243.003C97.3 242.436 97.5106 241.884 97.817 241.398ZM130.429 242.665C128.83 242.813 127.926 243.694 127.6 244.747L127.59 244.766C127.466 245.181 127.428 245.629 127.471 246.067C127.514 246.51 127.638 246.953 127.839 247.349L127.854 247.372C128.361 248.368 129.362 249.088 130.731 248.964H130.755C131.985 248.906 133.244 248.821 134.522 248.721C135.8 248.621 137.054 248.497 138.289 248.363H138.318C139.734 248.225 140.591 247.329 140.912 246.262C141.036 245.833 141.079 245.381 141.041 244.933C140.998 244.49 140.878 244.052 140.673 243.656C140.165 242.675 139.127 241.965 137.571 242.098C136.369 242.236 135.168 242.351 133.981 242.441C132.822 242.532 131.635 242.608 130.429 242.665ZM126.614 244.447C127.054 243.027 128.241 241.841 130.324 241.646L130.376 241.641C131.525 241.588 132.703 241.512 133.899 241.417C135.101 241.326 136.288 241.212 137.456 241.083H137.466C139.519 240.898 140.902 241.855 141.592 243.189C141.855 243.699 142.013 244.266 142.066 244.842C142.118 245.419 142.061 246.005 141.898 246.553C141.472 247.992 140.318 249.197 138.423 249.383H138.399C137.121 249.521 135.852 249.645 134.603 249.745C133.354 249.845 132.085 249.926 130.798 249.983C128.959 250.14 127.619 249.173 126.935 247.839L126.92 247.811C126.662 247.301 126.499 246.734 126.446 246.157C126.394 245.59 126.446 245.014 126.609 244.471L126.614 244.447ZM172.059 232.917C170.623 233.641 170.101 234.785 170.183 235.881C170.216 236.319 170.341 236.753 170.547 237.153C170.748 237.553 171.025 237.92 171.36 238.215C172.198 238.968 173.4 239.287 174.625 238.677L174.649 238.668C180.422 236.138 185.989 233.179 191.297 229.82C196.606 226.461 201.656 222.707 206.399 218.586C207.452 217.652 207.677 216.451 207.371 215.413C207.242 214.97 207.017 214.555 206.72 214.193C206.423 213.836 206.055 213.54 205.643 213.34L205.624 213.331C204.662 212.869 203.427 212.911 202.201 213.864L202.192 213.869C197.678 217.785 192.896 221.34 187.875 224.513C182.839 227.7 177.554 230.506 172.064 232.912L172.059 232.917ZM169.154 235.957C169.044 234.48 169.719 232.951 171.59 232.002L171.648 231.974C177.09 229.587 182.327 226.804 187.324 223.646C192.312 220.492 197.056 216.966 201.517 213.097L201.569 213.05C203.154 211.825 204.781 211.787 206.069 212.406L206.098 212.421C206.643 212.688 207.127 213.073 207.515 213.54C207.898 214.003 208.19 214.546 208.362 215.127C208.769 216.523 208.477 218.119 207.084 219.353C202.287 223.517 197.194 227.305 191.848 230.687C186.501 234.07 180.886 237.053 175.061 239.606C173.409 240.416 171.796 239.988 170.671 238.977C170.24 238.596 169.886 238.129 169.623 237.615C169.364 237.096 169.197 236.529 169.154 235.957ZM225.307 186.736C224.541 188.022 224.742 189.251 225.417 190.133C225.685 190.485 226.03 190.786 226.413 191.019C226.8 191.248 227.231 191.41 227.667 191.481C228.777 191.657 229.969 191.262 230.73 189.999C231.381 188.927 232.042 187.841 232.674 186.76C233.305 185.673 233.923 184.578 234.488 183.482C235.187 182.091 234.899 180.861 234.162 180.032C233.87 179.699 233.507 179.427 233.104 179.227C232.698 179.027 232.257 178.898 231.817 178.865C230.692 178.765 229.538 179.241 228.892 180.523L228.883 180.537C228.294 181.619 227.715 182.658 227.14 183.649C226.556 184.668 225.948 185.688 225.321 186.717L225.307 186.736ZM224.598 190.752C223.689 189.561 223.407 187.922 224.421 186.217L224.44 186.183C225.053 185.178 225.656 184.163 226.245 183.139C226.853 182.086 227.427 181.061 227.983 180.047C228.844 178.346 230.395 177.712 231.898 177.841C232.477 177.888 233.042 178.05 233.564 178.308C234.081 178.565 234.555 178.922 234.938 179.351C235.933 180.475 236.331 182.11 235.412 183.939L235.407 183.944C234.837 185.054 234.21 186.169 233.564 187.274C232.913 188.389 232.252 189.475 231.611 190.528C230.596 192.205 228.997 192.729 227.504 192.491C226.934 192.401 226.384 192.191 225.886 191.896C225.388 191.6 224.948 191.21 224.598 190.752ZM237.264 160.798C236.872 162.228 237.312 163.366 238.107 164.081C238.456 164.391 238.872 164.624 239.318 164.762C239.763 164.905 240.241 164.953 240.706 164.901C241.773 164.777 242.793 164.1 243.3 162.714C243.65 161.566 244.004 160.398 244.372 159.126C244.717 157.93 245.052 156.725 245.368 155.491V155.481C245.746 154.1 245.205 152.98 244.305 152.308C243.951 152.041 243.535 151.841 243.104 151.722C242.668 151.603 242.214 151.565 241.768 151.617C240.667 151.751 239.634 152.47 239.222 153.966C238.939 155.076 238.619 156.225 238.279 157.401C237.977 158.45 237.628 159.607 237.264 160.798ZM237.422 164.843C236.355 163.891 235.761 162.385 236.273 160.527V160.513C236.608 159.431 236.939 158.335 237.288 157.125C237.604 156.039 237.915 154.914 238.221 153.714L238.226 153.704C238.767 151.732 240.155 150.774 241.649 150.598C242.223 150.531 242.812 150.584 243.372 150.736C243.932 150.889 244.463 151.146 244.923 151.489C246.139 152.394 246.871 153.9 246.364 155.753C246.053 156.977 245.713 158.192 245.363 159.407C245.043 160.522 244.674 161.742 244.286 163.009L244.272 163.062C243.611 164.867 242.252 165.758 240.825 165.92C240.218 165.992 239.595 165.925 239.007 165.739C238.427 165.553 237.877 165.253 237.422 164.843ZM242.63 118.567C242.783 120.144 243.669 121.04 244.722 121.359C245.148 121.487 245.603 121.53 246.053 121.487C246.498 121.445 246.938 121.321 247.34 121.121C248.345 120.616 249.083 119.615 248.958 118.224L248.953 118.205C248.618 111.935 247.8 105.746 246.522 99.6522C245.229 93.5061 243.468 87.4601 241.251 81.5284C240.749 80.161 239.658 79.5512 238.533 79.5178C238.087 79.5035 237.637 79.5798 237.211 79.7322C236.785 79.8847 236.393 80.1134 236.063 80.4135C235.235 81.152 234.804 82.3288 235.33 83.7724C237.403 89.1705 239.059 94.8878 240.28 100.696C241.524 106.627 242.314 112.664 242.63 118.567ZM244.425 122.34C242.999 121.907 241.807 120.725 241.61 118.672L241.601 118.619C241.29 112.773 240.505 106.789 239.27 100.9C238.064 95.1546 236.422 89.4945 234.363 84.1345V84.1298C233.669 82.224 234.253 80.6517 235.373 79.6465C235.799 79.2653 236.312 78.9651 236.857 78.7698C237.403 78.5745 237.987 78.4744 238.561 78.4935C240.079 78.5364 241.548 79.3511 242.218 81.1758C244.454 87.1599 246.23 93.2536 247.527 99.4425C248.819 105.584 249.643 111.825 249.982 118.152C250.145 120.015 249.154 121.359 247.805 122.035C247.292 122.293 246.723 122.455 246.143 122.507C245.569 122.559 244.98 122.507 244.425 122.34ZM217.873 52.7514C218.783 53.9187 220.013 54.1712 221.085 53.8615C221.511 53.7377 221.918 53.528 222.277 53.2517C222.636 52.9754 222.937 52.6371 223.162 52.2559C223.727 51.2935 223.775 50.0405 222.846 48.8541L222.823 48.8208C222.081 47.8727 221.3 46.9103 220.482 45.924C219.678 44.9616 218.859 44.0088 218.031 43.0702C217.031 41.9553 215.786 41.779 214.733 42.1554C214.317 42.3031 213.924 42.5413 213.589 42.8415L213.56 42.8653C213.235 43.1559 212.967 43.5085 212.77 43.8944L212.751 43.9325C212.268 44.9188 212.306 46.1527 213.292 47.2533L213.316 47.2819C214.12 48.1919 214.891 49.0876 215.623 49.969C216.36 50.8552 217.112 51.7843 217.873 52.7514ZM221.372 54.8478C219.922 55.2623 218.27 54.9335 217.059 53.3803C216.356 52.4846 215.609 51.5651 214.829 50.6265C214.058 49.6974 213.297 48.8113 212.545 47.9632L212.522 47.9346C211.215 46.4719 211.172 44.8187 211.827 43.4799L211.847 43.437C212.095 42.9368 212.45 42.4841 212.871 42.103L212.9 42.0744C213.335 41.6933 213.843 41.3883 214.388 41.193C215.805 40.6832 217.471 40.9071 218.792 42.3746L218.806 42.3889C219.644 43.3417 220.467 44.3041 221.276 45.2713C222.052 46.2004 222.837 47.1723 223.636 48.1919L223.66 48.2205C224.89 49.7975 224.814 51.4746 224.053 52.7705C223.761 53.2707 223.368 53.7091 222.909 54.0616C222.454 54.4142 221.927 54.6858 221.372 54.8478ZM197.678 32.5456C198.875 33.4699 200.129 33.4175 201.096 32.8553C201.483 32.6314 201.823 32.3312 202.101 31.9739C202.378 31.6213 202.589 31.2163 202.713 30.7923C203.025 29.7203 202.771 28.5006 201.598 27.5906L201.569 27.5716C200.593 26.7997 199.597 26.0422 198.597 25.3037C197.553 24.5414 196.534 23.8125 195.533 23.1216C194.341 22.3307 193.116 22.407 192.187 22.9549C191.785 23.1883 191.431 23.5075 191.158 23.8839C190.885 24.2651 190.689 24.6939 190.598 25.1417C190.383 26.1899 190.727 27.3715 191.943 28.3148L191.958 28.3244C192.939 29.0104 193.901 29.6965 194.83 30.3778C195.792 31.0829 196.744 31.8071 197.678 32.5456ZM201.617 33.7415C200.311 34.499 198.626 34.58 197.046 33.3556L197.041 33.3508C196.122 32.6218 195.174 31.9072 194.222 31.202C193.255 30.4922 192.302 29.8156 191.369 29.1629L191.307 29.1248C189.737 27.9051 189.301 26.3376 189.588 24.9369C189.713 24.3413 189.971 23.7744 190.325 23.2836C190.68 22.7976 191.139 22.3784 191.666 22.0687C192.915 21.3397 194.538 21.2302 196.103 22.264L196.113 22.2736C197.175 23.012 198.214 23.7505 199.205 24.4795C200.229 25.2275 201.234 25.9946 202.211 26.7712L202.23 26.7807C203.791 27.9908 204.121 29.6298 203.7 31.0782C203.542 31.6308 203.269 32.1549 202.915 32.6075C202.556 33.0602 202.115 33.4556 201.617 33.7415Z" fill="#464646"/>
<path fill-rule="evenodd" clip-rule="evenodd" d="M125.001 16.704C185.089 16.704 233.808 65.1913 233.808 124.999C233.808 184.811 185.089 233.298 125.001 233.298C64.9132 233.298 16.1938 184.811 16.1938 124.999C16.1938 65.1913 64.9132 16.704 125.001 16.704ZM125.001 25.3037C69.6856 25.3037 24.8387 69.9414 24.8387 124.999C24.8387 180.061 69.6856 224.699 125.001 224.699C180.321 224.699 225.164 180.061 225.164 124.999C225.164 69.9414 180.321 25.3037 125.001 25.3037Z" fill="#464646"/>
</svg>
