<?xml version="1.0" encoding="utf-8"?>
<svg viewBox="-9096.1431 -13320.3008 18451.7944 17989.8633" xmlns="http://www.w3.org/2000/svg">
  <path class="fil1" d="M17506 12121l-4345 4369c-1976,1990 -5216,2001 -7206,24 -1990,-1976 -2001,-5216 -25,-7206l7751 -7809c1590,-1594 3989,-1919 5903,-965 -72,427 -136,851 -202,1278 -1506,-955 -3531,-771 -4837,540l-7756 7808c-1508,1518 -1499,3991 18,5498 1518,1507 3991,1499 5498,-19l4603 -4639c135,411 338,790 598,1121z" style="fill: rgb(63, 63, 65);" transform="matrix(0.9999999999999999, 0, 0, 0.9999999999999999, -13551.362304687502, -13320.0927734375)"/>
  <path class="fil2" d="M15279 12215l-3192 3208c-1387,1397 -3668,1405 -5065,17 -1397,-1387 -1405,-3668 -17,-5065l3186 -3214 395 392c-445,807 -344,3471 -403,4572 1263,-48 3942,299 4814,-189l282 279z" style="fill: rgb(22, 184, 158);" transform="matrix(0.9999999999999999, 0, 0, 0.9999999999999999, -13551.362304687502, -13320.0927734375)"/>
  <path class="fil3" d="M19971 11401c-10,0 -18,0 -33,0 -1609,6 -2920,-1291 -2925,-2905 -7,-1905 2195,-2402 2925,-6481 762,4074 2962,4556 2969,6461 5,1613 -1296,2920 -2905,2925 -7,0 -17,0 -31,0z" style="fill: rgb(51, 187, 165);" transform="matrix(0.9999999999999999, 0, 0, 0.9999999999999999, -13551.362304687502, -13320.0927734375)"/>
  <path class="fil2" d="M11186 11365c5,5 24,-5 24,0l418 -17c888,-3 2195,516 3130,-107 1279,-855 692,-2604 -590,-2476l-455 59c-6,-154 119,-495 12,-887 -272,-1012 -1703,-1229 -2424,-165 -388,572 -341,1302 -263,1791l148 1802z" style="fill: rgb(22, 184, 158);" transform="matrix(0.9999999999999999, 0, 0, 0.9999999999999999, -13551.362304687502, -13320.0927734375)"/>
</svg>