<?xml version="1.0" encoding="utf-8"?>
<svg viewBox="344.0388 152.8398 81 80" width="81" height="80" xmlns="http://www.w3.org/2000/svg">
  <path fill-rule="evenodd" clip-rule="evenodd" d="M 310.96 4.71 L 387.901 4.71 C 390.132 4.71 391.96 6.424 391.96 8.498 L 391.96 80.904 C 391.96 82.996 390.132 84.71 387.901 84.71 L 310.96 84.71 L 310.96 4.71 Z" fill="#419687" transform="matrix(1, 0, 0, 1, 33.078853607177734, 148.1298370361328)"/>
  <path fill-rule="evenodd" clip-rule="evenodd" d="M 326.22 49.73 C 322.85 50.35 323.53 54.35 323.53 57.5 C 323.53 61.38 323.59 63.45 325.88 65.75 C 328.12 68.02 329.59 68.44 333.73 68.41 L 365.53 68.41 C 369.13 68.41 371.71 68.47 373.98 66.34 C 376.11 64.38 376.93 62.68 376.93 58.69 C 376.93 55.2 377.58 51.23 375.17 50.02 C 373.64 49.25 372.25 49.79 371.34 50.73 C 369.55 52.57 370.91 57.76 370.38 60.4 C 370.01 62.07 368.45 61.96 366.72 61.96 L 334.89 61.96 C 329.33 61.96 330.04 61.73 330.04 56.35 C 330.04 54.9 330.27 52.58 329.64 51.39 C 329.08 50.35 327.8 49.45 326.22 49.73 Z M 346.97 44.46 C 346.37 44.15 343.31 40.49 342.69 39.9 C 341.27 38.6 340.68 37.66 339.91 36.98 C 339.09 36.24 337.3 34.12 334.86 36.07 C 331.54 38.71 335.99 42.16 336.76 43.07 C 339.82 46.64 344.39 51.12 347.56 54.64 C 350.39 57.79 352.38 55.07 353.43 54.04 C 353.86 53.64 354.05 53.53 354.45 53.1 L 365.25 41.51 C 368.28 38.62 366.27 35.05 363.21 35.33 C 362.05 35.44 361.54 35.98 360.8 36.66 C 360.18 37.28 359.64 37.96 359.04 38.64 L 353.48 44.42 L 353.48 22.54 C 353.48 20.47 352.83 18.34 350.22 18.34 C 347.78 18.34 346.96 20.18 346.99 22.54 C 347.02 29.29 347.19 38.14 346.97 44.46 Z" fill="white" transform="matrix(1, 0, 0, 1, 33.078853607177734, 148.1298370361328)"/>
</svg>