<svg width="13" height="15" viewBox="0 0 13 15" fill="none" xmlns="http://www.w3.org/2000/svg">
<path fill-rule="evenodd" clip-rule="evenodd" d="M10.2648 7.09143C11.2263 7.09143 12.0287 6.28902 12.0287 5.32758C12.0287 4.34444 11.2263 3.56372 10.2648 3.56372C9.30339 3.56372 8.50098 4.34444 8.50098 5.32758C8.50098 6.28902 9.30339 7.09143 10.2648 7.09143Z" fill="#E51E27"/>
<path fill-rule="evenodd" clip-rule="evenodd" d="M6.20964 15C7.13494 15 7.87229 14.2627 7.87229 13.3374C7.87229 13.2145 7.87229 13.1133 7.8506 13.012H4.56867C4.54699 13.1133 4.5253 13.2145 4.5253 13.3374C4.5253 14.2627 5.28434 15 6.20964 15ZM0.657831 10.9807C0.310843 10.9807 0 11.2699 0 11.6169C0 11.9855 0.310843 12.2747 0.657831 12.2747H11.7253C12.0723 12.2747 12.3614 11.9855 12.3614 11.6169C12.3614 11.2699 12.0723 10.9807 11.7253 10.9807C11.4 10.9807 10.8217 10.4096 10.8217 10.2V8.27711C10.6337 8.2988 10.453 8.32048 10.2651 8.32048C8.60241 8.32048 7.2506 6.99036 7.2506 5.32771C7.2506 4.15663 7.90843 3.15904 8.86988 2.66024C8.2988 2.29157 7.61928 2.06747 6.88193 2.0241C6.9253 1.65542 6.88193 1.01928 6.88193 0.628916C6.88193 0.289157 6.6 0 6.25301 0C5.90602 0 5.61687 0.289157 5.61687 0.636145V2.03133C3.44819 2.13253 1.68434 3.93976 1.68434 6.13012V10.2506C1.67711 10.3301 1.20723 10.9807 0.657831 10.9807Z" fill="#028575"/>
</svg>
