<svg width="21" height="26" viewBox="0 0 21 26" fill="none" xmlns="http://www.w3.org/2000/svg">
<path fill-rule="evenodd" clip-rule="evenodd" d="M2.55 1H14.85L20.41 6.58V24.27C20.41 24.84 19.93 25.29 19.36 25.29H2.55C1.98 25.29 1.5 24.84 1.5 24.27V2.05C1.5 1.49 1.98 1 2.55 1Z" fill="white" stroke="#007D6F" stroke-width="0.5669" stroke-miterlimit="10" stroke-linecap="round" stroke-linejoin="round"/>
<path fill-rule="evenodd" clip-rule="evenodd" d="M14.94 1.09V5.65C14.94 6.13 15.34 6.5 15.93 6.5H20.32L14.94 1.09Z" fill="#007D6F"/>
<path fill-rule="evenodd" clip-rule="evenodd" d="M5.13 14.3H16.78C17.06 14.3 17.29 14.53 17.29 14.81C17.29 15.12 17.06 15.35 16.78 15.35H5.13C4.85 15.35 4.62 15.12 4.62 14.81C4.62 14.52 4.85 14.3 5.13 14.3Z" fill="#007D6F"/>
<path fill-rule="evenodd" clip-rule="evenodd" d="M5.13 17.53H16.78C17.06 17.53 17.29 17.76 17.29 18.04C17.29 18.35 17.06 18.58 16.78 18.58H5.13C4.85 18.58 4.62 18.35 4.62 18.04C4.62 17.76 4.85 17.53 5.13 17.53Z" fill="#007D6F"/>
<path fill-rule="evenodd" clip-rule="evenodd" d="M5.13 20.76H16.78C17.06 20.76 17.29 20.99 17.29 21.27C17.29 21.58 17.06 21.81 16.78 21.81H5.13C4.85 21.81 4.62 21.58 4.62 21.27C4.62 20.99 4.85 20.76 5.13 20.76Z" fill="#007D6F"/>
<path fill-rule="evenodd" clip-rule="evenodd" d="M1.5 5.28H13.12C13.32 5.28 13.46 5.45 13.46 5.65V10.16C13.46 10.36 13.32 10.5 13.12 10.5H1.5V5.28Z" fill="#007D6F"/>
<path fill-rule="evenodd" clip-rule="evenodd" d="M0 6.96V11.72C0.31 11.04 0.77 10.61 1.5 10.5L1.53 5.28C0.74 5.31 0 6.22 0 6.96Z" fill="#007D6F"/>
<path fill-rule="evenodd" clip-rule="evenodd" d="M0 11.72V12.46C0 12.91 0.65 13.88 1.5 13.88V10.5C0.77 10.61 0.31 11.04 0 11.72Z" fill="#007D6F"/>
<path d="M3.42999 9.45V6.36H4.41999C4.81999 6.36 5.03999 6.36 5.15999 6.39C5.35999 6.45 5.49999 6.56 5.60999 6.7C5.71999 6.87 5.77999 7.07 5.77999 7.3C5.77999 7.5 5.74999 7.67 5.68999 7.78C5.60999 7.92 5.52999 8.01 5.43999 8.09C5.32999 8.18 5.21999 8.2 5.09999 8.23C4.95999 8.26 4.72999 8.29 4.44999 8.29H4.04999V9.45H3.42999ZM4.04999 6.87V7.75H4.38999C4.64999 7.75 4.78999 7.75 4.86999 7.72C4.95999 7.66 5.03999 7.63 5.06999 7.55C5.12999 7.49 5.15999 7.41 5.15999 7.32C5.15999 7.21 5.12999 7.09 5.04999 7.04C4.98999 6.96 4.89999 6.93 4.78999 6.9C4.72999 6.87 4.58999 6.87 4.35999 6.87H4.04999ZM6.31999 6.36H7.44999C7.70999 6.36 7.89999 6.36 8.04999 6.42C8.21999 6.47 8.35999 6.56 8.49999 6.7C8.63999 6.84 8.72999 7.01 8.77999 7.21C8.86999 7.41 8.89999 7.64 8.89999 7.92C8.89999 8.18 8.86999 8.4 8.80999 8.6C8.71999 8.83 8.60999 9 8.46999 9.14C8.35999 9.25 8.20999 9.34 8.03999 9.4C7.90999 9.42 7.70999 9.45 7.47999 9.45H6.31999V6.36ZM6.93999 6.87V8.94H7.39999C7.56999 8.94 7.70999 8.91 7.76999 8.88C7.87999 8.88 7.96999 8.82 8.02999 8.77C8.11999 8.71 8.16999 8.6 8.19999 8.46C8.25999 8.35 8.25999 8.15 8.25999 7.89C8.25999 7.66 8.25999 7.46 8.19999 7.35C8.15999 7.21 8.07999 7.13 8.01999 7.04C7.93999 6.98 7.84999 6.93 7.73999 6.9C7.64999 6.9 7.47999 6.87 7.22999 6.87H6.93999ZM9.43999 9.45V6.36H11.57V6.87H10.07V7.61H11.37V8.15H10.07V9.45H9.43999Z" fill="white"/>
</svg>
