<svg width="25" height="28" viewBox="0 0 25 28" fill="none" xmlns="http://www.w3.org/2000/svg">
<path fill-rule="evenodd" clip-rule="evenodd" d="M12.13 27.64C18.65 27.64 23.95 22.34 23.95 15.82C23.95 9.73 19.36 4.71 13.43 4.06V2.66H14.9C15.01 2.66 15.1 2.57 15.1 2.46V0.51C15.1 0.37 15.01 0.28 14.9 0.28H9.35C9.24 0.28 9.12 0.37 9.12 0.51V2.47C9.12 2.58 9.23 2.67 9.35 2.67H10.8V4.06C4.88 4.71 0.28 9.72 0.28 15.82C0.28 22.34 5.58 27.64 12.13 27.64ZM12.13 15.82L12.27 7.54C12.21 7.54 12.16 7.54 12.13 7.54C7.57 7.54 3.85 11.25 3.85 15.82C3.85 20.36 7.56 24.07 12.13 24.07C15.13 24.07 17.88 22.43 19.33 19.82L12.13 15.82ZM12.13 25.77C17.63 25.77 22.08 21.32 22.08 15.82C22.08 10.29 17.63 5.84 12.13 5.84C6.6 5.84 2.15 10.29 2.15 15.82C2.15 21.32 6.6 25.77 12.13 25.77Z" fill="white" stroke="white" stroke-width="0.5669" stroke-miterlimit="10" stroke-linecap="round" stroke-linejoin="round"/>
</svg>
