<svg width="18" height="24" viewBox="0 0 18 24" fill="none" xmlns="http://www.w3.org/2000/svg">
<path fill-rule="evenodd" clip-rule="evenodd" d="M9.18001 0.390015C13.77 0.390015 17.51 4.10002 17.51 8.72002C17.51 15.66 11.36 14.64 9.06001 23.21C6.14001 14.79 0.640015 15.67 0.640015 8.72002C0.640015 4.10002 4.38002 0.390015 8.97002 0.390015C9.00002 0.390015 9.03001 0.390015 9.06001 0.390015C9.12001 0.390015 9.15001 0.390015 9.18001 0.390015ZM9.06001 13.89C11.92 13.89 14.22 11.59 14.22 8.73001C14.22 5.90001 11.92 3.57002 9.06001 3.57002C6.23001 3.57002 3.93001 5.89001 3.93001 8.73001C3.93001 11.59 6.23001 13.89 9.06001 13.89Z" fill="#221F20"/>
</svg>
