<svg width="50" height="50" viewBox="0 0 50 50" fill="none" xmlns="http://www.w3.org/2000/svg">
<g clip-path="url(#clip0_1_6)">
<path fill-rule="evenodd" clip-rule="evenodd" d="M24.9754 0C38.7923 0 50 11.2077 50 25.0246C50 38.8415 38.7923 50 24.9754 50C11.1585 50 0 38.8415 0 25.0246C0 11.2077 11.1585 0 24.9754 0ZM34.9852 30.3249C34.9852 32.8848 32.8848 34.9688 30.2921 34.9688H19.6915C17.1316 34.9688 15.0476 32.8684 15.0476 30.3249V19.7243C15.0476 17.1152 17.148 15.0312 19.6915 15.0312H30.2921C32.9012 15.0312 34.9852 17.1316 34.9852 19.7243V30.3249ZM32.8848 18.5592C32.8848 19.2977 32.2284 19.9541 31.49 19.9541C30.7023 19.9541 30.0459 19.2977 30.0459 18.5592C30.0459 17.7716 30.7023 17.1152 31.49 17.1152C32.2284 17.1152 32.8848 17.7716 32.8848 18.5592ZM24.9754 29.1106C22.7437 29.1106 20.9222 27.2563 20.9222 25.0246C20.9222 22.7437 22.7437 20.9386 24.9754 20.9386C27.2563 20.9386 29.0614 22.7601 29.0614 25.0246C29.0778 27.2563 27.2563 29.1106 24.9754 29.1106ZM24.9754 18.7397C21.5294 18.7397 18.7397 21.5294 18.7397 25.0246C18.7397 28.4706 21.5294 31.2603 24.9754 31.2603C28.4706 31.2603 31.2603 28.4706 31.2603 25.0246C31.2603 21.5294 28.4706 18.7397 24.9754 18.7397ZM30.3249 13.1113H19.6751C16.0486 13.1113 13.1113 16.0486 13.1113 19.6751V30.3249C13.1113 33.9514 16.0486 36.8887 19.6751 36.8887H30.3249C33.9514 36.8887 36.8887 33.9514 36.8887 30.3249V19.6751C36.8887 16.0486 33.9514 13.1113 30.3249 13.1113Z" fill="white"/>
</g>
<defs>
<clipPath id="clip0_1_6">
<rect width="50" height="50" fill="white"/>
</clipPath>
</defs>
</svg>
