<svg width="14" height="15" viewBox="0 0 14 15" fill="none" xmlns="http://www.w3.org/2000/svg">
<path fill-rule="evenodd" clip-rule="evenodd" d="M1.10019 5.64477H12.8643V13.7344C12.8643 13.9789 12.663 14.1659 12.4329 14.1659H1.54602C1.30153 14.1659 1.10019 13.9789 1.10019 13.7344V5.64477ZM3.78955 0C4.03404 0 4.25695 0.201342 4.25695 0.467402V1.83365C4.25695 2.07814 4.03404 2.30105 3.78955 2.30105C3.52349 2.30105 3.32215 2.07814 3.32215 1.83365V0.467402C3.32215 0.201342 3.52349 0 3.78955 0ZM9.90892 0C10.175 0 10.3763 0.201342 10.3763 0.467402V1.83365C10.3763 2.07814 10.175 2.30105 9.90892 2.30105C9.64286 2.30105 9.44151 2.07814 9.44151 1.83365V0.467402C9.43432 0.201342 9.64286 0 9.90892 0ZM1.22244 2.68936H2.68936V3.279C2.68936 3.86865 3.17833 4.35762 3.78955 4.35762C4.37919 4.35762 4.86817 3.86865 4.86817 3.279V2.68936H8.82311V3.279C8.82311 3.86865 9.31208 4.35762 9.90173 4.35762C10.4914 4.35762 10.9803 3.86865 10.9803 3.279V2.68936H12.4688C13.1448 2.68936 13.6913 3.24305 13.6913 3.91179V13.7776C13.6913 14.4535 13.1376 15 12.4688 15H1.22244C0.5465 15 0 14.4463 0 13.7776V3.91179C0 3.24305 0.553691 2.68936 1.22244 2.68936Z" fill="#049B8A"/>
<path d="M4.70996 6.96788H2.46643V9.18984H4.70996V6.96788Z" fill="#049B8A"/>
<path d="M8.13278 6.96788H5.86768V9.18984H8.13278V6.96788Z" fill="#049B8A"/>
<path d="M11.5412 6.96788H9.27611V9.18984H11.5412V6.96788Z" fill="#049B8A"/>
<path d="M11.5412 10.5561H9.27611V12.7996H11.5412V10.5561Z" fill="#049B8A"/>
<path d="M8.13278 10.5561H5.86768V12.7996H8.13278V10.5561Z" fill="#049B8A"/>
<path d="M4.70996 10.5561H2.46643V12.7996H4.70996V10.5561Z" fill="#049B8A"/>
</svg>
