<svg width="14" height="15" viewBox="0 0 14 15" fill="none" xmlns="http://www.w3.org/2000/svg">
<path fill-rule="evenodd" clip-rule="evenodd" d="M6.74412 15C10.4711 15 13.4882 12.0933 13.4882 8.51165C13.4896 5.17049 10.8701 2.42184 7.50084 2.06049V1.30325H8.32659C8.39287 1.30325 8.44811 1.25011 8.44811 1.18634V0.116907C8.44811 0.0531397 8.39287 0 8.32659 0H5.16442C5.09814 0 5.0429 0.0531397 5.0429 0.116907V1.18634C5.0429 1.25011 5.09814 1.30325 5.16442 1.30325H5.99017V2.06049C2.61949 2.42184 0 5.17049 0 8.51165C0 12.0919 3.0227 15 6.74412 15ZM6.74412 8.51165L6.82698 3.98149C6.79936 3.98149 6.77174 3.98149 6.74412 3.98149C4.14534 3.98149 2.03953 6.00744 2.03953 8.51165C2.03953 11.0119 4.14534 13.0378 6.74412 13.0378C8.45501 13.0378 10.032 12.1451 10.8619 10.7037L6.74412 8.51165ZM6.74412 13.9757C9.88282 13.9757 12.4277 11.5273 12.4277 8.51165C12.4277 5.49198 9.88282 3.04357 6.74412 3.04357C3.60543 3.04357 1.06188 5.49066 1.06188 8.51165C1.06188 11.5273 3.60543 13.9757 6.74412 13.9757Z" fill="black"/>
</svg>
