<svg width="18" height="21" viewBox="0 0 18 21" fill="none" xmlns="http://www.w3.org/2000/svg">
<path fill-rule="evenodd" clip-rule="evenodd" d="M8.94228 20.28C13.7084 20.28 17.5826 16.4057 17.5826 11.6396C17.5826 7.18789 14.2274 3.5183 9.89257 3.04316V2.01977H10.9671C11.0475 2.01977 11.1133 1.95398 11.1133 1.87357V0.448128C11.1133 0.345789 11.0475 0.28 10.9671 0.28H6.91012C6.82971 0.28 6.74199 0.345789 6.74199 0.448128V1.88088C6.74199 1.96129 6.8224 2.02708 6.91012 2.02708H7.97006V3.04316C3.64257 3.5183 0.28 7.18058 0.28 11.6396C0.28 16.4057 4.15427 20.28 8.94228 20.28ZM8.94228 11.6396L9.04462 5.58702C9.00076 5.58702 8.96421 5.58702 8.94228 5.58702C5.60895 5.58702 2.88965 8.29901 2.88965 11.6396C2.88965 14.9584 5.60164 17.6704 8.94228 17.6704C11.1353 17.6704 13.1455 16.4715 14.2054 14.5636L8.94228 11.6396ZM8.94228 18.913C12.9627 18.913 16.2157 15.6601 16.2157 11.6396C16.2157 7.59725 12.9627 4.34433 8.94228 4.34433C4.89988 4.34433 1.64696 7.59725 1.64696 11.6396C1.64696 15.6601 4.89988 18.913 8.94228 18.913Z" fill="black" stroke="black" stroke-width="0.5669" stroke-miterlimit="10" stroke-linecap="round" stroke-linejoin="round"/>
</svg>
