<svg width="37" height="37" viewBox="0 0 37 37" fill="none" xmlns="http://www.w3.org/2000/svg">
<path fill-rule="evenodd" clip-rule="evenodd" d="M18.51 0C28.52 0 36.65 8.14001 36.65 18.14C36.65 28.17 28.51 36.31 18.51 36.31C8.48003 36.31 0.340027 28.17 0.340027 18.14C0.340027 8.13001 8.47003 0 18.51 0Z" fill="#049B8A"/>
<path d="M12.3981 17.5483C11.3588 16.9203 9.99231 17.2343 9.33793 18.2317C8.68354 19.2846 9.01074 20.5961 10.0501 21.2241L17.5177 25.6757C18.6148 26.3037 19.9813 25.9897 20.6357 24.9922L27.6799 13.2076C28.3343 12.2101 27.9494 10.8432 26.8523 10.2706C25.813 9.69798 24.4465 10.0675 23.7921 11.0649L17.9604 20.8547L12.3981 17.5483Z" fill="white"/>
</svg>
