<svg width="33" height="33" viewBox="0 0 33 33" fill="none" xmlns="http://www.w3.org/2000/svg">
<path fill-rule="evenodd" clip-rule="evenodd" d="M18.4285 29.7271C17.7146 29.7271 16.9813 29.7271 16.6146 29.7271C13.7201 29.7271 11.5588 29.3592 9.3783 27.9067C9.01165 27.9067 9.01165 27.5387 8.66431 27.9067C7.21704 28.2746 5.76977 28.6232 4.32251 28.9912C3.95587 28.9912 3.95587 28.9912 3.95587 28.6232C4.32251 27.1708 4.66985 26.0863 5.03649 24.6338C5.03649 24.2658 5.03649 23.9173 5.03649 23.5493C2.14196 18.8433 2.14196 13.0335 5.40313 8.32746C9.01165 3.97007 13.7201 1.80106 19.1425 3.25352C24.565 4.33803 28.1735 7.95951 29.6207 13.4014C31.4347 21.0317 26.0122 28.294 18.4285 29.7271ZM32.1679 12.6849C30.354 5.07394 23.851 0 16.2673 0C15.1674 0 14.0867 0 13.3728 0.367958C2.52789 2.53697 -3.24188 14.5053 2.18055 23.9366C2.18055 24.3046 2.18055 24.6532 2.18055 25.0211C1.44727 27.5581 0.713985 30.0951 0 32.632C0 33 0 33 0.366641 33C2.89454 31.9155 5.78907 31.5475 8.31697 30.831C8.68361 30.831 8.68361 30.831 9.03095 30.831C12.2921 32.6514 15.9006 33 19.5092 32.2834C28.5401 30.463 34.3292 21.3996 32.1679 12.6849Z" fill="black"/>
<path fill-rule="evenodd" clip-rule="evenodd" d="M20.5898 23.9366C19.8758 24.3046 19.5092 23.9366 18.7759 23.9366C15.1674 22.8521 12.2729 20.6637 10.1116 17.4102C9.39763 16.3257 8.317 14.8733 8.317 13.4208C7.95036 11.9683 8.317 10.5159 9.76427 9.06339C10.1116 8.69543 11.1922 8.69543 11.9255 8.69543C11.9255 9.06339 11.9255 9.06339 12.2922 9.41198C12.6588 10.4965 13.0062 11.581 13.7394 12.6849C13.7394 13.0528 13.7394 13.0528 13.3728 13.4014C13.3728 13.7694 13.0062 14.118 12.6588 14.8539C12.2922 14.8539 12.2922 15.2218 12.2922 15.5704C13.7394 17.7394 15.5533 19.5599 18.0812 20.2764C18.4479 20.6444 18.7952 20.2764 18.7952 20.2764C19.1619 19.5599 19.5092 19.1919 19.8758 18.456C20.2425 18.456 20.5898 18.088 20.9565 18.456C21.6705 18.824 22.4037 19.1725 23.1177 19.5405C23.4844 19.5405 23.4844 19.5405 23.8317 19.9085C24.5457 20.2764 24.5457 20.2764 24.5457 20.993C24.5457 22.8134 23.0984 23.5299 21.6512 23.8979C21.3231 24.3046 20.9565 24.3046 20.5898 23.9366Z" fill="black"/>
</svg>
