<svg width="152" height="82" viewBox="0 0 152 82" fill="none" xmlns="http://www.w3.org/2000/svg">
<path d="M151 1H1V81H151V1Z" fill="white" stroke="#BBBDBF" stroke-width="0.5669" stroke-miterlimit="10" stroke-linecap="round" stroke-linejoin="round"/>
<path d="M100.71 52.4688H96.3555L96.7713 48.5527H101.126L100.71 52.4688Z" fill="#27B56B"/>
<path d="M47.8379 27.0431H43.3442L43.8641 23H48.3L47.8379 27.0431Z" fill="#27B56B"/>
<path d="M74.0028 47.7441C73.0902 48.1715 72.1199 48.518 71.0571 48.7491C70.0174 48.9801 68.8622 49.0725 67.6724 49.0725C64.4841 49.0725 61.9312 48.1368 59.9789 46.2308C58.0498 44.3247 57.0679 41.8411 57.0679 38.7452C57.0679 37.1626 57.3336 35.6031 57.8996 34.1361C58.4425 32.6805 59.2165 31.3636 60.2331 30.22C61.3651 28.9262 62.7282 27.9558 64.3108 27.2743C65.8703 26.5927 67.6031 26.2693 69.486 26.2693C70.8029 26.2693 72.039 26.431 73.1942 26.7776C74.3493 27.101 75.4468 27.5862 76.4518 28.2562L75.828 32.5188C74.7537 31.7102 73.6562 31.1557 72.6281 30.7514C71.5885 30.3933 70.5604 30.2084 69.4976 30.2084C67.1988 30.2084 65.3274 30.9824 63.8719 32.5304C62.4163 34.113 61.677 36.1114 61.677 38.5373C61.677 40.5357 62.2662 42.1299 63.4214 43.3428C64.5534 44.5096 66.1014 45.1103 68.0421 45.1103C69.3012 45.1103 70.4564 44.9485 71.5538 44.6251C72.6281 44.267 73.6216 43.7471 74.5342 43.0425L74.0028 47.7441Z" fill="#243F90"/>
<path d="M82.4011 36.5157H83.1057C83.8451 36.5157 84.4573 36.481 84.9771 36.3886C85.728 36.2615 86.2709 36.042 86.6175 35.7764C87.2297 35.2681 87.5763 34.4248 87.5763 33.2234C87.5763 32.2184 87.3106 31.5137 86.7908 31.121C86.4442 30.8322 85.832 30.6358 84.9887 30.5434C84.6306 30.5203 84.2147 30.5087 83.7295 30.5087H83.2097L82.4011 36.5157ZM84.9771 40.1545C84.388 40.1776 83.6949 40.2122 82.9787 40.2122H81.9159L80.8185 48.518H76.2671L79.1319 26.7891H83.3252C83.9375 26.7891 84.4804 26.8122 84.9771 26.8122C86.1785 26.8699 87.0796 26.9739 87.6803 27.1125C88.5466 27.332 89.286 27.7017 89.9329 28.233C90.6491 28.776 91.192 29.4691 91.5501 30.3008C91.9313 31.1325 92.1046 32.0451 92.1046 33.0501C92.1046 34.24 91.8851 35.3374 91.4808 36.3077C91.0534 37.2665 90.4065 38.029 89.5747 38.6759C88.8701 39.2188 88.0499 39.6116 87.0911 39.8426C86.5366 39.9928 85.832 40.0852 84.9771 40.1545Z" fill="#243F90"/>
<path d="M117.183 36.1921H117.853C118.593 36.1921 119.217 36.1574 119.736 36.0534C120.453 35.9495 121.019 35.7646 121.354 35.4989C121.977 35.0369 122.289 34.2051 122.289 33.05C122.289 32.0796 122.035 31.3981 121.515 31.0053C121.169 30.7165 120.545 30.5548 119.736 30.4624C119.355 30.4046 118.928 30.4046 118.454 30.4046H117.934L117.183 36.1921ZM119.736 44.879L116.872 38.5255L115.578 48.5063H110.992L113.868 26.7773H118.385C118.893 26.7773 119.321 26.8004 119.736 26.8004C120.961 26.8582 121.873 26.9391 122.486 27.0892C123.329 27.2741 124.045 27.6322 124.692 28.0942C125.397 28.6141 125.917 29.2494 126.298 29.9772C126.656 30.6934 126.818 31.4905 126.841 32.3684V32.5879C126.818 34.2051 126.379 35.5336 125.455 36.5964C124.496 37.6707 123.156 38.3753 121.423 38.7681L126.332 48.4947H121.354L119.736 44.879Z" fill="#243F90"/>
<path d="M28.3038 48.5526L30.6488 30.6358H25L25.5198 26.8237H40.9299L40.4447 30.6358H35.2002L32.8437 48.5526H28.3038Z" fill="#243F90"/>
<path d="M88.2114 48.5755L99.5437 26.939H104.546L109.894 48.5755H104.881L101.623 31.5019L93.2134 48.5755H88.2114Z" fill="#243F90"/>
<path d="M56.1663 27.0083H47.8144L47.2946 30.6818L42.8356 30.6933L40.5137 48.5177H53.417L53.8791 44.775L45.4809 44.7403L46.1856 39.4727L54.5838 39.4496L55.0112 35.7068L46.6477 35.6952L47.2253 30.6933L55.7505 30.6818L56.1663 27.0083Z" fill="#243F90"/>
<path d="M44.2225 54.3977L43.9337 56.5348C43.9106 56.6041 43.9106 56.6734 43.9106 56.7543C43.9106 56.812 43.8875 56.8582 43.8875 56.916C43.8875 57.147 43.9568 57.3319 44.107 57.4705C44.234 57.5744 44.4073 57.6553 44.6615 57.6553C44.8578 57.6553 45.0196 57.6322 45.1466 57.5629C45.2853 57.4936 45.4008 57.4012 45.4932 57.2625C45.6318 57.1239 45.7127 56.812 45.7589 56.3846C45.782 56.3269 45.782 56.2922 45.782 56.2806L46.0361 54.4093H46.6137L46.348 56.477C46.2903 56.8236 46.2556 57.0893 46.1863 57.251C46.1285 57.3896 46.0477 57.5398 45.9553 57.6669C45.8166 57.8286 45.6318 57.9672 45.4008 58.0596C45.1813 58.152 44.9387 58.1867 44.6499 58.1867C44.2225 58.1867 43.899 58.0943 43.6796 57.8863C43.4485 57.69 43.333 57.3781 43.333 56.9853C43.333 56.8929 43.3561 56.7658 43.3561 56.6041C43.3792 56.4655 43.4139 56.2806 43.4254 56.0958L43.6449 54.4093H44.2225V54.3977Z" fill="#243F90"/>
<path d="M41.1495 58.0827L41.5654 54.9175H40.5488L40.6412 54.3977H43.1595L43.0902 54.9175H42.1314L41.7387 58.0827H41.1495Z" fill="#243F90"/>
<path d="M39.1162 58.0827L39.6245 54.3977H40.1905L39.7054 58.0827H39.1162Z" fill="#243F90"/>
<path d="M37.0828 58.0827L37.4987 54.9175H36.4937L36.5745 54.3977H39.0928L39.0235 54.9175H38.0762L37.6604 58.0827H37.0828Z" fill="#243F90"/>
<path d="M33.5713 57.4591L33.9872 57.1125C34.0911 57.332 34.1835 57.4706 34.3106 57.5399C34.4377 57.6323 34.5647 57.6785 34.7265 57.6785C34.9228 57.6785 35.0846 57.6208 35.1885 57.4937C35.3156 57.3898 35.3734 57.228 35.3734 57.0432C35.3734 56.9161 35.3503 56.8122 35.281 56.7197C35.2116 56.6273 35.1192 56.5349 34.9344 56.4309C34.8997 56.4309 34.842 56.3963 34.7958 56.3616C34.5301 56.1999 34.3337 56.0728 34.2413 55.9689C34.172 55.8996 34.1142 55.8072 34.1027 55.7147C34.0449 55.6108 34.0334 55.4953 34.0334 55.3913C34.0334 55.0678 34.1373 54.8021 34.3337 54.6058C34.5532 54.4094 34.842 54.3054 35.1654 54.3054C35.3965 54.3054 35.5929 54.3401 35.7777 54.4325C35.9394 54.5249 36.078 54.6635 36.1935 54.8484L35.8354 55.1718C35.7661 55.0447 35.6737 54.9408 35.5698 54.8715C35.4773 54.8137 35.3503 54.779 35.2232 54.779C35.0384 54.779 34.8997 54.8368 34.7958 54.9408C34.6687 55.0447 34.611 55.1718 34.611 55.3566C34.611 55.553 34.7727 55.7378 35.1192 55.9111C35.1885 55.9689 35.2463 55.9804 35.3041 56.0151C35.5351 56.1537 35.7315 56.3039 35.8239 56.4656C35.9279 56.6273 35.9856 56.8122 35.9856 57.0432C35.9856 57.3898 35.8816 57.667 35.6391 57.8749C35.4196 58.0944 35.1192 58.1753 34.7034 58.1753C34.4492 58.1753 34.2413 58.1175 34.0334 57.9904C33.8485 57.8634 33.6984 57.6901 33.5713 57.4591Z" fill="#243F90"/>
<path d="M29.7134 58.0828L30.2217 54.2361L32.2317 56.558C32.301 56.6504 32.3587 56.7197 32.4281 56.789C32.4858 56.8583 32.532 56.9508 32.5898 57.0201C32.5898 56.9508 32.5898 56.8583 32.6129 56.7659C32.6129 56.6735 32.6129 56.5695 32.6475 56.4425L32.9132 54.3978H33.4562L32.9479 58.233L30.9379 55.9226C30.8455 55.8187 30.7761 55.7263 30.7184 55.657C30.6606 55.5876 30.6144 55.5183 30.5798 55.4375C30.5798 55.5645 30.5567 55.7263 30.522 55.9804C30.522 56.0035 30.522 56.0151 30.522 56.0382L30.2563 58.0828H29.7134Z" fill="#243F90"/>
<path d="M49.478 55.9458C49.4549 56.0844 49.4434 56.2346 49.4434 56.3732C49.4434 56.5349 49.4665 56.6736 49.478 56.8237V55.9458Z" fill="#243F90"/>
<path d="M49.4782 54.3977V54.6865L49.4551 54.9175H48.5079L48.092 58.0827H47.5144L47.9303 54.9175H46.9253L46.9946 54.3977H49.4782Z" fill="#243F90"/>
<path d="M28.2925 58.0827L28.7546 54.3977H29.3552L28.8701 58.0827H28.2925Z" fill="#243F90"/>
<path d="M49.4785 54.6865L49.5132 54.3977H49.4785V54.6865Z" fill="#243F90"/>
<path d="M51.3961 54.3054V54.8137C51.2344 54.8368 51.0727 54.8715 50.934 54.9177C50.7492 54.987 50.5875 55.1025 50.4835 55.218C50.3218 55.3797 50.2178 55.5646 50.1254 55.7378C50.0561 55.9342 50.0215 56.1306 50.0215 56.3501C50.0215 56.7428 50.1254 57.0316 50.3796 57.3089C50.599 57.5399 50.8994 57.667 51.2806 57.667C51.3153 57.667 51.3499 57.6439 51.4077 57.6439V58.1637C51.3499 58.1637 51.3037 58.1637 51.2459 58.1637C50.703 58.1637 50.2756 58.002 49.929 57.6554C49.7096 57.436 49.5478 57.1356 49.4785 56.8122V55.9342C49.5132 55.7956 49.5478 55.6685 49.6056 55.5184C49.7096 55.2642 49.8713 55.0332 50.0561 54.8484C50.2525 54.6635 50.472 54.5249 50.7261 54.4325C50.934 54.3632 51.142 54.3054 51.3961 54.3054Z" fill="#243F90"/>
<path d="M51.396 58.1753V57.6554C51.7541 57.6323 52.066 57.4706 52.3317 57.2049C52.6205 56.9161 52.7591 56.5349 52.7591 56.1075C52.7591 55.7263 52.632 55.4259 52.401 55.1718C52.17 54.9408 51.8581 54.8137 51.4653 54.8137H51.396V54.3054H51.4884C52.066 54.3054 52.5165 54.4671 52.84 54.7906C53.1865 55.114 53.3482 55.5415 53.3482 56.1075C53.3482 56.4078 53.2905 56.6851 53.1865 56.9392C53.0826 57.2049 52.9324 57.4244 52.736 57.6208C52.5165 57.8056 52.3086 57.9211 52.0544 58.0367C51.8465 58.1175 51.6155 58.1522 51.396 58.1753Z" fill="#243F90"/>
<path d="M56.9753 54.3977V54.9175C56.8482 54.9175 56.7096 54.9175 56.5248 54.9175H56.2937L55.9472 57.5629H56.1436C56.5248 57.5629 56.7905 57.5398 56.9753 57.5051V58.0596C56.8482 58.0827 56.7096 58.0827 56.5248 58.0827H55.3003L55.7624 54.3977H56.9753Z" fill="#243F90"/>
<path d="M72.2812 58.0828L72.7664 54.2361L74.7995 56.558C74.8688 56.6504 74.9266 56.7197 74.9959 56.789C75.0537 56.8583 75.0999 56.9508 75.1576 57.0201C75.1576 56.9508 75.1576 56.8583 75.1807 56.7659C75.1807 56.6735 75.1807 56.5695 75.2154 56.4425L75.4811 54.3978H76.024L75.5273 58.233L73.5057 55.9226C73.4133 55.8187 73.344 55.7263 73.2863 55.657C73.2285 55.5876 73.1938 55.5183 73.1476 55.4375C73.1245 55.5645 73.1245 55.7263 73.0899 55.9804C73.0899 56.0035 73.0668 56.0151 73.0668 56.0382L72.8126 58.0828H72.2812Z" fill="#243F90"/>
<path d="M72.0042 54.6288L71.9118 55.2526C71.7732 55.114 71.6115 54.9984 71.4498 54.906C71.288 54.8483 71.1032 54.8021 70.8953 54.8021C70.6989 54.8021 70.5141 54.8367 70.3408 54.906C70.1791 54.9753 70.0404 55.0677 69.9134 55.2064C69.7747 55.345 69.6592 55.5298 69.5899 55.7262C69.4975 55.9226 69.4628 56.1421 69.4628 56.35C69.4628 56.7312 69.5899 57.0316 69.821 57.2857C70.052 57.5167 70.3408 57.6438 70.722 57.6438C70.9068 57.6438 71.0801 57.6091 71.2649 57.5398C71.4266 57.4821 71.5884 57.3781 71.7501 57.251L71.623 57.9557C71.4613 58.025 71.2996 58.0828 71.1379 58.0943C70.9761 58.1521 70.8375 58.1521 70.6873 58.1521C70.1444 58.1521 69.717 57.9903 69.3704 57.6669C69.047 57.3434 68.8853 56.916 68.8853 56.35C68.8853 56.0612 68.943 55.7955 69.047 55.5183C69.1509 55.2526 69.3011 55.01 69.4975 54.8367C69.6823 54.6403 69.8903 54.5133 70.1097 54.4208C70.3408 54.3284 70.5949 54.2822 70.8606 54.2822C71.0916 54.2822 71.3111 54.3053 71.5075 54.3515C71.6808 54.4324 71.8425 54.5017 72.0042 54.6288Z" fill="#243F90"/>
<path d="M65.9971 58.0827L66.5054 54.3977H68.55L68.5038 54.9175H67.0136L66.8866 55.8301H68.3536L68.2843 56.3615H66.8057L66.6671 57.5398H68.1457L68.0648 58.0827H65.9971Z" fill="#243F90"/>
<path d="M63.964 58.0827L64.3799 54.9175H63.3979L63.4673 54.3977H65.9856L65.9162 54.9175H64.9574L64.5416 58.0827H63.964Z" fill="#243F90"/>
<path d="M59.043 58.0827L59.5281 54.3977H61.5959L61.5382 54.9175H60.048L59.9209 55.8301H61.4111L61.3418 56.3615H59.8516L59.6899 57.5398H61.2032L61.1223 58.0827H59.043Z" fill="#243F90"/>
<path d="M56.9754 58.0712V57.5167H57.0447C57.2065 57.482 57.3451 57.4127 57.4721 57.3203C57.6339 57.1932 57.7725 57.0315 57.8649 56.812C57.9573 56.5925 58.0035 56.3846 58.0035 56.142C58.0035 55.9225 57.9689 55.7262 57.8996 55.5644C57.8303 55.3796 57.7032 55.2641 57.5761 55.1486C57.4721 55.0562 57.3451 55.0099 57.1949 54.9522C57.1371 54.9522 57.0678 54.9291 56.9639 54.9175V54.3977C57.1834 54.4208 57.3451 54.4324 57.449 54.467C57.6454 54.5017 57.8418 54.6056 58.0035 54.7212C58.1999 54.8598 58.3501 55.0793 58.454 55.3103C58.558 55.5413 58.6158 55.8186 58.6158 56.0958C58.6158 56.3615 58.558 56.6041 58.4887 56.8467C58.3963 57.0777 58.2692 57.2972 58.1306 57.4589C58.0266 57.586 57.8996 57.69 57.7494 57.7824C57.6223 57.8517 57.4606 57.921 57.2989 57.9788C57.2065 58.0134 57.114 58.0481 56.9754 58.0712Z" fill="#243F90"/>
<path d="M78.3925 54.3054V54.8137C78.2308 54.8368 78.0691 54.8715 77.9304 54.9177C77.7687 54.987 77.607 55.1025 77.4799 55.218C77.3413 55.3797 77.2258 55.5646 77.1334 55.7378C77.0641 55.9342 77.0294 56.1306 77.0294 56.3501C77.0294 56.7428 77.1334 57.0316 77.376 57.3089C77.607 57.5399 77.9189 57.667 78.2885 57.667C78.3232 57.667 78.3579 57.6439 78.3925 57.6439V58.1637C78.3348 58.1637 78.2885 58.1637 78.2308 58.1637C77.711 58.1637 77.2604 58.002 76.9485 57.6554C76.602 57.3551 76.4287 56.9046 76.4287 56.3616C76.4287 56.0728 76.498 55.7841 76.6135 55.5184C76.7175 55.2642 76.8677 55.0332 77.0641 54.8484C77.2489 54.6635 77.4568 54.5249 77.711 54.4325C77.9189 54.3632 78.1615 54.3054 78.3925 54.3054Z" fill="#243F90"/>
<path d="M80.7607 58.0827L81.2459 54.3977H81.8235L81.4307 57.5051H82.817L82.7245 58.0827H80.7607Z" fill="#243F90"/>
<path d="M78.3921 58.1753V57.6554C78.7733 57.6323 79.0968 57.4706 79.3509 57.2049C79.6397 56.9161 79.7668 56.5349 79.7668 56.1075C79.7668 55.7263 79.6628 55.4259 79.4202 55.1718C79.1892 54.9408 78.8657 54.8137 78.4845 54.8137H78.3921V54.3054H78.4961C79.0737 54.3054 79.5011 54.4671 79.8476 54.7906C80.1711 55.114 80.3559 55.5415 80.3559 56.1075C80.3559 56.4078 80.2981 56.6851 80.1942 56.9392C80.0902 57.2049 79.9285 57.4244 79.7321 57.6208C79.5357 57.8056 79.3162 57.9211 79.0505 58.0367C78.8426 58.1175 78.6231 58.1522 78.3921 58.1753Z" fill="#243F90"/>
<path d="M84.9422 54.3054V54.8137C84.7804 54.8368 84.6418 54.8715 84.4801 54.9177C84.2953 54.987 84.1567 55.1025 84.0296 55.218C83.891 55.3797 83.7754 55.5646 83.683 55.7378C83.6137 55.9342 83.5791 56.1306 83.5791 56.3501C83.5791 56.7428 83.683 57.0316 83.9256 57.3089C84.1566 57.5399 84.4685 57.667 84.8382 57.667C84.8729 57.667 84.9075 57.6439 84.9422 57.6439V58.1637C84.9075 58.1637 84.8498 58.1637 84.8036 58.1637C84.2606 58.1637 83.8332 58.002 83.4866 57.6554C83.1632 57.3551 83.0015 56.9046 83.0015 56.3616C83.0015 56.0728 83.0592 55.7841 83.1632 55.5184C83.2672 55.2642 83.4173 55.0332 83.6137 54.8484C83.7985 54.6635 84.0296 54.5249 84.2837 54.4325C84.4916 54.3632 84.6996 54.3054 84.9422 54.3054Z" fill="#243F90"/>
<path d="M90.6375 55.426C90.4758 55.2296 90.2909 55.0795 90.0946 54.9639C89.8982 54.8715 89.6787 54.8253 89.4246 54.8253C89.2282 54.8253 89.0433 54.86 88.8701 54.9293C88.7083 54.9986 88.5697 55.1141 88.4195 55.2296C88.2809 55.3683 88.1539 55.5531 88.073 55.7495C88.0037 55.9458 87.9459 56.1422 87.9459 56.3617C87.9459 56.7545 88.073 57.0433 88.304 57.2974C88.5582 57.5284 88.8585 57.6555 89.2397 57.6555C89.5401 57.6555 89.8173 57.5631 90.0137 57.4014C90.2101 57.2165 90.3371 57.0086 90.3718 56.7314H89.413L89.4823 56.1884H91.0418C91.0418 56.8007 90.8801 57.2859 90.5566 57.644C90.2101 57.9905 89.7711 58.1638 89.1935 58.1638C88.6506 58.1638 88.2001 58.0021 87.8651 57.6786C87.5185 57.3552 87.3799 56.9047 87.3799 56.3617C87.3799 56.0614 87.4376 55.7726 87.5185 55.5184C87.6225 55.2643 87.7726 55.0333 87.9806 54.8484C88.1654 54.6521 88.3733 54.525 88.6275 54.4326C88.8816 54.3286 89.1473 54.2939 89.4361 54.2939C89.7596 54.2939 90.0599 54.3517 90.314 54.4557C90.5682 54.5827 90.7992 54.756 91.0187 55.0333L90.6375 55.426Z" fill="#243F90"/>
<path d="M84.9424 58.1753V57.6554C85.3236 57.6323 85.6239 57.4706 85.9012 57.2049C86.1669 56.9161 86.3286 56.5349 86.3286 56.1075C86.3286 55.7263 86.2015 55.4259 85.9705 55.1718C85.7164 54.9408 85.416 54.8137 85.0348 54.8137H84.9424V54.3054H85.0695C85.6124 54.3054 86.0629 54.4671 86.3979 54.7906C86.7329 55.114 86.9062 55.5415 86.9062 56.1075C86.9062 56.4078 86.8369 56.6851 86.7445 56.9392C86.6405 57.2049 86.4788 57.4244 86.2824 57.6208C86.086 57.8056 85.8665 57.9211 85.6124 58.0367C85.3929 58.1175 85.1734 58.1522 84.9424 58.1753Z" fill="#243F90"/>
<path d="M92.5436 57.9788L92.4858 58.0827H92.5436V57.9788Z" fill="#243F90"/>
<path d="M92.5431 54.3977V54.7789L92.0926 58.0827H91.5034L92.0001 54.3977H92.5431Z" fill="#243F90"/>
<path d="M92.543 54.7789L92.6007 54.3977H92.543V54.7789Z" fill="#243F90"/>
<path d="M94.9226 56.7197L94.6338 55.8071C94.6338 55.7725 94.6107 55.7032 94.5992 55.6454C94.5761 55.553 94.5645 55.4606 94.5299 55.3451C94.5068 55.4375 94.4721 55.5299 94.4259 55.5992C94.4259 55.6339 94.4028 55.6685 94.3913 55.7032C94.3681 55.7378 94.3566 55.7956 94.3335 55.8302L93.8483 56.7313H94.9226V56.7197ZM93.6057 57.2049L93.1206 58.0828H92.543V57.9789L94.3797 54.6866L94.6338 54.2361L95.9854 58.0828H95.3732L95.0844 57.2049H93.6057Z" fill="#243F90"/>
<path d="M99.4281 57.5051C99.6129 57.4704 99.7515 57.4011 99.8786 57.3087C100.063 57.1816 100.179 57.0199 100.271 56.8004C100.364 56.5809 100.41 56.373 100.41 56.1304C100.41 55.9109 100.375 55.7145 100.306 55.5528C100.214 55.368 100.11 55.2525 99.9595 55.1369C99.8555 55.0445 99.74 54.9983 99.6014 54.9406C99.5436 54.9406 99.4627 54.9175 99.3703 54.9059H99.3588C99.2548 54.9059 99.1046 54.9059 98.9314 54.9059H98.7003L98.3538 57.5513H98.5502C98.9314 57.5513 99.2201 57.5282 99.3819 57.4935H99.4281V57.5051ZM99.3588 58.0711C99.2548 58.0942 99.0931 58.0942 98.9314 58.0942H97.6953L98.2036 54.4092H99.3934H99.4165C99.6129 54.4323 99.7746 54.4438 99.8786 54.4785C100.098 54.5131 100.26 54.6171 100.422 54.7326C100.618 54.8713 100.78 55.0907 100.884 55.3218C100.988 55.5528 101.045 55.8301 101.045 56.1073C101.045 56.373 100.988 56.6156 100.907 56.8582C100.837 57.0892 100.71 57.3087 100.549 57.4704C100.445 57.5975 100.329 57.7014 100.191 57.7939C100.052 57.8632 99.9017 57.9325 99.74 57.9902C99.636 58.0133 99.5205 58.048 99.3934 58.0595H99.3588V58.0711Z" fill="#243F90"/>
<path d="M103.46 57.6554C103.841 57.6208 104.164 57.4706 104.419 57.2049C104.707 56.9161 104.846 56.5349 104.846 56.1075C104.846 55.7263 104.719 55.4259 104.488 55.1718C104.257 54.9408 103.933 54.8137 103.552 54.8137H103.46H103.437C103.298 54.8368 103.148 54.8715 102.986 54.9177C102.801 54.987 102.663 55.1025 102.536 55.218C102.397 55.3797 102.281 55.5646 102.189 55.7378C102.12 55.9342 102.085 56.1306 102.085 56.3501C102.085 56.7428 102.189 57.0316 102.432 57.3089C102.663 57.5399 102.975 57.667 103.344 57.667C103.39 57.667 103.425 57.6554 103.46 57.6554ZM103.46 58.1753C103.425 58.1753 103.367 58.1753 103.321 58.1753C102.767 58.1753 102.351 58.0135 102.004 57.667C101.681 57.3666 101.519 56.9161 101.519 56.3732C101.519 56.0844 101.577 55.7956 101.681 55.5299C101.785 55.2758 101.935 55.0447 102.131 54.8599C102.316 54.6751 102.547 54.5365 102.801 54.444C103.021 54.3516 103.229 54.3054 103.471 54.3054H103.598C104.153 54.3054 104.603 54.4671 104.927 54.7906C105.273 55.114 105.435 55.5415 105.435 56.1075C105.435 56.4078 105.377 56.6851 105.273 56.9392C105.169 57.2049 105.008 57.4244 104.811 57.6208C104.626 57.8056 104.395 57.9211 104.141 58.0367C103.91 58.1175 103.691 58.1522 103.46 58.1753Z" fill="#243F90"/>
<path d="M109.663 57.5627V58.0826H109.375L109.663 57.5627Z" fill="#243F90"/>
<path d="M108.785 55.9572C108.97 55.9225 109.086 55.8879 109.166 55.8301C109.305 55.7608 109.363 55.6106 109.363 55.4027C109.363 55.2179 109.305 55.1024 109.201 55.0215C109.109 54.9522 108.982 54.9291 108.785 54.9175C108.728 54.9175 108.647 54.9175 108.554 54.9175H108.369L108.208 55.9803H108.427C108.566 55.9803 108.681 55.9803 108.785 55.9572ZM109.663 54.6634C109.756 54.7327 109.802 54.8251 109.848 54.9291C109.917 55.0677 109.952 55.2179 109.952 55.3565C109.952 55.5529 109.894 55.7146 109.848 55.8648C109.79 55.9687 109.744 56.0843 109.663 56.1536H109.64C109.617 56.1882 109.582 56.2229 109.536 56.2575C109.444 56.3269 109.305 56.3962 109.143 56.4424C109.074 56.4655 108.924 56.5001 108.785 56.5001C108.693 56.5001 108.566 56.5001 108.462 56.5001H108.161L107.965 58.0827H107.376L107.861 54.3977H108.82C109.016 54.3977 109.167 54.4208 109.27 54.4324C109.398 54.467 109.502 54.5248 109.629 54.6172C109.629 54.6172 109.652 54.6518 109.663 54.6634Z" fill="#243F90"/>
<path d="M111.789 56.7197L111.523 55.8071C111.5 55.7725 111.488 55.7032 111.465 55.6454C111.465 55.553 111.431 55.4606 111.431 55.3451C111.373 55.4375 111.338 55.5299 111.303 55.5992C111.28 55.6339 111.269 55.6685 111.269 55.7032C111.234 55.7378 111.211 55.7956 111.199 55.8302L110.714 56.7313H111.789V56.7197ZM110.495 57.2049L109.987 58.0828H109.663V57.563L111.269 54.6866L111.523 54.2361L112.851 58.0828H112.262L111.962 57.2049H110.495Z" fill="#243F90"/>
<path d="M114.411 54.3977V54.9175C114.319 54.9175 114.226 54.9175 114.122 54.9175H114.03L113.891 56.0381H114.018C114.18 56.0381 114.307 56.015 114.411 56.0034V57.2279L113.961 56.5117H113.834L113.614 58.0943H113.06L113.522 54.4093H114.411V54.3977Z" fill="#243F90"/>
<path d="M115.543 57.9787L114.573 56.4885C114.873 56.4307 115.116 56.3037 115.289 56.1304C115.428 55.934 115.52 55.703 115.52 55.3795C115.52 55.2409 115.485 55.0907 115.428 54.9521C115.37 54.825 115.289 54.7211 115.173 54.6287C115.069 54.5363 114.954 54.49 114.815 54.4438C114.723 54.4207 114.584 54.4092 114.399 54.4092V54.929C114.561 54.9521 114.688 54.9868 114.758 55.033C114.861 55.1023 114.919 55.2294 114.919 55.4257C114.919 55.6452 114.861 55.8069 114.723 55.8878C114.665 55.9456 114.561 55.9802 114.399 55.9918V57.2163L114.919 58.0826H115.531H115.462L115.543 57.9787Z" fill="#243F90"/>
<path d="M117.357 54.6865V55.6915C117.334 55.7262 117.322 55.7839 117.299 55.8186L116.814 56.7196H117.357V57.2048H116.583L116.109 58.0827H115.555H115.612L115.555 57.9788L117.357 54.6865Z" fill="#243F90"/>
<path d="M117.356 57.2048V56.7196H117.899L117.611 55.8071C117.587 55.7724 117.587 55.7031 117.576 55.6453C117.553 55.5529 117.541 55.4605 117.518 55.345C117.484 55.4374 117.449 55.5298 117.414 55.5991C117.391 55.6569 117.38 55.6684 117.356 55.7031V54.6981L117.611 54.2476L118.962 58.0943H118.35L118.061 57.2164H117.356V57.2048Z" fill="#243F90"/>
<path d="M122.844 57.9788L122.797 58.0827H122.844V57.9788Z" fill="#243F90"/>
<path d="M122.844 54.3978V54.8137L122.393 58.233L120.383 55.9226C120.279 55.8187 120.221 55.7263 120.164 55.657C120.106 55.5876 120.06 55.5183 120.025 55.4375C120.025 55.5645 120.002 55.7263 119.967 55.9804V56.0382L119.702 58.0828H119.159L119.667 54.2361L121.665 56.558C121.758 56.6504 121.804 56.7197 121.862 56.789C121.931 56.8583 121.989 56.9508 122.047 57.0201V56.7659C122.07 56.6735 122.081 56.5695 122.081 56.4425L122.37 54.3978H122.844Z" fill="#243F90"/>
<path d="M122.843 54.8136L122.901 54.3977H122.843V54.8136Z" fill="#243F90"/>
<path d="M124.68 54.6865V55.6915C124.657 55.7262 124.645 55.7839 124.622 55.8186L124.137 56.7196H124.68V57.2048H123.906L123.421 58.0827H122.843V57.9788L124.68 54.6865Z" fill="#243F90"/>
<path d="M124.68 53.8201V54.0164H124.553L124.68 53.8201Z" fill="#243F90"/>
<path d="M124.681 54.0166V53.8202L125.108 53.1387H125.651L124.877 54.0166H124.681Z" fill="#243F90"/>
<path d="M124.681 57.2048V56.7196H125.224L124.935 55.8071C124.912 55.7724 124.912 55.7031 124.9 55.6453C124.877 55.5529 124.865 55.4605 124.842 55.345C124.808 55.4374 124.75 55.5298 124.738 55.5991C124.704 55.6569 124.704 55.6684 124.681 55.7031V54.6981L124.935 54.2476L126.286 58.0943H125.674L125.385 57.2164H124.681V57.2048Z" fill="#243F90"/>
</svg>
