<svg width="25" height="30" viewBox="0 0 25 30" fill="none" xmlns="http://www.w3.org/2000/svg">
<path fill-rule="evenodd" clip-rule="evenodd" d="M20.5366 13.7741C22.3874 13.7741 23.9234 12.2381 23.9234 10.3495C23.9234 8.49864 22.3874 6.9248 20.5366 6.9248C18.648 6.9248 17.1119 8.49864 17.1119 10.3495C17.0993 12.2381 18.6354 13.7741 20.5366 13.7741Z" fill="#03E3C1"/>
<path fill-rule="evenodd" clip-rule="evenodd" d="M12.6042 29.16C14.4298 29.16 15.8526 27.7373 15.8526 25.9494C15.8526 25.7353 15.8526 25.5213 15.8148 25.345H9.43132C9.39355 25.5213 9.35578 25.7353 9.35578 25.9494C9.35578 27.7373 10.8289 29.16 12.6042 29.16ZM1.82655 21.3412C1.14666 21.3412 0.580078 21.9078 0.580078 22.6254C0.580078 23.3053 1.14666 23.8719 1.82655 23.8719H23.344C24.0239 23.8719 24.5905 23.3053 24.5905 22.6254C24.5905 21.9078 24.0239 21.3412 23.344 21.3412C22.7019 21.3412 21.5939 20.271 21.5939 19.8429V16.0909C21.2414 16.1664 20.8762 16.2042 20.5237 16.2042C17.2753 16.2042 14.669 13.5979 14.669 10.3495C14.669 8.0958 15.9533 6.14425 17.8041 5.17477C16.6961 4.4571 15.3363 4.02902 13.9514 3.96606C14.0269 3.24839 13.9514 2.03969 13.9514 1.25907C13.964 0.56658 13.3974 0 12.7175 0C12.0376 0 11.471 0.56658 11.471 1.24648V3.95347C7.25314 4.14233 3.82847 7.66772 3.82847 11.9611V19.9562C3.82847 20.0947 2.93453 21.3412 1.82655 21.3412Z" fill="#0F0F0F"/>
</svg>
