<svg width="23" height="25" viewBox="0 0 23 25" fill="none" xmlns="http://www.w3.org/2000/svg">
<path fill-rule="evenodd" clip-rule="evenodd" d="M0 25L0.965663 19.1812C1.1351 18.568 1.62385 18.1284 2.18489 17.831L7.81594 15.3908L11.0435 19.722L14.1218 15.4749L20.1824 17.9738C20.6356 18.2593 20.9987 18.5313 21.2588 19.475L22.1083 25H0Z" fill="black"/>
<path d="M7.52327 15.3392L7.90954 12.9428C7.93501 12.7817 8.08608 12.6727 8.24722 12.6976C8.30587 12.7076 8.35801 12.7331 8.39829 12.7698C9.26502 13.5287 10.2336 13.902 11.1608 13.9103C12.0998 13.9186 12.9997 13.5524 13.71 12.8338C13.8244 12.7165 14.0122 12.7147 14.1283 12.8303C14.1804 12.8806 14.2106 12.9476 14.2154 13.0169L14.4168 15.4719C14.4233 15.5543 14.3949 15.6313 14.3445 15.6888L11.2817 19.8974C11.1857 20.0283 11.0014 20.0567 10.8687 19.9614C10.845 19.9448 10.8231 19.9229 10.8065 19.8992H10.8047L7.57718 15.5667C7.52683 15.4986 7.51024 15.4162 7.52327 15.3392ZM8.41192 13.537L8.12637 15.3137L11.0399 19.225L13.8179 15.4115L13.6751 13.6514C12.9328 14.2207 12.0613 14.508 11.1561 14.4992C10.2354 14.4926 9.28516 14.1751 8.41192 13.537Z" fill="black"/>
<path fill-rule="evenodd" clip-rule="evenodd" d="M14.6117 9.92971C13.7219 14.7693 8.40483 14.7693 7.51499 9.92971C7.51677 9.54522 7.12221 9.34675 6.76083 9.30173C6.36094 8.75906 6.22527 8.13286 6.26023 7.45275L6.69329 7.32834C6.84614 5.97641 7.25906 4.99594 8.03159 4.53029C9.89242 5.85556 12.2331 5.85556 14.0939 4.53029C14.8665 4.99535 15.2794 5.97641 15.4322 7.32834L15.8653 7.45275C15.9009 8.13286 15.7646 8.75906 15.3647 9.30173C15.0063 9.34735 14.6099 9.54522 14.6117 9.92971ZM16.1805 6.74065C16.4092 5.56527 16.4494 4.38929 16.2729 3.21391C15.3357 -1.04982 6.79164 -1.04982 5.85441 3.21391C5.67787 4.38929 5.71815 5.56527 5.94683 6.74065C4.85024 7.11033 5.79576 9.3586 6.34672 9.95637C7.3189 10.0423 6.5517 11.4428 8.20044 12.989C9.79585 14.386 11.7301 14.556 13.21 13.6152C13.4352 13.4322 13.6733 13.2224 13.9269 12.989C15.5762 11.4422 14.8084 10.0417 15.7806 9.95637C16.3316 9.3586 17.2771 7.11033 16.1805 6.74065Z" fill="black"/>
<path d="M14.6289 9.93329C14.3451 11.4766 13.6111 12.5293 12.7148 13.0921C12.2011 13.4162 11.6318 13.5773 11.0642 13.5773C10.4967 13.5773 9.92737 13.4162 9.41374 13.0921C8.51679 12.5293 7.78336 11.4766 7.49959 9.93329V9.92974C7.49959 9.76326 7.42257 9.63234 7.30646 9.5334C7.1619 9.41255 6.95574 9.34382 6.76083 9.31835C6.7555 9.31657 6.75253 9.31479 6.74898 9.31183C6.54755 9.03813 6.41307 8.74428 6.3325 8.43326C6.25371 8.12105 6.22823 7.79343 6.24541 7.45278C6.24541 7.44449 6.25193 7.43916 6.25904 7.43738L6.68026 7.31475C6.75727 6.64115 6.89887 6.06057 7.11688 5.59018C7.33667 5.11505 7.63585 4.7507 8.02567 4.51729C8.03219 4.51373 8.0393 4.51373 8.04403 4.51729C8.97119 5.17903 10.0192 5.50783 11.0654 5.50783C12.1134 5.50783 13.1597 5.17844 14.0868 4.51729C14.0933 4.51373 14.1005 4.51373 14.107 4.51729C14.495 4.7507 14.7936 5.11505 15.014 5.59018C15.2326 6.06057 15.3736 6.64115 15.4506 7.31475L15.8736 7.43738C15.8801 7.43916 15.8855 7.44567 15.8855 7.45278C15.902 7.79343 15.8772 8.12105 15.7984 8.43326C15.7178 8.74369 15.5833 9.03754 15.3819 9.31183C15.3783 9.31539 15.3736 9.31835 15.37 9.31835C15.1751 9.34382 14.969 9.41432 14.8244 9.5334C14.7083 9.63234 14.6313 9.76326 14.6313 9.92974V9.93329H14.6289ZM12.6958 13.0655C13.5856 12.5062 14.3131 11.4618 14.5951 9.92855C14.5951 9.75082 14.6775 9.61279 14.8001 9.50852C14.9494 9.38411 15.1579 9.31183 15.3558 9.28695C15.5525 9.01799 15.6852 8.72947 15.7622 8.42556C15.841 8.12164 15.8665 7.80113 15.8493 7.46641L15.4293 7.34378C15.4228 7.342 15.4174 7.33726 15.4157 7.33015C15.3398 6.65478 15.1988 6.0742 14.9808 5.60381C14.764 5.13875 14.4737 4.78092 14.0939 4.55106C13.1638 5.2128 12.114 5.5416 11.0625 5.5416C10.0127 5.5416 8.96171 5.21221 8.031 4.55106C7.65125 4.78092 7.36096 5.13875 7.14413 5.60381C6.92552 6.0742 6.7863 6.65478 6.70929 7.33015C6.70929 7.33667 6.70396 7.342 6.69744 7.34378L6.27622 7.46641C6.25963 7.80054 6.28451 8.12164 6.36331 8.42556C6.44032 8.72947 6.57303 9.01858 6.76972 9.28695C6.96759 9.31242 7.17612 9.38411 7.32542 9.50852C7.44805 9.61279 7.5304 9.75023 7.5304 9.92855C7.81239 11.4618 8.5399 12.5062 9.42973 13.0655C9.93863 13.3848 10.4997 13.5442 11.0619 13.5442C11.6241 13.5442 12.1869 13.3842 12.6958 13.0655ZM16.1633 6.73772C16.2776 6.15003 16.3446 5.56411 16.3612 4.97583C16.3778 4.38991 16.3428 3.80341 16.2551 3.21749C15.998 2.04685 15.1633 1.19908 14.0702 0.673594C13.1816 0.247044 12.1223 0.0337686 11.0625 0.0337686C10.0026 0.0337686 8.94335 0.247044 8.0547 0.673594C6.96166 1.19908 6.12693 2.04744 5.86981 3.21749C5.78273 3.80341 5.74896 4.38991 5.76377 4.97583C5.78036 5.56352 5.84789 6.14943 5.96164 6.73772C5.96342 6.74601 5.95808 6.75431 5.94979 6.75608C5.85085 6.78985 5.77028 6.83843 5.70275 6.90064C5.52502 7.06533 5.45393 7.32363 5.4557 7.62459C5.4557 7.92673 5.53153 8.27271 5.6435 8.60506C5.8313 9.16432 6.12574 9.69158 6.35205 9.9404C6.80882 9.98424 6.88583 10.3101 7.0055 10.8018C7.13998 11.3658 7.32779 12.1502 8.20932 12.9766V12.9784C8.99192 13.6638 9.85687 14.0513 10.7082 14.1591C11.585 14.2681 12.4499 14.0785 13.197 13.6034C13.3096 13.5128 13.4257 13.4138 13.5448 13.3096C13.6621 13.2053 13.7847 13.0945 13.9127 12.9772C14.7942 12.1508 14.9826 11.367 15.1165 10.8024C15.2356 10.3101 15.3132 9.98483 15.7699 9.94099C15.9968 9.69217 16.2907 9.16491 16.4785 8.60565C16.591 8.2733 16.6663 7.92732 16.6663 7.62518C16.6681 7.32482 16.5976 7.06593 16.4192 6.90123C16.3523 6.83902 16.2699 6.79045 16.1722 6.75668C16.1669 6.75253 16.1621 6.74601 16.1633 6.73772ZM16.3955 4.97761C16.3789 5.56174 16.3114 6.1447 16.1988 6.72942C16.296 6.76497 16.3766 6.81355 16.4441 6.87576C16.6307 7.04874 16.7042 7.31593 16.703 7.62459C16.703 7.93206 16.626 8.27982 16.5134 8.61513C16.3221 9.18268 16.0247 9.71706 15.7948 9.96706C15.7913 9.97062 15.7883 9.97239 15.783 9.97239C15.3446 10.0109 15.2675 10.3284 15.1532 10.8101C15.0169 11.3776 14.8274 12.1685 13.9393 13.0015C13.8119 13.1188 13.6893 13.2302 13.5696 13.3338C13.4506 13.4399 13.3344 13.5371 13.2219 13.6295L13.2183 13.6312C12.4642 14.1099 11.5927 14.3031 10.7058 14.1923C9.8474 14.085 8.97771 13.6917 8.19037 13.0033L8.18859 13.0015C7.29994 12.1685 7.11036 11.3776 6.9747 10.8101C6.86036 10.3279 6.78334 10.0109 6.34494 9.97239C6.34139 9.97239 6.33843 9.97062 6.33487 9.96706C6.10501 9.71824 5.80583 9.18268 5.61447 8.61513C5.50191 8.27922 5.42667 7.93147 5.4249 7.62459C5.42312 7.31534 5.49717 7.04874 5.68379 6.87576C5.75073 6.81355 5.8313 6.76497 5.92906 6.72942C5.81649 6.14529 5.74955 5.56234 5.73237 4.97761C5.71697 4.38991 5.75073 3.80045 5.83841 3.21275L5.84019 3.21098C6.09908 2.02848 6.94034 1.1742 8.04167 0.64338C8.93387 0.215052 9.99846 0 11.0637 0C12.1288 0 13.1929 0.215052 14.0862 0.64338C15.1882 1.1742 16.0294 2.02908 16.2895 3.21098C16.3766 3.80045 16.4121 4.38814 16.3955 4.97761Z" fill="#028575"/>
</svg>
