<svg width="19" height="25" viewBox="0 0 19 25" fill="none" xmlns="http://www.w3.org/2000/svg">
<path fill-rule="evenodd" clip-rule="evenodd" d="M12.891 9.01994H5.85359C5.47923 9.01994 5.40958 9.11861 5.1542 9.29128C4.56653 9.69467 4.03982 10.143 3.55372 10.6204C3.25772 10.9121 2.92834 11.3067 2.64829 11.6651C1.22194 13.4789 0.0204966 16.1648 0.00018233 18.7693C-0.0331911 23.8 4.5201 25 9.3694 25C14.2187 25 18.7764 23.7986 18.743 18.7693C18.7227 15.8731 17.1425 12.5459 15.1894 10.6219C14.7048 10.1445 14.1781 9.69612 13.589 9.29274C13.3307 9.11861 13.2654 9.01994 12.891 9.01994ZM5.78394 6.78248L13.2451 6.79553C13.6354 5.80884 14.1418 4.80474 14.5742 3.80934C14.7846 3.3247 15.1299 2.76896 15.1009 2.15953C15.0472 1.11915 14.3072 1.08578 13.9778 1.3281C13.7225 1.51673 13.6731 2.00718 12.9911 2.50488C12.5631 2.81394 11.8637 2.94018 11.3167 2.65288C10.8393 2.40185 10.7696 1.83015 10.6419 1.16413C10.5346 0.608395 10.3256 -0.118565 9.63494 0.01638C9.20254 0.103441 8.78319 0.756399 8.56554 1.10609C7.9445 2.10149 7.31476 3.23619 6.09736 2.4715C5.62868 2.17985 5.36169 1.78517 4.9496 1.4645C4.29955 0.955188 3.84683 1.10609 3.98758 2.07682C4.11962 2.98951 4.72034 4.42602 5.09471 5.28938C5.23981 5.63617 5.5866 6.49953 5.78394 6.78248ZM8.18973 8.55562C8.55103 8.55562 12.9853 8.58464 13.2161 8.54256C13.9604 8.41487 13.9271 7.29178 13.0971 7.25551C12.2787 7.22213 11.382 7.25551 10.5549 7.25551C10.1762 7.25551 5.80425 7.22649 5.55323 7.27147C4.77113 7.39916 4.82917 8.52225 5.64754 8.55417C6.46156 8.58899 7.36265 8.55562 8.18973 8.55562Z" fill="#419687"/>
<path fill-rule="evenodd" clip-rule="evenodd" d="M8.97904 14.1174L8.98339 15.9442C8.77299 15.9311 8.37832 15.7628 8.22596 15.6685C7.55994 15.2521 7.81097 14.113 8.97904 14.1174ZM8.97904 13.0015C8.21 13.1002 7.68328 13.2148 7.19429 13.6023C6.79961 13.9113 6.39623 14.4366 6.40493 15.2187C6.42525 16.6625 7.64265 17.1761 8.96308 17.4359L8.97904 19.6617C8.64966 19.6574 8.32898 19.476 8.13164 19.3164C7.74132 19.0001 7.80226 18.8346 7.62959 18.5633L6.17712 18.5546C6.45717 20.6934 8.87602 20.7761 8.94131 20.8298C9.01096 20.8878 8.97904 21.2129 8.97904 21.3115C8.97904 21.4885 8.95437 21.6859 9.00371 21.8542L9.84675 21.8498C9.92946 21.5872 9.80902 20.9241 9.91204 20.8385C9.99475 20.7645 12.5819 20.7239 12.5645 18.4936C12.5601 17.6375 12.1858 17.1689 11.6881 16.8366C11.4255 16.6639 11.1701 16.5449 10.8494 16.4259C10.5287 16.3026 10.1877 16.2533 9.87432 16.1415L9.86996 14.1841C10.092 14.1638 10.433 14.3524 10.5534 14.4511C10.8044 14.6528 10.771 14.8501 10.9365 15.0518L12.3643 15.0562C12.3019 14.3902 11.8999 13.8794 11.5328 13.6124C11.3021 13.4441 11.0845 13.328 10.7798 13.2177C9.7147 12.8347 9.87141 13.4238 9.87141 12.1774L8.99065 12.1643L8.97904 13.0015ZM9.87577 17.6709C10.0644 17.6753 10.5099 17.8813 10.6492 17.98C11.3892 18.482 11.0279 19.711 9.87577 19.6951V17.6709Z" fill="white"/>
</svg>
