<svg width="60" height="60" viewBox="0 0 60 60" fill="none" xmlns="http://www.w3.org/2000/svg">
<path fill-rule="evenodd" clip-rule="evenodd" d="M30 60C46.5889 60 60 46.5889 60 30C60 13.4111 46.5889 0 30 0C13.4111 0 0 13.4111 0 30C0 46.5889 13.4111 60 30 60ZM18.7882 24.7756C21.3645 24.7756 23.4829 22.7289 23.4829 20.0808C23.4829 17.5045 21.3645 15.386 18.7882 15.386C16.2118 15.386 14.0934 17.5045 14.0934 20.0808C14.0934 22.7289 16.2118 24.7756 18.7882 24.7756ZM17.6481 43.9408C16.8941 44.7756 15.5296 44.8474 14.6948 44.0934C13.7882 43.3393 13.7074 42.0467 14.4704 41.14C14.8474 40.763 15.2244 40.386 15.5296 40C19.3178 36.4363 24.6948 34.8474 30 34.9282C35.2244 35 40.5296 36.7505 44.246 40C44.623 40.377 45 40.754 45.386 41.0592C46.14 41.9659 46.14 43.2585 45.3142 44.0934C44.4075 44.8474 43.1149 44.7756 42.3609 43.9408C42.0557 43.6356 41.7505 43.4111 41.4542 43.1059C38.5727 40.6014 34.2549 39.1652 29.9372 39.0934C25.6912 39.0215 21.3734 40.3052 18.4201 43.1059C18.1059 43.3303 17.8815 43.6356 17.6481 43.9408ZM41.3645 24.7756C43.9408 24.7756 46.0592 22.7289 46.0592 20.0808C46.0592 17.5045 43.9408 15.386 41.3645 15.386C38.7882 15.386 36.6697 17.5045 36.6697 20.0808C36.6697 22.7289 38.7882 24.7756 41.3645 24.7756Z" fill="#ED404B"/>
</svg>
