<svg width="23" height="31" viewBox="0 0 23 31" fill="none" xmlns="http://www.w3.org/2000/svg">
<path fill-rule="evenodd" clip-rule="evenodd" d="M11.4577 7.34H21.5777C22.3177 7.34 22.9977 7.96 22.9077 8.73L20.7277 29.25C20.6377 29.99 20.1277 30.61 19.3977 30.61H11.4577H3.54774C2.80774 30.61 2.26774 29.99 2.18774 29.25L0.00773668 8.73C-0.0822633 7.96 0.627737 7.34 1.36774 7.34H11.4577ZM1.33774 2.3H6.83774V1.11C6.83774 0.51 7.31774 0 7.91774 0H15.0277C15.5977 0 16.0777 0.51 16.0777 1.11V2.3H21.5777C22.1477 2.3 22.5677 2.75 22.5677 3.32V4.9C22.5677 5.47 22.1377 5.92 21.5777 5.92H1.33774C0.797737 5.92 0.347737 5.47 0.347737 4.9V3.32C0.347737 2.75 0.797737 2.3 1.33774 2.3ZM11.4577 10.18C12.1077 10.18 12.6477 10.75 12.6477 11.4V26.82C12.6477 27.5 12.1077 28.04 11.4577 28.04C10.8077 28.04 10.2677 27.5 10.2677 26.82V11.4C10.2677 10.74 10.8077 10.18 11.4577 10.18ZM5.86774 10.26C6.51774 10.2 7.08774 10.69 7.14774 11.37L8.56774 26.7C8.62774 27.38 8.13774 27.98 7.48774 28.03C6.83774 28.09 6.26774 27.6 6.20774 26.95L4.79774 11.59C4.73774 10.91 5.21774 10.32 5.86774 10.26ZM17.0677 10.26C16.4177 10.2 15.8177 10.69 15.7677 11.37L14.3477 26.7C14.2877 27.38 14.7777 27.98 15.4277 28.03C16.0777 28.09 16.6777 27.6 16.7277 26.95L18.1177 11.59C18.1777 10.91 17.6977 10.32 17.0677 10.26Z" fill="#F2634B"/>
</svg>
