<svg width="168" height="192" viewBox="0 0 168 192" fill="none" xmlns="http://www.w3.org/2000/svg">
<path fill-rule="evenodd" clip-rule="evenodd" d="M36 24C36 17.3726 41.373 12 48 12H94.544C97.727 12 100.779 13.2643 103.029 15.5147L152.485 64.971C154.736 67.221 156 70.273 156 73.456V168C156 174.627 150.627 180 144 180H108.749C105.32 184.463 101.358 188.495 96.958 192H144C157.255 192 168 181.255 168 168V73.456C168 67.091 165.471 60.986 160.971 56.485L111.515 7.0294C107.014 2.5286 100.909 0 94.544 0H48C34.745 0 24 10.7452 24 24V75.845C27.817 74 31.831 72.495 36 71.371V24Z" fill="#030203"/>
<path d="M102 6V48C102 57.941 110.059 66 120 66H162" fill="#030203"/>
<path d="M102 6V48C102 57.941 110.059 66 120 66H162" stroke="#030203" stroke-width="12"/>
<path fill-rule="evenodd" clip-rule="evenodd" d="M0 138C0 108.177 24.177 84 54 84C83.823 84 108 108.177 108 138C108 167.823 83.823 192 54 192C24.177 192 0 167.823 0 138ZM82.773 142.773C80.137 145.409 75.863 145.409 73.227 142.773L60 129.546V162C60 165.314 57.314 168 54 168C50.686 168 48 165.314 48 162V129.546L34.773 142.773C32.137 145.409 27.863 145.409 25.227 142.773C22.591 140.137 22.591 135.863 25.227 133.227L49.227 109.227C51.863 106.591 56.137 106.591 58.773 109.227L82.773 133.227C85.409 135.863 85.409 140.137 82.773 142.773Z" fill="#030203"/>
</svg>
