<?xml version="1.0" encoding="utf-8"?>
<svg viewBox="206.317 163.183 36.31 36.31" xmlns="http://www.w3.org/2000/svg">
  <path fill-rule="evenodd" clip-rule="evenodd" d="M 224.487 163.183 C 234.517 163.183 242.627 171.323 242.627 181.323 C 242.627 191.353 234.517 199.493 224.487 199.493 C 214.457 199.493 206.317 191.353 206.317 181.323 C 206.317 171.313 214.447 163.183 224.487 163.183 Z" fill="#FC5C5C" stroke="#FC5C5C" stroke-width="1.0205" stroke-miterlimit="10" stroke-linecap="round" stroke-linejoin="round"/>
  <g id="Expanded" transform="matrix(-0.33333301544189453, 0, 0, -0.3404259979724884, 351.88031005859375, 150.1361846923828)" style="">
    <title/>
    <desc/>
    <g fill="none" fill-rule="evenodd" id="Page-1" stroke="none" stroke-width="1" transform="matrix(-3.428575, 0, 0, -2.611108, 647.130493, -63.915272)" style="transform-origin: -54.235px -1.398px;">
      <g fill="#000000" id="Core" transform="translate(-299.000000, -129.000000)">
        <g id="delete" transform="translate(299.000000, 129.000000)">
          <path d="M1,16 C1,17.1 1.9,18 3,18 L11,18 C12.1,18 13,17.1 13,16 L13,4 L1,4 L1,16 L1,16 Z M14,1 L10.5,1 L9.5,0 L4.5,0 L3.5,1 L0,1 L0,3 L14,3 L14,1 L14,1 Z" id="Shape" style="fill: rgb(255, 255, 255);"/>
        </g>
      </g>
    </g>
  </g>
</svg>