<svg width="85" height="94" viewBox="0 0 85 94" fill="none" xmlns="http://www.w3.org/2000/svg">
<path fill-rule="evenodd" clip-rule="evenodd" d="M8.32359 80.4234C8.34388 82.337 8.20864 91.2895 8.36416 92.2699C8.66844 94.1699 10.5482 93.9536 12.482 93.9536H71.8631C77.0764 93.9536 76.2717 93.6831 76.2717 86.4616C76.2717 84.4466 76.2514 82.4384 76.2717 80.4234C76.292 80.4234 76.292 80.4234 76.292 80.4234C76.1162 77.7188 76.2717 30.0692 76.2717 26.7965V16.1807C76.2717 14.6255 76.0418 14.4565 75.2372 13.6518C72.8638 11.292 70.5784 8.99304 68.205 6.61969L62.8904 1.32529C62.221 0.635598 61.8761 0 60.4426 0H10.6631C8.70901 0 8.32359 1.1292 8.32359 2.95485V30.0016C8.32359 33.4838 8.47911 76.975 8.32359 80.4234ZM13.2123 88.9905H71.3425C71.3222 88.1453 71.3019 87.3068 71.3019 86.4616C71.3019 84.4331 71.2816 82.3979 71.3222 80.3693V80.3085C71.2816 79.3889 71.2816 78.4287 71.2816 77.5092C71.2613 75.4806 71.2613 73.4251 71.2613 71.3763C71.241 65.5139 71.241 59.6651 71.2613 53.8162C71.2613 44.8097 71.3019 35.7963 71.3019 26.7898L71.3222 16.7487C69.0976 14.5444 66.8933 12.3198 64.689 10.1155L59.5298 4.95631H13.2799V29.9881C13.2799 38.3996 13.3205 46.7976 13.3408 55.2091C13.3408 60.6726 13.361 66.1157 13.3408 71.5792C13.3408 74.4529 13.4016 77.4618 13.2799 80.3355V80.3558C13.3002 82.3505 13.2596 84.3587 13.2393 86.3534C13.2529 87.2122 13.2326 88.0912 13.2123 88.9905Z" fill="#221F20"/>
<path fill-rule="evenodd" clip-rule="evenodd" d="M8.32363 80.4234H76.2718C84.095 80.0989 84.5683 81.5729 84.5683 77.5294V43.7954C84.5683 41.0705 84.5481 40.9217 81.769 40.9217L19.8591 40.942C16.1604 40.942 12.4009 41.0028 8.70228 40.942C6.84282 40.9217 4.98336 40.9217 3.1239 40.9217C0.419224 40.9217 0 40.8473 0 43.6602V77.3942C0.00676168 81.458 0.371893 80.1733 8.32363 80.4234ZM21.989 53.7621H27.0873C28.2368 53.7621 29.1158 53.8365 29.7311 54.0123C30.5358 54.2625 31.2254 54.6817 31.8002 55.297C32.3952 55.9123 32.8144 56.6561 33.1255 57.5419C33.4298 58.4209 33.5853 59.5163 33.5853 60.8213C33.5853 61.9505 33.4298 62.931 33.166 63.7559C32.8212 64.7701 32.3208 65.5951 31.6717 66.2104C31.1916 66.6905 30.5425 67.0556 29.7176 67.3193C29.1023 67.5086 28.2773 67.6101 27.2428 67.6101H21.989V53.7621ZM24.8086 56.1017V65.2637H26.8777C27.662 65.2637 28.2165 65.2232 28.5613 65.1285C29.0211 65.0136 29.3863 64.8242 29.6905 64.5538C29.9813 64.2833 30.2247 63.8438 30.4208 63.215C30.6101 62.5996 30.6913 61.7612 30.6913 60.6861C30.6913 59.611 30.6169 58.7861 30.4208 58.2316C30.2315 57.6569 29.961 57.1971 29.6162 56.8928C29.2916 56.5682 28.8521 56.3383 28.3314 56.2437C27.946 56.149 27.182 56.1084 26.0528 56.1084H24.8086V56.1017ZM35.3906 60.7605C35.3906 59.3608 35.6003 58.1707 36.0262 57.2174C36.3305 56.5074 36.7768 55.8785 37.311 55.3038C37.8654 54.7493 38.4604 54.3233 39.1096 54.0596C39.9751 53.6945 40.969 53.5052 42.0982 53.5052C44.1267 53.5052 45.7563 54.1543 46.9869 55.4187C48.2108 56.6832 48.8261 58.448 48.8261 60.7064C48.8261 62.9513 48.2108 64.6958 47.0072 65.9602C45.8036 67.2246 44.1673 67.8602 42.1388 67.8602C40.0697 67.8602 38.4199 67.2246 37.2095 65.9805C35.9992 64.7093 35.3906 62.9851 35.3906 60.7605ZM38.2644 60.6658C38.2644 62.2345 38.6295 63.4246 39.3597 64.2495C40.09 65.0541 41.0096 65.4598 42.1185 65.4598C43.2477 65.4598 44.147 65.0541 44.8773 64.2495C45.5873 63.4449 45.9524 62.2345 45.9524 60.6252C45.9524 59.0362 45.6075 57.8665 44.8976 57.0821C44.2079 56.2978 43.2883 55.9123 42.1185 55.9123C40.969 55.9123 40.0292 56.2978 39.3395 57.1024C38.6295 57.8868 38.2644 59.0701 38.2644 60.6658ZM59.8679 62.505L62.5929 63.3299C62.1737 64.8648 61.484 65.994 60.5035 66.7243C59.5434 67.4748 58.3195 67.8332 56.8252 67.8332C54.986 67.8332 53.4714 67.1976 52.2813 65.9534C51.1115 64.689 50.5165 62.9851 50.5165 60.7943C50.5165 58.475 51.1115 56.6899 52.3016 55.4052C53.4917 54.1408 55.0604 53.4917 56.9942 53.4917C58.6982 53.4917 60.064 54.0123 61.1121 55.0063C61.7477 55.6013 62.221 56.4465 62.532 57.5554L59.7733 58.2248C59.6177 57.4946 59.2729 56.9401 58.759 56.5209C58.2248 56.1017 57.5892 55.9056 56.859 55.9056C55.8244 55.9056 54.9995 56.2707 54.3504 57.001C53.7148 57.7515 53.3902 58.9348 53.3902 60.5847C53.3902 62.3292 53.7148 63.5733 54.3301 64.3239C54.9657 65.0744 55.7839 65.4328 56.8049 65.4328C57.5554 65.4328 58.1843 65.2029 58.7184 64.7228C59.2526 64.2495 59.638 63.5192 59.8679 62.505Z" fill="#221F20"/>
<path fill-rule="evenodd" clip-rule="evenodd" d="M22.3 27.2766H62.3021L62.363 23.8079L22.3068 23.7876C22.1445 24.3826 22.1445 26.6816 22.3 27.2766Z" fill="#221F20"/>
<path fill-rule="evenodd" clip-rule="evenodd" d="M22.3 35.4988H62.3021L62.363 32.0301L22.2865 32.0098C22.1445 32.6589 22.1242 34.8835 22.3 35.4988Z" fill="#221F20"/>
<path fill-rule="evenodd" clip-rule="evenodd" d="M22.2189 19.0882H50.5909L50.6044 15.6803L22.2189 15.6195V19.0882Z" fill="#221F20"/>
</svg>
