<svg width="23" height="25" viewBox="0 0 23 25" fill="none" xmlns="http://www.w3.org/2000/svg">
<path fill-rule="evenodd" clip-rule="evenodd" d="M13.1103 13.5061C14.0315 12.9307 14.7832 11.8498 15.0758 10.2634C15.0758 10.0805 15.159 9.93747 15.2854 9.83105C15.4417 9.70134 15.6578 9.62818 15.8607 9.59824C16.0636 9.3222 16.1999 9.02288 16.2798 8.71026C16.3596 8.39431 16.3862 8.06505 16.3696 7.71917L15.9339 7.58946C15.9272 7.58946 15.9206 7.58281 15.9206 7.57616C15.8408 6.88107 15.6978 6.2791 15.4683 5.79021C15.2454 5.31129 14.9461 4.94213 14.5537 4.70267C13.5925 5.38446 12.5083 5.72369 11.4208 5.72369C10.3332 5.72369 9.24903 5.38446 8.28788 4.70267C7.89544 4.93881 7.59279 5.30797 7.37329 5.79021C7.14713 6.2791 7.0008 6.87774 6.92098 7.57616C6.92098 7.58281 6.91433 7.58946 6.90768 7.58946L6.472 7.71917C6.45537 8.06505 6.48197 8.39431 6.56179 8.71026C6.64161 9.02621 6.77797 9.32553 6.98084 9.59824C7.18704 9.62818 7.40322 9.70134 7.55621 9.83105C7.68259 9.93747 7.76573 10.0805 7.76573 10.2634C8.05507 11.8498 8.81003 12.9307 9.72795 13.5061C10.2568 13.8353 10.8354 13.9983 11.4175 13.9983C12.0061 14.0016 12.5848 13.8353 13.1103 13.5061ZM22.8648 23.8726C22.6952 24.0654 22.519 24.2517 22.336 24.4346L21.6609 20.1942C21.5412 19.7619 21.4015 19.4892 21.2418 19.2963C21.0922 19.1067 20.9126 18.9803 20.7097 18.8539L17.0813 17.3606C17.1511 17.65 17.201 17.9693 17.2376 18.3118C17.2975 18.8207 17.3241 19.3861 17.334 19.9914C17.6267 20.0379 17.9194 20.1576 18.1921 20.3505C19.0635 20.9758 19.7552 22.3992 19.7918 24.6874C19.7951 24.857 19.6588 24.9933 19.4892 24.9933H19.4858V24.9967H18.3218V24.3814H19.1699C19.0901 22.499 18.528 21.3449 17.8362 20.8494C17.5735 20.6598 17.2908 20.5734 17.0114 20.58C16.7354 20.5867 16.4494 20.6964 16.1933 20.896C15.4949 21.4314 14.9561 22.6121 14.9461 24.3847H15.9904V25H14.6468C14.4772 25 14.3442 24.8603 14.3442 24.694C14.3442 24.6874 14.3442 24.6807 14.3442 24.6741C14.2876 22.5323 14.9494 21.0855 15.8241 20.4137C16.1068 20.1942 16.4128 20.0545 16.7287 20.0013C16.7221 19.4226 16.6955 18.8772 16.639 18.3817C16.5791 17.8795 16.4959 17.4371 16.3762 17.068L14.71 16.3829L11.9063 20.2142L11.6536 20.5667H11.6503C11.6336 20.59 11.6137 20.6133 11.5871 20.6299C11.4507 20.7297 11.2611 20.7031 11.1614 20.57L7.9686 16.2864L5.93987 17.1644L5.68046 20.2541C6.15272 20.3239 6.57842 20.5434 6.90102 20.866C7.29014 21.2552 7.53292 21.7939 7.53292 22.3892C7.53292 22.9846 7.29014 23.5233 6.90102 23.9125C6.51191 24.3016 5.97313 24.5444 5.37781 24.5444C4.78249 24.5444 4.24371 24.3016 3.8546 23.9125C3.46548 23.5233 3.22269 22.9846 3.22269 22.3892C3.22269 21.7939 3.46548 21.2552 3.8546 20.866C4.17387 20.5468 4.59625 20.3239 5.06851 20.2574L5.30464 17.4405L2.3979 18.7043H2.39125C2.11188 18.8539 1.85247 19.0368 1.64959 19.263C1.4833 19.4459 1.35692 19.6588 1.28708 19.8949L0.528801 24.4679C0.345883 24.2883 0.169616 24.102 0 23.9158L0.685114 19.7785C0.688439 19.7652 0.691765 19.7519 0.695091 19.7386C0.791539 19.396 0.967806 19.1034 1.19396 18.8506C1.44672 18.5712 1.766 18.3451 2.1019 18.1655C2.11853 18.1588 2.13516 18.1489 2.14846 18.1455L5.50086 16.6922C5.51749 16.6855 5.53412 16.6755 5.54743 16.6722L7.78901 15.7011L8.1615 13.3863C8.17148 13.3265 8.19808 13.2699 8.23467 13.23C7.49967 12.4484 7.3234 11.7168 7.19369 11.178C7.07729 10.6825 6.99747 10.3532 6.54516 10.3133C6.53851 10.3133 6.53519 10.3133 6.53186 10.3066C6.29573 10.0506 5.98643 9.49514 5.78688 8.9098C5.67048 8.56392 5.59066 8.20141 5.59066 7.88546C5.58733 7.56618 5.66383 7.29014 5.85672 7.11055C5.92657 7.04736 6.00971 6.99415 6.10949 6.95756C5.99308 6.35559 5.92657 5.7503 5.90661 5.14833C5.88998 4.53971 5.92657 3.93109 6.01636 3.32247V3.31914C6.28575 2.09858 7.15711 1.21391 8.29121 0.665159C9.21578 0.222828 10.3166 0 11.4175 0C12.5183 0 13.6191 0.222828 14.5437 0.665159C15.6811 1.21059 16.5492 2.09858 16.8185 3.31914V3.32247C16.9083 3.93109 16.9449 4.53971 16.9283 5.14833C16.9083 5.7503 16.8418 6.35559 16.7254 6.95756C16.8252 6.99415 16.9083 7.04403 16.9782 7.11055C17.1711 7.29014 17.2476 7.56286 17.2442 7.88546C17.2442 8.20141 17.1644 8.56392 17.048 8.9098C16.8518 9.49514 16.5425 10.0472 16.3064 10.3066C16.303 10.31 16.2997 10.3133 16.2931 10.3133C15.8408 10.3532 15.7609 10.6825 15.6412 11.178C15.5115 11.7234 15.3352 12.4684 14.577 13.2599C14.5803 13.2633 14.5836 13.2666 14.5836 13.2666C14.6368 13.3198 14.6701 13.3896 14.6734 13.4595L14.863 15.7875L20.9658 18.2952C20.9824 18.3018 20.9991 18.3118 21.0124 18.3185C21.2685 18.4814 21.5046 18.6411 21.7174 18.9071C21.927 19.1699 22.1099 19.5158 22.2562 20.0479C22.2595 20.0579 22.2629 20.0678 22.2629 20.0811L22.8648 23.8726ZM8.38765 15.8308L9.18917 16.905L11.3975 19.8716L14.2677 15.9106L14.1213 14.1113C13.3564 14.7 12.4518 14.996 11.5206 14.9894C10.5694 14.9827 9.58494 14.6535 8.68365 13.9949L8.38765 15.8308ZM4.40668 21.3749C4.40003 21.3815 4.39005 21.3915 4.3834 21.3982C4.13064 21.6509 3.971 22.0035 3.971 22.3892C3.971 22.775 4.12731 23.1276 4.3834 23.3803C4.63616 23.6364 4.98869 23.7927 5.37448 23.7927C5.76028 23.7927 6.11281 23.6364 6.36557 23.3803C6.61833 23.1276 6.77797 22.775 6.77797 22.3892C6.77797 22.0035 6.62166 21.6509 6.36557 21.3982C6.11281 21.1454 5.76028 20.9858 5.37448 20.9858C5.35453 20.9891 5.33457 20.9891 5.31462 20.9858C5.19489 20.9924 5.07849 21.0124 4.96874 21.0456C4.90887 21.0656 4.85233 21.0822 4.79912 21.1055V21.1088L4.78582 21.1155L4.76919 21.1221L4.75589 21.1288L4.74591 21.1354H4.74258L4.72928 21.1421V21.1454L4.71598 21.1521L4.71265 21.1554L4.70267 21.162L4.69602 21.1654L4.68604 21.172L4.67939 21.1753L4.67274 21.182L4.66942 21.1853L4.65944 21.192L4.64614 21.1986H4.64281L4.63283 21.2053H4.62951L4.6162 21.2152L4.6029 21.2219L4.5896 21.2285V21.2319L4.57629 21.2385C4.56964 21.2452 4.55966 21.2485 4.55301 21.2552L4.54969 21.2585L4.54304 21.2651L4.53638 21.2685L4.52973 21.2751L4.52308 21.2784L4.51643 21.2851L4.50978 21.2917L4.50313 21.2884L4.49647 21.2951L4.48982 21.3017L4.48317 21.3084L4.47652 21.315L4.46987 21.3217L4.46322 21.3283L4.45656 21.335L4.44991 21.3416L4.44326 21.3483L4.43661 21.3549L4.42996 21.3616L4.42331 21.3682L4.41333 21.3782L4.40668 21.3749Z" fill="black"/>
</svg>
