<svg width="95" height="95" viewBox="0 0 95 95" fill="none" xmlns="http://www.w3.org/2000/svg">
<g clip-path="url(#clip0_363_95)">
<path fill-rule="evenodd" clip-rule="evenodd" d="M51.5505 50.709C53.7617 49.3211 55.5737 46.7244 56.2745 42.9054C56.2745 42.4609 56.4808 42.1139 56.7893 41.8576C57.1567 41.5492 57.676 41.37 58.1704 41.3043C58.658 40.6353 58.9868 39.9232 59.1796 39.1566C59.3723 38.4037 59.4358 37.6077 59.3973 36.7708L58.3495 36.4692C58.3291 36.4624 58.3178 36.4488 58.3178 36.4307C58.125 34.7525 57.778 33.3056 57.2315 32.1354C56.6986 30.9788 55.9706 30.092 55.0272 29.5115C52.714 31.1579 50.0969 31.9812 47.4798 31.9812C44.8627 31.9812 42.2478 31.1579 39.9324 29.5115C38.9867 30.0898 38.261 30.9765 37.728 32.1354C37.1883 33.3056 36.8345 34.7525 36.6417 36.4307C36.6417 36.4511 36.6281 36.4624 36.6168 36.4692L35.5622 36.7708C35.5237 37.6077 35.5872 38.4037 35.78 39.1566C35.9727 39.9209 36.3061 40.6353 36.7959 41.3043C37.2903 41.3678 37.8051 41.5492 38.1771 41.8576C38.4855 42.1139 38.6851 42.4609 38.6851 42.9054C39.3926 46.7244 41.1978 49.3211 43.4158 50.709C44.6812 51.505 46.0782 51.9042 47.4775 51.9042C48.8836 51.9042 50.2851 51.505 51.5505 50.709ZM75.0409 75.6893C74.6304 76.1452 74.204 76.5965 73.7686 77.0319L72.1494 66.8243C71.8591 65.7834 71.5189 65.1212 71.1402 64.6517C70.7728 64.2027 70.3374 63.8988 69.8475 63.5904L61.1118 59.9845C61.2728 60.6921 61.3953 61.4563 61.4837 62.2796C61.6243 63.5065 61.6969 64.8694 61.715 66.3231C62.4226 66.432 63.1234 66.7223 63.7788 67.1917C65.8811 68.6953 67.5525 72.1288 67.6296 77.6306C67.6364 78.0365 67.3075 78.3699 66.9039 78.3767H66.897H64.1008V76.9049H66.1396C65.9468 72.3737 64.5975 69.582 62.9261 68.3869C62.2888 67.931 61.6152 67.7179 60.9462 67.7451C60.2704 67.7655 59.5969 68.0149 58.9664 68.5025C57.2814 69.7952 55.9842 72.6368 55.9706 76.9049H58.4788V78.3767H55.2449C54.8344 78.3767 54.5055 78.0479 54.5055 77.6442C54.5055 77.6238 54.5055 77.6125 54.5055 77.5989C54.3695 72.444 55.9706 68.9516 58.0661 67.3391C58.7464 66.813 59.4857 66.4773 60.2455 66.3435C60.225 64.9488 60.1615 63.638 60.0277 62.4406C59.8917 61.2318 59.6876 60.1659 59.3905 59.2769L55.3787 57.6237L48.6409 66.8742L48.0308 67.7156C47.9855 67.7745 47.9333 67.8312 47.8698 67.8766C47.541 68.1215 47.0852 68.0512 46.8402 67.7224L39.1522 57.4037L34.2673 59.5241L33.6436 66.9695C34.7889 67.1305 35.8094 67.6634 36.5805 68.4413C37.5194 69.3802 38.1045 70.6774 38.1045 72.1129C38.1045 73.5485 37.5194 74.8457 36.5805 75.7846C35.6416 76.7235 34.3444 77.3018 32.9089 77.3018C31.4733 77.3018 30.1761 76.7235 29.2372 75.7846C28.2983 74.8457 27.72 73.5485 27.72 72.1129C27.72 70.6774 28.2983 69.3802 29.2372 68.4413C30.0151 67.6634 31.0311 67.1373 32.1627 66.9695L32.7274 60.1863L25.7266 63.2207L25.7198 63.2275C25.044 63.5881 24.4203 64.0303 23.9395 64.5656C23.5336 65.01 23.2252 65.518 23.0642 66.0963L21.2317 77.1158C20.794 76.6849 20.37 76.2359 19.9595 75.7846L21.6173 65.8197C21.6241 65.7879 21.6309 65.7494 21.6377 65.7176C21.869 64.9012 22.2931 64.1868 22.8396 63.5836C23.4565 62.9078 24.2162 62.3567 25.0326 61.9258C25.0644 61.9054 25.1029 61.894 25.1415 61.8804L33.215 58.3766C33.2536 58.3562 33.2921 58.338 33.3375 58.3244L38.7304 55.984L39.6308 50.4051C39.6512 50.2645 39.7147 50.1353 39.8054 50.0332C38.0365 48.1486 37.6124 46.3888 37.3039 45.0961C37.0137 43.901 36.8209 43.1095 35.7346 43.0142C35.721 43.0142 35.7142 43.0074 35.7097 43.0006C35.1314 42.377 34.392 41.0457 33.9158 39.6329C33.6323 38.796 33.4395 37.9297 33.4395 37.17C33.4327 36.3989 33.6187 35.7299 34.0813 35.299C34.2492 35.1448 34.4533 35.0223 34.6914 34.9384C34.4079 33.4847 34.2469 32.0333 34.2038 30.5728C34.1653 29.1078 34.2492 27.6473 34.4669 26.1823V26.1755C35.1155 23.2318 37.211 21.1023 39.9505 19.7847C42.1753 18.7165 44.8287 18.1836 47.4775 18.1836C50.1263 18.1836 52.782 18.7165 55.0045 19.7847C57.7486 21.1023 59.8395 23.2295 60.4881 26.1755C60.7058 27.6405 60.7897 29.1078 60.7512 30.5728C60.7126 32.0311 60.5448 33.4847 60.2636 34.9384C60.5085 35.0223 60.7081 35.1448 60.8737 35.299C61.3363 35.7299 61.5223 36.3989 61.5155 37.17C61.5155 37.9274 61.3295 38.796 61.046 39.6329C60.5698 41.048 59.8236 42.377 59.2521 42.9961C59.2453 43.0097 59.2317 43.0165 59.2272 43.0165C58.1341 43.114 57.9413 43.9032 57.6579 45.0984C57.3426 46.4092 56.9117 48.1962 55.0861 50.1058C55.0929 50.1126 55.0997 50.1194 55.1065 50.1262C55.2426 50.2555 55.3129 50.421 55.3242 50.5956L55.7801 56.2085L70.4553 62.2569C70.5007 62.2705 70.5324 62.2954 70.571 62.3158C71.1878 62.7082 71.7548 63.0937 72.2673 63.731C72.7753 64.3546 73.213 65.196 73.5668 66.4819C73.5736 66.5068 73.5804 66.534 73.5872 66.559L75.0409 75.6893ZM40.1728 56.3129L42.0959 58.8982L47.4253 66.0465L54.3355 56.5056L53.9817 52.1718C52.1356 53.5869 49.9631 54.299 47.7134 54.2809C45.4183 54.2605 43.0529 53.4781 40.8803 51.8838L40.1728 56.3129ZM30.5753 69.6659C30.5548 69.6863 30.5367 69.7045 30.5163 69.7181C29.9062 70.3349 29.5252 71.1763 29.5252 72.1152C29.5252 73.0473 29.904 73.8955 30.5163 74.5055C31.1263 75.1156 31.9745 75.4966 32.9066 75.4966C33.8455 75.4966 34.6869 75.1178 35.2969 74.5055C35.9138 73.8955 36.2925 73.0473 36.2925 72.1152C36.2925 71.1763 35.9138 70.3349 35.2969 69.7181C34.6869 69.108 33.8432 68.727 32.9066 68.727C32.8612 68.7338 32.8091 68.7338 32.7592 68.7338C32.4689 68.7475 32.1945 68.7928 31.9292 68.8745C31.7885 68.913 31.6593 68.9652 31.53 69.0219H31.5232L31.4915 69.0423L31.4529 69.0559L31.4212 69.0763L31.3894 69.0899L31.3826 69.0967L31.3509 69.1103L31.3191 69.1307H31.3123L31.2874 69.1511L31.2737 69.1579L31.2533 69.1715L31.2397 69.1783L31.2148 69.192L31.208 69.1988L31.183 69.2124L31.1513 69.2328L31.1195 69.2532L31.0878 69.2736H31.081L31.0492 69.2985L31.0175 69.319L30.9857 69.3394C30.9653 69.353 30.9472 69.3711 30.9268 69.3847L30.9018 69.4051L30.8882 69.3961L30.8678 69.4165L30.861 69.4233L30.8406 69.4369L30.8202 69.4505L30.8066 69.4573L30.7862 69.4777L30.7726 69.4845L30.7589 69.4981L30.7385 69.5185L30.7249 69.5253L30.7113 69.5389L30.6909 69.5525L30.6773 69.5661L30.6569 69.5866L30.6501 69.5934L30.6297 69.6138L30.6161 69.6274H30.6093L30.5889 69.6478L30.5821 69.6546L30.5571 69.675V69.6659H30.5753Z" fill="#221F20"/>
<path fill-rule="evenodd" clip-rule="evenodd" d="M47.5 0C73.7344 0 95 21.2656 95 47.5C95 73.7344 73.7344 95 47.5 95C21.2656 95 0 73.7344 0 47.5C0 21.2656 21.2656 0 47.5 0ZM47.5 3.01397C72.0698 3.01397 91.9928 22.9302 91.9928 47.5C91.9928 72.0698 72.0698 91.9928 47.5 91.9928C22.9302 91.9928 3.01397 72.0698 3.01397 47.5C3.01397 22.9302 22.9302 3.01397 47.5 3.01397Z" fill="#15BEA4"/>
</g>
<defs>
<clipPath id="clip0_363_95">
<rect width="95" height="95" fill="white"/>
</clipPath>
</defs>
</svg>
