<svg width="37" height="37" viewBox="0 0 37 37" fill="none" xmlns="http://www.w3.org/2000/svg">
<path fill-rule="evenodd" clip-rule="evenodd" d="M18.73 0C28.76 0 36.9 8.14001 36.9 18.14C36.9 28.17 28.76 36.31 18.73 36.31C8.71997 36.31 0.589966 28.17 0.589966 18.14C0.589966 8.13001 8.71997 0 18.73 0Z" fill="#049B8A"/>
<path fill-rule="evenodd" clip-rule="evenodd" d="M22.9292 10.1342L26.83 14.0559C27.0567 14.2349 27.0567 14.6092 26.83 14.7882L25.2762 16.3504L20.6469 11.6964L22.2008 10.1342C22.3789 9.95525 22.7349 9.95525 22.9292 10.1342ZM15.9044 25.821L11 26L11.2752 21.1182L19.6272 12.7216L24.305 17.3756L15.9044 25.821Z" fill="white"/>
</svg>
