<svg width="50" height="50" viewBox="0 0 50 50" fill="none" xmlns="http://www.w3.org/2000/svg">
<g clip-path="url(#clip0_2_8)">
<path fill-rule="evenodd" clip-rule="evenodd" d="M25 0C38.8033 0 50 11.2077 50 25.0246C50 38.8415 38.8033 50 25 50C11.1967 50 0 38.8415 0 25.0246C0 11.2077 11.1967 0 25 0ZM22.7213 28.8809V20.233L29.2787 24.5651L22.7213 28.8809ZM36.4754 20.4135C36.4754 18.51 34.9344 16.9675 33.0328 16.9675H16.9508C15.0492 16.9675 13.5082 18.51 13.5082 20.4135V29.6193C13.5082 31.4736 15.0492 33.0161 16.9508 33.0161H33.0328C34.9344 33.0161 36.4754 31.4736 36.4754 29.6193V20.4135Z" fill="white"/>
</g>
<defs>
<clipPath id="clip0_2_8">
<rect width="50" height="50" fill="white"/>
</clipPath>
</defs>
</svg>
