<svg width="12" height="15" viewBox="0 0 12 15" fill="none" xmlns="http://www.w3.org/2000/svg">
<path fill-rule="evenodd" clip-rule="evenodd" d="M1.85632 6.29432C1.23186 6.39164 0.518186 6.1159 0.17757 6.59438C-0.0738381 6.95933 0.015371 7.92441 0.015371 8.45967C0.015371 8.99492 -0.0332885 14.1853 0.0640306 14.461C0.291108 15.126 0.866913 14.9882 1.58059 14.9882H9.62563C10.315 14.9882 10.9394 15.1017 11.1665 14.5016C11.2801 14.2015 11.2395 9.02736 11.2395 8.47589C11.2395 7.97307 11.3125 6.95933 11.0773 6.6106C10.7286 6.10779 10.023 6.38353 9.37423 6.28621C9.37423 4.72099 9.58508 3.01791 8.84708 1.80142C7.34674 -0.599119 3.90003 -0.59912 2.4078 1.79331C1.6698 3.0098 1.85632 4.71288 1.85632 6.29432ZM3.51075 6.31865H7.7198C7.76035 5.6293 7.78468 3.5856 7.59815 3.05846C6.93314 1.2175 4.33796 1.16884 3.64862 3.03413C3.43776 3.5856 3.48642 5.60497 3.51075 6.31865ZM5.05163 10.3898L4.68669 12.8228H6.52764L6.17891 10.3898C6.50331 10.2276 6.80338 9.74914 6.61685 9.19767C6.34111 8.25692 4.98675 8.20826 4.63803 9.17334C4.42717 9.74914 4.75157 10.1628 5.05163 10.3898Z" fill="#028575"/>
</svg>
