<svg width="15" height="15" viewBox="0 0 15 15" fill="none" xmlns="http://www.w3.org/2000/svg">
<path fill-rule="evenodd" clip-rule="evenodd" d="M9.10629 12.771C9.44738 12.6838 9.78054 12.5251 10.1216 12.3665C10.1216 12.3903 10.1454 12.4141 10.1692 12.4379L11.3591 13.6039C11.5415 13.7864 11.835 13.7864 12.0095 13.6039L13.6277 11.9857C13.8102 11.8033 13.8102 11.5098 13.6277 11.3353L12.4617 10.1692C12.4141 10.1454 12.3903 10.1216 12.3744 10.0978C12.5568 9.78054 12.6917 9.44738 12.8027 9.10629C12.8265 9.10629 12.8503 9.10629 12.89 9.10629H14.5558C14.8017 9.10629 15.0079 8.90005 15.0079 8.63035V6.36171C15.0079 6.09202 14.8017 5.88578 14.5558 5.88578H12.89C12.8424 5.88578 12.8186 5.88578 12.8027 5.88578C12.6838 5.55262 12.5489 5.21946 12.3665 4.90217C12.3903 4.87837 12.4141 4.85457 12.4537 4.83078L13.6198 3.66473C13.8022 3.48228 13.8022 3.18879 13.6198 3.01428L12.0016 1.39609C11.8191 1.21364 11.5256 1.21364 11.3511 1.39609L10.1613 2.56214C10.1375 2.58593 10.1137 2.60973 10.1137 2.63353C9.77261 2.47488 9.43945 2.31623 9.09836 2.22898C9.09836 2.18139 9.09836 2.15759 9.09836 2.11793V0.452142C9.09836 0.20624 8.89212 0 8.64622 0H6.36171C6.09202 0 5.88578 0.20624 5.88578 0.452142V2.11793C5.88578 2.16552 5.88577 2.18932 5.90957 2.22898C5.55262 2.31623 5.21946 2.47488 4.90217 2.63353C4.87837 2.60973 4.85457 2.58593 4.83078 2.56214L3.66473 1.39609C3.48228 1.21364 3.18879 1.21364 3.01428 1.39609L1.39609 3.01428C1.21364 3.19672 1.21364 3.49022 1.39609 3.66473L2.56214 4.83078C2.58593 4.85457 2.60973 4.87837 2.63353 4.90217C2.47488 5.21946 2.34003 5.55262 2.22898 5.89371C2.18139 5.89371 2.15759 5.89371 2.11793 5.89371H0.475939C0.20624 5.89371 0 6.09202 0 6.36171V8.63035C0 8.90005 0.20624 9.10629 0.475939 9.10629H2.11793C2.16552 9.10629 2.18932 9.10629 2.22898 9.10629C2.34003 9.44738 2.47488 9.78054 2.63353 10.0978C2.60973 10.1216 2.58593 10.1454 2.56214 10.1692L1.39609 11.3353C1.21364 11.5177 1.21364 11.8112 1.39609 11.9857L3.01428 13.6039C3.19672 13.7864 3.49022 13.7864 3.66473 13.6039L4.83078 12.4379C4.85457 12.4141 4.87837 12.3903 4.90217 12.3665C5.21946 12.5251 5.55262 12.6838 5.9175 12.771C5.89371 12.8186 5.89371 12.8424 5.89371 12.8821V14.5479C5.89371 14.7938 6.09995 15 6.36965 15H8.66208C8.90799 15 9.11423 14.7938 9.11423 14.5479V12.8821C9.10629 12.8424 9.10629 12.8186 9.10629 12.771ZM7.5119 10.6769C9.26494 10.6769 10.6848 9.25701 10.6848 7.48017C10.6848 5.72713 9.26494 4.30724 7.5119 4.30724C5.75886 4.30724 4.31518 5.72713 4.31518 7.48017C4.31518 9.26494 5.75886 10.6769 7.5119 10.6769Z" fill="#028575"/>
</svg>
