<?xml version="1.0" encoding="utf-8"?>
<svg viewBox="229.204 129.732 36.31 36.31" xmlns="http://www.w3.org/2000/svg">
  <path fill-rule="evenodd" clip-rule="evenodd" d="M 247.374 129.732 C 257.384 129.732 265.514 137.872 265.514 147.872 C 265.514 157.902 257.374 166.042 247.374 166.042 C 237.344 166.042 229.204 157.902 229.204 147.872 C 229.204 137.862 237.334 129.732 247.374 129.732 Z" style="fill: rgb(155, 134, 4);"/>
  <path d="M 241.262 147.281 C 240.223 146.653 238.856 146.967 238.202 147.964 C 237.548 149.017 237.875 150.329 238.914 150.957 L 246.382 155.408 C 247.479 156.036 248.845 155.722 249.5 154.725 L 256.544 142.94 C 257.198 141.943 256.814 140.576 255.716 140.003 C 254.677 139.43 253.311 139.8 252.656 140.797 L 246.825 150.587 L 241.262 147.281 Z" fill="white"/>
</svg>