<?xml version="1.0" encoding="utf-8"?>
<svg viewBox="137.7062 7.2291 32.0001 32.0001" xmlns="http://www.w3.org/2000/svg">
  <g id="g-2" transform="matrix(0.06722700595855713, 0, 0, 0.06722700595855713, 136.49612426757812, 6.019046783447266)">
    <path d="M494,256c0,131.4-106.6,238-238,238S18,387.4,18,256S124.6,18,256,18S494,124.6,494,256z" style="fill: rgb(4, 155, 138);"/>
  </g>
  <g transform="matrix(0.06722700595855713, 0, 0, 0.06722700595855713, 136.49612426757812, 6.019046783447266)">
    <g>
      <path d="M142.9,329l-5,45l45-5    l144-144l-40-40L142.9,329z" fill="none" stroke="#FFFFFF" stroke-linejoin="round" stroke-miterlimit="10" stroke-width="16"/>
    </g>
    <g>
      <path d="M337.1,138    c-3.1,0-6.2,1.2-8.6,3.6L307.9,164l40,40l22.6-20.5c4.8-4.8,4.8-12.5,0-17.2l-24.7-24.7C343.2,139.2,340.1,138,337.1,138    L337.1,138z" fill="none" stroke="#FFFFFF" stroke-linejoin="round" stroke-miterlimit="10" stroke-width="16"/>
    </g>
  </g>
</svg>