<svg width="21" height="21" viewBox="0 0 21 21" fill="none" xmlns="http://www.w3.org/2000/svg">
<path d="M17 1V4M17 4V7M17 4H20M17 4H14" stroke="#049B8A" stroke-width="2" stroke-linecap="round" stroke-linejoin="round"/>
<path fill-rule="evenodd" clip-rule="evenodd" d="M11 1H3C2.20435 1 1.44129 1.31607 0.87868 1.87868C0.316071 2.44129 0 3.20435 0 4V14.5C0 14.586 0.0110001 14.67 0.0320001 14.75C0.0108324 14.8317 8.02958e-05 14.9157 0 15V18C0 18.7956 0.316071 19.5587 0.87868 20.1213C1.44129 20.6839 2.20435 21 3 21H17C17.7956 21 18.5587 20.6839 19.1213 20.1213C19.6839 19.5587 20 18.7956 20 18V11C19.9999 10.9157 19.9892 10.8317 19.968 10.75C19.9892 10.6683 19.9999 10.5843 20 10.5V10H18V10.016C13.703 10.155 10.6 11.19 8.42 12.639C9.246 12.932 10.17 13.349 11.076 13.895C12.475 14.735 13.897 15.915 14.854 17.478C14.9226 17.59 14.9684 17.7144 14.9888 17.8442C15.0093 17.9739 15.004 18.1064 14.9733 18.2341C14.9425 18.3617 14.887 18.4821 14.8097 18.5883C14.7324 18.6945 14.635 18.7845 14.523 18.853C14.411 18.9216 14.2866 18.9674 14.1568 18.9878C14.0271 19.0083 13.8946 19.003 13.7669 18.9723C13.6393 18.9415 13.5189 18.886 13.4127 18.8087C13.3065 18.7314 13.2165 18.634 13.148 18.522C12.412 17.319 11.27 16.344 10.046 15.609C8.824 14.875 7.581 14.417 6.719 14.217C5.50471 13.9397 4.26137 13.8101 3.016 13.831H2.994C2.646 13.836 2.314 13.851 2 13.876V4C2 3.73478 2.10536 3.48043 2.29289 3.29289C2.48043 3.10536 2.73478 3 3 3H11V1ZM6.5 5C5.95484 5.00408 5.42389 5.17431 4.978 5.488C4.408 5.898 4 6.574 4 7.5C4 8.426 4.408 9.101 4.978 9.511C5.4236 9.82539 5.95467 9.99601 6.5 10C6.91 10 7.503 9.885 8.022 9.511C8.592 9.101 9 8.426 9 7.5C9 6.574 8.592 5.899 8.022 5.488C7.57628 5.17397 7.04522 5.00369 6.5 5Z" fill="#AFAFAF"/>
</svg>
