<svg width="13" height="17" viewBox="0 0 13 17" fill="none" xmlns="http://www.w3.org/2000/svg">
<path fill-rule="evenodd" clip-rule="evenodd" d="M1.5698 1H9.17101L12.5916 4.4412V15.3555C12.5916 15.7067 12.3106 16 11.9595 16H1.5698C1.21866 16 0.937744 15.7067 0.937744 15.3555V1.64445C0.937744 1.29331 1.21866 1 1.5698 1Z" fill="white" stroke="black" stroke-width="0.5669" stroke-miterlimit="10" stroke-linecap="round" stroke-linejoin="round"/>
<path fill-rule="evenodd" clip-rule="evenodd" d="M9.21655 1.04956V3.88349C9.21655 4.1768 9.47268 4.38748 9.82382 4.39988H12.5503L9.21655 1.04956Z" fill="black"/>
<path fill-rule="evenodd" clip-rule="evenodd" d="M3.17267 9.2002H10.3525C10.5301 9.2002 10.6789 9.35305 10.6789 9.52655C10.6789 9.70419 10.526 9.85291 10.3525 9.85291H3.17267C2.99503 9.85291 2.84631 9.70006 2.84631 9.52655C2.84631 9.34892 2.99916 9.2002 3.17267 9.2002Z" fill="black"/>
<path fill-rule="evenodd" clip-rule="evenodd" d="M3.17267 11.1996H10.3525C10.5301 11.1996 10.6789 11.3401 10.6789 11.526C10.6789 11.7036 10.526 11.8441 10.3525 11.8441H3.17267C2.99503 11.8441 2.84631 11.7036 2.84631 11.526C2.84631 11.3401 2.99916 11.1996 3.17267 11.1996Z" fill="black"/>
<path fill-rule="evenodd" clip-rule="evenodd" d="M3.17267 13.1909H10.3525C10.5301 13.1909 10.6789 13.3437 10.6789 13.5172C10.6789 13.6948 10.526 13.8436 10.3525 13.8436H3.17267C2.99503 13.8436 2.84631 13.6907 2.84631 13.5172C2.84631 13.3437 2.99916 13.1909 3.17267 13.1909Z" fill="black"/>
<path fill-rule="evenodd" clip-rule="evenodd" d="M0.937744 3.64801H8.10519C8.22086 3.64801 8.31588 3.75542 8.31588 3.87109V6.64718C8.31588 6.77525 8.22086 6.87026 8.10519 6.87026H0.937744V3.64801Z" fill="black"/>
<path fill-rule="evenodd" clip-rule="evenodd" d="M0 4.66843V7.60564C0.185899 7.19666 0.479207 6.92814 0.937758 6.86617V3.64392C0.446158 3.66045 0 4.22227 0 4.66843Z" fill="black"/>
<path fill-rule="evenodd" clip-rule="evenodd" d="M0 7.60564V8.06419C0 8.3451 0.396585 8.94411 0.937758 8.94411V6.8703C0.479207 6.92814 0.185899 7.19666 0 7.60564Z" fill="black"/>
<path d="M2.11926 6.21344V4.30487H2.72653C2.96201 4.30487 3.11486 4.31726 3.19335 4.32966C3.30076 4.36684 3.39164 4.42467 3.46187 4.51556C3.5321 4.62296 3.56928 4.73864 3.56928 4.89149C3.56928 5.00716 3.55688 5.11456 3.51144 5.18479C3.466 5.26742 3.41643 5.33764 3.3462 5.38309C3.28836 5.42027 3.21813 5.45331 3.1479 5.46571C3.05289 5.49049 2.92483 5.50289 2.75132 5.50289H2.50345V6.21757H2.11926V6.21344ZM2.50759 4.63123V5.16827H2.71827C2.87112 5.16827 2.96614 5.15588 3.02397 5.13109C3.06941 5.1187 3.10659 5.08565 3.13964 5.03607C3.16443 4.99889 3.17682 4.95345 3.17682 4.89562C3.17682 4.82539 3.16443 4.76755 3.11899 4.71798C3.08181 4.67667 3.01984 4.65601 2.96201 4.64362C2.91656 4.63123 2.82155 4.63123 2.68109 4.63123H2.50759ZM3.89976 4.30487H4.60205C4.7549 4.30487 4.88296 4.31726 4.96559 4.34205C5.07299 4.37923 5.16388 4.43707 5.2465 4.51969C5.32912 4.60231 5.38696 4.70559 5.4324 4.83778C5.46958 4.95345 5.49023 5.1063 5.49023 5.28394C5.49023 5.44918 5.47784 5.57725 5.4324 5.69292C5.38696 5.83338 5.31673 5.94078 5.23411 6.03167C5.16388 6.0895 5.06886 6.14734 4.96559 6.18452C4.87057 6.2093 4.76729 6.2217 4.62684 6.2217H3.89976V4.30487ZM4.28396 4.63123V5.89534H4.56487C4.67228 5.89534 4.75077 5.88295 4.80034 5.87055C4.85818 5.85816 4.91601 5.82511 4.95319 5.78793C4.99863 5.75075 5.03581 5.69292 5.0606 5.6103C5.08539 5.51528 5.09778 5.39961 5.09778 5.25915C5.09778 5.1063 5.08539 4.99063 5.0606 4.9204C5.03581 4.83778 5.00277 4.77995 4.95319 4.7345C4.90362 4.68906 4.84578 4.65188 4.76729 4.63949C4.72185 4.6271 4.61444 4.6271 4.4492 4.6271H4.28396V4.63123ZM5.82072 6.21344V4.30487H7.13028V4.63123H6.20491V5.07739H7.01461V5.40374H6.20491V6.21344H5.82072Z" fill="white"/>
</svg>
