<svg width="20" height="22" viewBox="0 0 20 22" fill="none" xmlns="http://www.w3.org/2000/svg">
<path fill-rule="evenodd" clip-rule="evenodd" d="M2.15 8.30997H18.51V19.56C18.51 19.87 18.23 20.16 17.91 20.16H2.77C2.43 20.16 2.15 19.88 2.15 19.56V8.30997ZM4.05 10.13H7.16999V13.25H4.05V10.13ZM8.77999 10.13H11.93V13.25H8.77999V10.13ZM13.52 10.13H16.67V13.25H13.52V10.13ZM13.52 15.14H16.67V18.26H13.52V15.14ZM8.77999 15.14H11.93V18.26H8.77999V15.14ZM4.05 15.14H7.16999V18.26H4.05V15.14ZM5.89 0.459961C6.23 0.459961 6.54 0.739955 6.54 1.10995V3.00998C6.54 3.34998 6.23 3.65997 5.89 3.65997C5.52 3.65997 5.24 3.34998 5.24 3.00998V1.10995C5.24 0.739955 5.52 0.459961 5.89 0.459961ZM14.4 0.459961C14.74 0.459961 15.05 0.739955 15.05 1.10995V3.00998C15.05 3.34998 14.74 3.65997 14.4 3.65997C14.03 3.65997 13.75 3.34998 13.75 3.00998V1.10995C13.74 0.739955 14.03 0.459961 14.4 0.459961ZM2.32 4.19998H4.36V4.99997C4.36 5.84997 5.04 6.52997 5.89 6.52997C6.71 6.52997 7.39 5.84997 7.39 4.99997V4.20996H12.86V4.99997C12.86 5.84997 13.54 6.52997 14.39 6.52997C15.21 6.52997 15.89 5.84997 15.89 4.99997V4.20996H17.96C18.9 4.20996 19.63 4.97997 19.63 5.90997V19.63C19.63 20.57 18.89 21.33 17.96 21.33H2.32C1.38 21.33 0.619995 20.56 0.619995 19.63V5.89996C0.619995 4.96996 1.38 4.19998 2.32 4.19998Z" fill="#221F20"/>
</svg>
