<svg width="9" height="15" viewBox="0 0 9 15" fill="none" xmlns="http://www.w3.org/2000/svg">
<path fill-rule="evenodd" clip-rule="evenodd" d="M8.34346 13.7496C8.25919 13.6171 8.15685 13.4846 8.03646 13.3521L7.56091 12.7292C7.4947 12.6563 7.44052 12.6166 7.39236 12.5437L5.77308 10.5161C5.65269 10.6685 5.34569 11.3046 5.03869 11.2848C4.7979 11.2649 4.62935 10.6818 4.44275 10.3107C4.11769 9.59513 3.79263 8.84639 3.48563 8.1109C3.29902 7.70008 2.11917 5.10268 2.0349 4.80451C1.87839 4.20154 2.49841 4.33406 3.05823 4.33406C3.05823 4.10878 2.48035 1.43849 2.39005 0.987923C2.37199 0.87528 2.23354 0.199426 2.20344 0.15967C2.10111 0.0470276 0.566107 0.424711 0.204929 0.987923C-0.186347 1.59089 0.0845367 3.84374 0.18687 4.67199C0.427655 6.54716 1.24632 9.17769 2.18539 10.6818C2.47433 11.1324 2.71511 11.4504 2.986 11.848C3.14251 12.0335 3.27494 12.2058 3.43145 12.3913L3.89496 12.9148C4.47284 13.5376 5.34569 14.2267 6.02591 14.664C6.63991 15.0616 7.10342 15.1742 7.71742 14.6243C7.90403 14.4653 8.25919 14.0279 8.34346 13.7496ZM3.39533 4.34069C3.78661 4.20817 4.14778 3.96301 4.04545 3.41967L3.51572 0.623492C3.43145 0.153045 3.35921 -0.0722402 2.54054 0.0205241L3.39533 4.34069ZM5.98979 10.1981L8.56619 13.4647C8.7528 13.372 9.28253 12.8087 8.80697 12.2787L7.20575 10.2909C7.0673 10.1053 6.98303 9.8933 6.62787 9.93305C6.43524 9.95293 6.11018 10.1053 5.98979 10.1981Z" fill="#1A1618"/>
</svg>
