<?xml version="1.0" encoding="utf-8"?>
<svg viewBox="231.845 231.845 36.31 36.31" xmlns="http://www.w3.org/2000/svg">
  <g transform="matrix(0.27598798274993896, 0, 0, 0.2502150237560272, 241.16845703125, 241.99317932128906)">
    <path d="M20.383,53.908c-1.787,0-3.548-0.54-5.048-1.534c0.409,0.021,0.854,0.033,1.329,0.033    c2.921,0,7.034-0.484,11.186-2.573l-0.76,0.93C25.457,52.763,23.013,53.908,20.383,53.908L20.383,53.908z" style="fill: rgb(239, 12, 12);"/>
    <path d="M30.056,47.536c-0.156,0-0.314,0.07-0.314,0.07l-0.013-0.025c-4.701,3.149-9.664,3.826-13.066,3.826    c-1.323,0-2.41-0.102-3.153-0.201l-0.009,0.017c0,0-0.751,0.129-0.293,0.693c0.238,0.236,0.485,0.467,0.75,0.684    c1.898,1.551,4.179,2.309,6.426,2.309c2.82,0,5.588-1.193,7.48-3.512l2.517-3.08c0.183-0.223,0.062-0.554-0.11-0.71    C30.212,47.554,30.134,47.536,30.056,47.536L30.056,47.536z" style="fill: rgb(239, 12, 12);"/>
  </g>
  <g transform="matrix(1, 0, 0, 1, -63.52999877929689, 35.66600036621094)">
    <path fill-rule="evenodd" clip-rule="evenodd" d="M 313.515 196.179 C 323.545 196.179 331.685 204.319 331.685 214.319 C 331.685 224.349 323.545 232.489 313.515 232.489 C 303.505 232.489 295.375 224.349 295.375 214.319 C 295.375 204.309 303.505 196.179 313.515 196.179 Z" fill="#049B8A"/>
  </g>
  <g transform="matrix(0.6661670207977295, 0, 0, 0.6666669845581055, 242.00599670410156, 242)">
    <g>
      <g>
        <g>
          <g>
            <path d="M-0.009,24l2.194-5.704c-1.242-1.919-1.896-4.14-1.896-6.435C0.289,5.32,5.609,0,12.149,0       c6.539,0,11.86,5.32,11.86,11.861c0,6.539-5.321,11.86-11.86,11.86c-2.231,0-4.401-0.627-6.291-1.813L-0.009,24z M5.967,20.974       l0.175,0.114c1.792,1.171,3.869,1.79,6.007,1.79c6.076,0,11.017-4.941,11.017-11.017S18.225,0.842,12.149,0.842       S1.131,5.785,1.131,11.861c0,2.202,0.648,4.328,1.874,6.149l0.123,0.182l-1.692,4.399L5.967,20.974z" style="fill: rgb(255, 255, 255);"/>
          </g>
        </g>
      </g>
    </g>
    <g>
      <g>
        <g>
          <g>
            <path d="M15.135,17.749c-1.433,0-4.369-1.708-5.768-3.108c-1.251-1.251-3.107-4.224-3.107-5.767       c0-1.542,1.646-3.259,2.761-3.259h0.155l0.117,0.1c0.296,0.252,1.788,1.534,2.087,2.117c0.432,0.842-0.624,2.048-1.181,2.6       c0.249,0.314,0.815,0.986,1.603,1.774c0.743,0.744,1.649,1.145,2.07,1.305c0.366-0.36,1.113-1.003,1.796-1.003l0.1,0.011       l0.415,0.113c0.578,0.297,1.859,1.789,2.109,2.084l0.1,0.118v0.154C18.392,16.104,16.677,17.749,15.135,17.749z M8.886,6.474       c-0.666,0.16-1.785,1.385-1.785,2.4c0,1.275,1.731,4.042,2.861,5.172c1.364,1.364,4.071,2.861,5.173,2.861       c1.015,0,2.239-1.12,2.397-1.785c-0.561-0.65-1.373-1.521-1.697-1.722l-0.208-0.05c-0.336,0.035-0.928,0.488-1.326,0.927       l-0.179,0.196l-0.255-0.076c-0.155-0.046-1.546-0.483-2.661-1.597c-0.73-0.73-1.856-1.975-1.954-2.325l-0.071-0.251       l0.195-0.175c0.758-0.681,1.379-1.589,1.253-1.833C10.477,7.917,9.562,7.058,8.886,6.474z" style="fill: rgb(255, 255, 255);"/>
          </g>
        </g>
      </g>
    </g>
  </g>
</svg>