<svg width="14" height="15" viewBox="0 0 14 15" fill="none" xmlns="http://www.w3.org/2000/svg">
<path fill-rule="evenodd" clip-rule="evenodd" d="M0 14.9999L0.579398 11.5086C0.681059 11.1407 0.974312 10.8769 1.31093 10.6985L4.68957 9.23438L6.62611 11.8331L8.47307 9.28485L12.1094 10.7842C12.3813 10.9555 12.5992 11.1187 12.7553 11.6849L13.265 14.9999H0Z" fill="#049B8A"/>
<path d="M4.51379 9.20357L4.74554 7.76574C4.76083 7.66905 4.85147 7.60365 4.94816 7.61858C4.98335 7.62462 5.01463 7.6399 5.0388 7.66194C5.55883 8.11729 6.14001 8.34122 6.6963 8.3462C7.2597 8.35118 7.79964 8.1315 8.22584 7.70033C8.29444 7.62995 8.40712 7.62889 8.47679 7.6982C8.50807 7.72841 8.5262 7.76858 8.52905 7.81017L8.6499 9.28319C8.65381 9.3326 8.63675 9.37881 8.60654 9.41329L6.76881 11.9385C6.71123 12.017 6.60068 12.0341 6.52106 11.9769C6.50684 11.9669 6.49369 11.9538 6.48374 11.9395H6.48267L4.54613 9.34006C4.51592 9.29919 4.50597 9.24978 4.51379 9.20357ZM5.04697 8.12226L4.87564 9.18828L6.62379 11.535L8.29053 9.24693L8.20487 8.19087C7.75948 8.53246 7.2366 8.70486 6.69346 8.69953C6.14107 8.69562 5.57092 8.50509 5.04697 8.12226Z" fill="#049B8A"/>
<path fill-rule="evenodd" clip-rule="evenodd" d="M8.76728 5.95792C8.23338 8.86166 5.04314 8.86166 4.50924 5.95792C4.51031 5.72723 4.27357 5.60815 4.05674 5.58114C3.81681 5.25554 3.73541 4.87982 3.75638 4.47175L4.01622 4.3971C4.10793 3.58595 4.35568 2.99766 4.8192 2.71827C5.9357 3.51343 7.34011 3.51343 8.45661 2.71827C8.92013 2.99731 9.16788 3.58595 9.25959 4.3971L9.51943 4.47175C9.54076 4.87982 9.459 5.25554 9.21907 5.58114C9.00402 5.60851 8.76621 5.72723 8.76728 5.95792ZM9.70853 4.04449C9.84574 3.33926 9.86991 2.63367 9.76399 1.92844C9.20165 -0.629793 4.07523 -0.629793 3.51289 1.92844C3.40696 2.63367 3.43113 3.33926 3.56834 4.04449C2.91039 4.26629 3.4777 5.61526 3.80828 5.97392C4.39158 6.02546 3.93126 6.86576 4.92051 7.79351C5.87776 8.63168 7.03833 8.7337 7.92626 8.16923C8.06134 8.05939 8.20423 7.93356 8.35637 7.79351C9.34597 6.86541 8.88529 6.0251 9.4686 5.97392C9.79918 5.61526 10.3665 4.26629 9.70853 4.04449Z" fill="#049B8A"/>
<path d="M8.77731 5.95998C8.60704 6.88595 8.16663 7.5176 7.62882 7.85528C7.32064 8.04972 6.97904 8.1464 6.63851 8.1464C6.29798 8.1464 5.95639 8.04972 5.6482 7.85528C5.11004 7.5176 4.66998 6.88595 4.49972 5.95998V5.95784C4.49972 5.85796 4.45351 5.7794 4.38384 5.72004C4.29711 5.64753 4.17341 5.60629 4.05646 5.59101C4.05326 5.58994 4.05148 5.58888 4.04935 5.5871C3.9285 5.42288 3.84781 5.24657 3.79946 5.05995C3.75219 4.87263 3.7369 4.67606 3.74721 4.47167C3.74721 4.46669 3.75112 4.46349 3.75539 4.46243L4.00812 4.38885C4.05433 3.98469 4.13928 3.63634 4.27009 3.35411C4.40197 3.06903 4.58147 2.85042 4.81537 2.71037C4.81928 2.70824 4.82354 2.70824 4.82638 2.71037C5.38268 3.10742 6.01148 3.3047 6.63922 3.3047C7.26803 3.3047 7.89577 3.10706 8.45206 2.71037C8.45597 2.70824 8.46024 2.70824 8.46415 2.71037C8.69697 2.85042 8.87612 3.06903 9.00836 3.35411C9.13952 3.63634 9.22412 3.98469 9.27033 4.38885L9.52413 4.46243C9.52804 4.46349 9.53124 4.4674 9.53124 4.47167C9.54119 4.67606 9.52626 4.87263 9.47898 5.05995C9.43064 5.24621 9.34995 5.42252 9.2291 5.5871C9.22696 5.58923 9.22412 5.59101 9.22199 5.59101C9.10504 5.60629 8.98134 5.64859 8.89461 5.72004C8.82494 5.7794 8.77873 5.85796 8.77873 5.95784V5.95998H8.77731ZM7.61745 7.83929C8.15134 7.50373 8.58785 6.87706 8.75705 5.95713C8.75705 5.85049 8.80646 5.76767 8.88004 5.70511C8.96961 5.63047 9.09473 5.5871 9.21346 5.57217C9.33147 5.41079 9.41109 5.23768 9.4573 5.05533C9.50458 4.87298 9.51986 4.68068 9.50955 4.47985L9.25753 4.40627C9.25362 4.4052 9.25042 4.40236 9.24936 4.39809C9.20386 3.99287 9.11926 3.64452 8.98845 3.36228C8.85835 3.08325 8.68418 2.86855 8.45633 2.73063C7.89826 3.12768 7.26839 3.32496 6.63745 3.32496C6.00757 3.32496 5.37699 3.12733 4.81856 2.73063C4.59072 2.86855 4.41654 3.08325 4.28644 3.36228C4.15528 3.64452 4.07175 3.99287 4.02554 4.39809C4.02554 4.402 4.02234 4.4052 4.01843 4.40627L3.7657 4.47985C3.75574 4.68032 3.77067 4.87298 3.81795 5.05533C3.86416 5.23768 3.94378 5.41115 4.06179 5.57217C4.18052 5.58745 4.30564 5.63047 4.39521 5.70511C4.46879 5.76767 4.5182 5.85014 4.5182 5.95713C4.6874 6.87706 5.1239 7.50373 5.6578 7.83929C5.96314 8.03088 6.29976 8.1265 6.63709 8.1265C6.97442 8.1265 7.31211 8.03052 7.61745 7.83929ZM9.69794 4.04263C9.76655 3.69002 9.80672 3.33847 9.81667 2.9855C9.82662 2.63395 9.80565 2.28204 9.75304 1.9305C9.59877 1.22811 9.09793 0.719448 8.44211 0.404157C7.90892 0.148226 7.27336 0.0202611 6.63745 0.0202611C6.00153 0.0202611 5.36597 0.148226 4.83278 0.404157C4.17696 0.719448 3.67612 1.22847 3.52185 1.9305C3.4696 2.28204 3.44934 2.63395 3.45822 2.9855C3.46818 3.33811 3.5087 3.68966 3.57695 4.04263C3.57801 4.04761 3.57481 4.05258 3.56984 4.05365C3.51048 4.07391 3.46213 4.10306 3.42161 4.14038C3.31497 4.2392 3.27232 4.39418 3.27339 4.57475C3.27339 4.75604 3.31888 4.96362 3.38607 5.16304C3.49875 5.49859 3.67541 5.81495 3.81119 5.96424C4.08525 5.99054 4.13146 6.18605 4.20327 6.48108C4.28395 6.81947 4.39664 7.2901 4.92556 7.78597V7.78703C5.39512 8.1983 5.91409 8.43077 6.42488 8.49546C6.95096 8.56087 7.46993 8.44712 7.91816 8.16204C7.9857 8.10766 8.05537 8.0483 8.12682 7.98573C8.1972 7.92317 8.27078 7.8567 8.34756 7.78632C8.87648 7.29046 8.98952 6.82019 9.06985 6.48143C9.1413 6.18605 9.18786 5.9909 9.46192 5.9646C9.59806 5.8153 9.77437 5.49895 9.88705 5.16339C9.95459 4.96398 9.99973 4.75639 9.99973 4.57511C10.0008 4.39489 9.9585 4.23956 9.8515 4.14074C9.81134 4.10341 9.76193 4.07427 9.70328 4.05401C9.70008 4.05152 9.69723 4.04761 9.69794 4.04263ZM9.83729 2.98656C9.82733 3.33705 9.78681 3.68682 9.71927 4.03765C9.77757 4.05898 9.82591 4.08813 9.86643 4.12545C9.9784 4.22925 10.0225 4.38956 10.0218 4.57475C10.0218 4.75924 9.97556 4.96789 9.90802 5.16908C9.79321 5.50961 9.61477 5.83023 9.47685 5.98024C9.47472 5.98237 9.47294 5.98344 9.46974 5.98344C9.2067 6.00654 9.16049 6.19707 9.09189 6.48605C9.01013 6.82658 8.89639 7.30112 8.36355 7.8009C8.28713 7.87128 8.21355 7.9381 8.14175 8.00031C8.0703 8.06394 8.00063 8.12223 7.93309 8.17768L7.93096 8.17875C7.47846 8.46596 6.95558 8.58184 6.42346 8.51537C5.9084 8.45103 5.38659 8.21501 4.91418 7.80196L4.91312 7.8009C4.37993 7.30112 4.26618 6.82658 4.18478 6.48605C4.11618 6.19671 4.06997 6.00654 3.80693 5.98344C3.8048 5.98344 3.80302 5.98237 3.80089 5.98024C3.66297 5.83094 3.48346 5.50961 3.36865 5.16908C3.30111 4.96753 3.25597 4.75888 3.2549 4.57475C3.25384 4.3892 3.29827 4.22925 3.41024 4.12545C3.4504 4.08813 3.49875 4.05898 3.5574 4.03765C3.48986 3.68717 3.44969 3.3374 3.43938 2.98656C3.43014 2.63395 3.4504 2.28027 3.50301 1.92765L3.50408 1.92659C3.65941 1.21709 4.16417 0.704519 4.82496 0.386028C5.36028 0.129031 5.99904 0 6.63816 0C7.27727 0 7.91568 0.129031 8.45171 0.386028C9.11286 0.704519 9.61761 1.21745 9.77366 1.92659C9.82591 2.28027 9.84724 2.63288 9.83729 2.98656Z" fill="#028575"/>
</svg>
