<svg width="23" height="35" viewBox="0 0 23 35" fill="none" xmlns="http://www.w3.org/2000/svg">
<g clip-path="url(#clip0_171_113)">
<path fill-rule="evenodd" clip-rule="evenodd" d="M21.3427 32.0748C21.1277 31.7314 20.824 31.4516 20.5457 31.1464L19.3059 29.7093C19.1541 29.5185 19.0275 29.4295 18.8757 29.2387L14.7388 24.5076C14.4351 24.8764 13.6634 26.3771 12.879 26.3135C12.2591 26.2627 11.8163 24.9146 11.3735 24.037C10.5259 22.3837 9.70356 20.6159 8.89388 18.9117C8.43844 17.9451 5.41479 11.8786 5.22502 11.1918C4.82018 9.79284 6.36363 10.1235 7.80587 10.1235C7.80587 9.58935 6.35098 3.38295 6.11061 2.31464C6.06 2.06028 5.74372 0.483244 5.65516 0.394217C5.38948 0.139857 1.44229 0.979247 0.518746 2.2892C-0.468053 3.71362 0.202465 8.97888 0.468141 10.8993C1.0754 15.287 3.20081 21.4044 5.5919 24.9146C6.31303 25.9702 6.92029 26.7078 7.64141 27.6235C8.0083 28.0941 8.38783 28.4629 8.75472 28.8953L9.95659 30.1417C11.4241 31.5534 13.6508 33.194 15.3966 34.2242C16.9527 35.1399 18.1546 35.3815 19.7234 34.1224C20.2168 33.7282 21.0897 32.7107 21.3427 32.0748ZM8.67881 10.1108C9.67826 9.81827 10.6145 9.23324 10.3488 7.97416L8.99509 1.4371C8.75472 0.330627 8.6029 -0.165376 6.51545 0.0508309L8.67881 10.1108ZM15.3334 23.7954L21.8867 31.4262C22.3928 31.1718 23.7212 29.8873 22.5066 28.6537L18.395 23.9862C18.0407 23.5665 17.8257 23.0705 16.9401 23.1722C16.4593 23.2231 15.6244 23.541 15.3334 23.7954Z" fill="white"/>
</g>
<defs>
<clipPath id="clip0_171_113">
<rect width="23" height="35" fill="white"/>
</clipPath>
</defs>
</svg>
