<svg width="28" height="27" viewBox="0 0 28 27" fill="none" xmlns="http://www.w3.org/2000/svg">
<path fill-rule="evenodd" clip-rule="evenodd" d="M3.84034 2.32072C3.91588 2.43403 7.76863 15.415 8.12117 16.6363C8.23448 16.9889 8.23448 16.8504 7.98267 17.354C7.51681 18.3235 7.34054 19.4944 8.02044 20.3883C8.62479 21.2067 9.84609 21.4963 10.8785 21.4208C11.4829 21.383 12.0872 21.3075 12.7042 21.2823C13.3085 21.2067 13.9129 21.169 14.5298 21.106C17.0605 20.9297 21.2784 20.6024 23.8469 20.6779C24.3505 20.6779 25.0304 20.8164 25.3074 20.2121C25.597 19.6455 25.2697 19.1041 24.8416 18.9278C24.061 18.6005 16.5569 19.1419 15.5245 19.2174C14.3158 19.2929 13.0945 19.3937 11.8858 19.507C11.2814 19.5448 10.6771 19.6455 10.0601 19.5448C9.20396 19.4063 9.34246 19.0789 9.5565 18.3612C11.5206 18.0716 13.5226 17.8954 15.5119 17.6436C17.5138 17.3918 19.5031 17.1777 21.4673 16.8881C22.4619 16.7748 23.4692 16.6741 24.4639 16.5356C25.7481 16.3971 25.7103 15.9312 25.9622 14.7099L27.5738 6.28678C27.6493 5.8587 27.8633 5.25434 27.7123 4.86403C27.5989 4.47372 27.2842 4.14636 26.8183 4.08341C26.5287 4.00787 24.0358 4.04564 23.4944 4.04564H10.1609C9.05288 4.04564 7.90712 4.08341 6.81174 4.04564C6.67324 3.54201 6.48438 2.93766 6.30811 2.40885C6.13184 1.86745 5.98075 1.33864 5.80448 0.797242C5.59044 0.155117 5.04904 0.0166204 4.48246 0.0166204C3.76479 0.0166204 3.05972 0.0166204 2.34205 0.0166204C1.73769 0.0166204 0.919301 -0.0966957 0.491218 0.268433C-0.22645 0.809833 -0.0753624 1.90522 0.743031 2.27035C1.1963 2.43403 3.16044 2.25776 3.84034 2.32072ZM22.3612 22.3525C21.1525 22.4658 20.1075 23.4982 20.2586 24.8454C20.3971 26.0541 21.4421 27.0992 22.8271 26.9481C24.0106 26.8096 25.0053 25.7646 24.8919 24.4173C24.7534 23.2464 23.721 22.2014 22.3612 22.3525ZM8.97733 22.3525C7.83158 22.5287 6.87469 23.6367 7.08873 25.0343C7.265 26.18 8.37298 27.1747 9.77054 26.9229C10.8785 26.7466 11.8732 25.6764 11.6591 24.2789C11.4829 23.1331 10.4127 22.1384 8.97733 22.3525ZM7.47904 6.36232L8.58702 10.1018L13.1952 10.064C13.2708 10.0262 13.233 10.0262 13.233 9.88771C13.233 9.28336 13.2708 6.56377 13.233 6.34973C13.1197 6.31196 8.13376 6.34973 7.55459 6.34973C7.4035 6.36232 7.51681 6.32455 7.47904 6.36232ZM25.1815 6.46305C25.2193 6.3875 25.2193 6.42528 25.1815 6.34973H20.183C20.1453 6.526 20.183 9.30854 20.183 9.84994V10.0262C20.183 10.064 20.183 10.064 20.2208 10.1018H24.4639L25.1815 6.46305ZM24.2498 11.323C24.2498 11.2853 24.2876 11.323 24.2498 11.1846C24.1113 11.1846 20.3593 11.1468 20.183 11.2223C20.1453 11.3608 20.183 13.8664 20.183 14.2944C20.183 14.37 20.183 14.4329 20.183 14.5085C20.183 14.7225 20.1453 14.6848 20.2208 14.7225L23.6832 14.2944L24.2498 11.323ZM19.0499 14.8484C19.1254 14.8107 19.0876 14.8862 19.1254 14.7729V11.2097C18.9869 11.172 14.5928 11.1342 14.341 11.172V15.415L19.0499 14.8484ZM19.0751 10.1018C19.1128 10.0262 19.1128 10.1018 19.1128 9.88771C19.0751 9.28336 19.1128 6.56377 19.0751 6.34973H14.3284C14.2528 6.56377 14.2906 9.17004 14.2906 9.84994C14.2906 9.92548 14.2906 10.0262 14.3284 10.1018H19.0751ZM10.3371 15.8935L13.233 15.5661V11.172L8.95215 11.2097L10.3371 15.8935Z" fill="#1A1A1A"/>
</svg>
