<svg width="21" height="25" viewBox="0 0 21 25" fill="none" xmlns="http://www.w3.org/2000/svg">
<path fill-rule="evenodd" clip-rule="evenodd" d="M2.55 0.279999H14.85L20.41 5.86V23.55C20.41 24.12 19.93 24.57 19.36 24.57H2.55C1.98 24.57 1.5 24.12 1.5 23.55V1.33C1.5 0.769999 1.98 0.279999 2.55 0.279999Z" fill="white" stroke="#007D6F" stroke-width="0.5669" stroke-miterlimit="10" stroke-linecap="round" stroke-linejoin="round"/>
<path fill-rule="evenodd" clip-rule="evenodd" d="M14.94 0.369999V4.93C14.94 5.41 15.34 5.78 15.93 5.78H20.32L14.94 0.369999Z" fill="#007D6F"/>
<path fill-rule="evenodd" clip-rule="evenodd" d="M1.5 4.56H13.12C13.32 4.56 13.46 4.73 13.46 4.93V9.44C13.46 9.64 13.32 9.78 13.12 9.78H1.5V4.56Z" fill="#007D6F"/>
<path fill-rule="evenodd" clip-rule="evenodd" d="M0 6.24V11C0.31 10.32 0.77 9.89 1.5 9.78L1.53 4.56C0.74 4.59 0 5.5 0 6.24Z" fill="#007D6F"/>
<path fill-rule="evenodd" clip-rule="evenodd" d="M0 11V11.74C0 12.19 0.65 13.16 1.5 13.16V9.78C0.77 9.89 0.31 10.32 0 11Z" fill="#007D6F"/>
<path d="M3.86 8.73V5.7H4.46V8.73H3.86ZM5.05 8.73V5.7H5.96L6.5 7.77L7.03 5.7H7.97V8.73H7.4V6.35L6.77 8.73H6.21L5.61 6.35V8.73H5.05ZM9.98 7.63V7.11H11.28V8.3C11.17 8.44 10.97 8.56 10.74 8.64C10.48 8.73 10.23 8.78 10 8.78C9.69 8.78 9.4 8.72 9.15 8.58C8.92 8.44 8.75 8.27 8.64 8.01C8.53 7.75 8.44 7.5 8.44 7.19C8.44 6.88 8.53 6.59 8.64 6.37C8.78 6.11 8.98 5.92 9.24 5.8C9.44 5.69 9.67 5.63 9.98 5.63C10.35 5.63 10.63 5.72 10.86 5.89C11.06 6.03 11.2 6.26 11.26 6.54L10.66 6.65C10.6 6.51 10.52 6.37 10.4 6.28C10.29 6.19 10.14 6.17 9.97 6.17C9.69 6.17 9.49 6.26 9.32 6.43C9.18 6.6 9.1 6.86 9.1 7.17C9.1 7.54 9.19 7.82 9.33 7.99C9.5 8.16 9.69 8.28 9.95 8.28C10.09 8.28 10.21 8.25 10.35 8.19C10.46 8.13 10.58 8.08 10.69 7.99V7.63H9.98Z" fill="white"/>
<path fill-rule="evenodd" clip-rule="evenodd" d="M5.98001 20.24L5.90001 21.63C5.90001 22.08 6.27001 22.31 6.69001 22.34L10.94 22.54C11.85 22.57 12.81 22.63 13.75 22.68C14.66 22.71 15.68 22.79 16.58 22.79C16.84 22.79 17.06 22.68 17.15 22.53C17.29 22.33 17.29 22.13 17.32 21.85C17.35 21.28 17.38 20.74 17.41 20.21L17.67 15.31C17.7 14.88 17.81 14.09 17.61 13.78C17.33 13.44 16.76 13.5 16.19 13.47C15.65 13.44 15.08 13.41 14.55 13.38C14.55 12.95 14.49 12.5 14.44 12.05C14.35 10.94 13.79 11.2 12.48 11.31L5.70001 11.88C5.39001 11.91 4.68001 11.91 4.45001 12.08C4.08001 12.34 4.19001 12.73 4.25001 13.24C4.34001 14.12 4.42001 15.03 4.51001 15.93C4.54001 16.3 4.79001 19.7 4.88001 19.9C5.07001 20.32 5.47001 20.27 5.98001 20.24ZM5.58001 18.45L5.95001 17.97C6.15001 17.69 6.12001 17.71 6.12001 17.26L6.32001 14C6.32001 13.63 6.32001 13.04 7.03001 13.04C7.80001 13.04 9.52001 13.13 10.37 13.18C10.8 13.21 13.52 13.38 13.69 13.32C13.66 11.96 13.46 12.13 12.84 12.19L7.09001 12.64C4.91001 12.81 5.08001 12.64 5.16001 13.69C5.30001 15.28 5.47001 16.89 5.58001 18.45ZM6.94001 20.32C7.05001 20.26 7.11001 20.15 7.22001 20.04L10.28 16.78C10.73 16.47 11.1 16.92 11.36 17.26C11.42 17.32 11.42 17.32 11.5 17.4L12.04 18C12.07 18.09 12.13 18.11 12.18 18.17C12.8 18.94 12.92 18.45 13.57 18.08C14.05 17.77 14.34 18.39 14.82 18.96C14.91 19.05 15.02 19.16 15.1 19.27L16.4 20.8C16.51 18.96 16.6 17.14 16.68 15.3C16.74 14.34 16.82 14.51 14.78 14.39L7.89001 14.08C7.18001 14.02 7.24001 14.17 7.21001 14.82C7.15001 15.73 7.10001 16.63 7.07001 17.54C7.06001 18.03 7.03001 18.48 7.00001 18.94C6.97001 19.39 6.92001 19.9 6.94001 20.32Z" fill="#007D6F"/>
<path fill-rule="evenodd" clip-rule="evenodd" d="M14.31 15.08C12.89 15.36 13.32 17.43 14.68 17.18C16.04 16.92 15.68 14.85 14.31 15.08Z" fill="#007D6F"/>
</svg>
