<svg width="23" height="23" viewBox="0 0 23 23" fill="none" xmlns="http://www.w3.org/2000/svg">
<path fill-rule="evenodd" clip-rule="evenodd" d="M11.23 22.45C17.44 22.45 22.46 17.43 22.46 11.22C22.46 5.01 17.43 0 11.23 0C5.03 0 0 5.02 0 11.23C0 17.44 5.02 22.45 11.23 22.45ZM7.03 9.27C7.99 9.27 8.79 8.5 8.79 7.51C8.79 6.55 8 5.75 7.03 5.75C6.06 5.75 5.27 6.55 5.27 7.51C5.27 8.5 6.07 9.27 7.03 9.27ZM6.6 16.44C6.32 16.75 5.81 16.78 5.49 16.5C5.15 16.22 5.12 15.73 5.4 15.39C5.54 15.25 5.68 15.11 5.8 14.96C7.22 13.63 9.23 13.03 11.21 13.06C13.17 13.09 15.15 13.74 16.54 14.96C16.68 15.1 16.82 15.24 16.97 15.36C17.25 15.7 17.25 16.18 16.94 16.49C16.6 16.77 16.12 16.75 15.83 16.43C15.72 16.32 15.6 16.23 15.49 16.12C14.41 15.18 12.8 14.65 11.18 14.62C9.59 14.59 7.98 15.07 6.87 16.12C6.77 16.21 6.69 16.33 6.6 16.44ZM15.48 9.27C16.44 9.27 17.24 8.5 17.24 7.51C17.24 6.55 16.45 5.75 15.48 5.75C14.51 5.75 13.72 6.54 13.72 7.51C13.72 8.5 14.51 9.27 15.48 9.27Z" fill="black"/>
</svg>
