<svg width="37" height="23" viewBox="0 0 37 23" fill="none" xmlns="http://www.w3.org/2000/svg">
<g clip-path="url(#clip0_5_16)">
<path fill-rule="evenodd" clip-rule="evenodd" d="M36.1 11.03C24.17 -3.3 12.22 -3.3 0.279999 11.03C12.22 25.37 24.17 25.37 36.1 11.03ZM18.2 16.13C21.01 16.13 23.29 13.85 23.29 11.04C23.29 10.61 23.24 10.2 23.14 9.8C22.62 10.43 21.84 10.84 20.96 10.84C19.4 10.84 18.15 9.58 18.15 8.03C18.15 7.24 18.48 6.52 19 6.01C18.74 5.97 18.47 5.95 18.2 5.95C15.39 5.95 13.11 8.23 13.11 11.04C13.1 13.85 15.38 16.13 18.2 16.13ZM18.2 18.75C22.46 18.75 25.91 15.3 25.91 11.04C25.91 6.78 22.46 3.33 18.2 3.33C13.94 3.33 10.49 6.78 10.49 11.04C10.48 15.29 13.93 18.75 18.2 18.75Z" fill="#333333" stroke="#333333" stroke-width="0.5669" stroke-miterlimit="10" stroke-linecap="round" stroke-linejoin="round"/>
</g>
<defs>
<clipPath id="clip0_5_16">
<rect width="36.39" height="22.07" fill="white"/>
</clipPath>
</defs>
</svg>
