<?xml version="1.0"?>
<svg width="36.31" height="36.31" xmlns="http://www.w3.org/2000/svg" xmlns:svg="http://www.w3.org/2000/svg">
 <defs>
  <clipPath id="clip0_203_252">
   <rect fill="white" height="21.78" id="svg_1" width="16.7"/>
  </clipPath>
 </defs>
 <g class="layer">
  <title>Layer 1</title>
  <path clip-rule="evenodd" d="m18.46,-0.75c10.03,0 18.17,8.14 18.17,18.14c0,10.03 -8.14,18.17 -18.17,18.17c-10.01,0 -18.14,-8.14 -18.14,-18.17c0,-10.01 8.13,-18.14 18.14,-18.14z" fill="#ff0000" fill-rule="evenodd" id="svg_2"/>
  <path clip-rule="evenodd" d="m17.4,9.58c0.68,-0.06 0.85,-0.21 2.04,-0.21c0.34,-0.03 0.78,0 1.13,0.06c0.31,0.06 0.68,0.13 0.98,0.16c0.11,-0.24 0.2,-0.57 0.34,-0.84c0.34,-0.86 0.65,-1.72 1.02,-2.6c0.13,-0.34 0,-0.62 -0.37,-0.71c-0.37,-0.07 -0.81,0.16 -1.08,0.27c-0.28,0.1 -1.87,0.78 -1.98,0.78c-0.37,0 -2.44,-1.15 -2.98,-1.07c-0.41,0.08 -0.59,0.37 -0.44,0.71c0.2,0.57 0.44,1.15 0.68,1.72c0.1,0.28 0.2,0.6 0.34,0.88c0.1,0.27 0.28,0.62 0.34,0.86zm1.26,0.47c-4.85,0.57 -8.14,5.08 -8.96,8.49c-0.65,2.58 0.11,4.55 2.2,5.65c2.14,1.09 5.37,1.28 8.49,1.22c2.75,-0.06 5.64,-0.37 7.61,-1.85c1.83,-1.38 1.74,-3.93 0.95,-6.09c-0.72,-1.97 -2.07,-3.8 -3.46,-5.02c-1.29,-1.12 -3.77,-2.76 -6.83,-2.4zm0.04,4.06c-0.48,0.16 -1.13,0.16 -1.76,0.86c-0.41,0.44 -0.61,1.12 -0.41,1.74c0.17,0.55 0.72,0.96 1.29,1.22c0.57,0.28 1.56,0.62 1.9,0.78c0.31,0.16 0.57,0.34 0.52,0.73c-0.13,0.65 -1.5,0.47 -2.07,0.28c-0.31,-0.1 -0.72,-0.39 -1.05,-0.24c-0.24,0.08 -0.48,0.44 -0.65,0.62c-0.52,0.6 0.13,0.84 1.05,1.09l0.89,0.18c0.04,0 0.11,0 0.13,0.03c0.13,0.03 0.07,0 0.17,0.03c0.04,0.73 -0.2,1.12 0.89,1.12c0.98,0 0.74,-0.52 0.78,-1.19c0.81,-0.18 1.26,-0.39 1.66,-0.78c0.41,-0.39 0.68,-1.02 0.61,-1.66c-0.2,-1.62 -3.02,-1.87 -3.67,-2.47c-0.4,-0.39 0.01,-1.07 1.27,-0.82c0.41,0.1 0.72,0.34 1.02,0.34c0.34,-0.03 0.57,-0.34 0.74,-0.47c0.61,-0.52 0.28,-0.81 -0.65,-1.18c-0.36,-0.12 -0.67,-0.15 -1.01,-0.26c-0.04,-0.7 0.2,-1.14 -0.81,-1.14c-1.13,0.02 -0.81,0.44 -0.85,1.17z" fill="rgb(255, 255, 255)" fill-rule="evenodd" id="svg_4" transform="matrix(1 0 0 1 0 0)"/>
 </g>
</svg>