<svg width="11" height="15" viewBox="0 0 11 15" fill="none" xmlns="http://www.w3.org/2000/svg">
<path fill-rule="evenodd" clip-rule="evenodd" d="M1.08644 14.9999C0.0568327 14.9999 -0.0213099 14.3424 0.0105722 13.5736C-0.0194345 11.3344 -0.163217 8.66661 2.75744 8.55029L5.05921 13.5879L7.36098 8.55029C10.281 8.66661 10.1379 11.3344 10.1078 13.5736C10.1397 14.3424 10.0635 14.9999 9.03198 14.9999H1.08644Z" fill="#028575"/>
<path fill-rule="evenodd" clip-rule="evenodd" d="M5.05902 7.92529L4.29509 8.58462L4.73457 9.31797L4.2207 10.7355L5.05902 12.4373L5.89733 10.7355L5.38534 9.31797L5.82481 8.58462L5.05902 7.92529Z" fill="#028575"/>
<path fill-rule="evenodd" clip-rule="evenodd" d="M7.47957 1.21269C5.93109 -0.619119 4.22821 -0.118404 3.13109 1.02422L2.48094 1.50379C2.32653 1.66427 2.22026 1.90374 2.17775 2.12082L2.18337 3.8556C1.66263 3.82388 1.68701 4.85019 2.31966 4.94535C2.39405 5.38076 2.55346 5.79501 2.80539 6.18688C4.00003 8.05228 5.99673 8.20218 7.20388 6.34549C7.46456 5.94678 7.66461 5.47468 7.79214 4.9155C8.28287 4.94535 8.58607 3.91593 7.91279 3.76043C8.05595 2.9935 7.94592 2.15441 7.47957 1.21269ZM2.70412 3.50665C3.66308 2.59479 4.80209 2.00264 6.26929 1.98833C7.04009 2.56493 7.47582 3.34244 7.46019 4.39301C7.30765 5.03119 7.10386 5.56363 6.8488 5.99592C6.62187 6.38032 6.33118 6.69755 5.99986 6.91463C4.70457 7.76118 3.60244 6.77716 3.05295 5.61899C2.75725 4.99636 2.62972 4.2966 2.70412 3.50665Z" fill="#028575"/>
</svg>
