<svg width="101" height="71" viewBox="0 0 101 71" fill="none" xmlns="http://www.w3.org/2000/svg">
<path fill-rule="evenodd" clip-rule="evenodd" d="M53.39 7.02283C67.93 7.02283 79.7 18.8128 79.7 33.3328C79.7 47.8528 67.93 59.6328 53.39 59.6328C38.88 59.6328 27.11 47.8428 27.11 33.3228C27.11 18.8028 38.87 7.02283 53.39 7.02283Z" fill="#028576"/>
<path fill-rule="evenodd" clip-rule="evenodd" d="M53.3899 10.8529C65.8099 10.8529 75.8699 20.9129 75.8699 33.3329C75.8699 45.7529 65.7999 55.7829 53.3899 55.7829C40.9999 55.7829 30.9399 45.7529 30.9399 33.3329C30.9399 20.9129 40.9999 10.8529 53.3899 10.8529Z" fill="#058F7F"/>
<path d="M46.0199 32.7928C44.7199 32.0028 43.0399 32.3928 42.2499 33.6728C41.4799 34.9528 41.8499 36.6228 43.1599 37.4128L52.2599 43.0528C53.5399 43.8428 55.2099 43.4528 55.9999 42.1428L64.5899 27.2929C65.3299 25.9929 64.8699 24.3128 63.5999 23.5828C62.2999 22.8128 60.6199 23.2728 59.8899 24.5728L52.7499 36.9328L46.0199 32.7928Z" fill="white"/>
<path d="M23.93 24.4528C2.24 23.9428 11.63 9.88281 16.19 13.4528C19.56 16.0928 18.57 25.9528 1 17.6728" stroke="#6B8BC7" stroke-width="1.9843" stroke-miterlimit="10" stroke-linecap="round" stroke-linejoin="round"/>
<path fill-rule="evenodd" clip-rule="evenodd" d="M63.73 0.102856C64.92 0.472856 65.57 1.72286 65.2 2.91286C64.83 4.07286 63.58 4.75286 62.39 4.38286C61.23 4.01286 60.55 2.74286 60.92 1.57286C61.3 0.392856 62.57 -0.267144 63.73 0.102856Z" fill="#058F7F"/>
<path fill-rule="evenodd" clip-rule="evenodd" d="M71.41 6.74287C71.95 6.91287 72.26 7.51287 72.09 8.07287C71.92 8.64287 71.32 8.95287 70.76 8.78287C70.19 8.61287 69.88 8.01287 70.08 7.45287C70.25 6.88287 70.85 6.57287 71.41 6.74287Z" fill="#F58120"/>
<path d="M85.3 29.7529C85.3 29.7529 86.15 23.6629 91.85 24.1729C97.52 24.7129 99.42 22.8129 99.53 20.1729" stroke="#EC1951" stroke-width="1.9843" stroke-miterlimit="10" stroke-linecap="round" stroke-linejoin="round"/>
<path fill-rule="evenodd" clip-rule="evenodd" d="M83.15 43.2528C84.4 43.2528 85.39 44.2428 85.39 45.4928C85.39 46.7428 84.4 47.7328 83.15 47.7328C81.93 47.7328 80.91 46.7428 80.91 45.4928C80.91 44.2428 81.93 43.2528 83.15 43.2528ZM83.15 43.7328C84.14 43.7328 84.94 44.5228 84.94 45.4928C84.94 46.4828 84.15 47.2828 83.15 47.2828C82.19 47.2828 81.39 46.4928 81.39 45.4928C81.39 44.5228 82.19 43.7328 83.15 43.7328Z" fill="#7D51A1"/>
<path fill-rule="evenodd" clip-rule="evenodd" d="M46.24 65.3329C45.02 65.2729 44.06 64.2029 44.11 62.9829C44.2 61.7329 45.24 60.8029 46.49 60.8529C47.71 60.9129 48.67 61.9829 48.59 63.2029C48.54 64.4529 47.49 65.3829 46.24 65.3329Z" fill="#6B8BC7"/>
<path fill-rule="evenodd" clip-rule="evenodd" d="M37.2 60.7629C36.6 60.7329 36.15 60.2229 36.18 59.6529C36.24 59.0529 36.72 58.6029 37.31 58.6329C37.9 58.6629 38.33 59.1729 38.3 59.7629C38.28 60.3429 37.8 60.7929 37.2 60.7629Z" fill="#058F7F"/>
<path fill-rule="evenodd" clip-rule="evenodd" d="M19.12 41.3828C20.88 41.3828 22.29 42.8028 22.29 44.5528C22.29 46.3028 20.87 47.7228 19.12 47.7228C17.36 47.7228 15.95 46.3028 15.95 44.5528C15.95 42.8028 17.36 41.3828 19.12 41.3828ZM19.12 42.0328C20.51 42.0328 21.64 43.1628 21.64 44.5528C21.64 45.9428 20.51 47.0428 19.12 47.0428C17.73 47.0428 16.63 45.9328 16.63 44.5528C16.62 43.1628 17.73 42.0328 19.12 42.0328Z" fill="#058F7F"/>
<path d="M63.28 62.1829C63.28 62.1829 68.21 62.5529 67.11 69.9829" stroke="#F58120" stroke-width="1.9843" stroke-miterlimit="10" stroke-linecap="round" stroke-linejoin="round"/>
<path fill-rule="evenodd" clip-rule="evenodd" d="M29.35 4.67285C30.6 4.67285 31.59 5.66285 31.59 6.91285C31.59 8.13285 30.6 9.15285 29.35 9.15285C28.1 9.15285 27.11 8.12285 27.11 6.91285C27.11 5.66285 28.1 4.67285 29.35 4.67285ZM29.35 5.12285C30.34 5.12285 31.14 5.91285 31.14 6.91285C31.14 7.87285 30.35 8.67285 29.35 8.67285C28.39 8.67285 27.59 7.88285 27.59 6.91285C27.59 5.91285 28.38 5.12285 29.35 5.12285Z" fill="#F58120"/>
</svg>
