<svg width="18" height="24" viewBox="0 0 18 24" fill="none" xmlns="http://www.w3.org/2000/svg">
<path fill-rule="evenodd" clip-rule="evenodd" d="M8.79948 0.429565C13.4587 0.429565 17.255 4.16937 17.255 8.75912C17.255 15.6988 11.0123 14.6788 8.67768 23.2484C5.72382 14.8288 0.14093 15.7088 0.14093 8.75912C0.14093 4.16937 3.93729 0.429565 8.59647 0.429565C8.62692 0.429565 8.65737 0.429565 8.68783 0.429565C8.74873 0.429565 8.76903 0.429565 8.79948 0.429565ZM8.68783 13.9189C11.5909 13.9189 13.9256 11.619 13.9256 8.75912C13.9256 5.92927 11.5909 3.6294 8.68783 3.6294C5.81518 3.6294 3.48051 5.92927 3.48051 8.75912C3.48051 11.629 5.80503 13.9189 8.68783 13.9189Z" fill="#221F20"/>
</svg>
