<svg width="39" height="39" viewBox="0 0 39 39" fill="none" xmlns="http://www.w3.org/2000/svg">
<path fill-rule="evenodd" clip-rule="evenodd" d="M19.5272 0C30.3152 0 39 8.73919 39 19.5272C39 30.2608 30.3152 39 19.5272 39C8.73919 39 0 30.2789 0 19.5272C0 8.73919 8.73919 0 19.5272 0ZM27.2873 23.643C27.2873 25.6555 25.6374 27.2873 23.643 27.2873H15.3752C13.3626 27.2873 11.7852 25.6374 11.7852 23.643V15.3752C11.7852 13.3626 13.3808 11.7308 15.3752 11.7308H23.643C25.6555 11.7308 27.2873 13.3808 27.2873 15.3752V23.643ZM25.6918 14.4505C25.6918 15.0669 25.1841 15.5746 24.5676 15.5746C23.9512 15.5746 23.4798 15.0669 23.4798 14.4505C23.4798 13.8884 23.9512 13.3626 24.5676 13.3626C25.1841 13.3626 25.6918 13.8703 25.6918 14.4505ZM19.5272 22.7183C17.7866 22.7183 16.3361 21.2859 16.3361 19.5272C16.3361 17.7322 17.7685 16.3361 19.5272 16.3361C21.2859 16.3361 22.7183 17.7322 22.7183 19.5272C22.7183 21.2859 21.2678 22.7183 19.5272 22.7183ZM19.5272 14.6499C16.8075 14.6499 14.6499 16.8075 14.6499 19.5272C14.6499 22.1925 16.8075 24.4045 19.5272 24.4045C22.1925 24.4045 24.4045 22.1925 24.4045 19.5272C24.4045 16.8075 22.1925 14.6499 19.5272 14.6499ZM23.6792 10.2259H15.357C12.5286 10.2259 10.2622 12.5467 10.2622 15.357V23.6792C10.2622 26.4533 12.5286 28.7741 15.357 28.7741H23.6792C26.5077 28.7741 28.7741 26.4533 28.7741 23.6792V15.3752C28.7741 12.5467 26.5077 10.2259 23.6792 10.2259Z" fill="white"/>
</svg>
