<svg width="31" height="38" viewBox="0 0 31 38" fill="none" xmlns="http://www.w3.org/2000/svg">
<path fill-rule="evenodd" clip-rule="evenodd" d="M3.80002 1H22.2L30.48 9.33V35.75C30.48 36.6 29.8 37.31 28.95 37.31H3.80002C2.95002 37.31 2.27002 36.6 2.27002 35.75V2.56C2.27002 1.71 2.95002 1 3.80002 1Z" fill="white" stroke="#007D6F" stroke-width="0.5669" stroke-miterlimit="10" stroke-linecap="round" stroke-linejoin="round"/>
<path fill-rule="evenodd" clip-rule="evenodd" d="M22.3101 1.12V7.98C22.3101 8.69 22.9301 9.2 23.7801 9.23H30.3801L22.3101 1.12Z" fill="#049B8A"/>
<path fill-rule="evenodd" clip-rule="evenodd" d="M7.68001 20.85H25.06C25.49 20.85 25.85 21.22 25.85 21.64C25.85 22.07 25.48 22.43 25.06 22.43H7.68001C7.25001 22.43 6.89001 22.06 6.89001 21.64C6.89001 21.21 7.26001 20.85 7.68001 20.85Z" fill="#049B8A"/>
<path fill-rule="evenodd" clip-rule="evenodd" d="M7.68001 25.69H25.06C25.49 25.69 25.85 26.03 25.85 26.48C25.85 26.91 25.48 27.25 25.06 27.25H7.68001C7.25001 27.25 6.89001 26.91 6.89001 26.48C6.89001 26.03 7.26001 25.69 7.68001 25.69Z" fill="#049B8A"/>
<path fill-rule="evenodd" clip-rule="evenodd" d="M7.68001 30.51H25.06C25.49 30.51 25.85 30.88 25.85 31.3C25.85 31.73 25.48 32.09 25.06 32.09H7.68001C7.25001 32.09 6.89001 31.72 6.89001 31.3C6.89001 30.88 7.26001 30.51 7.68001 30.51Z" fill="#049B8A"/>
<path fill-rule="evenodd" clip-rule="evenodd" d="M2.27002 7.40997H19.62C19.9 7.40997 20.13 7.66997 20.13 7.94997V14.67C20.13 14.98 19.9 15.21 19.62 15.21H2.27002V7.40997Z" fill="#049B8A"/>
<path fill-rule="evenodd" clip-rule="evenodd" d="M0 9.88002V16.99C0.45 16 1.16 15.35 2.27 15.2V7.40002C1.08 7.44002 0 8.80002 0 9.88002Z" fill="#049B8A"/>
<path fill-rule="evenodd" clip-rule="evenodd" d="M0 16.99V18.1C0 18.78 0.96 20.23 2.27 20.23V15.21C1.16 15.35 0.45 16 0 16.99Z" fill="#007D6F"/>
<path d="M5.13 13.62V9H6.6C7.17 9 7.54 9.03 7.73 9.06C7.99 9.15 8.21 9.29 8.38 9.51C8.55 9.77 8.64001 10.05 8.64001 10.42C8.64001 10.7 8.61 10.96 8.5 11.13C8.39 11.33 8.27001 11.5 8.10001 11.61C7.96001 11.7 7.79 11.78 7.62 11.81C7.39 11.87 7.08 11.9 6.66 11.9H6.06V13.63H5.13V13.62ZM6.07 9.79V11.09H6.58C6.95 11.09 7.18 11.06 7.32 11C7.43 10.97 7.52 10.89 7.6 10.77C7.66 10.68 7.69 10.57 7.69 10.43C7.69 10.26 7.66 10.12 7.55 10C7.46 9.9 7.31 9.85 7.17 9.82C7.06 9.79 6.83 9.79 6.49 9.79H6.07ZM9.44 9H11.14C11.51 9 11.82 9.03 12.02 9.09C12.28 9.18 12.5 9.32 12.7 9.52C12.9 9.72 13.04 9.97 13.15 10.29C13.24 10.57 13.29 10.94 13.29 11.37C13.29 11.77 13.26 12.08 13.15 12.36C13.04 12.7 12.87 12.96 12.67 13.18C12.5 13.32 12.27 13.46 12.02 13.55C11.79 13.61 11.54 13.64 11.2 13.64H9.44V9ZM10.37 9.79V12.85H11.05C11.31 12.85 11.5 12.82 11.62 12.79C11.76 12.76 11.9 12.68 11.99 12.59C12.1 12.5 12.19 12.36 12.25 12.16C12.31 11.93 12.34 11.65 12.34 11.31C12.34 10.94 12.31 10.66 12.25 10.49C12.19 10.29 12.11 10.15 11.99 10.04C11.87 9.93 11.73 9.84 11.54 9.81C11.43 9.78 11.17 9.78 10.77 9.78H10.37V9.79ZM14.09 13.62V9H17.26V9.79H15.02V10.87H16.98V11.66H15.02V13.62H14.09Z" fill="white"/>
</svg>
