<svg width="37" height="29" viewBox="0 0 37 29" fill="none" xmlns="http://www.w3.org/2000/svg">
<g clip-path="url(#clip0_5_13)">
<path fill-rule="evenodd" clip-rule="evenodd" d="M36.1 14.31C24.16 -0.0300074 12.22 -0.0300074 0.279999 14.31C12.22 28.65 24.17 28.65 36.1 14.31ZM18.2 19.4C21.01 19.4 23.29 17.12 23.29 14.31C23.29 13.88 23.24 13.47 23.14 13.07C22.62 13.71 21.84 14.11 20.96 14.11C19.4 14.11 18.15 12.85 18.15 11.3C18.15 10.51 18.48 9.78999 19 9.28999C18.74 9.24999 18.47 9.22999 18.2 9.22999C15.39 9.22999 13.11 11.51 13.11 14.32C13.1 17.12 15.38 19.4 18.2 19.4ZM18.2 22.02C22.46 22.02 25.91 18.57 25.91 14.31C25.91 10.05 22.46 6.59999 18.2 6.59999C13.94 6.59999 10.49 10.05 10.49 14.31C10.48 18.57 13.93 22.02 18.2 22.02Z" fill="#333333" stroke="#333333" stroke-width="0.5669" stroke-miterlimit="10" stroke-linecap="round" stroke-linejoin="round"/>
<path fill-rule="evenodd" clip-rule="evenodd" d="M18.2 19.4C19.22 19.4 20.17 19.1 20.97 18.58L22.85 20.46C21.55 21.44 19.95 22.02 18.2 22.02C13.94 22.02 10.49 18.57 10.49 14.31C10.49 12.56 11.07 10.95 12.06 9.66L13.94 11.54C13.42 12.34 13.12 13.29 13.12 14.31C13.1 17.12 15.38 19.4 18.2 19.4ZM25.61 23.22L30.42 28.03C30.83 28.44 31.51 28.44 31.92 28.03C32.33 27.62 32.33 26.95 31.92 26.53L27.54 22.14C30.4 20.35 33.26 17.74 36.12 14.31C27.67 4.18 19.22 1.21 10.78 5.4L5.97 0.590001C5.56 0.180001 4.89 0.180001 4.47 0.590001C4.06 1 4.06 1.67 4.47 2.09L8.86 6.48C6 8.27 3.15 10.88 0.279999 14.31C8.72 24.45 17.16 27.41 25.61 23.22ZM24.34 18.97L22.46 17.09C22.98 16.29 23.28 15.34 23.28 14.32C23.28 13.89 23.23 13.48 23.13 13.08C22.61 13.72 21.83 14.12 20.95 14.12C19.39 14.12 18.14 12.86 18.14 11.31C18.14 10.52 18.47 9.8 18.99 9.3C18.73 9.26 18.46 9.24 18.19 9.24C17.17 9.24 16.22 9.54 15.42 10.06L13.54 8.18C14.83 7.2 16.44 6.62 18.19 6.62C22.45 6.62 25.9 10.07 25.9 14.33C25.91 16.06 25.33 17.67 24.34 18.97Z" fill="#333333" stroke="#333333" stroke-width="0.5669" stroke-miterlimit="10" stroke-linecap="round" stroke-linejoin="round"/>
</g>
<defs>
<clipPath id="clip0_5_13">
<rect width="36.39" height="28.62" fill="white"/>
</clipPath>
</defs>
</svg>
