<svg width="21" height="25" viewBox="0 0 21 25" fill="none" xmlns="http://www.w3.org/2000/svg">
<path fill-rule="evenodd" clip-rule="evenodd" d="M2.55 0.28H14.85L20.41 5.86V23.55C20.41 24.12 19.93 24.57 19.36 24.57H2.55C1.98 24.57 1.5 24.12 1.5 23.55V1.33C1.5 0.77 1.98 0.28 2.55 0.28Z" fill="white" stroke="#ED404C" stroke-width="0.5669" stroke-miterlimit="10" stroke-linecap="round" stroke-linejoin="round"/>
<path fill-rule="evenodd" clip-rule="evenodd" d="M14.94 0.37V4.93C14.94 5.41 15.34 5.78 15.93 5.78H20.32L14.94 0.37Z" fill="#ED404C"/>
<path fill-rule="evenodd" clip-rule="evenodd" d="M5.13 13.58H16.78C17.06 13.58 17.29 13.81 17.29 14.09C17.29 14.4 17.06 14.63 16.78 14.63H5.13C4.85 14.63 4.62 14.4 4.62 14.09C4.62 13.8 4.85 13.58 5.13 13.58Z" fill="#ED404C"/>
<path fill-rule="evenodd" clip-rule="evenodd" d="M5.13 16.81H16.78C17.06 16.81 17.29 17.04 17.29 17.32C17.29 17.63 17.06 17.86 16.78 17.86H5.13C4.85 17.86 4.62 17.63 4.62 17.32C4.62 17.04 4.85 16.81 5.13 16.81Z" fill="#ED404C"/>
<path fill-rule="evenodd" clip-rule="evenodd" d="M5.13 20.04H16.78C17.06 20.04 17.29 20.27 17.29 20.55C17.29 20.86 17.06 21.09 16.78 21.09H5.13C4.85 21.09 4.62 20.86 4.62 20.55C4.62 20.27 4.85 20.04 5.13 20.04Z" fill="#ED404C"/>
<path fill-rule="evenodd" clip-rule="evenodd" d="M1.5 4.56H13.12C13.32 4.56 13.46 4.73 13.46 4.93V9.44C13.46 9.64 13.32 9.78 13.12 9.78H1.5V4.56Z" fill="#ED404C"/>
<path fill-rule="evenodd" clip-rule="evenodd" d="M0 6.24V11C0.31 10.32 0.77 9.89 1.5 9.78L1.53 4.56C0.74 4.59 0 5.5 0 6.24Z" fill="#ED404C"/>
<path fill-rule="evenodd" clip-rule="evenodd" d="M0 11V11.74C0 12.19 0.65 13.16 1.5 13.16V9.78C0.77 9.89 0.31 10.32 0 11Z" fill="#AB1F28"/>
<path d="M3.42999 8.73V5.64H4.41999C4.81999 5.64 5.03999 5.64 5.15999 5.67C5.35999 5.73 5.49999 5.84 5.60999 5.98C5.71999 6.15 5.77999 6.35 5.77999 6.58C5.77999 6.78 5.74999 6.95 5.68999 7.06C5.60999 7.2 5.52999 7.29 5.43999 7.37C5.32999 7.46 5.21999 7.48 5.09999 7.51C4.95999 7.54 4.72999 7.57 4.44999 7.57H4.04999V8.73H3.42999ZM4.04999 6.15V7.03H4.38999C4.64999 7.03 4.78999 7.03 4.86999 7C4.95999 6.94 5.03999 6.91 5.06999 6.83C5.12999 6.77 5.15999 6.69 5.15999 6.6C5.15999 6.49 5.12999 6.37 5.04999 6.32C4.98999 6.24 4.89999 6.21 4.78999 6.18C4.72999 6.15 4.58999 6.15 4.35999 6.15H4.04999ZM6.31999 5.64H7.44999C7.70999 5.64 7.89999 5.64 8.04999 5.7C8.21999 5.75 8.35999 5.84 8.49999 5.98C8.63999 6.12 8.72999 6.29 8.77999 6.49C8.86999 6.69 8.89999 6.92 8.89999 7.2C8.89999 7.46 8.86999 7.68 8.80999 7.88C8.71999 8.11 8.60999 8.28 8.46999 8.42C8.35999 8.53 8.20999 8.62 8.03999 8.68C7.90999 8.7 7.70999 8.73 7.47999 8.73H6.31999V5.64ZM6.93999 6.15V8.22H7.39999C7.56999 8.22 7.70999 8.19 7.76999 8.16C7.87999 8.16 7.96999 8.1 8.02999 8.05C8.11999 7.99 8.16999 7.88 8.19999 7.74C8.25999 7.63 8.25999 7.43 8.25999 7.17C8.25999 6.94 8.25999 6.74 8.19999 6.63C8.15999 6.49 8.07999 6.41 8.01999 6.32C7.93999 6.26 7.84999 6.21 7.73999 6.18C7.64999 6.18 7.47999 6.15 7.22999 6.15H6.93999ZM9.43999 8.73V5.64H11.57V6.15H10.07V6.89H11.37V7.43H10.07V8.73H9.43999Z" fill="white"/>
</svg>
