<svg width="24" height="25" viewBox="0 0 24 25" fill="none" xmlns="http://www.w3.org/2000/svg">
<path fill-rule="evenodd" clip-rule="evenodd" d="M11.2402 25C17.4518 25 22.4803 20.1555 22.4803 14.1861C22.4827 8.61748 18.1168 4.0364 12.5014 3.43415V2.17208H13.8776C13.9881 2.17208 14.0802 2.08352 14.0802 1.97723V0.194845C14.0802 0.0885662 13.9881 0 13.8776 0H8.60737C8.4969 0 8.40483 0.0885662 8.40483 0.194845V1.97723C8.40483 2.08352 8.4969 2.17208 8.60737 2.17208H9.98362V3.43415C4.36582 4.0364 0 8.61748 0 14.1861C0 20.1532 5.03783 25 11.2402 25ZM11.2402 14.1861L11.3783 6.63582C11.3323 6.63582 11.2862 6.63582 11.2402 6.63582C6.9089 6.63582 3.39922 10.0124 3.39922 14.1861C3.39922 18.3532 6.9089 21.7297 11.2402 21.7297C14.0917 21.7297 16.72 20.2418 18.1032 17.8395L11.2402 14.1861ZM11.2402 23.2928C16.4714 23.2928 20.7128 19.2122 20.7128 14.1861C20.7128 9.1533 16.4714 5.07262 11.2402 5.07262C6.00905 5.07262 1.7698 9.1511 1.7698 14.1861C1.7698 19.2122 6.00905 23.2928 11.2402 23.2928Z" fill="#2D8A7A"/>
</svg>
