<svg width="19" height="25" viewBox="0 0 19 25" fill="none" xmlns="http://www.w3.org/2000/svg">
<g clip-path="url(#clip0_111_8)">
<path fill-rule="evenodd" clip-rule="evenodd" d="M3.10723 10.502C2.06924 10.6581 0.895564 10.1967 0.298549 11.0041C-0.142428 11.6011 0.0271789 13.2157 0.0271789 14.0841C0.0271789 14.9864 -0.0678007 23.6635 0.101806 24.1248C0.468156 25.2035 1.44509 24.9932 2.6052 24.9932H16.0448C17.1981 24.9932 18.2158 25.2035 18.6228 24.1655C18.7992 23.6839 18.6975 15.0678 18.6975 14.1655C18.6975 13.3175 18.8535 11.6282 18.4668 11.0516C17.8901 10.2035 16.6758 10.6649 15.6174 10.5156C15.6174 7.89688 15.9634 5.07463 14.7355 3.05292C12.266 -0.997281 6.51293 -1.01763 4.03668 3.00543C2.78159 5.02036 3.09366 7.84939 3.10723 10.502ZM5.882 10.5224H12.863C12.9241 9.40978 12.9987 5.96337 12.6866 5.10177C11.574 2.02171 7.24563 1.96744 6.07196 5.06106C5.74631 5.96337 5.82094 9.32836 5.882 10.5224ZM8.41931 17.327L7.82229 21.384H10.882L10.3053 17.3067C10.8277 17.0353 11.323 16.228 11.0584 15.346C10.5564 13.7517 8.29041 13.6703 7.71375 15.2849C7.38132 16.2347 7.91727 16.9471 8.41931 17.327Z" fill="#3F3F41"/>
</g>
<defs>
<clipPath id="clip0_111_8">
<rect width="18.7381" height="25" fill="white"/>
</clipPath>
</defs>
</svg>
