<svg width="95" height="95" viewBox="0 0 95 95" fill="none" xmlns="http://www.w3.org/2000/svg">
<g clip-path="url(#clip0_362_82)">
<path d="M20.9506 50.4572C20.3337 50.4572 19.8325 49.956 19.8325 49.3392C19.8325 48.7223 20.3337 48.2211 20.9506 48.2211H36.7915C37.2541 48.2211 37.6464 48.5046 37.8211 48.8969L40.2114 53.5188L44.1393 39.8074C44.3071 39.2155 44.924 38.8685 45.5159 39.0432C45.915 39.152 46.1962 39.4604 46.2937 39.8346L52.9861 59.8348L55.7756 47.9671C55.9162 47.3639 56.5149 46.9897 57.1136 47.1303C57.4742 47.2142 57.7509 47.4591 57.8847 47.7721L60.5086 53.063L63.3116 48.7359C63.5248 48.4071 63.8831 48.2279 64.2437 48.2279V48.2211H73.3469C73.9569 48.2211 74.4581 48.7223 74.4581 49.3392C74.4581 49.956 73.9569 50.4572 73.3469 50.4572H64.8492L61.3386 55.8774C61.2366 56.0565 61.0755 56.2062 60.876 56.3083C60.3226 56.5781 59.6536 56.3536 59.3837 55.8003L57.2406 51.48L54.2584 64.1505C54.1677 64.5179 53.9046 64.8263 53.5259 64.9533C52.9408 65.1529 52.3103 64.8376 52.1176 64.2525L45.2959 43.8669L41.5857 56.8208H41.5789C41.5018 57.1111 41.309 57.3605 41.0187 57.508C40.4722 57.7914 39.8032 57.5715 39.5219 57.0249L36.1156 50.455H20.9506V50.4572Z" fill="#221F20"/>
<path d="M17.6849 42.3838C17.2086 36.8435 19.4016 32.1105 22.8669 28.8584C24.8921 26.9557 27.3482 25.5677 29.9698 24.8148C32.5982 24.0573 35.4013 23.9462 38.0955 24.622C41.6696 25.5088 45.026 27.7585 47.5002 31.6796C49.9744 27.7585 53.3309 25.5088 56.905 24.622C59.5992 23.9462 62.4022 24.0573 65.0375 24.8148C67.6546 25.5677 70.1152 26.9557 72.1404 28.8584C75.6056 32.1105 77.7918 36.8435 77.3156 42.3838C76.447 52.5279 67.294 60.4857 59.0073 67.6929C54.9047 71.2603 51.0222 74.6303 48.6183 77.8892C48.1624 78.506 47.287 78.6353 46.6702 78.1795C46.5409 78.0819 46.4321 77.9663 46.3482 77.8393C43.9238 74.6711 40.132 71.3532 36.127 67.8494C27.779 60.5515 18.5535 52.4825 17.6849 42.3838ZM24.7696 30.8836C21.8895 33.5891 20.0706 37.5306 20.4698 42.1525C21.2341 51.1331 30.0151 58.8098 37.9617 65.7585C41.5358 68.8836 44.9489 71.8658 47.4889 74.8367C50.0357 71.8091 53.5259 68.7747 57.1839 65.5929C65.0647 58.7395 73.7687 51.174 74.542 42.1547C74.9411 37.5329 73.1223 33.5914 70.2354 30.8858C68.539 29.2983 66.4753 28.1281 64.2755 27.4977C62.0893 26.8672 59.7829 26.7788 57.5763 27.323C54.1178 28.1848 50.8838 30.6522 48.7634 35.1653C48.6273 35.4487 48.4028 35.6914 48.0944 35.8343C47.4004 36.1631 46.5704 35.8592 46.2438 35.1653C44.1234 30.6522 40.8963 28.1848 37.4378 27.323C35.2335 26.7765 32.918 26.8672 30.7386 27.4977C28.5297 28.1259 26.466 29.2938 24.7696 30.8836Z" fill="#221F20"/>
<path fill-rule="evenodd" clip-rule="evenodd" d="M47.5 0C73.7344 0 95 21.2656 95 47.5C95 73.7344 73.7344 95 47.5 95C21.2656 95 0 73.7344 0 47.5C0 21.2656 21.2656 0 47.5 0ZM47.5 3.01397C72.0698 3.01397 91.9928 22.9302 91.9928 47.5C91.9928 72.0698 72.0698 91.9928 47.5 91.9928C22.9302 91.9928 3.01397 72.0698 3.01397 47.5C3.01397 22.9302 22.9302 3.01397 47.5 3.01397Z" fill="#15BEA4"/>
</g>
<defs>
<clipPath id="clip0_362_82">
<rect width="95" height="95" fill="white"/>
</clipPath>
</defs>
</svg>
