<svg width="80" height="80" viewBox="0 0 80 80" fill="none" xmlns="http://www.w3.org/2000/svg">
<path d="M40.033 0.5C61.8113 0.5 79.5 18.2104 79.5 39.9669C79.5 61.7899 61.7889 79.5 40.033 79.5C18.2106 79.5 0.5 61.7894 0.5 39.9669C0.5 18.1891 18.188 0.5 40.033 0.5Z" fill="white" stroke="#049B8A"/>
<path fill-rule="evenodd" clip-rule="evenodd" d="M66.9568 33.8655C64.0705 21.6595 53.6491 13.5295 41.4872 13.5295C39.7246 13.5295 37.984 13.5295 36.8383 14.1244C19.4767 17.6055 10.2231 36.7738 18.9259 51.8881C18.9259 52.483 18.9259 53.0338 18.9259 53.6286C17.7362 57.6826 16.5684 61.7586 15.4227 65.8126C15.4227 66.4075 15.4227 66.4075 16.0176 66.4075C20.0716 64.6669 24.6984 64.072 28.7524 62.9264C29.3473 62.9264 29.3473 62.9264 29.8981 62.9264C35.1198 65.8346 40.9143 66.4075 46.6869 65.2618C61.1622 62.3315 70.4379 47.8121 66.9568 33.8655ZM44.9463 61.1638C43.8006 61.1638 42.6329 61.1638 42.038 61.1638C37.3891 61.1638 33.93 60.5689 30.4489 58.2555C29.854 58.2555 29.854 57.6606 29.3032 58.2555C26.9898 58.8503 24.6544 59.4012 22.341 59.996C21.7461 59.996 21.7461 59.996 21.7461 59.4012C22.341 57.0657 22.8918 55.3251 23.4866 53.0117C23.4866 52.4169 23.4866 51.866 23.4866 51.2712C18.8378 43.7361 18.8378 34.4163 24.0815 26.8812C29.854 19.8969 37.4112 16.4158 46.092 18.7512C54.7728 20.4918 60.5673 26.2863 62.8807 35.0112C65.789 47.2392 57.1082 58.8724 44.9463 61.1638Z" fill="#049B8A"/>
<path fill-rule="evenodd" clip-rule="evenodd" d="M53.6051 45.4326C53.0543 44.8377 53.0543 44.8377 52.4594 44.8377C51.3137 44.2428 50.146 43.692 49.0003 43.0971C48.4054 42.5022 47.8546 43.0971 47.2597 43.0971C46.6648 44.2869 46.114 44.8597 45.5191 46.0054C45.5191 46.0054 44.9683 46.6003 44.3734 46.0054C40.3195 44.8597 37.4112 41.9294 35.0978 38.4703C35.0978 37.9195 35.0978 37.3246 35.6926 37.3246C36.2435 36.1348 36.8383 35.584 36.8383 34.9892C37.4332 34.4383 37.4332 34.4383 37.4332 33.8435C36.2655 32.0809 35.6926 30.3403 35.1198 28.5997C34.5249 28.0489 34.5249 28.0489 34.5249 27.454C33.3572 27.454 31.6166 27.454 31.0658 28.0489C28.7524 30.3844 28.1575 32.6978 28.7524 35.0332C28.7524 37.3687 30.493 39.6821 31.6387 41.4226C35.0978 46.6443 39.7466 50.1475 45.5191 51.8881C46.6869 51.8881 47.2817 52.483 48.4274 51.8881C49.0223 52.483 49.5952 52.483 50.1239 51.822C52.4373 51.2271 54.7728 50.0814 54.7728 47.1731C54.7508 46.0274 54.7508 46.0274 53.6051 45.4326Z" fill="#049B8A"/>
</svg>
