<svg width="29" height="29" viewBox="0 0 29 29" fill="none" xmlns="http://www.w3.org/2000/svg">
<path fill-rule="evenodd" clip-rule="evenodd" d="M14.2164 0.354004C21.9921 0.354004 28.2718 6.66138 28.2718 14.4371C28.2718 22.2128 21.9921 28.4925 14.2164 28.4925C6.44068 28.4925 0.133301 22.2128 0.133301 14.4371C0.133301 6.66138 6.44068 0.354004 14.2164 0.354004ZM17.2873 13.8457C17.2374 14.3746 16.7933 14.7788 16.262 14.7788V14.7788C15.6933 14.7788 15.2322 15.2398 15.2322 15.8086V19.6178C15.2322 20.4135 14.5872 21.0585 13.7916 21.0585V21.0585C12.996 21.0585 12.351 20.4135 12.351 19.6178V15.4714C12.351 15.0889 12.0409 14.7788 11.6584 14.7788V14.7788C11.2758 14.7788 10.9657 14.4687 10.9657 14.0862V13.0149C10.9657 12.6324 11.2758 12.3223 11.6584 12.3223V12.3223C12.0409 12.3223 12.351 12.0122 12.351 11.6297V10.7247C12.351 9.59805 12.8773 7.79725 15.2599 7.79725L16.2189 7.80965C16.875 7.81814 17.4024 8.35241 17.4024 9.00856V9.00856C17.4024 9.67075 16.8656 10.2076 16.2034 10.2076H15.8602C15.6016 10.2076 15.2322 10.3368 15.2322 10.8909V11.2843C15.2322 11.8627 15.7011 12.3316 16.2794 12.3316V12.3316C16.8966 12.3316 17.38 12.8627 17.322 13.4771L17.2873 13.8457Z" fill="#03E3C1"/>
</svg>
