<svg width="23" height="21" viewBox="0 0 23 21" fill="none" xmlns="http://www.w3.org/2000/svg">
<g clip-path="url(#clip0_111_2)">
<path fill-rule="evenodd" clip-rule="evenodd" d="M1.18179 13.1685C-0.266187 13.4284 0.0259854 15.0928 0.0259854 16.426C0.0259854 18.0527 0.0517654 18.9205 1.0357 19.8722C1.99815 20.8239 2.62976 21 4.40857 21H18.0719C19.6187 21 20.7144 21.0252 21.7026 20.1322C22.6178 19.3021 22.9701 18.5851 22.9701 16.9124C22.9572 15.4618 23.2494 13.7848 22.2139 13.2859C21.5565 12.9631 20.9593 13.1769 20.5554 13.5836C19.7863 14.355 20.3835 16.5183 20.1429 17.6251C19.9968 18.3252 19.3266 18.2791 18.5704 18.2791H4.90699C2.51805 18.2791 2.81022 18.1827 2.81022 15.9271C2.81022 15.3192 2.92193 14.3466 2.63835 13.8477C2.41063 13.4159 1.86495 13.0385 1.18179 13.1685ZM10.0973 10.9465C9.83955 10.8291 8.52477 9.28209 8.25838 9.04312C7.64825 8.48553 7.39475 8.10401 7.06391 7.80635C6.71158 7.49611 5.94248 6.60731 4.8941 7.42483C3.46761 8.53164 5.37103 9.99062 5.71046 10.3721C7.02524 11.8563 8.98881 13.7345 10.3508 15.2228C11.5668 16.5308 12.4218 15.3905 12.873 14.9713C13.0577 14.791 13.1394 14.7574 13.3112 14.5688L17.9516 9.71811C19.2535 8.50649 18.3899 6.9972 17.0622 7.11459C16.5767 7.16071 16.3576 7.39968 16.0396 7.68477C15.7603 7.93631 15.5412 8.22979 15.2834 8.51487L12.8859 10.9255L12.8988 1.76083C12.8988 0.892993 12.6066 0 11.4852 0C10.4497 0 10.0973 0.771411 10.0973 1.76083C10.1102 4.58654 10.1962 8.29687 10.0973 10.9465Z" fill="white"/>
</g>
<defs>
<clipPath id="clip0_111_2">
<rect width="23" height="21" fill="white"/>
</clipPath>
</defs>
</svg>
