<svg width="39" height="39" viewBox="0 0 39 39" fill="none" xmlns="http://www.w3.org/2000/svg">
<path fill-rule="evenodd" clip-rule="evenodd" d="M19.5192 0C30.2964 0 39 8.74204 39 19.5192C39 30.2964 30.2964 39 19.5192 39C8.74204 39 0 30.2964 0 19.5192C0 8.74204 8.74204 0 19.5192 0ZM23.7754 18.6995C23.7063 19.4326 23.0908 19.9928 22.3544 19.9928V19.9928C21.5662 19.9928 20.9271 20.6318 20.9271 21.4201V26.6997C20.9271 27.8025 20.0332 28.6964 18.9304 28.6964V28.6964C17.8277 28.6964 16.9337 27.8025 16.9337 26.6997V20.9527C16.9337 20.4226 16.5039 19.9928 15.9738 19.9928V19.9928C15.4436 19.9928 15.0138 19.563 15.0138 19.0328V17.5481C15.0138 17.0179 15.4436 16.5881 15.9738 16.5881V16.5881C16.5039 16.5881 16.9337 16.1583 16.9337 15.6281V14.3738C16.9337 12.8123 17.6633 10.3164 20.9655 10.3164L22.2947 10.3336C23.204 10.3453 23.935 11.0858 23.935 11.9952V11.9952C23.935 12.913 23.191 13.6571 22.2732 13.6571H21.7975C21.4391 13.6571 20.9271 13.8362 20.9271 14.6042V15.1495C20.9271 15.9511 21.577 16.6009 22.3786 16.6009V16.6009C23.2341 16.6009 23.904 17.337 23.8236 18.1887L23.7754 18.6995Z" fill="white"/>
</svg>
