<svg width="21" height="14" viewBox="0 0 21 14" fill="none" xmlns="http://www.w3.org/2000/svg">
<g clip-path="url(#clip0_680_1945)">
<path d="M0.0516357 0C0.108379 0.0567637 0.139329 0.0877258 0.175438 0.113527C3.44073 2.80206 6.70602 5.4906 9.97131 8.17398C10.3324 8.46812 10.7451 8.46296 11.1113 8.1585C14.3457 5.4906 17.5852 2.82271 20.8195 0.15481C20.8659 0.118688 20.9124 0.0774051 20.9949 0C13.9949 0 7.04648 0 0.0516357 0Z" fill="white"/>
<path d="M0 13.8761C2.61017 11.7707 5.21518 9.67043 7.84083 7.55469C8.23287 7.87979 8.61975 8.19973 9.01179 8.51451C9.24908 8.70544 9.47605 8.92734 9.74945 9.06151C10.4046 9.39177 11.0494 9.31952 11.6271 8.85509C12.0707 8.50419 12.5041 8.13781 12.9425 7.77658C13.0147 7.71466 13.087 7.65789 13.1747 7.59081C15.79 9.69107 18.4001 11.781 21.0103 13.8709C21.0103 13.8967 21.0103 13.9277 21.0103 13.9535C20.9226 13.969 20.8401 13.9948 20.7524 13.9948C13.9226 13.9948 7.09285 13.9948 0.26308 13.9948C0.175387 13.9948 0.0928519 13.9638 0.00515844 13.9535C0 13.9277 0 13.9019 0 13.8761Z" fill="black"/>
<path d="M0 1.09399C2.37804 3.04976 4.75608 5.01069 7.17539 7.00258C7.1238 7.03354 7.07738 7.04903 7.04127 7.07483C4.73545 8.93255 2.42962 10.7954 0.118644 12.6532C0.0876935 12.6893 0.0412675 12.7048 0 12.7306C0 8.84998 0 4.97457 0 1.09399Z" fill="black"/>
<path d="M21 12.7305C20.9536 12.7047 20.902 12.6841 20.8607 12.6531C18.5704 10.816 16.2852 8.97897 13.9949 7.14705C13.9536 7.11093 13.9123 7.0748 13.8556 7.0232C16.2439 5.05711 18.622 3.09618 21 1.13525C21 5.00035 21 8.86544 21 12.7305Z" fill="black"/>
<path d="M0.0516357 0C7.04648 0 13.9949 0 20.9949 0C20.9124 0.0774051 20.8711 0.118688 20.8195 0.159971C17.5852 2.82787 14.3457 5.49576 11.1113 8.16366C10.7451 8.46812 10.3324 8.47328 9.97131 8.17914C6.70602 5.4906 3.44073 2.80206 0.175438 0.113527C0.144488 0.0877258 0.113537 0.0567637 0.0516357 0Z" fill="black"/>
</g>
<defs>
<clipPath id="clip0_680_1945">
<rect width="21" height="14" fill="white"/>
</clipPath>
</defs>
</svg>
