<?xml version="1.0" encoding="utf-8"?>
<svg viewBox="231.845 231.845 36.31 36.31" xmlns="http://www.w3.org/2000/svg">
  <g transform="matrix(1, 0, 0, 1, -63.529998779296875, 35.66600036621094)">
    <path fill-rule="evenodd" clip-rule="evenodd" d="M 313.515 196.179 C 323.545 196.179 331.685 204.319 331.685 214.319 C 331.685 224.349 323.545 232.489 313.515 232.489 C 303.505 232.489 295.375 224.349 295.375 214.319 C 295.375 204.309 303.505 196.179 313.515 196.179 Z" fill="#049B8A"/>
  </g>
  <g transform="matrix(0.6708600521087646, 0, 0, 0.6708600521087646, 241.94967651367185, 241.94967651367188)">
    <path d="M21.9,2.1c-2.7-2.7-7.2-2.7-9.9,0L2.1,12c-2.7,2.7-2.7,7.2,0,9.9c2.7,2.7,7.2,2.7,9.9,0l9.9-9.9   C24.6,9.3,24.6,4.8,21.9,2.1z M10.6,20.5c-2,2-5.1,2-7.1,0s-2-5.1,0-7.1l4.2-4.2l7.1,7.1L10.6,20.5z M20.5,10.6l-4.2,4.2L9.2,7.8   l4.2-4.2c2-2,5.1-2,7.1,0S22.4,8.6,20.5,10.6z" style="fill: rgb(255, 255, 255);"/>
    <path d="M19.8,4.2l-0.7,0.7c1.2,1.2,1.2,3.1,0,4.2l0.7,0.7C21.3,8.3,21.3,5.8,19.8,4.2z" style="fill: rgb(255, 255, 255);"/>
  </g>
</svg>