<?xml version="1.0" encoding="utf-8"?>
<svg viewBox="231.845 231.845 36.31 36.31" xmlns="http://www.w3.org/2000/svg">
  <g transform="matrix(0.27598798274993896, 0, 0, 0.2502150237560272, 241.16845703125, 241.99317932128906)">
    <path d="M20.383,53.908c-1.787,0-3.548-0.54-5.048-1.534c0.409,0.021,0.854,0.033,1.329,0.033    c2.921,0,7.034-0.484,11.186-2.573l-0.76,0.93C25.457,52.763,23.013,53.908,20.383,53.908L20.383,53.908z" style="fill: rgb(239, 12, 12);"/>
    <path d="M30.056,47.536c-0.156,0-0.314,0.07-0.314,0.07l-0.013-0.025c-4.701,3.149-9.664,3.826-13.066,3.826    c-1.323,0-2.41-0.102-3.153-0.201l-0.009,0.017c0,0-0.751,0.129-0.293,0.693c0.238,0.236,0.485,0.467,0.75,0.684    c1.898,1.551,4.179,2.309,6.426,2.309c2.82,0,5.588-1.193,7.48-3.512l2.517-3.08c0.183-0.223,0.062-0.554-0.11-0.71    C30.212,47.554,30.134,47.536,30.056,47.536L30.056,47.536z" style="fill: rgb(239, 12, 12);"/>
  </g>
  <g transform="matrix(1, 0, 0, 1, -63.52999877929689, 35.66600036621094)">
    <path fill-rule="evenodd" clip-rule="evenodd" d="M 313.515 196.179 C 323.545 196.179 331.685 204.319 331.685 214.319 C 331.685 224.349 323.545 232.489 313.515 232.489 C 303.505 232.489 295.375 224.349 295.375 214.319 C 295.375 204.309 303.505 196.179 313.515 196.179 Z" fill="#049B8A"/>
  </g>
  <g transform="matrix(0.27598798274993896, 0, 0, 0.2502150237560272, 241.1683807373047, 241.99319458007812)">
    <path d="M55.238,3.558C48.548-1.91,38.69-0.917,33.222,5.775L6.544,38.424C1.077,45.114,2.068,54.975,8.76,60.44   c6.693,5.469,16.551,4.478,22.02-2.216l26.677-32.651C62.923,18.883,61.932,9.026,55.238,3.558z M29.082,54.961   c-4.169,5.102-11.684,5.857-16.787,1.689c-5.102-4.169-5.858-11.686-1.689-16.786l4.568-5.592c0.087-0.113,0.164-0.233,0.255-0.345   l7.104-8.695l18.752,14.792L29.082,54.961z M54.241,24.131l-4.573,5.596c-0.086,0.112-0.159,0.23-0.248,0.341l-5.705,6.983   L24.961,22.259L35.766,9.037c4.168-5.101,11.684-5.858,16.784-1.69C57.654,11.516,58.409,19.031,54.241,24.131z" style="fill: rgb(255, 255, 255);"/>
    <g>
      <path d="M20.383,53.908c-1.787,0-3.548-0.54-5.048-1.534c0.409,0.021,0.854,0.033,1.329,0.033    c2.921,0,7.034-0.484,11.186-2.573l-0.76,0.93C25.457,52.763,23.013,53.908,20.383,53.908L20.383,53.908z" style="fill: rgb(255, 255, 255);"/>
      <path d="M30.056,47.536c-0.156,0-0.314,0.07-0.314,0.07l-0.013-0.025c-4.701,3.149-9.664,3.826-13.066,3.826    c-1.323,0-2.41-0.102-3.153-0.201l-0.009,0.017c0,0-0.751,0.129-0.293,0.693c0.238,0.236,0.485,0.467,0.75,0.684    c1.898,1.551,4.179,2.309,6.426,2.309c2.82,0,5.588-1.193,7.48-3.512l2.517-3.08c0.183-0.223,0.062-0.554-0.11-0.71    C30.212,47.554,30.134,47.536,30.056,47.536L30.056,47.536z" style="fill: rgb(255, 255, 255);"/>
    </g>
  </g>
</svg>