<svg width="35" height="16" viewBox="0 0 35 16" fill="none" xmlns="http://www.w3.org/2000/svg">
<path d="M18.3591 12.8245C18.3591 12.9213 18.2786 13 18.1796 13C18.0805 13 18 12.9213 18 12.8245V7.08775C18 6.51286 18.2415 5.98638 18.6254 5.6112C19.0093 5.23601 19.548 5 20.1362 5H21.87C22.4582 5 22.9907 5.23601 23.3746 5.6112C23.7585 5.98638 24 6.50681 24 7.08169V8.29803C24 8.87292 23.7585 9.39939 23.3746 9.77458C22.9907 10.1498 22.452 10.3858 21.8638 10.3858H19.4118C19.3127 10.3858 19.2322 10.3071 19.2322 10.2103C19.2322 10.1135 19.3127 10.0348 19.4118 10.0348H21.8638C22.3529 10.0348 22.7988 9.84115 23.1207 9.52647C23.4365 9.21785 23.6347 8.78215 23.6347 8.30408V7.08775C23.6347 6.60968 23.4365 6.17398 23.1207 5.8593C22.7988 5.54463 22.3591 5.35098 21.87 5.35098H20.1362C19.6471 5.35098 19.2012 5.54463 18.8793 5.8593C18.5573 6.17398 18.3591 6.60968 18.3591 7.08775V12.8245Z" fill="black"/>
<path d="M24.1877 5.32402C24.0841 5.32402 24 5.2514 24 5.16201C24 5.07263 24.0841 5 24.1877 5H24.9773C25.2621 5 25.5146 5.10056 25.7023 5.25698C25.89 5.41899 26 5.63687 26 5.88268V9.83799C26 9.92737 25.9159 10 25.8123 10C25.7087 10 25.6246 9.92737 25.6246 9.83799V5.88268C25.6246 5.72626 25.5534 5.58659 25.4304 5.48603C25.3139 5.38547 25.1521 5.32402 24.9709 5.32402H24.1877Z" fill="black"/>
<path d="M25.3639 3.94199L25.0583 3.63812C24.9806 3.56077 24.9806 3.43923 25.0583 3.36188L25.3639 3.05801C25.4361 2.98066 25.5639 2.98066 25.6361 3.05801L25.9417 3.36188C26.0194 3.43923 26.0194 3.56077 25.9417 3.63812L25.6361 3.94199C25.5583 4.01934 25.4361 4.01934 25.3639 3.94199Z" fill="black"/>
<path d="M27.1786 5.26728C27.0801 5.26728 27 5.20737 27 5.13364C27 5.05991 27.0801 5 27.1786 5H27.9176C28.1332 5 28.3426 5.03226 28.5335 5.09217C28.7306 5.15207 28.9092 5.23963 29.057 5.35484L30.7937 6.65438C30.8676 6.71429 30.9723 6.74194 31.0708 6.74194C31.1755 6.74194 31.2741 6.71429 31.348 6.65438L33.0785 5.35945C33.2325 5.24885 33.4111 5.15668 33.602 5.09677C33.7991 5.03687 34.0085 5.00461 34.2179 5.00461H34.8214C34.9199 5.00461 35 5.06452 35 5.13825C35 5.21198 34.9199 5.27189 34.8214 5.27189H34.2179C34.0516 5.27189 33.8853 5.29493 33.7375 5.34101C33.5897 5.3871 33.448 5.45622 33.331 5.54378L31.6066 6.8341C31.4588 6.9447 31.2679 7 31.0708 7C30.8737 7 30.6828 6.9447 30.535 6.8341L28.8045 5.53917C28.6875 5.45161 28.5458 5.37788 28.398 5.33641C28.244 5.29032 28.0839 5.26728 27.9176 5.26728H27.1786Z" fill="black"/>
<path d="M27.1786 9.99312C27.0801 9.99312 27 9.90367 27 9.79358C27 9.68349 27.0801 9.59404 27.1786 9.59404H27.9176C28.0839 9.59404 28.2502 9.55963 28.398 9.49083C28.5458 9.42202 28.6875 9.31881 28.8045 9.18807L30.535 7.24771C30.6828 7.08257 30.8737 7 31.0708 7C31.2679 7 31.4588 7.08257 31.6066 7.24771L33.331 9.18119L33.3372 9.18807C33.4542 9.31193 33.5897 9.41514 33.7375 9.48394C33.8853 9.55275 34.0516 9.58716 34.2179 9.58716H34.8214C34.9199 9.58716 35 9.67661 35 9.7867C35 9.89679 34.9199 9.98624 34.8214 9.98624H34.2179C34.0023 9.98624 33.7929 9.93807 33.602 9.84862C33.4111 9.75917 33.2386 9.63532 33.0908 9.47018L33.0785 9.4633L31.3541 7.52982C31.2741 7.44725 31.1755 7.39908 31.0708 7.39908C30.9723 7.39908 30.8676 7.44037 30.7937 7.52982L29.057 9.47018C28.903 9.6422 28.7244 9.77294 28.5335 9.86239C28.3364 9.95184 28.127 10 27.9176 10H27.1786V9.99312Z" fill="black"/>
<path d="M12.01 11.95C11.41 11.95 10.84 11.71 10.41 11.29L8.1 8.97003C7.94 8.81003 7.66 8.81003 7.49 8.97003L5.17 11.29C4.74 11.72 4.17 11.96 3.57 11.96H3.12L6.05 14.88C6.96 15.8 8.45 15.8 9.36 14.88L12.29 11.95H12.01ZM14.72 6.21003L12.95 4.43003C12.91 4.45003 12.87 4.46003 12.82 4.46003H12.01C11.59 4.46003 11.19 4.63003 10.89 4.92003L8.58 7.24003C8.37 7.45003 8.08 7.56003 7.8 7.56003C7.52 7.56003 7.23 7.45003 7.01 7.24003L4.7 4.92003C4.4 4.62003 4 4.46003 3.58 4.46003H2.59C2.55 4.46003 2.51 4.45003 2.47 4.44003L0.69 6.21003C-0.23 7.12003 -0.23 8.61003 0.69 9.52003L2.47 11.3C2.51 11.29 2.55 11.28 2.59 11.28H3.58C4 11.28 4.4 11.11 4.7 10.82L7.02 8.50003C7.44 8.08003 8.17 8.08003 8.59 8.50003L10.9 10.81C11.2 11.1 11.6 11.27 12.02 11.27H12.83C12.88 11.27 12.92 11.28 12.96 11.3L14.73 9.52003C15.63 8.61003 15.63 7.12003 14.72 6.21003ZM3.58 3.77003C4.19 3.77003 4.75 4.01003 5.18 4.43003L7.5 6.76003C7.67 6.93003 7.94 6.93003 8.11 6.76003L10.42 4.45003C10.85 4.02003 11.42 3.79003 12.02 3.79003H12.3L9.36 0.850034C8.45 -0.0699658 6.96 -0.0699658 6.05 0.850034L3.12 3.77003H3.58Z" fill="black"/>
</svg>
