<svg width="25" height="24" viewBox="0 0 25 24" fill="none" xmlns="http://www.w3.org/2000/svg">
<path fill-rule="evenodd" clip-rule="evenodd" d="M3.48516 2.13659C3.55181 2.23969 6.71796 13.0463 7.04172 14.1732C7.14408 14.4993 7.14408 14.3698 6.91317 14.8326C6.48705 15.7294 6.32517 16.8035 6.94649 17.626C7.49879 18.3813 8.61289 18.645 9.55797 18.5779C10.1103 18.5443 10.6649 18.4748 11.2315 18.4484C11.7838 18.3813 12.3313 18.3453 12.8979 18.2925C15.2118 18.1295 19.0659 17.8226 21.4132 17.8993C21.8798 17.8993 22.4987 18.0216 22.7487 17.4653C23.0177 16.9498 22.7153 16.4463 22.3226 16.2832C21.6084 15.9835 14.7524 16.4799 13.8073 16.5542C12.7003 16.6213 11.5862 16.7172 10.4816 16.8203C9.92934 16.8539 9.37467 16.9498 8.8081 16.8539C8.02489 16.7244 8.15344 16.4247 8.34865 15.7653C10.1436 15.4944 11.979 15.3361 13.7954 15.0988C15.6236 14.8686 17.4472 14.6696 19.2421 14.4058C20.1539 14.3027 21.0704 14.2092 21.9821 14.0797C23.1557 13.9574 23.1224 13.5234 23.351 12.4013L24.8221 4.64702C24.8959 4.25379 25.0911 3.69512 24.9507 3.33545C24.8483 2.97579 24.5603 2.67608 24.1342 2.61613C23.8699 2.549 21.5893 2.58257 21.0966 2.58257H8.90332C7.89158 2.58257 6.84413 2.61613 5.83953 2.58257C5.71812 2.1198 5.90143 2.70485 5.73717 2.22291C5.57529 1.71938 5.4396 1.23744 5.27772 0.73391C5.08251 0.141669 4.5826 0.0193845 4.07077 0.0193845C3.40898 0.0193845 2.76861 0.0193845 2.11395 0.0193845C1.56166 0.0193845 0.811783 -0.0885137 0.421371 0.249567C-0.233284 0.743501 -0.0999724 1.75055 0.649905 2.08863C1.06174 2.23969 2.86383 2.07664 3.48516 2.13659ZM20.0563 19.4339C18.9493 19.5418 17.9971 20.4937 18.1328 21.7309C18.2613 22.8458 19.2183 23.8097 20.48 23.6683C21.5655 23.5388 22.4701 22.5797 22.3702 21.3377C22.244 20.2635 21.2989 19.2996 20.0563 19.4339ZM7.82254 19.4339C6.77033 19.5969 5.89905 20.6159 6.09425 21.9083C6.25613 22.9609 7.26787 23.8793 8.54385 23.6491C9.55559 23.486 10.4673 22.5006 10.2721 21.2082C10.1103 20.1556 9.13185 19.2372 7.82254 19.4339ZM6.45372 4.71415L7.46546 8.1597L11.6767 8.11894C11.7433 8.08537 11.71 8.08537 11.71 7.96309C11.71 7.40681 11.7433 4.89878 11.71 4.69977C11.6076 4.6662 7.04648 4.69977 6.52037 4.69977C6.37992 4.71415 6.48705 4.67819 6.45372 4.71415ZM22.6344 4.80767C22.6677 4.73334 22.6677 4.7669 22.6344 4.69977H18.0661C18.0328 4.86281 18.0661 7.42599 18.0661 7.92233V8.08537C18.0661 8.11894 18.0661 8.11894 18.0994 8.1597H21.9798L22.6344 4.80767ZM21.7845 9.28184C21.7845 9.24827 21.8179 9.28184 21.7845 9.15237C21.656 9.15237 18.228 9.1188 18.0661 9.18593C18.0328 9.31541 18.0661 11.6268 18.0661 12.0201C18.0661 12.0872 18.0661 12.1423 18.0661 12.2167C18.0661 12.4133 18.0328 12.3797 18.0994 12.4133L21.2632 12.0201L21.7845 9.28184ZM17.0282 12.5284C17.102 12.4948 17.0686 12.5619 17.102 12.454V9.17874C16.9734 9.14517 12.9598 9.10441 12.7217 9.14517V13.0463L17.0282 12.5284ZM17.0544 8.1597C17.0877 8.08537 17.0877 8.1597 17.0877 7.96309C17.0544 7.40681 17.0877 4.89878 17.0544 4.69977H12.7146C12.6479 4.89638 12.6813 7.29652 12.6813 7.92233C12.6813 7.99666 12.6813 8.08537 12.7146 8.1597H17.0544ZM9.0652 13.4875L11.71 13.1878V9.14517L7.79636 9.17874L9.0652 13.4875Z" fill="#2D8A7A"/>
</svg>
