<svg width="17" height="15" viewBox="0 0 17 15" fill="none" xmlns="http://www.w3.org/2000/svg">
<path fill-rule="evenodd" clip-rule="evenodd" d="M7.733 1.9526C4.75434 2.15067 2.27084 5.03792 3.09359 8.38988C3.24596 9.06027 3.61162 9.7916 4.023 10.3096C4.04585 10.3553 4.15251 10.462 4.15251 10.5077L3.37546 12.5798C3.35261 12.6484 3.29166 12.7931 3.29166 12.8388C3.26881 12.9455 3.36023 13.0369 3.46688 13.0141C3.51259 13.0141 5.6228 12.0389 5.90467 11.9094C6.03417 11.8409 6.03417 11.8866 6.14083 11.9323C7.09309 12.3208 8.19009 12.4275 9.22615 12.2142C10.026 12.0389 10.6279 11.719 11.1688 11.3305C11.7096 10.9648 12.2048 10.4011 12.5476 9.83731C13.8427 7.74234 13.4085 5.0684 11.8315 3.50669C11.5725 3.24767 11.3973 3.09531 11.0773 2.85915C10.8031 2.6687 10.5212 2.51634 10.1708 2.36398C9.43946 2.04402 8.63956 1.89166 7.733 1.9526ZM3.63448 2.30303C3.84778 2.08973 4.22107 1.80786 4.45723 1.6555C4.56388 1.5717 4.6553 1.50313 4.76195 1.44219C4.9905 1.32792 5.18857 1.22127 5.42473 1.11461C7.45114 0.185207 9.95748 0.398513 11.7706 1.6555C12.2277 1.93737 12.3724 2.08973 12.7457 2.43254C12.7686 2.47825 12.8295 2.51634 12.8752 2.56205C13.1571 2.79821 13.5456 3.33909 13.7361 3.68191C14.8788 5.56357 15.0768 7.93279 14.0408 10.0506C13.698 10.721 13.3094 11.239 12.7914 11.7799C12.6162 11.978 12.4486 12.1075 12.2505 12.2522C11.7554 12.6865 10.9555 13.1359 10.3308 13.334C10.0946 13.4178 9.78989 13.5321 9.55373 13.5702C9.46993 13.395 9.42422 13.334 9.29471 13.2274C8.90619 12.8845 8.38816 12.9912 7.76348 12.9912C7.3521 12.9912 7.11594 13.0598 6.90263 13.2959C6.44555 13.7682 6.53697 14.5072 7.11594 14.8729C7.42066 15.0481 7.78633 15.0024 8.17485 15.0024C8.58623 15.0024 8.8681 15.0481 9.18806 14.8272C9.38613 14.6976 9.55373 14.4615 9.62229 14.2253C9.668 14.0273 9.59943 14.1187 9.92701 14.0273C11.763 13.5321 12.6695 12.755 13.7894 11.46C13.9646 11.2619 14.4141 10.5306 14.5436 10.2487C14.7569 9.75351 14.6731 9.88302 14.8864 9.79161C16.6995 8.99171 16.6995 5.10649 14.7569 4.41324C14.6883 4.39039 14.7112 4.39039 14.6731 4.30659C14.475 3.8495 14.2388 3.44574 13.957 3.03437C13.8503 2.85915 13.3704 2.28018 13.2409 2.17353C13.1723 2.12782 13.0885 2.04402 13.0428 1.97546C12.9742 1.89166 12.8904 1.84595 12.8295 1.77739C11.9458 0.977487 10.8031 0.413749 9.62991 0.154734C7.47399 -0.309969 5.12 0.29186 3.50497 1.69359C3.35261 1.82309 3.24596 1.91451 3.09359 2.08211C3.07074 2.10496 3.02503 2.15067 3.00218 2.17353C2.74316 2.38683 2.20228 3.11817 2.03468 3.42289C1.88232 3.68191 1.69187 4.04757 1.56236 4.32944C1.53951 4.41324 1.53951 4.398 1.44809 4.4361C1.05957 4.54275 0.762462 4.87033 0.564392 5.15219C0.130162 5.77688 -0.105999 6.79008 0.0463627 7.71949C0.198724 8.64889 0.610101 9.38023 1.23478 9.73066C1.36429 9.79922 1.69187 9.92873 1.83661 9.86017C1.92041 9.83731 1.98897 9.75351 1.98897 9.62401C1.98897 9.55544 1.92041 9.4107 1.90517 9.31928C1.28049 7.56713 1.44809 5.67022 2.2937 4.04757C2.63651 3.36195 3.07074 2.85915 3.63448 2.30303Z" fill="#028575"/>
</svg>
