<?xml version="1.0" encoding="utf-8"?>
<svg viewBox="57.4802 6.3503 32.0001 32.0001" xmlns="http://www.w3.org/2000/svg">
  <g id="Layer_1_1_" transform="matrix(0.06722700595855713, 0, 0, 0.06722700595855713, 56.270145416259766, 5.1402058601379395)">
    <path d="M494,256c0,131.4-106.6,238-238,238S18,387.4,18,256S124.6,18,256,18S494,124.6,494,256z" style="fill: rgb(4, 155, 138);"/>
  </g>
  <g id="Layer_2" transform="matrix(0.06722700595855713, 0, 0, 0.06722700595855713, 56.270145416259766, 5.1402058601379395)">
    <path d="M247.9,286.9" fill="none" stroke="#D81B60" stroke-linejoin="round" stroke-miterlimit="10" stroke-width="16"/>
    <g>
      <path d="M288,185.9h63.5    c5.7,0,10.3,4.6,10.3,10.3v166c0,5.7-4.6,10.3-10.3,10.3H160.5c-5.7,0-10.3-4.6-10.3-10.3v-166c0-5.7,4.6-10.3,10.3-10.3H224" fill="none" stroke="#FFFFFF" stroke-linecap="round" stroke-miterlimit="10" stroke-width="16"/>
      <path d="M324,247" fill="none" stroke="#FFFFFF" stroke-miterlimit="10" stroke-width="16"/>
      <g>
        <polyline fill="none" points="324,247      256,311.5 188,247    " stroke="#FFFFFF" stroke-linecap="round" stroke-miterlimit="10" stroke-width="16"/>
        <line fill="none" stroke="#FFFFFF" stroke-linecap="round" stroke-miterlimit="10" stroke-width="16" x1="256" x2="256" y1="311.5" y2="139.4"/>
      </g>
    </g>
  </g>
</svg>