<svg width="15" height="23" viewBox="0 0 15 23" fill="none" xmlns="http://www.w3.org/2000/svg">
<path fill-rule="evenodd" clip-rule="evenodd" d="M13.8604 20.751C13.7204 20.551 13.5504 20.351 13.3504 20.151L12.5604 19.211C12.4504 19.101 12.3604 19.041 12.2804 18.931L9.59043 15.871C9.39043 16.101 8.88043 17.061 8.37043 17.031C7.97043 17.001 7.69043 16.121 7.38043 15.561C6.84043 14.481 6.30043 13.351 5.79043 12.241C5.48043 11.621 3.52043 7.70097 3.38043 7.25097C3.12043 6.34097 4.15044 6.54097 5.08044 6.54097C5.08044 6.20097 4.12044 2.17097 3.97044 1.49097C3.94044 1.32097 3.71043 0.300974 3.66043 0.240974C3.49043 0.0709741 0.940435 0.640974 0.340435 1.49097C-0.309565 2.40097 0.140435 5.80098 0.310435 7.05098C0.710435 9.88098 2.07044 13.851 3.63043 16.121C4.11043 16.801 4.51043 17.281 4.96043 17.881C5.22043 18.161 5.44043 18.421 5.70043 18.701L6.47044 19.491C7.43044 20.431 8.88043 21.471 10.0104 22.131C11.0304 22.731 11.8004 22.901 12.8204 22.071C13.1304 21.831 13.7204 21.171 13.8604 20.751ZM5.64044 6.55098C6.29044 6.35098 6.89044 5.98097 6.72044 5.16097L5.84043 0.940975C5.70043 0.230975 5.58044 -0.109025 4.22044 0.030975L5.64044 6.55098ZM9.95043 15.391L14.2304 20.321C14.5404 20.181 15.4204 19.331 14.6304 18.531L11.9704 15.531C11.7404 15.251 11.6004 14.931 11.0104 14.991C10.6904 15.021 10.1504 15.251 9.95043 15.391Z" fill="#1A1618"/>
</svg>
