<svg width="27" height="28" viewBox="0 0 27 28" fill="none" xmlns="http://www.w3.org/2000/svg">
<g clip-path="url(#clip0_60_306)">
<path fill-rule="evenodd" clip-rule="evenodd" d="M22.0482 0C22.7892 0 23.3911 0.610677 23.3911 1.36263C23.3911 2.11458 22.7892 2.72526 22.0482 2.72526C21.3071 2.72526 20.7052 2.11458 20.7052 1.36263C20.7075 0.610677 21.3071 0 22.0482 0ZM22.4075 11.8672C23.5662 13.6217 25.0327 14.1595 26.937 12.9723C26.9999 13.6331 27.0156 14.3076 26.982 14.9912C26.6069 22.5472 20.2673 28.3646 12.8206 27.984C5.37612 27.6012 -0.357144 21.1686 0.017887 13.6149C0.390672 6.05892 6.95035 0.177734 14.3948 0.558268C13.7346 2.65462 14.2938 4.51628 15.9736 5.14974C14.451 10.1126 17.851 13.3597 22.4075 11.8672ZM6.74375 10.8896C7.85986 10.8896 8.76263 11.8079 8.76263 12.9382C8.76263 14.0684 7.85761 14.9867 6.74375 14.9867C5.62764 14.9867 4.72487 14.0684 4.72487 12.9382C4.72487 11.8079 5.62988 10.8896 6.74375 10.8896ZM13.1036 13.501C13.7458 13.501 14.2668 14.0296 14.2668 14.6813C14.2668 15.333 13.7458 15.8617 13.1036 15.8617C12.4613 15.8617 11.9403 15.333 11.9403 14.6813C11.938 14.0296 12.459 13.501 13.1036 13.501ZM8.05523 18.3636C8.83898 18.3636 9.47451 19.0085 9.47451 19.8037C9.47451 20.599 8.83898 21.2438 8.05523 21.2438C7.27148 21.2438 6.63595 20.599 6.63595 19.8037C6.63595 19.0062 7.27148 18.3636 8.05523 18.3636ZM11.1139 7.34408C11.7292 7.34408 12.2255 7.84993 12.2255 8.472C12.2255 9.09635 11.7269 9.59993 11.1139 9.59993C10.4985 9.59993 10.0022 9.09408 10.0022 8.472C10.0022 7.84993 10.5008 7.34408 11.1139 7.34408ZM17.1548 18.8672C18.1856 18.8672 19.0187 19.7148 19.0187 20.7585C19.0187 21.8044 18.1833 22.6497 17.1548 22.6497C16.124 22.6497 15.2909 21.8021 15.2909 20.7585C15.2909 19.7148 16.1263 18.8672 17.1548 18.8672ZM21.0803 5.26367C21.7719 5.26367 22.3334 5.83333 22.3334 6.53516C22.3334 7.23698 21.7719 7.80664 21.0803 7.80664C20.3886 7.80664 19.8272 7.23698 19.8272 6.53516C19.8272 5.83333 20.3886 5.26367 21.0803 5.26367Z" fill="black"/>
</g>
<defs>
<clipPath id="clip0_60_306">
<rect width="27" height="28" fill="white"/>
</clipPath>
</defs>
</svg>
