<?xml version="1.0" encoding="utf-8"?>
<svg viewBox="198.322 160.254 36.31 36.31" xmlns="http://www.w3.org/2000/svg">
  <defs>
    <clipPath id="clip0_203_252">
      <rect width="16.7" height="21.78" fill="white"/>
    </clipPath>
  </defs>
  <path fill-rule="evenodd" clip-rule="evenodd" d="M 216.462 160.254 C 226.492 160.254 234.632 168.394 234.632 178.394 C 234.632 188.424 226.492 196.564 216.462 196.564 C 206.452 196.564 198.322 188.424 198.322 178.394 C 198.322 168.384 206.452 160.254 216.462 160.254 Z" fill="#049B8A" transform="matrix(1, 0, 0, 1, -7.105427357601002e-15, 0)"/>
  <g clip-path="url(#clip0_203_252)" transform="matrix(1.197780966758728, 0, 0, 0.9182960391044617, 206.47406005859372, 168.40899658203125)">
    <path fill-rule="evenodd" clip-rule="evenodd" d="M6.62 4.53999C7.19 4.47999 7.33 4.30999 8.32 4.30999C8.6 4.27999 8.97 4.30999 9.26 4.36999C9.52 4.42999 9.83 4.50999 10.08 4.53999C10.17 4.27999 10.25 3.91999 10.36 3.62999C10.64 2.68999 10.9 1.75999 11.21 0.79999C11.32 0.42999 11.21 0.11999 10.9 0.0299898C10.59 -0.0500102 10.22 0.19999 10 0.31999C9.77 0.42999 8.44 1.16999 8.35 1.16999C8.04 1.16999 6.31 -0.0800102 5.86 -1.01561e-05C5.52 0.0899898 5.37 0.39999 5.49 0.76999C5.66 1.38999 5.86 2.01999 6.06 2.63999C6.14 2.94999 6.23 3.28999 6.34 3.59999C6.42 3.88999 6.57 4.27999 6.62 4.53999ZM7.67 5.04999C3.62 5.66999 0.869999 10.58 0.189999 14.29C-0.350001 17.1 0.279999 19.25 2.03 20.44C3.82 21.63 6.51 21.83 9.12 21.77C11.42 21.71 13.83 21.37 15.47 19.76C17 18.26 16.92 15.48 16.26 13.13C15.66 10.98 14.53 8.98999 13.37 7.65999C12.29 6.43999 10.22 4.64999 7.67 5.04999ZM7.7 9.46999C7.3 9.63999 6.76 9.63999 6.23 10.41C5.89 10.89 5.72 11.63 5.89 12.31C6.03 12.91 6.49 13.36 6.97 13.64C7.45 13.95 8.27 14.32 8.56 14.49C8.82 14.66 9.04 14.86 8.99 15.28C8.88 15.99 7.74 15.79 7.26 15.59C7 15.48 6.66 15.16 6.38 15.33C6.18 15.42 5.98 15.81 5.84 16.01C5.41 16.66 5.95 16.92 6.72 17.2L7.46 17.4C7.49 17.4 7.55 17.4 7.57 17.43C7.68 17.46 7.63 17.43 7.71 17.46C7.74 18.25 7.54 18.68 8.45 18.68C9.27 18.68 9.07 18.11 9.1 17.38C9.78 17.18 10.15 16.95 10.49 16.53C10.83 16.1 11.06 15.42 11 14.72C10.83 12.96 8.48 12.68 7.94 12.03C7.61 11.6 7.95 10.86 9 11.14C9.34 11.25 9.6 11.51 9.85 11.51C10.13 11.48 10.33 11.14 10.47 11C10.98 10.43 10.7 10.12 9.93 9.71999C9.63 9.58999 9.37 9.55999 9.09 9.43999C9.06 8.67999 9.26 8.19999 8.41 8.19999C7.47 8.21999 7.73 8.67999 7.7 9.46999Z" style="fill: rgb(255, 255, 255);"/>
  </g>
</svg>