<svg width="16" height="19" viewBox="0 0 16 19" fill="none" xmlns="http://www.w3.org/2000/svg">
<path fill-rule="evenodd" clip-rule="evenodd" d="M0 3.43H1.36V0.28C1.36 0.11 1.5 0 1.64 0H11.02C11.11 0 11.19 0.03 11.22 0.09L15.76 4.57H15.79V4.6H15.82V4.63V4.66V4.69H15.85V4.72V4.75V18.53C15.85 18.67 15.74 18.81 15.57 18.81H1.64C1.5 18.81 1.36 18.67 1.36 18.53V7.97H0V3.43ZM1.7 6.72V4.68H2.13C2.44 4.68 2.67 4.71 2.78 4.74C2.92 4.77 3.04 4.8 3.12 4.88C3.26 4.97 3.35 5.08 3.43 5.22C3.49 5.36 3.51 5.53 3.51 5.7C3.51 5.87 3.49 6.04 3.43 6.18C3.34 6.32 3.26 6.43 3.12 6.52C3.03 6.58 2.92 6.63 2.81 6.66C2.67 6.69 2.47 6.72 2.21 6.72H2.13H1.7ZM2.24 6.26H2.33C2.56 6.26 2.73 6.2 2.81 6.12C2.92 6.04 2.95 5.9 2.95 5.7C2.95 5.5 2.92 5.36 2.81 5.27C2.72 5.19 2.55 5.13 2.32 5.13H2.24V6.26ZM5.95 5.7C5.95 5.84 5.92 5.98 5.86 6.13C5.81 6.24 5.73 6.35 5.64 6.46C5.53 6.55 5.41 6.63 5.27 6.69C5.16 6.75 5.01 6.78 4.87 6.78C4.73 6.78 4.59 6.75 4.45 6.69C4.31 6.63 4.2 6.55 4.11 6.46C4 6.35 3.91 6.24 3.86 6.12C3.8 5.98 3.77 5.84 3.77 5.7C3.77 5.56 3.8 5.42 3.86 5.3C3.91 5.16 4 5.05 4.11 4.96C4.2 4.85 4.31 4.76 4.45 4.7C4.59 4.64 4.73 4.64 4.88 4.64C5.03 4.64 5.16 4.64 5.28 4.7C5.42 4.76 5.54 4.84 5.65 4.96C5.74 5.05 5.82 5.16 5.88 5.3C5.92 5.41 5.95 5.56 5.95 5.7ZM4.88 6.29C5.02 6.29 5.16 6.23 5.25 6.12C5.36 6.01 5.39 5.87 5.39 5.7C5.39 5.53 5.36 5.39 5.24 5.27C5.13 5.16 5.02 5.1 4.88 5.1C4.71 5.1 4.6 5.16 4.48 5.27C4.39 5.39 4.34 5.53 4.34 5.7C4.34 5.87 4.4 6.01 4.48 6.13C4.59 6.24 4.71 6.29 4.88 6.29ZM7.77 4.76V5.36C7.68 5.27 7.63 5.22 7.54 5.19C7.46 5.13 7.4 5.13 7.29 5.13C7.14 5.13 7 5.19 6.92 5.27C6.8 5.39 6.77 5.53 6.77 5.7C6.77 5.87 6.8 6.01 6.92 6.12C7.03 6.21 7.15 6.26 7.29 6.26C7.4 6.26 7.46 6.26 7.55 6.2C7.64 6.17 7.69 6.11 7.78 6.03V6.63C7.68 6.69 7.6 6.72 7.51 6.72C7.43 6.75 7.34 6.77 7.23 6.77C7.14 6.77 7.03 6.74 6.95 6.71C6.83 6.69 6.75 6.66 6.69 6.6C6.52 6.49 6.41 6.37 6.32 6.2C6.26 6.07 6.21 5.9 6.21 5.7C6.21 5.56 6.24 5.42 6.3 5.27C6.36 5.16 6.41 5.01 6.53 4.93C6.62 4.82 6.73 4.76 6.84 4.7C6.98 4.64 7.1 4.61 7.24 4.61C7.35 4.61 7.44 4.64 7.52 4.67C7.6 4.68 7.68 4.71 7.77 4.76ZM3.74 15.96H13.41V16.5H3.74H3.71V15.96H3.74ZM3.74 13.72H13.41V14.26V14.29H3.74L3.71 14.26V13.72H3.74ZM3.74 11.48H13.41V11.51V12.02C13.41 12.05 13.41 12.05 13.41 12.05H3.74C3.74 12.05 3.71 12.05 3.71 12.02V11.51L3.74 11.48ZM3.74 9.27H13.41V9.81H3.74H3.71V9.27H3.74ZM1.93 3.43H9.47V7.97H1.93V18.23H15.31V5.02H11.03C10.89 5.02 10.75 4.91 10.75 4.74V0.54H1.93V3.43ZM11.31 0.94V4.48H14.91L11.31 0.94Z" fill="#59C2B1"/>
</svg>
