<?xml version="1.0" encoding="utf-8"?>
<svg viewBox="231.845 231.845 36.31 36.31" xmlns="http://www.w3.org/2000/svg">
  <g transform="matrix(0.27598798274993896, 0, 0, 0.2502150237560272, 241.16845703125, 241.99317932128906)">
    <path d="M20.383,53.908c-1.787,0-3.548-0.54-5.048-1.534c0.409,0.021,0.854,0.033,1.329,0.033    c2.921,0,7.034-0.484,11.186-2.573l-0.76,0.93C25.457,52.763,23.013,53.908,20.383,53.908L20.383,53.908z" style="fill: rgb(239, 12, 12);"/>
    <path d="M30.056,47.536c-0.156,0-0.314,0.07-0.314,0.07l-0.013-0.025c-4.701,3.149-9.664,3.826-13.066,3.826    c-1.323,0-2.41-0.102-3.153-0.201l-0.009,0.017c0,0-0.751,0.129-0.293,0.693c0.238,0.236,0.485,0.467,0.75,0.684    c1.898,1.551,4.179,2.309,6.426,2.309c2.82,0,5.588-1.193,7.48-3.512l2.517-3.08c0.183-0.223,0.062-0.554-0.11-0.71    C30.212,47.554,30.134,47.536,30.056,47.536L30.056,47.536z" style="fill: rgb(239, 12, 12);"/>
  </g>
  <g transform="matrix(0.9999999999999999, 0, 0, 0.9999999999999999, -63.529998779296875, 35.666000366210945)">
    <path fill-rule="evenodd" clip-rule="evenodd" d="M 313.515 196.179 C 323.545 196.179 331.685 204.319 331.685 214.319 C 331.685 224.349 323.545 232.489 313.515 232.489 C 303.505 232.489 295.375 224.349 295.375 214.319 C 295.375 204.309 303.505 196.179 313.515 196.179 Z" fill="#049B8A"/>
  </g>
  <path fill-rule="evenodd" d="M 244.23 243.441 C 244.273 243.511 246.3 250.812 246.507 251.573 C 246.572 251.794 246.572 251.706 246.424 252.019 C 246.152 252.625 246.048 253.35 246.445 253.906 C 246.799 254.417 247.512 254.595 248.117 254.55 C 248.47 254.527 248.825 254.48 249.188 254.462 C 249.541 254.417 249.892 254.392 250.254 254.356 C 251.735 254.247 254.202 254.039 255.704 254.091 C 256.003 254.091 256.399 254.174 256.559 253.798 C 256.732 253.449 256.538 253.109 256.286 252.999 C 255.83 252.796 251.442 253.132 250.837 253.183 C 250.128 253.227 249.415 253.292 248.708 253.362 C 248.354 253.384 248 253.449 247.637 253.384 C 247.136 253.297 247.218 253.094 247.343 252.649 C 248.492 252.466 249.667 252.359 250.829 252.199 C 251.999 252.044 253.166 251.909 254.315 251.73 C 254.898 251.661 255.485 251.598 256.068 251.51 C 256.82 251.428 256.799 251.135 256.944 250.376 L 257.886 245.137 C 257.933 244.872 258.058 244.494 257.968 244.251 C 257.903 244.009 257.719 243.806 257.446 243.765 C 257.277 243.719 255.817 243.743 255.502 243.743 L 247.698 243.743 C 247.05 243.743 246.38 243.765 245.737 243.743 C 245.659 243.43 245.777 243.825 245.672 243.499 C 245.568 243.16 245.481 242.834 245.377 242.493 C 245.253 242.093 244.933 242.011 244.605 242.011 C 244.181 242.011 243.772 242.011 243.353 242.011 C 243 242.011 242.519 241.938 242.269 242.166 C 241.85 242.5 241.936 243.18 242.416 243.409 C 242.679 243.511 243.832 243.4 244.23 243.441 Z M 254.836 255.128 C 254.127 255.201 253.518 255.844 253.605 256.68 C 253.687 257.433 254.3 258.084 255.107 257.989 C 255.802 257.901 256.381 257.253 256.317 256.414 C 256.236 255.689 255.631 255.037 254.836 255.128 Z M 247.006 255.128 C 246.333 255.238 245.775 255.926 245.9 256.799 C 246.004 257.51 246.651 258.131 247.468 257.976 C 248.116 257.866 248.699 257.2 248.574 256.327 C 248.47 255.616 247.845 254.995 247.006 255.128 Z M 246.13 245.182 L 246.778 247.511 L 249.473 247.483 C 249.515 247.46 249.494 247.46 249.494 247.378 C 249.494 247.002 249.515 245.308 249.494 245.173 C 249.429 245.15 246.509 245.173 246.173 245.173 C 246.083 245.182 246.152 245.158 246.13 245.182 Z M 256.486 245.246 C 256.507 245.196 256.507 245.218 256.486 245.173 L 253.562 245.173 C 253.541 245.283 253.562 247.015 253.562 247.35 L 253.562 247.46 C 253.562 247.483 253.562 247.483 253.584 247.511 L 256.067 247.511 L 256.486 245.246 Z M 255.942 248.269 C 255.942 248.246 255.963 248.269 255.942 248.181 C 255.86 248.181 253.666 248.159 253.562 248.204 C 253.541 248.291 253.562 249.853 253.562 250.119 C 253.562 250.164 253.562 250.201 253.562 250.252 C 253.562 250.385 253.541 250.362 253.584 250.385 L 255.608 250.119 L 255.942 248.269 Z M 252.898 250.462 C 252.945 250.44 252.924 250.484 252.945 250.412 L 252.945 248.199 C 252.863 248.176 250.294 248.149 250.142 248.176 L 250.142 250.812 L 252.898 250.462 Z M 252.915 247.511 C 252.936 247.46 252.936 247.511 252.936 247.378 C 252.915 247.002 252.936 245.308 252.915 245.173 L 250.137 245.173 C 250.094 245.306 250.116 246.928 250.116 247.35 C 250.116 247.4 250.116 247.46 250.137 247.511 L 252.915 247.511 Z M 247.801 251.11 L 249.494 250.907 L 249.494 248.176 L 246.99 248.199 L 247.801 251.11 Z" style="fill: rgb(255, 255, 255);" transform="matrix(0.9999999999999999, 0, 0, 0.9999999999999999, 0, 0)"/>
</svg>