<svg width="29" height="29" viewBox="0 0 29 29" fill="none" xmlns="http://www.w3.org/2000/svg">
<g id="Group">
<path id="Vector" fill-rule="evenodd" clip-rule="evenodd" d="M14.5 0C22.5061 0 29 6.48957 29 14.5C29 22.5061 22.5061 29 14.5 29C6.48957 29 0 22.5061 0 14.5C0 6.48957 6.48957 0 14.5 0ZM14.5 1.87515C21.4735 1.87515 27.1248 7.52652 27.1248 14.5C27.1248 21.4735 21.4735 27.1248 14.5 27.1248C7.52652 27.1248 1.87515 21.4735 1.87515 14.5C1.87515 7.52652 7.52652 1.87515 14.5 1.87515Z" fill="white"/>
<path id="Vector_2" fill-rule="evenodd" clip-rule="evenodd" d="M15.537 14.5L9.65228 8.96961C8.9437 8.29991 8.90481 7.17223 9.57451 6.45933C10.2442 5.75075 11.3719 5.71186 12.0848 6.38156L19.3434 13.2038C19.715 13.5538 19.9008 13.9902 19.9008 14.4957C19.9008 15.0012 19.7107 15.4419 19.3434 15.7875L12.0848 22.6098C11.3719 23.2795 10.2485 23.2406 9.57451 22.532C8.90481 21.8191 8.9437 20.6958 9.65228 20.0261L15.537 14.5Z" fill="white" stroke="#221F20" stroke-width="0.5669" stroke-miterlimit="10" stroke-linecap="round" stroke-linejoin="round"/>
</g>
</svg>
