<svg width="23" height="19" viewBox="0 0 23 19" fill="none" xmlns="http://www.w3.org/2000/svg">
<g clip-path="url(#clip0_365_98)">
<path fill-rule="evenodd" clip-rule="evenodd" d="M2.35 0H19.73C21.01 0 22.08 1.08 22.08 2.35C22.08 3.65 21 4.7 19.73 4.7H2.35C1.08 4.71 0 3.66 0 2.35C0 1.08 1.08 0 2.35 0ZM2.35 13.97H19.73C21.01 13.97 22.08 15.05 22.08 16.35C22.08 17.63 21 18.7 19.73 18.7H2.35C1.08 18.71 0 17.63 0 16.36C0 15.05 1.08 13.97 2.35 13.97ZM2.35 7H19.73C21.01 7 22.08 8.05 22.08 9.35C22.08 10.65 21 11.7 19.73 11.7H2.35C1.08 11.71 0 10.66 0 9.35C0 8.04 1.08 7 2.35 7Z" fill="#221F20"/>
</g>
<defs>
<clipPath id="clip0_365_98">
<rect width="22.08" height="18.71" fill="white"/>
</clipPath>
</defs>
</svg>
