<?xml version="1.0" encoding="utf-8"?>
<svg viewBox="230.993 38.663 36.31 36.31" xmlns="http://www.w3.org/2000/svg">
  <path fill-rule="evenodd" clip-rule="evenodd" d="M 249.133 38.663 C 259.163 38.663 267.303 46.803 267.303 56.803 C 267.303 66.833 259.163 74.973 249.133 74.973 C 239.123 74.973 230.993 66.833 230.993 56.803 C 230.993 46.793 239.123 38.663 249.133 38.663 Z" fill="#049B8A" transform="matrix(1, 0, 0, 1, -7.105427357601002e-15, 0)"/>
  <path d="M 256.608 55.855 L 242.688 48.951 C 242.518 48.868 242.343 48.818 242.143 48.818 C 241.598 48.818 241.153 49.193 241.153 49.651 L 241.148 49.651 L 241.148 63.985 L 241.153 63.985 C 241.153 64.443 241.598 64.818 242.143 64.818 C 242.348 64.818 242.518 64.76 242.703 64.676 L 256.608 57.78 C 256.938 57.551 257.148 57.205 257.148 56.818 C 257.148 56.43 256.938 56.089 256.608 55.855 Z" style="fill: rgb(255, 255, 255);" transform="matrix(1, 0, 0, 1, -7.105427357601002e-15, 0)"/>
</svg>