<?xml version="1.0" encoding="utf-8"?>
<svg viewBox="231.845 231.845 36.31 36.31" xmlns="http://www.w3.org/2000/svg">
  <g transform="matrix(0.27598798274993896, 0, 0, 0.2502150237560272, 241.16845703125, 241.99317932128906)">
    <path d="M20.383,53.908c-1.787,0-3.548-0.54-5.048-1.534c0.409,0.021,0.854,0.033,1.329,0.033    c2.921,0,7.034-0.484,11.186-2.573l-0.76,0.93C25.457,52.763,23.013,53.908,20.383,53.908L20.383,53.908z" style="fill: rgb(239, 12, 12);"/>
    <path d="M30.056,47.536c-0.156,0-0.314,0.07-0.314,0.07l-0.013-0.025c-4.701,3.149-9.664,3.826-13.066,3.826    c-1.323,0-2.41-0.102-3.153-0.201l-0.009,0.017c0,0-0.751,0.129-0.293,0.693c0.238,0.236,0.485,0.467,0.75,0.684    c1.898,1.551,4.179,2.309,6.426,2.309c2.82,0,5.588-1.193,7.48-3.512l2.517-3.08c0.183-0.223,0.062-0.554-0.11-0.71    C30.212,47.554,30.134,47.536,30.056,47.536L30.056,47.536z" style="fill: rgb(239, 12, 12);"/>
  </g>
  <g transform="matrix(0.9999999999999999, 0, 0, 0.9999999999999999, -63.529998779296875, 35.666000366210945)">
    <path fill-rule="evenodd" clip-rule="evenodd" d="M 313.515 196.179 C 323.545 196.179 331.685 204.319 331.685 214.319 C 331.685 224.349 323.545 232.489 313.515 232.489 C 303.505 232.489 295.375 224.349 295.375 214.319 C 295.375 204.309 303.505 196.179 313.515 196.179 Z" fill="#049B8A"/>
  </g>
  <path fill-rule="evenodd" clip-rule="evenodd" d="M 252.575 248.352 C 251.929 251.449 248.081 251.449 247.441 248.352 C 247.441 248.104 247.155 247.978 246.894 247.948 C 246.604 247.604 246.505 247.199 246.534 246.766 L 246.847 246.686 C 246.957 245.82 247.257 245.19 247.816 244.892 C 249.16 245.741 250.856 245.741 252.2 244.892 C 252.76 245.19 253.06 245.82 253.17 246.686 L 253.483 246.766 C 253.506 247.199 253.411 247.603 253.122 247.948 C 252.861 247.976 252.575 248.102 252.575 248.352 Z M 247.446 251.814 L 247.725 250.279 C 247.731 250.238 247.754 250.204 247.783 250.174 C 246.79 249.242 247.265 248.417 246.594 248.367 C 246.196 247.984 245.511 246.542 246.304 246.307 C 246.138 245.555 246.11 244.802 246.237 244.05 C 246.916 241.317 253.097 241.317 253.778 244.05 C 253.907 244.802 253.878 245.555 253.71 246.307 C 254.503 246.542 253.82 247.984 253.421 248.367 C 252.746 248.417 253.231 249.249 252.209 250.195 L 252.289 250.325 L 252.422 251.973 L 256.607 253.498 C 256.935 253.683 257.195 253.855 257.386 254.461 L 258 258 L 242 258 L 242.699 254.272 C 242.821 253.882 243.173 253.601 243.582 253.412 L 247.459 251.925 C 247.446 251.891 247.441 251.852 247.446 251.814 Z M 248.086 250.659 L 247.881 251.798 L 249.992 254.302 L 252.001 251.86 L 251.897 250.733 C 250.748 251.515 249.269 251.425 248.086 250.659 Z" style="fill: rgb(255, 255, 255);" transform="matrix(0.9999999999999999, 0, 0, 0.9999999999999999, 0, 0)"/>
</svg>