<svg width="58" height="46" viewBox="0 0 58 46" fill="none" xmlns="http://www.w3.org/2000/svg">
<rect width="58" height="46" rx="5" fill="#03E3C1"/>
<path fill-rule="evenodd" clip-rule="evenodd" d="M34.8588 17.9613C34.8588 22.1743 31.433 25.5709 27.22 25.5709C23.0507 25.5709 19.6104 22.1888 19.6104 17.9613C19.6104 13.792 23.0361 10.3516 27.22 10.3516C31.433 10.3662 34.8588 13.792 34.8588 17.9613ZM26.7972 29.3611C29.4067 29.3611 30.6749 29.0259 32.9199 27.8305C33.503 27.5389 33.7509 27.2474 34.2465 26.9266C34.4069 27.1745 34.6255 27.4223 34.7421 27.7138C35.1212 28.8363 33.6634 28.501 35.4419 30.3233C35.6022 30.4545 35.6022 30.4836 35.7334 30.6586C35.9375 30.9064 37.06 31.9414 37.3807 32.3059C38.3283 33.3409 39.6111 34.6237 40.6024 35.615C40.6899 35.7462 40.7628 35.8191 40.894 35.9503C41.0252 36.0815 41.0544 36.1544 41.1856 36.2856C41.8416 36.9416 42.7162 38.0641 43.416 38.0641C44.1594 38.0641 44.1594 37.9766 44.6113 37.5247C45.1945 37.0291 46.7543 35.6588 46.9292 35.134C47.2208 34.1427 46.5502 33.6033 46.0254 33.1076C44.9904 32.0726 43.9991 30.9647 42.9641 29.9297L41.8124 28.778C41.652 28.6177 41.6083 28.5302 41.4334 28.3261C40.9815 27.8742 40.238 27.2474 39.859 26.7517C38.3283 24.7691 37.6286 25.7167 37.4245 25.7167C36.9726 25.7167 36.3894 25.3085 36.1854 24.9732C37.716 22.6553 38.4158 20.9643 38.4158 17.9904C38.4158 16.6638 37.9639 14.8562 37.4245 13.6462C37.1766 13.0631 37.0163 12.859 36.681 12.3634C36.1416 11.4887 36.1854 11.5762 35.5585 10.8764C34.6838 9.88515 33.3281 8.76266 32.1327 8.26701C31.3892 7.97545 30.9373 7.72763 30.1939 7.52354C27.5407 6.88211 24.8584 7.01331 22.4239 8.25243C21.797 8.54399 21.2722 8.87928 20.7328 9.28746C16.8406 12.1739 15.1933 17.1012 16.7239 21.7224C17.8756 25.2356 20.7766 28.0491 24.4065 28.9967C25.1062 29.2008 25.8934 29.3611 26.7972 29.3611Z" fill="white"/>
</svg>
