<svg width="60" height="60" viewBox="0 0 60 60" fill="none" xmlns="http://www.w3.org/2000/svg">
<path fill-rule="evenodd" clip-rule="evenodd" d="M30.0287 60C46.59 60 60 46.5996 60 30.0287C60 13.4579 46.59 0 30.0287 0C13.4674 0 0 13.4674 0 30.0287C0 46.59 13.4674 60 30.0287 60ZM18.7548 24.8084C21.3985 24.8084 23.4579 22.682 23.4579 20.1054C23.4579 17.5287 21.3985 15.4023 18.7548 15.4023C16.1782 15.4023 14.1188 17.5287 14.1188 20.1054C14.1092 22.682 16.1782 24.8084 18.7548 24.8084ZM14.7605 38.8602C13.8602 38.0843 13.7261 36.8008 14.4349 35.9004C15.1437 35 16.4368 34.8659 17.3372 35.5747C21.3985 38.7931 25.4598 40.4119 29.6456 40.4119C33.7739 40.4119 38.0843 38.8027 42.5958 35.5172C43.5632 34.8755 44.8467 35.067 45.4981 35.9674C46.2069 36.9349 46.0153 38.2184 45.0479 38.9272C39.8276 42.7299 34.6743 44.6648 29.6456 44.6648C24.4923 44.6648 19.5307 42.6628 14.7605 38.8602ZM41.3697 24.8084C43.9464 24.8084 46.0728 22.682 46.0728 20.1054C46.0728 17.5287 43.9464 15.4023 41.3697 15.4023C38.7931 15.4023 36.6667 17.5287 36.6667 20.1054C36.6667 22.682 38.7931 24.8084 41.3697 24.8084Z" fill="#008F7F"/>
</svg>
