<svg width="40" height="39" viewBox="0 0 40 39" fill="none" xmlns="http://www.w3.org/2000/svg">
<path fill-rule="evenodd" clip-rule="evenodd" d="M20.443 0C31.231 0 39.9702 8.73919 39.9702 19.5272C39.9702 30.2608 31.231 39 20.443 39C9.70942 39 0.970243 30.2608 0.970243 19.5272C0.952112 8.73919 9.69129 0 20.443 0ZM18.6299 22.5551V15.774L23.761 19.1646L18.6299 22.5551ZM29.3817 15.9372C29.3817 14.4505 28.2031 13.272 26.7164 13.272H14.1697C12.6829 13.272 11.5044 14.4505 11.5044 15.9372V23.0809C11.5044 24.5676 12.6829 25.8005 14.1697 25.8005H26.7164C28.2031 25.8005 29.3817 24.5676 29.3817 23.0809V15.9372Z" fill="white"/>
</svg>
