<?xml version="1.0" encoding="utf-8"?>
<svg viewBox="216.8191 195.2723 21.3152 19.6677" xmlns="http://www.w3.org/2000/svg">
  <path fill-rule="evenodd" clip-rule="evenodd" d="M 221.59 198.303 C 221.87 198.023 222.36 197.653 222.67 197.423 C 222.81 197.333 222.93 197.253 223.07 197.163 C 223.38 197.023 223.64 196.853 223.95 196.713 C 226.61 195.523 229.9 195.773 232.28 197.423 C 232.88 197.823 233.07 198.023 233.56 198.443 C 233.59 198.503 233.67 198.583 233.73 198.613 C 234.1 198.953 234.61 199.663 234.86 200.113 C 236.36 202.553 236.62 205.693 235.26 208.443 C 234.81 209.353 234.3 210.033 233.62 210.743 C 233.39 210.973 233.17 211.173 232.91 211.363 C 232.26 211.903 231.21 212.493 230.39 212.783 C 230.08 212.873 229.68 213.013 229.37 213.063 C 229.26 212.863 229.2 212.783 229.03 212.633 C 228.52 212.153 227.84 212.293 227.02 212.293 C 226.48 212.293 226.17 212.403 225.89 212.693 C 225.29 213.343 225.41 214.313 226.17 214.763 C 226.57 214.993 227.05 214.933 227.56 214.933 C 228.1 214.933 228.47 214.993 228.89 214.733 C 229.15 214.563 229.37 214.253 229.46 213.943 C 229.52 213.683 229.43 213.803 229.86 213.663 C 232.27 213.043 233.46 212.023 234.93 210.323 C 235.16 210.043 235.75 209.073 235.92 208.703 C 236.2 208.053 236.09 208.253 236.37 208.103 C 238.75 207.083 238.75 201.953 236.2 201.073 C 236.11 201.043 236.14 201.013 236.09 200.933 C 235.83 200.333 235.52 199.803 235.15 199.263 C 234.99 199.033 234.37 198.273 234.2 198.133 C 234.11 198.043 234 197.933 233.94 197.853 C 233.85 197.763 233.74 197.683 233.66 197.593 C 232.5 196.573 231 195.833 229.46 195.493 C 226.63 194.843 223.54 195.663 221.42 197.503 C 221.22 197.673 221.08 197.793 220.88 197.993 C 220.85 198.043 220.79 198.073 220.76 198.133 C 220.42 198.413 219.71 199.373 219.49 199.743 C 219.29 200.113 219.03 200.573 218.86 200.963 C 218.84 201.083 218.84 201.053 218.72 201.083 C 218.21 201.253 217.82 201.643 217.56 202.013 C 216.99 202.863 216.68 204.163 216.88 205.413 C 217.08 206.633 217.62 207.593 218.44 208.053 C 218.61 208.143 219.04 208.313 219.23 208.223 C 219.34 208.163 219.43 208.053 219.43 207.913 C 219.43 207.803 219.34 207.603 219.32 207.483 C 218.5 205.213 218.72 202.723 219.83 200.593 C 220.28 199.663 220.85 199.013 221.59 198.303 Z" fill="black"/>
  <path fill-rule="evenodd" clip-rule="evenodd" d="M 226.97 197.823 C 223.06 198.073 219.8 201.873 220.88 206.293 C 221.08 207.173 221.56 208.133 222.1 208.783 C 222.13 208.843 222.27 208.983 222.27 209.043 L 221.25 211.793 C 221.22 211.853 221.14 212.053 221.14 212.133 C 221.1 212.273 221.22 212.363 221.36 212.363 C 221.42 212.363 224.19 211.063 224.56 210.893 C 224.73 210.803 224.73 210.863 224.87 210.953 C 226.12 211.463 227.56 211.573 228.92 211.293 C 229.97 211.063 230.76 210.643 231.47 210.133 C 232.18 209.653 232.83 208.913 233.28 208.203 C 234.98 205.453 234.41 201.943 232.34 199.893 C 232 199.553 231.77 199.323 231.35 199.043 C 230.98 198.783 230.61 198.563 230.16 198.363 C 229.21 197.963 228.16 197.763 226.97 197.823 Z M 225.81 201.613 L 230.66 204.703 L 225.81 207.773 L 225.81 201.613 Z" fill="#049B8A"/>
  <path fill-rule="evenodd" clip-rule="evenodd" d="M 225.81 201.613 L 230.66 204.703 L 225.81 207.773 L 225.81 201.613 Z" fill="white"/>
</svg>