<svg width="14" height="15" viewBox="0 0 14 15" fill="none" xmlns="http://www.w3.org/2000/svg">
<path fill-rule="evenodd" clip-rule="evenodd" d="M7.86617 8.10363C8.41892 7.75841 8.86989 7.10988 9.0455 6.15804C9.0455 6.04829 9.09538 5.96248 9.17121 5.89863C9.265 5.82081 9.3947 5.77691 9.51643 5.75895C9.63815 5.59332 9.71997 5.41373 9.76786 5.22615C9.81575 5.03658 9.83171 4.83903 9.82174 4.6315L9.56033 4.55368C9.55634 4.55368 9.55235 4.54969 9.55235 4.5457C9.50446 4.12864 9.41865 3.76746 9.28096 3.47413C9.14727 3.18678 8.96767 2.96528 8.73221 2.8216C8.15551 3.23068 7.50499 3.43422 6.85247 3.43422C6.19995 3.43422 5.54942 3.23068 4.97273 2.8216C4.73726 2.96328 4.55567 3.18478 4.42397 3.47413C4.28828 3.76746 4.20048 4.12665 4.15259 4.5457C4.15259 4.54969 4.1486 4.55368 4.14461 4.55368L3.8832 4.6315C3.87322 4.83903 3.88918 5.03658 3.93708 5.22615C3.98497 5.41572 4.06678 5.59532 4.18851 5.75895C4.31223 5.77691 4.44193 5.82081 4.53372 5.89863C4.60955 5.96248 4.65944 6.04829 4.65944 6.15804C4.83305 7.10988 5.28602 7.75841 5.83677 8.10363C6.15405 8.30118 6.50126 8.39896 6.85047 8.39896C7.20367 8.40096 7.55088 8.30118 7.86617 8.10363ZM13.7189 14.3235C13.6171 14.4393 13.5114 14.551 13.4016 14.6608L12.9965 12.1165C12.9247 11.8571 12.8409 11.6935 12.7451 11.5778C12.6553 11.464 12.5476 11.3882 12.4258 11.3124L10.2488 10.4164C10.2907 10.59 10.3206 10.7816 10.3426 10.9871C10.3785 11.2924 10.3944 11.6316 10.4004 11.9948C10.576 12.0227 10.7516 12.0946 10.9153 12.2103C11.4381 12.5855 11.8531 13.4395 11.8751 14.8124C11.8771 14.9142 11.7953 14.996 11.6935 14.996H11.6915V14.998H10.9931V14.6288H11.5019C11.454 13.4994 11.1168 12.807 10.7017 12.5096C10.5441 12.3959 10.3745 12.344 10.2069 12.348C10.0412 12.352 9.86963 12.4179 9.71598 12.5376C9.29693 12.8589 8.97366 13.5672 8.96767 14.6308H9.59425V15H8.78808C8.68631 15 8.60649 14.9162 8.60649 14.8164C8.60649 14.8124 8.60649 14.8084 8.60649 14.8044C8.57257 13.5194 8.96967 12.6513 9.49448 12.2482C9.66409 12.1165 9.84768 12.0327 10.0372 12.0008C10.0333 11.6536 10.0173 11.3263 9.98337 11.029C9.94745 10.7277 9.89756 10.4623 9.82573 10.2408L8.82599 9.82972L7.14381 12.1285L6.99215 12.34H6.99015C6.98018 12.354 6.9682 12.368 6.95224 12.3779C6.87043 12.4378 6.75668 12.4218 6.69682 12.342L4.78116 9.77185L3.56392 10.2987L3.40827 12.1525C3.69163 12.1944 3.94705 12.3261 4.14061 12.5196C4.37408 12.7531 4.51975 13.0764 4.51975 13.4335C4.51975 13.7907 4.37408 14.114 4.14061 14.3475C3.90714 14.5809 3.58388 14.7266 3.22669 14.7266C2.8695 14.7266 2.54623 14.5809 2.31276 14.3475C2.07929 14.114 1.93362 13.7907 1.93362 13.4335C1.93362 13.0764 2.07929 12.7531 2.31276 12.5196C2.50432 12.3281 2.75775 12.1944 3.04111 12.1544L3.18279 10.4643L1.43874 11.2226H1.43475C1.26713 11.3124 1.11148 11.4221 0.989756 11.5578C0.889983 11.6676 0.814155 11.7953 0.77225 11.9369L0.317281 14.6807C0.20753 14.573 0.101769 14.4612 0 14.3495L0.411068 11.8671C0.413064 11.8591 0.415059 11.8511 0.417055 11.8432C0.474923 11.6376 0.580684 11.462 0.716376 11.3104C0.868032 11.1427 1.0596 11.007 1.26114 10.8993C1.27112 10.8953 1.2811 10.8893 1.28908 10.8873L3.30052 10.0153C3.3105 10.0113 3.32047 10.0053 3.32846 10.0033L4.67341 9.42065L4.8969 8.03179C4.90289 7.99588 4.91885 7.96195 4.9408 7.93801C4.4998 7.46907 4.39404 7.03006 4.31622 6.7068C4.24637 6.40947 4.19848 6.21192 3.9271 6.18797C3.92311 6.18797 3.92111 6.18797 3.91912 6.18398C3.77744 6.03033 3.59186 5.69709 3.47213 5.34588C3.40229 5.13835 3.3544 4.92085 3.3544 4.73128C3.3524 4.53971 3.3983 4.37409 3.51403 4.26633C3.55594 4.22842 3.60583 4.19649 3.66569 4.17454C3.59585 3.81336 3.55594 3.45018 3.54397 3.089C3.53399 2.72383 3.55594 2.35865 3.60982 1.99348V1.99149C3.77145 1.25915 4.29427 0.728349 4.97472 0.399095C5.52947 0.133697 6.18997 0 6.85047 0C7.51097 0 8.17148 0.133697 8.72622 0.399095C9.40867 0.726354 9.92949 1.25915 10.0911 1.99149V1.99348C10.145 2.35865 10.167 2.72383 10.157 3.089C10.145 3.45018 10.1051 3.81336 10.0353 4.17454C10.0951 4.19649 10.145 4.22642 10.1869 4.26633C10.3026 4.37409 10.3485 4.53771 10.3465 4.73128C10.3465 4.92085 10.2987 5.13835 10.2288 5.34588C10.1111 5.69709 9.9255 6.02834 9.78382 6.18398C9.78183 6.18598 9.77983 6.18797 9.77584 6.18797C9.50446 6.21192 9.45656 6.40947 9.38473 6.7068C9.3069 7.03406 9.20114 7.48104 8.74617 7.95597C8.74817 7.95796 8.75016 7.95996 8.75016 7.95996C8.78209 7.99188 8.80205 8.03379 8.80404 8.07569L8.91779 9.47253L12.5795 10.9771C12.5895 10.9811 12.5994 10.9871 12.6074 10.9911C12.7611 11.0889 12.9028 11.1846 13.0305 11.3443C13.1562 11.5019 13.2659 11.7095 13.3537 12.0287C13.3557 12.0347 13.3577 12.0407 13.3577 12.0487L13.7189 14.3235ZM5.03259 9.49847L5.5135 10.143L6.8385 11.923L8.5606 9.54636L8.47279 8.46681C8.01383 8.82001 7.47107 8.9976 6.91233 8.99361C6.34163 8.98962 5.75096 8.79207 5.21019 8.39697L5.03259 9.49847ZM2.64401 12.8249C2.64002 12.8289 2.63403 12.8349 2.63004 12.8389C2.47838 12.9906 2.3826 13.2021 2.3826 13.4335C2.3826 13.665 2.47639 13.8765 2.63004 14.0282C2.78169 14.1819 2.99322 14.2756 3.22469 14.2756C3.45617 14.2756 3.66769 14.1819 3.81934 14.0282C3.971 13.8765 4.06678 13.665 4.06678 13.4335C4.06678 13.2021 3.97299 12.9906 3.81934 12.8389C3.66769 12.6872 3.45617 12.5915 3.22469 12.5915C3.21272 12.5935 3.20074 12.5935 3.18877 12.5915C3.11693 12.5954 3.04709 12.6074 2.98124 12.6274C2.94532 12.6393 2.9114 12.6493 2.87947 12.6633V12.6653L2.87149 12.6693L2.86151 12.6733L2.85353 12.6773L2.84755 12.6813H2.84555L2.83757 12.6852V12.6872L2.82959 12.6912L2.82759 12.6932L2.8216 12.6972L2.81761 12.6992L2.81163 12.7032L2.80764 12.7052L2.80364 12.7092L2.80165 12.7112L2.79566 12.7152L2.78768 12.7192H2.78569L2.7797 12.7232H2.7777L2.76972 12.7291L2.76174 12.7331L2.75376 12.7371V12.7391L2.74578 12.7431C2.74179 12.7471 2.7358 12.7491 2.73181 12.7531L2.72981 12.7551L2.72582 12.7591L2.72183 12.7611L2.71784 12.7651L2.71385 12.7671L2.70986 12.7711L2.70587 12.775L2.70188 12.773L2.69788 12.777L2.69389 12.781L2.6899 12.785L2.68591 12.789L2.68192 12.793L2.67793 12.797L2.67394 12.801L2.66995 12.805L2.66596 12.809L2.66197 12.813L2.65797 12.8169L2.65398 12.8209L2.648 12.8269L2.64401 12.8249Z" fill="#028575"/>
</svg>
