<svg width="65" height="20" viewBox="0 0 65 20" fill="none" xmlns="http://www.w3.org/2000/svg">
<path fill-rule="evenodd" clip-rule="evenodd" d="M4.77 3.03069C5.05 2.75069 5.54 2.38069 5.85 2.15069C5.99 2.06069 6.11 1.98069 6.25 1.89069C6.56 1.75069 6.82 1.58069 7.13 1.44069C9.79 0.250689 13.08 0.500689 15.46 2.15069C16.06 2.55069 16.25 2.75069 16.74 3.17069C16.77 3.23069 16.85 3.31069 16.91 3.34069C17.28 3.68069 17.79 4.39069 18.04 4.84069C19.54 7.28069 19.8 10.4207 18.44 13.1707C17.99 14.0807 17.48 14.7607 16.8 15.4707C16.57 15.7007 16.35 15.9007 16.09 16.0907C15.44 16.6307 14.39 17.2207 13.57 17.5107C13.26 17.6007 12.86 17.7407 12.55 17.7907C12.44 17.5907 12.38 17.5107 12.21 17.3607C11.7 16.8807 11.02 17.0207 10.2 17.0207C9.66 17.0207 9.35 17.1307 9.07 17.4207C8.47 18.0707 8.59 19.0407 9.35 19.4907C9.75 19.7207 10.23 19.6607 10.74 19.6607C11.28 19.6607 11.65 19.7207 12.07 19.4607C12.33 19.2907 12.55 18.9807 12.64 18.6707C12.7 18.4107 12.61 18.5307 13.04 18.3907C15.45 17.7707 16.64 16.7507 18.11 15.0507C18.34 14.7707 18.93 13.8007 19.1 13.4307C19.38 12.7807 19.27 12.9807 19.55 12.8307C21.93 11.8107 21.93 6.68069 19.38 5.80069C19.29 5.77069 19.32 5.74069 19.27 5.66069C19.01 5.06069 18.7 4.53069 18.33 3.99069C18.17 3.76069 17.55 3.00069 17.38 2.86069C17.29 2.77069 17.18 2.66069 17.12 2.58069C17.03 2.49069 16.92 2.41069 16.84 2.32069C15.68 1.30069 14.18 0.560689 12.64 0.220689C9.81 -0.429311 6.72 0.390689 4.6 2.23069C4.4 2.40069 4.26 2.52069 4.06 2.72069C4.03 2.77069 3.97 2.80069 3.94 2.86069C3.6 3.14069 2.89 4.10069 2.67 4.47069C2.47 4.84069 2.21 5.30069 2.04 5.69069C2.02 5.81069 2.02 5.78069 1.9 5.81069C1.39 5.98069 1 6.37069 0.740004 6.74069C0.170004 7.59069 -0.139996 8.89069 0.0600043 10.1407C0.260004 11.3607 0.800004 12.3207 1.62 12.7807C1.79 12.8707 2.22 13.0407 2.41 12.9507C2.52 12.8907 2.61 12.7807 2.61 12.6407C2.61 12.5307 2.52 12.3307 2.5 12.2107C1.68 9.94069 1.9 7.45069 3.01 5.32069C3.46 4.39069 4.03 3.74069 4.77 3.03069Z" fill="black"/>
<path fill-rule="evenodd" clip-rule="evenodd" d="M10.15 2.55064C6.24001 2.80064 2.98001 6.60064 4.06001 11.0206C4.26001 11.9006 4.74002 12.8606 5.28002 13.5106C5.31002 13.5706 5.45001 13.7106 5.45001 13.7706L4.43001 16.5206C4.40001 16.5806 4.32002 16.7806 4.32002 16.8606C4.28002 17.0006 4.40001 17.0906 4.54001 17.0906C4.60001 17.0906 7.37001 15.7906 7.74001 15.6206C7.91001 15.5306 7.91001 15.5906 8.05001 15.6806C9.30001 16.1906 10.74 16.3006 12.1 16.0206C13.15 15.7906 13.94 15.3706 14.65 14.8606C15.36 14.3806 16.01 13.6406 16.46 12.9306C18.16 10.1806 17.59 6.67064 15.52 4.62064C15.18 4.28064 14.95 4.05064 14.53 3.77064C14.16 3.51064 13.79 3.29064 13.34 3.09064C12.39 2.69064 11.34 2.49064 10.15 2.55064ZM8.99001 6.34064L13.84 9.43064L8.99001 12.5006V6.34064Z" fill="#049B8A"/>
<path fill-rule="evenodd" clip-rule="evenodd" d="M8.98999 6.3407L13.84 9.4307L8.98999 12.5007V6.3407Z" fill="white"/>
<path d="M25.5602 8.27894H27.4101L26.6998 6.14672C26.6998 6.05969 26.6554 5.94365 26.611 5.81311C26.611 5.65356 26.5222 5.4795 26.4778 5.23291C26.4482 5.40697 26.4038 5.56653 26.3594 5.69707C26.315 5.85662 26.2706 5.98717 26.2262 6.14672L25.5602 8.27894ZM23 10.7448L25.353 4.15955H27.6173L29.9259 10.7448H28.1205L27.7801 9.55537H25.1755L24.8351 10.7448H23ZM35.2536 4.46416V6.39331C35.0464 6.14672 34.7948 5.94365 34.5432 5.81311C34.2916 5.65356 33.9957 5.61004 33.7441 5.61004C33.1965 5.61004 32.7821 5.7696 32.4418 6.14672C32.1014 6.48033 31.983 6.92999 31.983 7.51018C31.983 8.04686 32.1458 8.49651 32.4418 8.83013C32.7821 9.16374 33.1965 9.36681 33.7441 9.36681C33.9957 9.36681 34.2916 9.27978 34.5432 9.16374C34.7948 9.03319 35.0464 8.83013 35.2536 8.54003V10.5127C35.002 10.6432 34.706 10.7593 34.41 10.8463C34.1141 10.8898 33.8181 10.9333 33.5221 10.9333C33.1373 10.9333 32.8117 10.8898 32.5158 10.8028C32.2198 10.7158 31.9238 10.5997 31.6722 10.4257C31.1691 10.092 30.7843 9.68591 30.5031 9.14923C30.2515 8.65607 30.1183 8.07587 30.1183 7.46667C30.1183 6.9735 30.2071 6.52385 30.3699 6.10321C30.5327 5.68257 30.7843 5.31994 31.1247 4.98633C31.4206 4.65272 31.7906 4.40614 32.1754 4.24658C32.5898 4.08703 33.0189 4 33.5221 4C33.8181 4 34.1141 4.04351 34.41 4.13054C34.706 4.21757 35.002 4.2901 35.2536 4.46416ZM36.3043 10.7448V4.17406H40.4184V5.61004H38.1098V6.75593H40.2852V8.1484H38.1098V9.26527H40.4184V10.7448H36.3043ZM41.9279 8.61255C42.1795 8.94616 42.4755 9.14923 42.7271 9.30879C42.9787 9.46834 43.2746 9.51185 43.5262 9.51185C43.7778 9.51185 43.985 9.46834 44.1182 9.3523C44.281 9.22176 44.3698 9.0622 44.3698 8.85913C44.3698 8.65607 44.281 8.453 44.1626 8.36597C44.0294 8.23542 43.7038 8.11939 43.245 7.98884C42.5791 7.78577 42.1055 7.58271 41.8539 7.29261C41.558 7.00251 41.4396 6.63989 41.4396 6.14672C41.4396 5.52301 41.6467 5.02985 42.0759 4.62371C42.5347 4.21757 43.0822 4 43.7482 4C44.133 4 44.4586 4.08703 44.7989 4.15955C45.1393 4.24658 45.4649 4.40614 45.7609 4.60921L45.1689 5.88563C44.9617 5.72608 44.7545 5.59554 44.5326 5.50851C44.3254 5.37796 44.1182 5.34895 43.8666 5.34895C43.6594 5.34895 43.4818 5.43598 43.3634 5.50851C43.2006 5.63905 43.1562 5.75509 43.1562 5.91464C43.1562 6.0742 43.2006 6.20474 43.319 6.29177C43.4522 6.42232 43.7038 6.49484 44.0294 6.58187L44.1182 6.62538C44.8285 6.82845 45.3317 7.03152 45.5833 7.2781C45.7461 7.43766 45.8349 7.61172 45.9237 7.8583C46.0125 8.06137 46.0568 8.30795 46.0568 8.59805C46.0568 9.29428 45.8497 9.87448 45.3909 10.2806C44.9321 10.6868 44.2958 10.9043 43.4966 10.9043C43.0379 10.9043 42.6087 10.8173 42.2387 10.7013C41.8539 10.5417 41.484 10.2951 41.0992 9.96151L41.9279 8.61255ZM47.374 8.61255C47.6255 8.94616 47.9215 9.14923 48.1731 9.30879C48.4247 9.46834 48.7207 9.51185 48.9723 9.51185C49.2238 9.51185 49.3866 9.46834 49.5642 9.3523C49.727 9.22176 49.8158 9.0622 49.8158 8.85913C49.8158 8.65607 49.727 8.453 49.6086 8.36597C49.4754 8.23542 49.1498 8.11939 48.6911 7.98884C48.0251 7.78577 47.5515 7.58271 47.3 7.29261C47.004 7.00251 46.8856 6.63989 46.8856 6.14672C46.8856 5.52301 47.0928 5.02985 47.522 4.62371C47.9807 4.21757 48.5283 4 49.1942 4C49.579 4 49.9046 4.08703 50.245 4.15955C50.5853 4.24658 50.9109 4.40614 51.2069 4.60921L50.6149 5.88563C50.4078 5.72608 50.2006 5.59554 49.9786 5.50851C49.7714 5.37796 49.5198 5.34895 49.3126 5.34895C49.1054 5.34895 48.9279 5.43598 48.8095 5.50851C48.6467 5.63905 48.6023 5.75509 48.6023 5.91464C48.6023 6.0742 48.6467 6.20474 48.7651 6.29177C48.8983 6.42232 49.1054 6.49484 49.4754 6.58187L49.5642 6.62538C50.2746 6.82845 50.7777 7.03152 51.0293 7.2781C51.1625 7.43766 51.2809 7.61172 51.3697 7.8583C51.4585 8.06137 51.5029 8.30795 51.5029 8.59805C51.5029 9.29428 51.2957 9.87448 50.8369 10.2806C50.3338 10.6868 49.7418 10.9043 48.9427 10.9043C48.4839 10.9043 48.0547 10.8173 47.6847 10.7013C47.2704 10.5417 46.93 10.2951 46.5452 9.96151L47.374 8.61255ZM54.2999 8.27894H56.1054L55.4394 6.14672C55.4394 6.05969 55.395 5.94365 55.3506 5.81311C55.3062 5.65356 55.2618 5.4795 55.2174 5.23291C55.173 5.39247 55.1286 5.56653 55.0842 5.68257C55.0398 5.84212 54.9954 5.97266 54.951 6.13222L54.2999 8.27894ZM51.7397 10.7448L54.0483 4.15955H56.357L58.6656 10.7448H56.8601L56.4753 9.55537H53.9151L53.5303 10.7448H51.7397ZM59.2872 10.7448V4.17406H61.211C61.9658 4.17406 62.4689 4.21757 62.7649 4.3046C63.0609 4.34812 63.3125 4.46416 63.5197 4.63821C63.7713 4.79777 63.934 5.04435 64.0672 5.33445C64.23 5.58103 64.2744 5.91464 64.2744 6.23375C64.2744 6.72692 64.1412 7.13305 63.8896 7.46667C63.6381 7.80028 63.2533 8.00335 62.7501 8.11939L64.6 10.7448H62.5577L61.0038 8.19191V10.7448H59.2872ZM61.0038 7.29261H61.3442C61.729 7.29261 62.0102 7.20558 62.2322 7.08954C62.3949 6.959 62.4837 6.75593 62.4837 6.46583C62.4837 6.13222 62.3949 5.88563 62.2322 5.7696C62.0694 5.61004 61.7734 5.56653 61.3886 5.56653H61.0038V7.29261Z" fill="black"/>
<path d="M24.8752 13.398V16.8344H24.1551V13.398H23V12.846H26.0154V13.398H24.8752ZM26.4954 16.8344V12.846H28.9257V13.398H27.2305V14.4193H28.9257V14.9713H27.2305V16.2685H28.9257V16.862H26.4954V16.8344ZM29.6758 16.8344V12.846H30.3959V16.2547H31.9711V16.8482H29.6758V16.8344ZM32.4811 16.8344V12.846H34.9114V13.398H33.1712V14.4193H34.9114V14.9713H33.1712V16.2685H34.9114V16.862H32.4811V16.8344ZM39.2019 14.8885C39.2019 14.8471 39.2019 14.7643 39.1569 14.6125C39.1569 14.4883 39.1569 14.4193 39.1119 14.3365C39.1119 14.4193 39.0669 14.4883 39.0669 14.6125C39.0219 14.6953 38.9769 14.7643 38.9319 14.8885L37.7768 17L36.6216 14.8471C36.5766 14.7229 36.5316 14.6539 36.4866 14.5711C36.4416 14.4883 36.4416 14.4193 36.3966 14.3365C36.3966 14.4193 36.3966 14.4883 36.3516 14.5711C36.3516 14.6953 36.3516 14.7643 36.3066 14.8885L35.8415 16.8482H35.2415L36.2616 12.6666L37.5367 15.2059C37.5817 15.2473 37.5818 15.3301 37.6268 15.3991C37.6718 15.5233 37.7168 15.6337 37.7918 15.7579C37.8368 15.6337 37.8818 15.4819 37.9568 15.3301C38.0018 15.2887 38.0018 15.2473 38.0468 15.2059L39.277 12.6666L40.3421 16.8482H39.697L39.2019 14.8885ZM40.8671 16.8344V12.846H43.2974V13.398H41.5422V14.4193H43.2824V14.9713H41.5422V16.2685H43.2824V16.862H40.8671V16.8344ZM44.7376 16.2547H45.3377C45.6827 16.2547 45.9378 16.2547 46.1028 16.2133C46.2378 16.1719 46.4028 16.0891 46.5228 15.9787C46.6878 15.8545 46.7779 15.7027 46.8679 15.5095C46.9579 15.3163 47.0029 15.0817 47.0029 14.8471C47.0029 14.5711 46.9579 14.3779 46.8679 14.1847C46.7779 13.9915 46.7028 13.8259 46.5228 13.6741C46.3878 13.5913 46.2228 13.5223 46.0578 13.4809C45.8927 13.4395 45.6377 13.4394 45.2477 13.4394H44.9926H44.7376V16.2547ZM44.0475 16.8344V12.846H44.9776C45.6227 12.846 46.0428 12.846 46.2978 12.9288C46.5528 12.9702 46.7629 13.0806 46.9729 13.2048C47.1829 13.398 47.3929 13.6327 47.5279 13.9087C47.663 14.1847 47.738 14.5021 47.738 14.8471C47.738 15.1921 47.648 15.5095 47.5279 15.7855C47.3929 16.0615 47.1829 16.2961 46.9729 16.4893C46.7629 16.6135 46.5528 16.724 46.2978 16.7654C46.0878 16.8068 45.6977 16.8482 45.1877 16.8482H44.9926H44.0475V16.8344ZM48.5181 16.8344V12.846H49.1931V16.8344H48.5181ZM53.6637 13.8259C53.4537 13.6741 53.2436 13.5499 53.0186 13.4671C52.7936 13.3842 52.5535 13.3428 52.2985 13.3428C51.8335 13.3428 51.4434 13.4671 51.1434 13.7293C50.8433 14.0467 50.7233 14.3917 50.7233 14.8195C50.7233 15.2473 50.8583 15.6475 51.1434 15.9097C51.4284 16.1719 51.7885 16.2961 52.2535 16.2961C52.5085 16.2961 52.7186 16.2547 52.9736 16.1719C53.1836 16.0891 53.4387 15.9787 53.6487 15.8131V16.5169C53.4387 16.6688 53.2286 16.7516 53.0036 16.8344C52.7936 16.8758 52.5385 16.9172 52.2835 16.9172C51.9385 16.9172 51.6384 16.8758 51.3534 16.7654C51.0984 16.6825 50.8433 16.5307 50.6333 16.3375C50.4233 16.1443 50.2433 15.9097 50.1233 15.6337C50.0332 15.3991 49.9582 15.1231 49.9582 14.8057C49.9582 14.5297 50.0482 14.2537 50.1233 13.9777C50.2583 13.7017 50.4233 13.5085 50.6333 13.3152C50.8433 13.122 51.0984 12.9564 51.3534 12.846C51.6534 12.7632 51.9535 12.6942 52.2835 12.6942C52.5385 12.6942 52.7486 12.7356 53.0036 12.8184C53.2136 12.9012 53.4687 12.9702 53.6787 13.1358L53.6637 13.8259ZM54.4738 16.8344V12.846H55.1939V16.8344H54.4738ZM56.124 16.8344V12.6942L58.9293 15.1231C58.9743 15.2059 59.0643 15.2749 59.1393 15.3577C59.2294 15.4405 59.3044 15.5095 59.3944 15.6337V12.8598H60.0394V17L57.2341 14.5021C57.1441 14.4607 57.0691 14.3779 57.0241 14.3089C56.9341 14.2261 56.8591 14.1571 56.8141 14.0743V16.8482H56.124V16.8344ZM61.9147 15.2749H63.0998L62.6798 14.3779C62.6348 14.2951 62.6348 14.2261 62.5898 14.1433C62.5448 14.1019 62.5447 13.9915 62.4997 13.9087C62.4547 13.9915 62.4547 14.0605 62.4097 14.1433C62.4097 14.2261 62.3647 14.2951 62.3197 14.3779L61.9147 15.2749ZM63.8649 16.8344L63.3548 15.8131H61.6596L61.1496 16.8344H60.3845L62.5147 12.6942L64.6 16.8344H63.8649Z" fill="black"/>
</svg>
