<svg width="40" height="35" viewBox="0 0 40 35" fill="none" xmlns="http://www.w3.org/2000/svg">
<path d="M0.0443295 11.7538C-0.27956 8.14646 1.20108 5.10914 3.51457 3.03378C4.88416 1.76897 6.51286 0.904982 8.2526 0.397277C10.0479 -0.0569857 11.8894 -0.163871 13.6754 0.299299C16.1 0.860447 18.3672 2.33012 19.9959 4.85974C21.6801 2.32121 23.8918 0.85154 26.3164 0.299299C28.1116 -0.154964 29.9994 -0.0569857 31.7392 0.397277C33.4789 0.904982 35.1632 1.76897 36.4772 3.03378C38.8462 5.10914 40.2713 8.15537 39.9567 11.7538C39.3737 18.2917 33.2661 23.4133 27.6859 28.0806C24.9468 30.3608 22.3649 32.543 20.7362 34.6184C20.4771 35.0281 19.8386 35.1261 19.4684 34.8233C19.3666 34.7698 19.3111 34.6718 19.2093 34.6184C17.6269 32.543 15.045 30.4142 12.3614 28.1786C6.78122 23.4578 0.618076 18.2382 0.0443295 11.7538ZM3.04262 15.5037H12.8426C13.1572 15.5037 13.4256 15.6552 13.5274 15.958L15.1098 18.8973L17.7472 10.0793C17.849 9.66958 18.2747 9.47362 18.6911 9.5716C18.9502 9.66958 19.1168 9.821 19.2186 10.0793L23.6975 23.0035L25.539 15.3523C25.6408 14.9426 26.0665 14.6932 26.4367 14.7912C26.6958 14.8446 26.8623 14.996 26.9641 15.2009L28.7594 18.5945L30.6009 15.8066C30.7583 15.6017 30.9711 15.5037 31.2302 15.5037H36.9677C37.597 14.2389 38.0226 12.9207 38.1244 11.6024C38.3835 8.60963 37.1805 6.08001 35.2279 4.29859C34.1175 3.28318 32.7016 2.52608 31.221 2.11635C29.7959 1.70662 28.2227 1.66209 26.742 2.01837C24.4285 2.57952 22.2631 4.14717 20.838 7.08652C20.7362 7.23794 20.6252 7.4428 20.4123 7.49624C19.9404 7.74564 19.3574 7.54969 19.1445 7.08652C17.7194 4.14717 15.5632 2.57061 13.2405 2.01837C11.7691 1.66209 10.2422 1.71553 8.76157 2.11635C7.3087 2.52608 5.93911 3.28318 4.78236 4.29859C2.82978 6.07111 1.6175 8.60963 1.88587 11.6024C2.04319 12.9207 2.41335 14.2389 3.04262 15.5037ZM36.1718 16.92H31.6374L29.2684 20.4205C29.2129 20.5719 29.1111 20.6253 28.9537 20.7233C28.5836 20.8747 28.1672 20.7233 27.9543 20.367L26.5292 17.5791L24.5303 25.7914C24.4748 25.9963 24.3175 26.2012 24.0584 26.2992C23.6327 26.3971 23.2163 26.2012 23.1145 25.8449L18.5338 12.7158L16.0537 21.0261C15.9982 21.231 15.8409 21.3824 15.6835 21.4804C15.3134 21.6853 14.8414 21.5339 14.6841 21.1776L12.3706 16.92H3.88473C6.15195 20.5184 9.99235 23.7606 13.6292 26.8069C15.9982 28.8377 18.3209 30.7616 20.0052 32.641C21.6894 30.7171 24.0584 28.7397 26.4829 26.7089C30.0642 23.7161 33.9139 20.5184 36.1718 16.92Z" fill="white"/>
</svg>
