<?xml version="1.0" encoding="utf-8"?>
<svg viewBox="231.845 231.845 36.31 36.31" xmlns="http://www.w3.org/2000/svg">
  <g transform="matrix(0.27598798274993896, 0, 0, 0.2502150237560272, 241.16845703125, 241.99317932128906)">
    <path d="M20.383,53.908c-1.787,0-3.548-0.54-5.048-1.534c0.409,0.021,0.854,0.033,1.329,0.033    c2.921,0,7.034-0.484,11.186-2.573l-0.76,0.93C25.457,52.763,23.013,53.908,20.383,53.908L20.383,53.908z" style="fill: rgb(239, 12, 12);"/>
    <path d="M30.056,47.536c-0.156,0-0.314,0.07-0.314,0.07l-0.013-0.025c-4.701,3.149-9.664,3.826-13.066,3.826    c-1.323,0-2.41-0.102-3.153-0.201l-0.009,0.017c0,0-0.751,0.129-0.293,0.693c0.238,0.236,0.485,0.467,0.75,0.684    c1.898,1.551,4.179,2.309,6.426,2.309c2.82,0,5.588-1.193,7.48-3.512l2.517-3.08c0.183-0.223,0.062-0.554-0.11-0.71    C30.212,47.554,30.134,47.536,30.056,47.536L30.056,47.536z" style="fill: rgb(239, 12, 12);"/>
  </g>
  <g transform="matrix(0.9999999999999999, 0, 0, 0.9999999999999999, -63.529998779296875, 35.666000366210945)">
    <path fill-rule="evenodd" clip-rule="evenodd" d="M 313.515 196.179 C 323.545 196.179 331.685 204.319 331.685 214.319 C 331.685 224.349 323.545 232.489 313.515 232.489 C 303.505 232.489 295.375 224.349 295.375 214.319 C 295.375 204.309 303.505 196.179 313.515 196.179 Z" fill="#049B8A"/>
  </g>
  <path d="M 256.413 242.884 C 254.567 241.516 251.846 241.764 250.337 243.439 L 242.974 251.608 C 241.465 253.282 241.739 255.749 243.586 257.117 C 245.433 258.485 248.154 258.237 249.663 256.562 L 257.026 248.392 C 258.534 246.718 258.261 244.252 256.413 242.884 Z M 249.194 255.746 C 248.044 257.022 245.97 257.211 244.561 256.168 C 243.153 255.125 242.945 253.244 244.095 251.968 L 245.356 250.569 C 245.38 250.541 245.401 250.511 245.426 250.483 L 247.387 248.307 L 252.562 252.008 L 249.194 255.746 Z M 256.138 248.032 L 254.876 249.432 C 254.852 249.46 254.832 249.489 254.808 249.517 L 253.233 251.264 L 248.057 247.563 L 251.039 244.255 C 252.19 242.979 254.264 242.789 255.671 243.832 C 257.08 244.875 257.288 246.756 256.138 248.032 Z" style="fill: rgb(255, 255, 255);" transform="matrix(0.9999999999999999, 0, 0, 0.9999999999999999, 0, 0)"/>
</svg>