<svg width="30" height="23" viewBox="0 0 30 23" fill="none" xmlns="http://www.w3.org/2000/svg">
<path fill-rule="evenodd" clip-rule="evenodd" d="M0.560004 15.34C1.44 16.98 3.14 18.29 5.07 18.29C6.26 18.23 12.24 18.15 12.98 18.35L13 22.52H17.73V18.32L24.62 18.26C25.95 18.23 27.26 17.44 27.88 16.79C30.86 13.76 29.3 8.82 24.71 7.95C24.6 3.16 20.97 0.18 17.14 0.0099999C13.65 -0.13 11.53 1.57 9.77 4.4C8.58 3.44 7.16 3.15 5.6 4.03C3.88 5 3.79 6.41 3.65 7.8C0.590004 8.57 -0.889996 12.54 0.560004 15.34ZM4.84 16.68C7.48 16.71 10.23 16.65 12.86 16.74V13.59L9.86 13.56C10.09 13.13 10.09 13.22 10.51 12.88L15.41 7.72L20.88 13.56L17.85 13.53V16.73L24.68 16.7C27.49 16.64 29.3 12.14 26.27 10.04C25.28 9.36 24.51 9.39 23.1 9.39C23.16 7.01 23.1 5.65 21.91 4.06C19.78 1.28 15.05 0.52 12.64 3.1C11.65 4.15 11.25 5.62 10.34 7.24C9.54 6.3 9.01 4.77 7.08 5.11C6.37 5.25 5.8 5.76 5.49 6.3C5.04 7.07 5.26 7.8 5.41 8.74C4.92 9.05 4.5 8.99 3.96 9.19C2.83 9.62 1.69 10.98 1.52 12.39C1.3 14.52 2.97 16.68 4.84 16.68Z" fill="#030203"/>
</svg>
