<?xml version="1.0" encoding="utf-8"?>
<svg viewBox="175.595 168.777 36.31 36.31" xmlns="http://www.w3.org/2000/svg">
  <path fill-rule="evenodd" clip-rule="evenodd" d="M 193.735 168.777 C 203.765 168.777 211.905 176.917 211.905 186.917 C 211.905 196.947 203.765 205.087 193.735 205.087 C 183.725 205.087 175.595 196.947 175.595 186.917 C 175.595 176.907 183.725 168.777 193.735 168.777 Z" fill="#049B8A" transform="matrix(1, 0, 0, 1, -7.105427357601002e-15, 0)"/>
  <g id="icons" transform="matrix(1, 0, 0, 1, 181.75, 174.932006835938)" style="transform-origin: -226.5px -24.864px;">
    <g id="new">
      <path d="M17.5,8C16.1,8,15,6.9,15,5.5V2c0-0.6-0.4-1-1-1H6C3.8,1,2,2.8,2,5v14c0,2.2,1.8,4,4,4h12c2.2,0,4-1.8,4-4V9    c0-0.6-0.4-1-1-1H17.5z M14,17H8c-0.6,0-1-0.4-1-1c0-0.6,0.4-1,1-1h6c0.6,0,1,0.4,1,1C15,16.6,14.6,17,14,17z M16,13H8    c-0.6,0-1-0.4-1-1c0-0.6,0.4-1,1-1h8c0.6,0,1,0.4,1,1C17,12.6,16.6,13,16,13z" style="fill: rgb(255, 255, 255);"/>
    </g>
  </g>
</svg>