<svg width="200" height="84" viewBox="0 0 200 84" fill="none" xmlns="http://www.w3.org/2000/svg">
<g clip-path="url(#clip0_117_7)">
<path d="M48.2309 63.5401C48.2309 60.4169 47.718 57.4547 46.7926 54.6886C45.8219 51.8219 44.3986 49.1714 42.6032 46.8026L48.1354 42.568C50.0616 45.0927 51.6408 47.899 52.8277 50.9065C53.2703 50.3483 53.7531 49.8252 54.251 49.3223C57.9727 45.6006 63.1026 43.2922 68.7907 43.2922C74.4638 43.2922 79.5987 45.6006 83.3203 49.3223C87.042 53.044 89.3354 58.1739 89.3354 63.8519V83.9088H82.3497V63.8519C82.3497 60.1001 80.8409 56.7103 78.3866 54.256C75.9222 51.8017 72.5275 50.2779 68.7907 50.2779C65.0389 50.2779 61.6491 51.8017 59.1797 54.256C56.7254 56.7103 55.2166 60.1001 55.2166 63.8519V83.9088H48.2309V63.8519C48.2309 63.7564 48.2309 63.6407 48.2309 63.5401ZM130.39 83.9138V63.857C130.39 60.1051 128.866 56.7154 126.411 54.2611C123.957 51.8068 120.567 50.2829 116.815 50.2829C113.064 50.2829 109.674 51.8068 107.22 54.2611C104.765 56.7154 103.241 60.1051 103.241 63.857V83.9138H96.2607V63.857C96.2607 63.7413 96.2607 63.6306 96.2758 63.515H96.2607C96.2607 60.422 95.7477 57.4698 94.8073 54.7489C93.8114 51.9275 92.353 49.3022 90.5173 46.9786L95.9791 42.6434C97.9606 45.1379 99.6002 47.9443 100.812 50.9669C101.285 50.3835 101.768 49.8403 102.296 49.3273C106.018 45.6056 111.147 43.2972 116.826 43.2972C122.499 43.2972 127.644 45.6056 131.355 49.3273C135.077 53.049 137.385 58.1789 137.385 63.857V83.9138H130.39ZM178.615 83.9138C178.615 80.1619 177.092 76.7722 174.637 74.3179C172.183 71.8636 168.793 70.3397 165.041 70.3397C161.29 70.3397 157.9 71.8636 155.445 74.3179C152.981 76.7722 151.467 80.1619 151.467 83.9138H144.482V63.857C144.482 58.1839 146.775 53.049 150.497 49.3273C154.218 45.6056 159.363 43.2972 165.036 43.2972C170.709 43.2972 175.844 45.6056 179.566 49.3273C183.288 53.049 185.581 58.1789 185.581 63.857V83.9138H178.615ZM165.046 63.354C170.252 63.354 174.999 65.2953 178.62 68.4738V63.857C178.62 60.1051 177.097 56.7154 174.642 54.2611C172.188 51.8068 168.798 50.2829 165.046 50.2829C161.295 50.2829 157.905 51.8068 155.45 54.2611C152.986 56.7154 151.472 60.1051 151.472 63.857V68.4738C155.093 65.2953 159.841 63.354 165.046 63.354ZM34.1288 83.9138C34.1288 80.1619 32.6049 76.7722 30.1506 74.3179C27.6963 71.8636 24.3066 70.3397 20.5547 70.3397C16.8029 70.3397 13.4131 71.8636 10.9588 74.3179C8.49448 76.7722 6.98066 80.1619 6.98066 83.9138H0V63.857C0 58.1839 2.29336 53.049 6.01504 49.3273C9.73672 45.6056 14.8817 43.2972 20.5547 43.2972C26.2278 43.2972 31.3627 45.6056 35.0844 49.3273C38.806 53.049 41.0994 58.1789 41.0994 63.857V83.9138H34.1288ZM20.5598 63.354C25.7651 63.354 30.5127 65.2953 34.1338 68.4738V63.857C34.1338 60.1051 32.61 56.7154 30.1557 54.2611C27.7014 51.8068 24.3116 50.2829 20.5598 50.2829C16.8079 50.2829 13.4182 51.8068 10.9639 54.2611C8.49951 56.7154 6.98569 60.1051 6.98569 63.857V68.4738C10.6068 65.2953 15.3544 63.354 20.5598 63.354ZM197.279 32.4591L185.345 31.5588V40.0332H178.374V31.5639L166.515 32.4641L165.987 25.5237L174.099 24.895L163.794 14.5296L168.728 9.61098L178.379 19.3175V0H185.35V19.3879L195.071 9.60595L200.005 14.5246L189.7 24.89L197.812 25.5186L197.279 32.4591Z" fill="white"/>
</g>
<defs>
<clipPath id="clip0_117_7">
<rect width="200" height="83.9138" fill="white"/>
</clipPath>
</defs>
</svg>
