<svg width="213" height="200" viewBox="0 0 213 200" fill="none" xmlns="http://www.w3.org/2000/svg">
<g clip-path="url(#clip0_114_2)">
<path fill-rule="evenodd" clip-rule="evenodd" d="M82.1545 133.879L35.9942 119.847L68.1449 108.847C66.4923 107.968 64.8169 107.103 63.1567 106.224L60.8976 105.064L26.6697 40.9597L84.2392 69.1532L105.254 0L128.785 68.6832L185.384 40.9597L151.171 105.064L148.912 106.224C147.237 107.103 145.584 107.968 143.924 108.847L176.052 119.847L129.914 133.879L139.497 153.476L106.019 135.615L72.5494 153.476L82.1545 133.879ZM89.0304 129.126C87.9766 129.384 86.8168 129.619 85.7857 129.967L84.5576 130.354L49.2987 119.627L78.3337 109.681C73.9292 107.293 69.5019 104.912 65.0292 102.593L63.9148 102.009L36.252 50.2009L87.8478 75.4757C87.7644 75.1952 87.6734 74.9147 87.59 74.6342L87.2034 73.4288L105.489 13.3045L125.843 72.739L125.411 74.0505C125.305 74.3916 125.199 74.7176 125.07 75.036L175.824 50.1933L148.169 102.001L147.032 102.585C142.559 104.905 138.094 107.27 133.644 109.635L162.762 119.627L127.496 130.346L126.291 129.96C125.176 129.596 124.054 129.247 122.917 128.906L130.263 143.909L108.066 132.067L107.482 130.93C107.05 130.089 106.512 129.126 106.019 128.072C105.526 129.126 105.011 130.111 104.579 130.93L103.98 132.067L81.783 143.909L89.0304 129.126Z" fill="white"/>
<path fill-rule="evenodd" clip-rule="evenodd" d="M149.481 119.392L127.822 111.978C104.033 119.908 103.73 118.513 127.541 126.056L149.481 119.392ZM110.97 114.904L142.233 97.0283L163.468 62.3455L140.452 94.0414L110.97 114.904ZM101.152 115.245L69.8885 97.3467L48.6695 62.6639L71.6625 94.3598L101.152 115.245ZM145.16 98.9614L166.265 59.442L126.101 79.107C103.146 125.025 100.053 122.356 145.16 98.9614ZM91.479 73.4061L105.724 26.6015L121.515 72.7617C102.722 129.217 109.34 129.626 91.479 73.4061ZM66.9168 98.9614L45.8115 59.442L85.9525 79.107C110.022 127.216 114.54 123.652 66.9168 98.9614ZM84.5349 126.056L62.5957 119.392L84.2317 111.978C87.6052 113.092 101.85 115.89 101.85 119.24C101.857 122.424 87.7871 125.047 84.5349 126.056ZM100.955 129.065L91.0242 134.349L95.9669 124.274C104.374 120.082 105.405 120.446 100.955 129.065ZM111.121 129.065L121.029 134.349L116.109 124.274C107.854 120.15 106.717 120.575 111.121 129.065Z" fill="white"/>
<path d="M30.1266 196.695C28.1707 197.809 26.1694 198.651 24.1301 199.189C22.0681 199.75 19.9151 200.008 17.6636 200.008C15.1315 200.008 12.789 199.621 10.6588 198.848C8.51338 198.074 6.66363 196.937 5.0489 195.429C3.419 193.859 2.1454 192.032 1.28876 189.925C0.432113 187.84 0 185.581 0 183.178C0 178.106 1.67538 174.043 5.07164 170.95C8.44515 167.857 12.8952 166.31 18.4368 166.31C20.4154 166.31 22.3713 166.523 24.2362 166.955C26.1239 167.387 27.9964 168.054 29.8461 168.956V176.605C28.0418 175.423 26.2376 174.566 24.4333 173.982C22.6063 173.399 20.8021 173.126 18.9751 173.126C15.6849 173.126 13.1074 174.005 11.2198 175.787C9.34728 177.591 8.40725 180.039 8.40725 183.178C8.40725 186.233 9.28663 188.659 11.0909 190.463C12.8952 192.29 15.3211 193.192 18.3534 193.192C20.3093 193.192 22.2879 192.851 24.2438 192.161C26.2224 191.471 28.1783 190.44 30.1342 189.091V196.695H30.1266ZM36.0776 199.439V166.864H44.2423V193.147H58.2518V199.447H36.0776V199.439ZM63.2856 199.439V166.864H71.6852V199.439H63.2856ZM87.4384 178.963V199.439H79.3799V166.864H86.5363L103.988 186.294V166.864H112.046V199.439H105.663L87.4384 178.963ZM129.043 187.514H138.648L134.091 175.119L129.043 187.514ZM115.397 199.439L129.604 166.864H139.019L151.694 199.439H143.052L140.732 193.079H126.7L124.077 199.439H115.397ZM163.278 193.465H167.986C170.116 193.465 171.617 193.185 172.496 192.586C173.399 191.987 173.853 191.017 173.853 189.66C173.853 188.265 173.383 187.234 172.436 186.544C171.465 185.877 169.987 185.558 167.948 185.558H163.286V193.465H163.278ZM167.485 179.736C168.949 179.736 170.04 179.456 170.776 178.895C171.488 178.334 171.852 177.5 171.852 176.363C171.852 175.119 171.488 174.172 170.753 173.565C170.025 172.944 168.926 172.64 167.485 172.64H163.27V179.729H167.485V179.736ZM155.068 199.439V166.864H167.084C171.359 166.864 174.604 167.576 176.772 168.971C178.963 170.389 180.062 172.474 180.062 175.226C180.062 176.666 179.698 177.932 178.948 179.031C178.22 180.108 177.143 180.964 175.726 181.609C178 182.321 179.698 183.367 180.82 184.793C181.935 186.188 182.496 187.977 182.496 190.099C182.496 193.215 181.419 195.558 179.274 197.104C177.143 198.651 173.922 199.447 169.623 199.447H155.068V199.439ZM187.901 196.839V189.599C190.349 191.123 192.411 192.199 194.087 192.798C195.785 193.397 197.415 193.7 199.007 193.7C200.599 193.7 201.804 193.465 202.638 192.972C203.457 192.48 203.866 191.767 203.866 190.804C203.866 190.031 203.609 189.409 203.093 188.932C202.577 188.462 201.395 187.878 199.522 187.234C194.883 185.604 191.676 183.921 189.94 182.23C188.196 180.532 187.317 178.364 187.317 175.741C187.317 172.944 188.454 170.692 190.736 168.949C192.995 167.205 195.959 166.348 199.613 166.348C201.44 166.348 203.313 166.561 205.155 167.015C207.027 167.47 208.87 168.13 210.682 168.994V175.696C208.491 174.581 206.535 173.762 204.791 173.247C203.048 172.709 201.478 172.451 200.045 172.451C198.499 172.451 197.316 172.663 196.498 173.118C195.679 173.573 195.269 174.217 195.269 175.051C195.269 175.741 195.656 176.385 196.384 176.984C197.096 177.583 198.211 178.144 199.674 178.682C199.977 178.811 200.47 178.986 201.092 179.221C204.207 180.381 206.421 181.366 207.778 182.185C209.196 183.041 210.249 184.163 210.977 185.536C211.705 186.893 212.054 188.5 212.054 190.327C212.054 193.336 210.939 195.702 208.657 197.415C206.383 199.136 203.222 199.992 199.181 199.992C197.165 199.992 195.224 199.735 193.336 199.219C191.449 198.689 189.644 197.892 187.901 196.839Z" fill="white"/>
</g>
<defs>
<clipPath id="clip0_114_2">
<rect width="212.054" height="200" fill="white"/>
</clipPath>
</defs>
</svg>
