<svg width="148" height="140" viewBox="0 0 148 140" fill="none" xmlns="http://www.w3.org/2000/svg">
<path d="M21.0319 125.14C19.6615 125.917 18.2636 126.483 16.8383 126.876C15.4131 127.269 13.9147 127.443 12.3341 127.443C10.5708 127.443 8.9445 127.16 7.437 126.639C5.95691 126.091 4.64127 125.296 3.52664 124.227C2.38459 123.139 1.5075 121.87 0.913637 120.389C0.310636 118.946 0 117.365 0 115.684C0 112.158 1.16946 109.316 3.54491 107.16C5.90209 104.986 9.00846 103.926 12.864 103.926C14.2345 103.926 15.6049 104.054 16.9023 104.364C18.2271 104.675 19.5427 105.141 20.8126 105.762V111.098C19.5701 110.294 18.3001 109.672 17.0302 109.289C15.7602 108.878 14.4903 108.667 13.2203 108.667C10.9454 108.667 9.12723 109.289 7.81159 110.559C6.51423 111.801 5.84727 113.51 5.84727 115.684C5.84727 117.804 6.46855 119.521 7.7385 120.782C8.98105 122.052 10.6895 122.674 12.8183 122.674C14.1614 122.674 15.541 122.436 16.9114 121.952C18.3093 121.486 19.6523 120.764 21.0319 119.832V125.14ZM25.1981 127.05V104.309H30.8718V122.646H40.6568V127.05H25.1981ZM44.1835 127.05V104.309H50.0399V127.05H44.1835ZM61.0401 112.761V127.059H55.3938V104.319H60.3914L72.5702 117.859V104.309H78.2164V127.05H73.7579L61.0401 112.761ZM90.0754 118.717H96.7815L93.5929 110.065L90.0754 118.717ZM80.5462 127.05L90.4683 104.309H97.0191L105.872 127.05H99.8422L98.2068 122.619H88.4126L86.6036 127.05H80.5462ZM113.949 122.884H117.238C118.718 122.884 119.778 122.674 120.399 122.262C121.02 121.851 121.331 121.175 121.331 120.216C121.331 119.229 120.993 118.535 120.344 118.069C119.668 117.603 118.636 117.365 117.21 117.365H113.949V122.884ZM116.882 113.3C117.914 113.3 118.691 113.089 119.184 112.706C119.705 112.313 119.933 111.746 119.933 110.942C119.933 110.065 119.677 109.417 119.184 108.978C118.663 108.567 117.914 108.357 116.882 108.357H113.958V113.3H116.882ZM108.229 127.05V104.309H116.617C119.595 104.309 121.852 104.803 123.377 105.79C124.903 106.776 125.652 108.22 125.652 110.138C125.652 111.153 125.397 112.03 124.876 112.779C124.382 113.555 123.606 114.149 122.619 114.588C124.227 115.081 125.415 115.83 126.191 116.817C126.968 117.804 127.361 119.019 127.361 120.517C127.361 122.692 126.612 124.327 125.104 125.414C123.624 126.502 121.377 127.05 118.371 127.05H108.229ZM131.153 125.241V120.188C132.861 121.248 134.286 121.979 135.474 122.418C136.643 122.829 137.776 123.039 138.891 123.039C140.006 123.039 140.855 122.884 141.431 122.546C141.997 122.18 142.29 121.687 142.29 121.02C142.29 120.472 142.107 120.033 141.742 119.695C141.404 119.384 140.554 118.973 139.257 118.526C136.022 117.384 133.793 116.223 132.578 115.026C131.363 113.839 130.741 112.331 130.741 110.495C130.741 108.549 131.545 106.968 133.126 105.753C134.707 104.538 136.781 103.944 139.311 103.944C140.609 103.944 141.897 104.099 143.194 104.41C144.492 104.721 145.78 105.187 147.05 105.78V110.467C145.524 109.691 144.154 109.124 142.929 108.759C141.714 108.366 140.627 108.192 139.613 108.192C138.526 108.192 137.722 108.348 137.155 108.686C136.589 108.996 136.296 109.435 136.296 110.029C136.296 110.495 136.552 110.933 137.045 111.354C137.566 111.792 138.343 112.185 139.348 112.569C139.558 112.651 139.896 112.779 140.335 112.934C142.509 113.738 144.062 114.433 145.022 115.008C146.008 115.602 146.73 116.379 147.251 117.338C147.744 118.297 148 119.412 148 120.682C148 122.783 147.196 124.437 145.615 125.625C144.035 126.84 141.833 127.434 139.01 127.434C137.585 127.434 136.241 127.251 134.917 126.885C133.61 126.511 132.34 125.963 131.153 125.241Z" fill="white"/>
<path fill-rule="evenodd" clip-rule="evenodd" d="M94.6067 65.3885L71.0897 88.878C60.391 99.5767 42.9131 99.5767 32.2144 88.878C21.5158 78.1794 21.5158 60.7015 32.2144 50.0028L74.1686 8.02121C82.7751 -0.548702 95.7213 -2.2572 106.027 2.92312C105.634 5.22548 105.278 7.50957 104.913 9.81194C96.8085 4.63162 85.8815 5.59094 78.8099 12.6351L36.8283 54.6167C28.6695 62.7755 28.6695 76.1145 36.8283 84.2733C44.9871 92.4321 58.3262 92.4321 66.485 84.2733L91.3998 59.331C92.1216 61.5512 93.2088 63.5977 94.6067 65.3885Z" fill="white"/>
<path fill-rule="evenodd" clip-rule="evenodd" d="M82.5928 65.8544L65.3159 83.1038C57.8058 90.6139 45.4991 90.6139 37.989 83.1038C30.4789 75.5937 30.4789 63.2871 37.989 55.777L55.2385 38.5001L57.3581 40.6197C54.9461 44.9686 55.4395 59.3401 55.1014 65.2788C61.9172 65.0412 76.3618 66.9599 81.0761 64.3469L82.5928 65.8544Z" fill="white"/>
<path fill-rule="evenodd" clip-rule="evenodd" d="M107.919 61.5512C107.864 61.5512 107.819 61.5512 107.736 61.5512C99.0568 61.5512 92.0127 54.5345 92.0127 45.8275C92.0127 35.5491 103.899 32.9087 107.91 10.9175C111.948 32.9087 123.807 35.5491 123.807 45.8275C123.807 54.5253 116.763 61.5512 108.084 61.5512C108.047 61.5512 107.992 61.5512 107.919 61.5512Z" fill="white"/>
<path fill-rule="evenodd" clip-rule="evenodd" d="M60.5283 61.1949C60.5557 61.2224 60.6562 61.1675 60.6562 61.1949L62.9129 61.1127C67.7004 61.1127 74.7445 63.9359 79.7969 60.5919C86.7132 56.0055 83.5794 46.5585 76.6632 47.2254L74.2055 47.5361C74.1781 46.7047 74.8542 44.8683 74.2877 42.7486C72.835 37.2851 65.1239 36.0882 61.2136 41.8167C59.1122 44.8957 59.3498 48.8334 59.7609 51.4739L60.5283 61.1949Z" fill="white"/>
<path d="M26.7234 137.959V139.174C26.2849 139.411 25.8189 139.585 25.353 139.722C24.887 139.822 24.4211 139.905 23.9825 139.905C23.544 139.905 23.1237 139.85 22.7126 139.722C22.3197 139.621 21.9634 139.439 21.5979 139.201C21.0315 138.836 20.5838 138.37 20.2731 137.776C19.9351 137.209 19.7798 136.588 19.7798 135.912C19.7798 135.391 19.8803 134.898 20.0904 134.414C20.3006 133.92 20.6112 133.509 20.9949 133.144C21.3878 132.751 21.8537 132.468 22.3654 132.285C22.8587 132.075 23.4252 132.002 24.0465 132.002C24.4576 132.002 24.9053 132.029 25.3164 132.13C25.7276 132.23 26.1935 132.385 26.6412 132.596V133.783C26.1752 133.527 25.7093 133.345 25.2982 133.217C24.8596 133.089 24.4393 133.007 24.0556 133.007C23.1511 133.007 22.4202 133.29 21.8263 133.866C21.2599 134.414 20.9492 135.108 20.9492 135.939C20.9492 136.771 21.2325 137.465 21.8263 138.013C22.3928 138.58 23.1237 138.872 23.9734 138.872C24.4119 138.872 24.8779 138.79 25.3164 138.635C25.7915 138.47 26.2575 138.242 26.7234 137.959ZM28.9801 135.939C28.9801 136.332 29.0623 136.716 29.1902 137.054C29.3456 137.42 29.5557 137.73 29.8389 138.013C30.0947 138.269 30.4054 138.479 30.7708 138.635C31.1363 138.79 31.4926 138.872 31.8855 138.872C32.2966 138.872 32.6621 138.79 33.0275 138.635C33.3656 138.507 33.7036 138.297 33.9594 138.013C34.2427 137.73 34.4528 137.42 34.6081 137.054C34.736 136.716 34.8182 136.332 34.8182 135.939C34.8182 135.547 34.736 135.19 34.6081 134.852C34.4528 134.487 34.2427 134.176 33.9594 133.893C33.6762 133.61 33.3656 133.4 33.0001 133.244C32.6621 133.089 32.2783 133.007 31.8855 133.007C31.4926 133.007 31.1363 133.089 30.7982 133.244C30.4328 133.4 30.0947 133.61 29.8389 133.893C29.5557 134.149 29.3456 134.459 29.1902 134.825C29.0532 135.181 28.9801 135.547 28.9801 135.939ZM27.8107 135.912C27.8107 135.391 27.9112 134.898 28.1213 134.414C28.3314 133.948 28.6147 133.509 28.9984 133.144C29.3912 132.778 29.8298 132.495 30.3232 132.285C30.8165 132.075 31.3373 132.002 31.8763 132.002C32.4428 132.002 32.9636 132.084 33.4569 132.285C33.9503 132.495 34.3888 132.778 34.7817 133.144C35.1746 133.537 35.4852 133.975 35.6588 134.441C35.8689 134.907 35.9694 135.428 35.9694 135.967C35.9694 136.506 35.8689 136.999 35.6588 137.465C35.4487 137.959 35.1654 138.37 34.7817 138.735C34.3888 139.128 33.9503 139.411 33.4569 139.612C32.9636 139.795 32.4428 139.896 31.8763 139.896C31.3282 139.896 30.8165 139.795 30.3232 139.585C29.8298 139.375 29.3912 139.119 28.9984 138.726C28.6055 138.361 28.2949 137.922 28.1213 137.429C27.9203 136.972 27.8107 136.451 27.8107 135.912ZM37.4495 139.768V132.102H38.3814L43.4338 138.059V132.102H44.5211V139.768H43.5343L38.5367 133.811V139.768H37.4495ZM45.992 139.174V137.721C46.3575 138.114 46.6681 138.397 47.0062 138.58C47.3168 138.763 47.6548 138.836 48.0203 138.836C48.3857 138.836 48.6964 138.753 48.8974 138.58C49.1349 138.397 49.2354 138.169 49.2354 137.858C49.2354 137.621 49.1532 137.392 48.9979 137.209C48.87 137.027 48.5045 136.743 47.9655 136.405C47.0884 135.839 46.5402 135.391 46.3301 135.108C46.0925 134.797 45.992 134.432 45.992 133.993C45.992 133.4 46.2022 132.934 46.6133 132.541C47.0518 132.148 47.5726 131.974 48.2487 131.974C48.5319 131.974 48.8426 132.002 49.1258 132.102C49.409 132.184 49.6922 132.312 49.9846 132.495V133.738C49.6466 133.482 49.3359 133.272 49.0527 133.144C48.7695 133.043 48.4862 132.961 48.1939 132.961C47.8558 132.961 47.5726 133.043 47.3625 133.217C47.1523 133.4 47.0518 133.61 47.0518 133.866C47.0518 134.258 47.4904 134.724 48.3949 135.291L48.5502 135.391C49.272 135.83 49.7653 136.25 50.0029 136.579C50.213 136.944 50.3409 137.356 50.3409 137.876C50.3409 138.443 50.1308 138.936 49.6922 139.329C49.2811 139.695 48.7329 139.896 48.0568 139.896C47.6457 139.896 47.2802 139.841 46.9422 139.713C46.6133 139.612 46.3027 139.402 45.992 139.174ZM51.7662 132.102H52.826V136.506C52.826 136.999 52.8534 137.337 52.9265 137.538C52.9813 137.748 53.0544 137.931 53.1823 138.059C53.4199 138.342 53.6757 138.525 53.9863 138.653C54.297 138.808 54.635 138.863 55.0462 138.863C55.6948 138.863 56.2339 138.68 56.6268 138.342C57.0379 138.004 57.248 137.566 57.248 136.999V132.102H58.3352V137.027C58.3352 137.886 58.0246 138.58 57.4307 139.101C56.8095 139.649 56.0055 139.905 55.0462 139.905C54.4523 139.905 53.9315 139.804 53.4656 139.594C52.9996 139.384 52.6068 139.073 52.2778 138.69C52.0951 138.452 51.9398 138.196 51.8667 137.886C51.7845 137.602 51.7662 137.164 51.7662 136.561V132.102ZM60.2173 139.768V132.102H61.3046V138.781H64.9591V139.768H60.2173ZM67.5447 139.768V133.107H64.749V132.093H71.4551V133.107H68.6319V139.768H67.5447ZM73.2367 136.533H75.6213L74.4061 133.765L73.2367 136.533ZM70.7059 139.768L74.0224 132.102H74.8264L78.1977 139.768H77.0557L76.0689 137.511H72.8073L71.8205 139.768H70.7059ZM78.8098 139.174V137.721C79.1479 138.114 79.4859 138.397 79.7966 138.58C80.1072 138.763 80.4453 138.836 80.8107 138.836C81.2036 138.836 81.4868 138.753 81.7152 138.58C81.9254 138.397 82.0533 138.169 82.0533 137.858C82.0533 137.621 81.971 137.392 81.8157 137.209C81.6604 137.027 81.3223 136.743 80.7559 136.405C79.8971 135.839 79.358 135.391 79.1205 135.108C78.9103 134.797 78.8098 134.432 78.8098 133.993C78.8098 133.4 79.02 132.934 79.4311 132.541C79.8423 132.148 80.3904 131.974 81.0665 131.974C81.3498 131.974 81.633 132.002 81.9253 132.102C82.2086 132.184 82.5192 132.312 82.8024 132.495V133.738C82.4644 133.482 82.1538 133.272 81.8705 133.144C81.5873 133.043 81.3041 132.961 81.0117 132.961C80.6737 132.961 80.3904 133.043 80.1803 133.217C79.9428 133.4 79.8423 133.61 79.8423 133.866C79.8423 134.258 80.3082 134.724 81.1853 135.291L81.368 135.391C82.0898 135.83 82.5558 136.25 82.7933 136.579C83.0308 136.944 83.1313 137.356 83.1313 137.876C83.1313 138.443 82.9212 138.936 82.5101 139.329C82.0715 139.695 81.5508 139.896 80.8747 139.896C80.4635 139.896 80.0981 139.841 79.76 139.713C79.4311 139.612 79.1205 139.402 78.8098 139.174ZM88.1838 135.939C88.1838 136.332 88.266 136.716 88.3939 137.054C88.5492 137.42 88.7593 137.73 89.0426 138.013C89.2984 138.269 89.609 138.479 89.9745 138.635C90.3399 138.79 90.6963 138.872 91.0891 138.872C91.5003 138.872 91.8657 138.79 92.2312 138.635C92.5692 138.507 92.9073 138.297 93.1631 138.013C93.4463 137.73 93.6564 137.42 93.8118 137.054C93.9397 136.716 94.0219 136.332 94.0219 135.939C94.0219 135.547 93.9397 135.19 93.8118 134.852C93.6564 134.487 93.4463 134.176 93.1631 133.893C92.8799 133.61 92.5692 133.4 92.2038 133.244C91.8657 133.089 91.482 133.007 91.0891 133.007C90.7237 133.007 90.3399 133.089 90.0019 133.244C89.6364 133.4 89.3258 133.61 89.0426 133.893C88.7593 134.149 88.5492 134.459 88.3939 134.825C88.2569 135.181 88.1838 135.547 88.1838 135.939ZM87.0143 135.912C87.0143 135.391 87.1148 134.898 87.3249 134.414C87.5351 133.948 87.8183 133.509 88.202 133.144C88.5949 132.778 89.0334 132.495 89.5268 132.285C90.0202 132.075 90.5409 132.002 91.08 132.002C91.6464 132.002 92.1672 132.084 92.6606 132.285C93.1539 132.495 93.5925 132.778 93.9854 133.144C94.3782 133.537 94.6889 133.975 94.8899 134.441C95.0726 134.907 95.1731 135.428 95.1731 135.967C95.1731 136.506 95.0726 136.999 94.8624 137.465C94.6523 137.959 94.3691 138.37 93.9854 138.735C93.5925 139.128 93.1539 139.411 92.6606 139.612C92.1672 139.795 91.6464 139.896 91.08 139.896C90.5318 139.896 90.0202 139.795 89.5268 139.585C89.0334 139.375 88.5949 139.119 88.202 138.726C87.8092 138.361 87.4985 137.922 87.3249 137.429C87.1239 136.972 87.0143 136.451 87.0143 135.912ZM96.6532 139.768V132.102H97.5851L102.637 138.059V132.102H103.725V139.768H102.738L97.7404 133.811V139.768H96.6532ZM105.643 139.768V132.102H106.731V138.781H110.358V139.768H105.643ZM111.545 139.768V132.102H112.633V139.768H111.545ZM114.551 139.768V132.102H115.511L120.536 138.059V132.102H121.623V139.768H120.664L115.639 133.811V139.768H114.551ZM123.505 139.768V132.102H128.091V133.089H124.592V135.391H128.009V136.378H124.592V138.79H128.219V139.777H123.505V139.768Z" fill="white"/>
</svg>
