<?xml version="1.0" encoding="UTF-8"?>
<!DOCTYPE svg PUBLIC "-//W3C//DTD SVG 1.1//EN" "http://www.w3.org/Graphics/SVG/1.1/DTD/svg11.dtd">
<!-- Creator: CorelDRAW 2021 (64 Bit) -->
<svg xmlns="http://www.w3.org/2000/svg" xml:space="preserve" width="1360px" height="1371px" version="1.1" style="shape-rendering:geometricPrecision; text-rendering:geometricPrecision; image-rendering:optimizeQuality; fill-rule:evenodd; clip-rule:evenodd"
viewBox="0 0 1478.71 1490.78"
 xmlns:xlink="http://www.w3.org/1999/xlink"
 xmlns:xodm="http://www.corel.com/coreldraw/odm/2003">
 <defs>
  <style type="text/css">
   <![CDATA[
    .fil0 {fill:#373435;fill-rule:nonzero}
   ]]>
  </style>
 </defs>
 <g id="Camada_x0020_1">
  <metadata id="CorelCorpID_0Corel-Layer"/>
  <path class="fil0" d="M242.73 859.59c4.08,0.01 8.18,0.21 12.19,0.57l6.4 0.75 0.76 -0.69 150.09 -259.98c-23.84,-16.53 -44.51,-36.87 -61.31,-60.01 -17.11,-23.59 -30.21,-50.15 -38.53,-78.6l-292.4 0 0 413.8 114.45 40.95c11.45,-16.57 26.43,-30.09 43.6,-39.78 19.44,-10.97 41.69,-17.02 64.75,-17.01zm10.4 20.33c-3.46,-0.32 -6.95,-0.49 -10.4,-0.49 -19.61,0 -38.52,5.12 -55.03,14.44 -16.46,9.29 -30.6,22.84 -40.74,39.67l-4.2 6.97 -142.75 -51.08 0 -447.71 327.53 0 1.94 7.47c7.48,28.78 20.28,55.67 37.48,79.38 17.18,23.67 38.76,44.17 63.83,60.21l7.98 5.11c-53.68,93.01 -107.03,186.33 -161.13,279.09l-3 2.59c-1.85,2.05 -3.43,4.67 -5.01,6.94l-6.28 -1.16c-3.43,-0.63 -6.85,-1.12 -10.22,-1.43zm437.03 342.59l-354.99 -137.32c-26.06,25.88 -58.41,37.67 -90.34,37.86 -16.84,0.09 -33.61,-3.05 -49.25,-9.07 -15.65,-6.01 -30.22,-14.93 -42.68,-26.31 -23.57,-21.55 -39.68,-51.98 -41.66,-88.7l-91.33 -35.26 0 79.06 399.07 406.6 286.15 -165.22c-4.46,-9.22 -7.95,-18.83 -10.44,-28.66 -2.72,-10.71 -4.24,-21.77 -4.53,-32.98zm-353.98 -158.21l373.92 144.65 -0.13 6.95c-0.23,11.72 1.13,23.42 4,34.77 2.86,11.29 7.23,22.2 13.01,32.42l4.85 8.58 -316.23 182.59c-138.5,-141.18 -277.17,-282.2 -415.6,-423.45l0 -116.05 130.82 50.5 0.04 6.79c0.21,33.79 14.26,61.66 35.41,81 10.61,9.7 23.04,17.3 36.38,22.43 13.36,5.13 27.68,7.81 42.1,7.73 28.67,-0.17 57.78,-11.43 80.55,-36.34l4.57 -5.01 6.31 2.44zm832.11 -358.31l3.39 0.04c33.75,0 65.77,-10.33 92.38,-28.48 26.65,-18.17 47.96,-44.21 60.29,-75.61l3.29 -8.42 151.07 42.96 0 384.72 -124.56 -30.99 -1.64 -5.37c-4.4,-14.33 -12.35,-27.08 -22.82,-37.22 -10.43,-10.11 -23.4,-17.64 -37.89,-21.6 -15.19,-4.09 -30.9,-4 -45.56,-0.11 -14.67,3.89 -28.36,11.61 -39.48,22.72l-3.96 3.95 -149.33 -37.14c35.71,-69.88 71.45,-139.76 107.07,-209.69l7.75 0.24zm4.2 19.95l-90 176.25 114.4 28.46c12.83,-11.53 28.06,-19.64 44.29,-23.95 18.01,-4.79 37.27,-4.9 55.82,0.15 17.82,4.9 33.74,14.14 46.53,26.54 11.5,11.13 20.51,24.84 26.14,40.21l89.12 22.18 0 -344.28 -119.46 -33.97c-14.17,31.48 -36.59,57.69 -64.07,76.43 -29.68,20.24 -65.27,31.81 -102.77,31.98zm44.09 -516.59l0 154.33c39.36,9.9 73.18,32.17 97.59,62.11 24.84,30.45 39.97,68.88 41.3,110.28l103.32 29.37 0 -109.4 -242.21 -246.69zm-19.91 162.22l0 -210.83 282.04 287.25 0 143.76 -143.29 -40.73 0.31 -9.27c-0.07,-38.83 -13.77,-75.02 -36.95,-103.44 -23.23,-28.48 -56,-49.18 -94.14,-57.01l-7.97 -1.65 0 -8.08zm-208.92 170.44c0.03,-5.53 0.29,-11.06 0.79,-16.52l0.83 -7.44 -186.92 -53.14c-9.67,31.55 -25.26,60.65 -45.61,85.86 -20.76,25.72 -46.49,47.44 -75.97,63.63l146.86 452.38c12.51,-1.17 25.08,-0.82 37.39,1.07 11.89,1.82 23.61,5.07 34.9,9.75l189.45 -371.05c-29.42,-14.69 -53.83,-36.76 -71.37,-63.37 -19.4,-29.46 -30.37,-64.46 -30.35,-101.17zm20.55 -14.74c-0.45,4.9 -0.69,9.85 -0.69,14.73 0.04,32.85 9.79,64.08 27.06,90.29 17.27,26.22 42.11,47.51 72.28,60.45l9.75 4.19c-67.6,132.55 -134.59,265.82 -203.12,397.84l-6.46 8.02 -7.12 -3.48c-11.93,-5.83 -24.71,-9.78 -37.84,-11.78 -13.15,-2.01 -26.61,-2.04 -39.91,-0.05l-8.29 1.23 -153.88 -474.01c-0.78,-3.57 -1.38,-7.26 -2.06,-10.84l6.63 -3.37c30.02,-15.28 56.07,-36.57 76.72,-62.16 20.68,-25.62 36.03,-55.58 44.63,-88.13l2.47 -9.39c74.14,17.59 149.8,42.05 223.43,62.96l-1.61 8.87c-0.87,4.83 -1.55,9.72 -1.99,14.63zm357.1 530.55c-10.19,21.15 -26.75,37.81 -46.55,48.28 -22.24,11.75 -48.62,15.74 -74.74,9.6 -26.62,-6.25 -48.79,-22.02 -63.49,-43.04 -13.11,-18.73 -20.27,-41.62 -19.35,-65.58l-117.49 -29.23 -78.75 150.91c19.99,27.42 29.64,59.87 29.05,92.13 -0.59,31.97 -11.24,63.75 -31.85,90.27l120.86 110.81 345.25 -348.49 -62.94 -15.66zm-55.81 30.71c18.18,-9.6 32.99,-25.58 40.81,-45.91l3.16 -8.22 113.46 28.23c-127.71,129 -255.42,258.03 -383.29,386.88 -47.73,-43.76 -105.47,-90.36 -148.35,-137.45l5.9 -6.68c21.37,-24.22 32.41,-54.42 32.96,-84.8 0.56,-30.36 -9.35,-60.96 -29.83,-85.98l-5.64 -6.89 9.51 -9.69 85.17 -163.21 149.31 37.15 -1.04 8.69c-2.67,22.18 3.2,43.58 15.16,60.66 11.94,17.09 30.01,29.93 51.74,35.03 21.33,5.01 42.85,1.76 60.97,-7.81zm-413.46 271.69c-22.94,8.75 -47.32,11.69 -71.05,9.01 -23.72,-2.67 -46.83,-10.94 -67.26,-24.55l-211.56 126.18 468.05 0 -22.89 -21.46c-31.56,-29.59 -63.08,-59.15 -95.29,-89.18zm-68.87 -10.74c22.47,2.52 45.59,-0.72 67.07,-9.99l5.93 -2.57 4.76 4.43c32.93,30.69 66.5,62.17 100.01,93.58l48.25 45.24 -10.4 10.61 -568.76 0c94.9,-56.6 189.85,-113.11 284.69,-169.82l5.31 3.89c18.85,13.8 40.68,22.1 63.14,24.63zm-491.5 -451.48c11.37,11.35 20.51,24.65 27.06,39.11 7.6,16.83 11.68,35.3 11.67,54.23 -0.01,3.38 -0.13,6.52 -0.33,9.4l-0.09 1.24 346.96 124.23c4.2,-5.51 8.77,-10.73 13.68,-15.64 4.94,-4.93 10.21,-9.52 15.77,-13.74l-147.71 -454.93c-19.07,3.41 -38.43,4.64 -57.7,3.67 -19.55,-0.97 -38.99,-4.21 -57.92,-9.69l-151.39 262.12zm8.94 47.29c-6.48,-14.35 -16.01,-27.35 -28.05,-37.96l-6.11 -5.38c55.38,-95.74 114.6,-192.94 167.12,-289.87l7.86 2.55c19.67,6.36 40.02,10.08 60.48,11.11 20.46,1.03 41.09,-0.64 61.36,-5.02l7.5 -1.62c3.24,6.47 6.51,12.69 9.89,19.12l-2.1 0.57 151.27 465.87 -6.15 4.2c-6.85,4.67 -13.25,9.98 -19.07,15.79 -5.81,5.8 -11.11,12.19 -15.8,19.04l-4.35 6.35 -376.23 -134.72 1.16 -8.03c0.37,-2.6 0.66,-5.27 0.84,-7.94 0.21,-2.91 0.33,-5.6 0.33,-8.01 0.01,-16.02 -3.47,-31.72 -9.95,-46.05zm457.59 -544.75l-2.66 -0.37 -5.96 0 0 -9.96c0,-34.59 -7.57,-68.28 -21.7,-98.88 -14.14,-30.63 -34.87,-58.25 -61.17,-80.65 -26.26,-22.38 -56.81,-38.46 -89.33,-47.56 -32.5,-9.1 -66.97,-11.23 -101.07,-5.75l-8.38 1.35 -51.53 -158.72 578.37 0 114.84 116.95 0 261.81 -8.36 1.36c-23.68,3.85 -45.95,12.81 -65.41,25.94 -19.48,13.14 -36.14,30.43 -48.57,50.92l-3.94 6.49 -215.09 -61.17c-3.32,-0.6 -6.7,-1.3 -10.04,-1.76zm11.32 -18.55l204.89 58.27c13.46,-20.24 30.61,-37.4 50.31,-50.69 19.49,-13.14 41.52,-22.56 64.98,-27.49l0 -237.08 -103.2 -105.09 -542.74 0 37.86 116.65c34.21,-4.35 68.59,-1.68 101.13,7.43 35.22,9.86 68.35,27.3 96.86,51.6 28.5,24.28 50.97,54.21 66.31,87.43 13.99,30.29 22.06,63.3 23.38,97.23l0.22 0 0 1.74zm-367.28 -221.87l-33.14 -102.08 -326.79 320.79 216.11 0c2.06,-46.71 16.79,-91 41.49,-128.72 24.89,-38.02 59.94,-69.44 102.33,-89.99zm-19.19 -123.47l43.32 133.44c-2.66,1.49 -5.33,3.13 -8.06,4.48 -42.4,18.79 -77.36,49.16 -101.76,86.42 -24.41,37.29 -38.29,81.47 -38.54,127.83l-0.06 9.92 -284.27 0 384.41 -377.35 4.96 15.26z"/>
 </g>
</svg>
