<?xml version="1.0" encoding="UTF-8"?>
<!DOCTYPE svg PUBLIC "-//W3C//DTD SVG 1.1//EN" "http://www.w3.org/Graphics/SVG/1.1/DTD/svg11.dtd">
<!-- Creator: CorelDRAW X8 -->
<svg xmlns="http://www.w3.org/2000/svg" xml:space="preserve" width="274.386mm" height="269.083mm" version="1.1" style="shape-rendering:geometricPrecision; text-rendering:geometricPrecision; image-rendering:optimizeQuality; fill-rule:evenodd; clip-rule:evenodd"
viewBox="0 0 27439 26908"
 xmlns:xlink="http://www.w3.org/1999/xlink">
 <defs>
  <style type="text/css">
   <![CDATA[
    .fil2 {fill:#16B89E}
    .fil3 {fill:#33BBA5}
    .fil1 {fill:#3F3F41}
    .fil0 {fill:#3F3F41;fill-rule:nonzero}
   ]]>
  </style>
 </defs>
 <g id="Camada_x0020_1">
  <metadata id="CorelCorpID_0Corel-Layer"/>
  <path class="fil0" d="M3905 23243c-254,145 -513,251 -777,325 -264,74 -541,107 -834,108 -327,1 -629,-51 -908,-146 -275,-101 -520,-248 -727,-445 -212,-201 -376,-436 -487,-710 -112,-267 -171,-560 -172,-871 -2,-654 213,-1181 652,-1583 435,-404 1011,-603 1725,-605 254,-1 508,22 749,79 246,56 490,142 726,256l3 989c-231,-148 -466,-262 -702,-333 -236,-75 -471,-113 -707,-112 -421,1 -758,117 -1001,354 -240,231 -362,548 -361,951 1,393 118,711 354,944 231,235 548,349 943,347 249,-1 504,-45 758,-136 259,-87 507,-222 762,-396l4 984zm773 352l-14 -4216 1052 -3 11 3399 1814 -6 3 816 -2866 10zm3520 -12l-15 -4216 1086 -3 14 4215 -1085 4zm3115 -2660l9 2651 -1046 4 -15 -4216 927 -3 2266 2502 -8 -2512 1046 -3 15 4216 -827 2 -2367 -2641zm5387 1086l1243 -4 -597 -1602 -646 1606zm-1762 1551l1825 -4222 1215 -4 1655 4210 -1118 4 -306 -820 -1815 6 -333 822 -1123 4zm6190 -793l609 -2c275,-1 471,-41 586,-118 115,-76 172,-202 172,-379 -1,-183 -64,-312 -185,-398 -125,-86 -317,-129 -581,-128l-605 2 4 1023zm537 -1779c192,0 336,-40 427,-111 96,-74 138,-179 138,-328 -1,-162 -49,-282 -141,-363 -96,-76 -235,-115 -427,-114l-542 2 3 916 542 -2zm-1595 2555l-14 -4216 1555 -5c552,-2 970,88 1254,270 283,182 423,449 424,805 1,188 -46,350 -142,490 -91,144 -235,255 -417,336 298,91 519,229 663,411 145,183 219,408 219,686 2,403 -136,706 -415,909 -273,202 -690,305 -1247,307l-1880 7zm4248 -350l-3 -937c317,196 582,330 803,411 217,75 427,114 633,113 207,-1 365,-30 471,-93 105,-68 159,-160 158,-284 0,-101 -34,-182 -102,-245 -63,-57 -221,-133 -462,-215 -600,-210 -1014,-423 -1240,-645 -226,-219 -342,-498 -343,-838 -1,-361 147,-655 439,-881 292,-226 676,-338 1145,-339 241,-1 480,27 720,84 241,56 480,142 716,251l3 869c-283,-143 -538,-247 -765,-314 -225,-72 -427,-103 -615,-103 -202,1 -351,30 -455,93 -105,58 -159,140 -159,250 1,86 48,167 140,245 97,81 241,153 428,224 39,15 101,38 183,67 403,147 692,275 870,381 183,110 317,253 415,431 92,177 140,384 141,619 1,390 -147,697 -439,918 -293,226 -700,338 -1224,339 -264,1 -513,-32 -759,-99 -242,-68 -478,-169 -699,-302z"/>
  <path class="fil1" d="M17506 12121l-4345 4369c-1976,1990 -5216,2001 -7206,24 -1990,-1976 -2001,-5216 -25,-7206l7751 -7809c1590,-1594 3989,-1919 5903,-965 -72,427 -136,851 -202,1278 -1506,-955 -3531,-771 -4837,540l-7756 7808c-1508,1518 -1499,3991 18,5498 1518,1507 3991,1499 5498,-19l4603 -4639c135,411 338,790 598,1121z"/>
  <path class="fil2" d="M15279 12215l-3192 3208c-1387,1397 -3668,1405 -5065,17 -1397,-1387 -1405,-3668 -17,-5065l3186 -3214 395 392c-445,807 -344,3471 -403,4572 1263,-48 3942,299 4814,-189l282 279z"/>
  <path class="fil3" d="M19971 11401c-10,0 -18,0 -33,0 -1609,6 -2920,-1291 -2925,-2905 -7,-1905 2195,-2402 2925,-6481 762,4074 2962,4556 2969,6461 5,1613 -1296,2920 -2905,2925 -7,0 -17,0 -31,0z"/>
  <path class="fil2" d="M11186 11365c5,5 24,-5 24,0l418 -17c888,-3 2195,516 3130,-107 1279,-855 692,-2604 -590,-2476l-455 59c-6,-154 119,-495 12,-887 -272,-1012 -1703,-1229 -2424,-165 -388,572 -341,1302 -263,1791l148 1802z"/>
  <polygon class="fil0" points="2738,25364 2738,26895 2431,26895 2431,25900 2021,26895 1789,26895 1376,25900 1376,26895 1069,26895 1069,25364 1418,25364 1905,26503 2392,25364 "/>
  <polygon class="fil0" points="3348,25612 3348,25996 3863,25996 3863,26239 3348,26239 3348,26645 3929,26645 3929,26895 3041,26895 3041,25362 3929,25362 3929,25612 "/>
  <path class="fil0" d="M5104 26503c88,-88 132,-212 132,-371 0,-159 -44,-284 -132,-374 -87,-90 -212,-135 -372,-135l-217 0 0 1011 217 0c160,0 285,-44 372,-131zm63 -1044c122,63 216,152 283,268 66,117 100,251 100,405 0,154 -34,288 -100,402 -67,115 -161,204 -283,267 -122,63 -264,94 -424,94l-535 0 0 -1531 535 0c160,0 302,32 424,95z"/>
  <polygon class="fil0" points="6087,26895 5780,26895 5780,25364 6087,25364 "/>
  <path class="fil0" d="M6417 25723c68,-119 161,-212 279,-279 117,-66 249,-99 395,-99 171,0 321,44 450,131 129,88 219,209 270,364l-353 0c-35,-73 -85,-128 -148,-164 -64,-37 -137,-55 -221,-55 -89,0 -168,21 -238,62 -69,42 -123,101 -162,177 -39,76 -58,165 -58,268 0,100 19,189 58,266 39,77 93,136 162,178 70,41 149,62 238,62 84,0 157,-18 221,-56 63,-37 113,-92 148,-165l353 0c-51,156 -141,278 -269,365 -128,87 -278,130 -451,130 -146,0 -278,-33 -395,-99 -118,-67 -211,-159 -279,-278 -68,-118 -102,-253 -102,-403 0,-151 34,-286 102,-405z"/>
  <polygon class="fil0" points="8381,26895 8074,26895 8074,25364 8381,25364 "/>
  <polygon class="fil0" points="9993,26895 9686,26895 8991,25845 8991,26895 8684,26895 8684,25362 8991,25362 9686,26415 9686,25362 9993,25362 "/>
  <path class="fil0" d="M11151 26358l-222 -641 -221 641 443 0zm83 245l-610 0 -100 292 -323 0 551 -1533 357 0 551 1533 -325 0 -101 -292z"/>
  <polygon class="fil0" points="12695,26895 12388,26895 12388,25364 12695,25364 "/>
  <polygon class="fil0" points="14307,26895 14000,26895 13304,25845 13304,26895 12997,26895 12997,25362 13304,25362 14000,26415 14000,25362 14307,25362 "/>
  <polygon class="fil0" points="15651,25364 15651,25612 15243,25612 15243,26895 14936,26895 14936,25612 14528,25612 14528,25364 "/>
  <polygon class="fil0" points="16182,25612 16182,25996 16697,25996 16697,26239 16182,26239 16182,26645 16763,26645 16763,26895 15875,26895 15875,25362 16763,25362 16763,25612 "/>
  <path class="fil0" d="M18107 25825c-35,-64 -83,-113 -145,-147 -61,-34 -133,-50 -215,-50 -90,0 -171,20 -241,61 -70,41 -125,99 -164,175 -40,76 -59,164 -59,264 0,102 20,191 60,267 40,76 96,135 168,176 71,41 155,61 250,61 117,0 212,-31 287,-93 74,-62 123,-149 147,-260l-527 0 0 -235 830 0 0 268c-21,107 -65,205 -132,296 -67,91 -154,163 -260,218 -106,55 -225,82 -356,82 -148,0 -281,-33 -401,-99 -119,-67 -212,-159 -280,-278 -68,-118 -102,-253 -102,-403 0,-151 34,-286 102,-405 68,-119 161,-212 280,-279 120,-66 252,-99 398,-99 173,0 323,42 450,126 127,84 215,202 263,354l-353 0z"/>
  <path class="fil0" d="M19033 26068l256 0c84,0 146,-20 187,-60 41,-40 61,-96 61,-168 0,-70 -20,-124 -61,-163 -41,-39 -103,-58 -187,-58l-256 0 0 449zm482 827l-338 -596 -144 0 0 596 -307 0 0 -1531 574 0c119,0 219,21 303,63 83,42 146,98 187,169 42,71 63,150 63,238 0,101 -29,192 -88,273 -58,81 -145,137 -261,168l366 620 -355 0z"/>
  <path class="fil0" d="M20987 26358l-222 -641 -221 641 443 0zm83 245l-610 0 -101 292 -322 0 550 -1533 358 0 550 1533 -324 0 -101 -292z"/>
  <polygon class="fil0" points="22743,25364 22743,25612 22335,25612 22335,26895 22028,26895 22028,25612 21620,25612 21620,25364 "/>
  <polygon class="fil0" points="23274,26895 22967,26895 22967,25364 23274,25364 "/>
  <polygon class="fil0" points="24952,25364 24390,26895 24017,26895 23456,25364 23785,25364 24206,26582 24625,25364 "/>
  <path class="fil0" d="M25991 26358l-221 -641 -222 641 443 0zm84 245l-610 0 -101 292 -322 0 550 -1533 358 0 550 1533 -325 0 -100 -292z"/>
 </g>
</svg>
