<?xml version="1.0" encoding="UTF-8"?>
<!DOCTYPE svg PUBLIC "-//W3C//DTD SVG 1.1//EN" "http://www.w3.org/Graphics/SVG/1.1/DTD/svg11.dtd">
<!-- Creator: CorelDRAW 2021 (64 Bit) -->
<svg xmlns="http://www.w3.org/2000/svg" xml:space="preserve" width="499px" height="119px" version="1.1" style="shape-rendering:geometricPrecision; text-rendering:geometricPrecision; image-rendering:optimizeQuality; fill-rule:evenodd; clip-rule:evenodd"
viewBox="0 0 576.27 137.57"
 xmlns:xlink="http://www.w3.org/1999/xlink"
 xmlns:xodm="http://www.corel.com/coreldraw/odm/2003">
 <defs>
  <style type="text/css">
   <![CDATA[
    .fil0 {fill:#FFFFFF;fill-rule:nonzero}
   ]]>
  </style>
 </defs>
 <g id="Camada_x0020_1">
  <metadata id="CorelCorpID_0Corel-Layer"/>
  <path class="fil0" d="M184.1 80.9c3.48,0.07 7.71,-0.67 7.68,-4.94 -0.07,-8.66 -22.9,-5.22 -22.78,-21.27 0.11,-15.63 20,-17.02 31.57,-10.99l-3.09 8.45c-3.37,-1.72 -6.48,-2.65 -10.3,-2.61 -3.63,0.04 -7.25,0.61 -7.2,4.32 0.08,6.22 12.48,5.62 19.25,12.15 2.75,2.65 3.64,6.3 3.6,10.02 -0.12,10.52 -8.31,13.96 -18.73,14 -5.39,0.02 -11.18,-0.98 -15.92,-3.64l3.02 -8.51c4.02,2.12 8.35,3.12 12.9,3.02zm376.87 0.82c2.81,0 5.15,-0.17 5.15,-2.67 0,-4.24 -12.95,-3.94 -15.92,-11.6 -1.64,-4.22 -0.83,-9.49 3.01,-12.49 5.3,-4.15 15.05,-3.39 21.48,-1.1l-1.78 7.96c-2.87,-0.99 -5.52,-1.6 -8.58,-1.58 -6.22,0.03 -5.18,3.76 -3.78,4.7 5.61,3.76 15.8,3.6 15.72,14.26 -0.07,8.44 -7.36,10.74 -15.37,10.82 -4.39,0.05 -8.35,-0.6 -12.42,-2.19l1.71 -8.31c3.41,1.35 7.1,2.19 10.78,2.2zm-33.28 0c2.81,0 5.15,-0.17 5.15,-2.67 0,-4.23 -12.95,-3.94 -15.93,-11.6 -1.63,-4.22 -0.82,-9.49 3.02,-12.49 5.3,-4.14 15.06,-3.4 21.48,-1.1l-1.78 7.96c-2.87,-0.99 -5.52,-1.6 -8.58,-1.58 -6.22,0.03 -5.18,3.76 -3.77,4.7 5.59,3.76 15.8,3.61 15.71,14.26 -0.07,8.45 -7.35,10.73 -15.37,10.82 -4.25,0.1 -8.47,-0.65 -12.42,-2.19l1.71 -8.31c3.41,1.35 7.1,2.19 10.78,2.2zm-35.34 -29.71c10.45,0 15.78,4.21 15.72,14.75l0 21.27c-7.09,1.56 -20.25,3.56 -26.84,-0.85 -4.65,-3.12 -5.33,-10.36 -2.98,-14.59 3.19,-5.74 11.66,-6.37 17.5,-5.79 0.84,0.08 1.68,0.23 2.5,0.44 0,-1.92 0.02,-3.52 -1.58,-5.15 -2.67,-2.72 -11.46,-1.39 -15.02,-0.13l-1.31 -8.24c3.39,-1.03 8.39,-1.72 12.01,-1.71zm0.82 29.92l5.08 -0.27 0 -7.76c-2.92,-0.65 -11.21,-1.36 -11.12,3.78 0.07,3.47 2.64,4.26 6.04,4.25zm-22.03 7.82c-5.68,-0.09 -12.35,-1.27 -13.82,-7.38 -0.41,-1.69 -0.61,-3.44 -0.59,-5.18l0 -39.73 10.23 -1.65 0 39.32c-0.02,4.04 1.34,6 5.62,6.18l-1.44 8.44zm-38.7 -40.01c-10.1,0 -14.08,5.96 -14.13,15.51 -0.05,8.4 3.9,15.68 13.17,15.58 1.93,-0.02 3.57,0 5.28,-0.34l0 -16.54 10.71 0 0 23.54c-7.66,2.66 -18.75,3.62 -26.39,0.82 -9.91,-3.63 -13.88,-13.1 -13.89,-23.06 -0.02,-19.98 16.31,-28.58 34.55,-23.36 1.63,0.46 3.73,1.34 5.04,2.16l-3.09 8.57c-3.5,-1.81 -7.28,-2.91 -11.25,-2.88zm-63.2 20.18c0,-8.95 -2.74,-9.7 -9.61,-8.72l0 27.86 -10.22 0 0 -34.86c5.66,-1.48 15.8,-3.2 21.17,-1.06 1.45,0.56 2.81,1.36 4.01,2.37 4.98,-3.43 12.06,-4.42 17.4,-2.16 6.29,2.65 7.33,9.22 7.3,15.33l0 20.38 -10.22 0 0 -19.14c0,-4.85 -0.68,-9.19 -5.63,-9.06 -1.48,0.04 -3.47,0.67 -4.73,1.44 0.68,2.26 0.75,4.63 0.75,7.07l0 19.69 -10.22 0 0 -19.14zm-61.62 1.37c-0.22,-10.25 6.56,-19.28 17.29,-19.28 12.01,0 17.31,8.63 16.54,20.48 -0.05,0.71 -0.09,1.34 -0.14,1.89l-23.19 0c0.43,4.84 5.07,6.86 9.95,6.86 3.25,0 6.93,-0.54 9.95,-1.78l1.37 8.3c-3.43,1.61 -8.9,2.22 -12.7,2.26 -11.66,0.13 -19.18,-7.01 -19.07,-18.73zm24.01 -3.91c-0.41,-8.09 -8.57,-8.32 -11.59,-4.8 -1.13,1.3 -1.66,3.12 -1.92,4.8l13.51 0zm-51.81 -23.4l10.23 -1.65 0 10.64 12.28 0 0 8.51 -12.28 0 0 12.69c0,6.59 2.97,7.83 9.09,6.76 1.09,-0.18 2.16,-0.47 3.19,-0.85l1.44 7.95c-8.24,3.31 -21.07,3.13 -23.29,-7.34 -0.46,-2.1 -0.68,-4.24 -0.66,-6.38l0 -30.33zm-22.57 37.74c2.82,0 5.15,-0.17 5.14,-2.67 0,-4.24 -12.95,-3.94 -15.92,-11.6 -1.63,-4.22 -0.82,-9.49 3.02,-12.49 5.3,-4.15 15.05,-3.39 21.48,-1.1l-1.78 7.96c-2.87,-0.99 -5.53,-1.6 -8.58,-1.58 -6.23,0.03 -5.17,3.77 -3.78,4.7 5.62,3.76 15.8,3.61 15.72,14.26 -0.07,8.45 -7.36,10.74 -15.37,10.82 -4.4,0.05 -8.34,-0.6 -12.42,-2.19l1.71 -8.3c3.41,1.34 7.1,2.18 10.78,2.19zm-15.79 -28.75c-4.01,13.52 -8.1,24.83 -13.83,37.26 -3.24,7.05 -6.67,11.57 -14.98,11.53 -2.7,-0.01 -5.24,-0.44 -7.76,-1.44l1.78 -8.17c2.79,1.01 7.45,1.75 9.65,-0.51 1.11,-1.18 1.96,-2.57 2.51,-4.08 -5.43,-10.65 -10.21,-22.72 -13.6,-34.59l10.84 0c1.84,7.14 5.05,16.94 7.72,23.81 2.51,-6.92 5.25,-16.62 7.1,-23.81l10.57 0z"/>
  <path class="fil0" d="M21.77 80.39c0.71,0.01 1.41,0.07 2.1,0.2 0.07,-0.1 0.15,-0.2 0.24,-0.29 0.06,-0.06 0.13,-0.12 0.2,-0.18l14.55 -25.2c-4.89,-3.13 -8.41,-7.99 -9.87,-13.61l-28.99 0 0 40.29 12.02 4.3c2.06,-3.42 5.76,-5.51 9.75,-5.51zm42.78 32.38l-34.37 -13.29c-6.96,7.61 -19.74,2.71 -19.8,-7.62 -3.46,-1.34 -6.92,-2.67 -10.38,-4.01l0 9.13 38.1 38.81 28.16 -16.25c-1.17,-2.07 -1.76,-4.4 -1.71,-6.77zm44.11 -46.74c-0.17,0 -0.33,0 -0.49,-0.01l-9.21 18.05 12.32 3.07c2.32,-2.32 5.7,-3.21 8.86,-2.35 3.02,0.82 5.4,3.14 6.32,6.12l9.98 2.48 0 -34.09 -12.64 -3.59c-2.44,6.23 -8.45,10.32 -15.14,10.32zm3.27 -49.65l0 17.44c7.56,1.56 13,8.22 13,15.94 0,0.05 0,0.1 -0.01,0.15l11.52 3.28 0 -11.84 -24.51 -24.97zm-19.55 33.38c0.01,-0.97 0.09,-1.95 0.27,-2.91l-18.96 -5.39 -0.21 -0.05c-1.67,6.35 -5.97,11.68 -11.82,14.65 0.01,0.07 0.02,0.14 0.03,0.21l14.15 43.59c2.66,-0.4 5.39,0.01 7.81,1.2l0.08 -0.1 18.51 -36.24c-5.98,-2.57 -9.86,-8.45 -9.86,-14.96l0 0zm33.86 47.16c-1.63,4.24 -6.15,6.64 -10.6,5.6 -4.52,-1.07 -7.52,-5.36 -6.97,-9.97l-12.46 -3.1c-2.64,5.07 -5.29,10.13 -7.93,15.2l-0.1 -0.11 -0.06 0.06c4.12,5.03 3.98,12.3 -0.32,17.18l0.15 0.16c4.15,3.81 8.3,7.61 12.45,11.42l34.07 -34.4 -8.23 -2.04zm-43.16 28.29c-4.31,1.86 -9.3,1.3 -13.09,-1.48l-23.2 13.84 49.43 0 0.04 -0.03c-4.39,-4.11 -8.77,-8.23 -13.18,-12.33zm-53.78 -41.98c2.45,2.16 3.87,5.28 3.87,8.56 0,0.54 -0.04,1.08 -0.12,1.62l33.8 12.11c0.94,-1.38 2.13,-2.57 3.51,-3.51l-14.24 -43.83 0.02 -0.01c-0.02,-0.04 -0.05,-0.09 -0.07,-0.14 -3.94,0.86 -8.04,0.65 -11.87,-0.59l-0.02 0.03 -14.88 25.76zm44.94 -47.66l0 0.04c0.06,0.01 0.13,0.02 0.19,0.03l0 -0.09 20.31 5.78c2.47,-4.07 6.6,-6.86 11.3,-7.62l0 -23.33 -10.19 -10.38 -52.43 0 4.18 12.87c6.65,-1.07 13.43,0.83 18.55,5.2 5.13,4.36 8.08,10.76 8.08,17.5l0.01 0zm-32.29 -21.03l-3.81 -11.76 -33.26 32.65 23.39 0c0.05,-9.05 5.4,-17.22 13.67,-20.88l0.01 -0.01z"/>
 </g>
</svg>
