<svg width="190" height="179" viewBox="0 0 190 179" fill="none" xmlns="http://www.w3.org/2000/svg">
<g clip-path="url(#clip0_6_18)">
<path d="M26.9 160.05C25.14 161.04 23.36 161.78 21.54 162.26C19.7 162.74 17.77 163 15.79 163C13.49 163 11.42 162.66 9.53 161.95C7.6 161.27 5.96 160.25 4.51 158.89C3.04 157.5 1.93 155.86 1.17 154.01C0.4 152.14 0 150.13 0 147.97C0 143.46 1.5 139.81 4.51 137.06C7.54 134.28 11.51 132.89 16.47 132.89C18.23 132.89 19.96 133.09 21.63 133.49C23.33 133.89 25 134.48 26.65 135.28V142.11C25.03 141.06 23.42 140.27 21.8 139.76C20.18 139.25 18.57 138.99 16.95 138.99C14 138.99 11.71 139.78 10.01 141.37C8.34 142.99 7.49 145.17 7.49 147.97C7.49 150.69 8.31 152.85 9.9 154.46C11.52 156.1 13.67 156.9 16.39 156.9C18.15 156.9 19.88 156.59 21.63 155.99C23.39 155.37 25.14 154.46 26.9 153.24V160.05ZM32.2 162.48V133.4H39.49V156.87H51.99V162.48H32.2ZM56.49 162.48V133.4H63.97V162.48H56.49ZM78.04 144.23V162.49H70.87V133.4H77.25L92.81 150.75V133.4H100.01V162.48H94.31L78.04 144.23ZM115.17 151.83H123.76L119.68 140.77L115.17 151.83ZM103.01 162.48L115.68 133.4H124.07L135.38 162.48H127.67L125.6 156.81H113.07L110.75 162.48H103.01ZM145.73 157.16H149.95C151.82 157.16 153.15 156.9 153.98 156.37C154.77 155.86 155.17 154.98 155.17 153.76C155.17 152.51 154.74 151.58 153.89 150.98C153.04 150.38 151.71 150.1 149.89 150.1H145.72V157.16H145.73ZM149.5 144.91C150.8 144.91 151.77 144.65 152.42 144.14C153.07 143.66 153.38 142.89 153.38 141.87C153.38 140.76 153.07 139.91 152.42 139.38C151.77 138.84 150.78 138.56 149.5 138.56H145.73V144.91H149.5ZM138.42 162.48V133.4H149.13C152.96 133.4 155.85 134.05 157.78 135.3C159.74 136.55 160.7 138.42 160.7 140.88C160.7 142.16 160.39 143.29 159.74 144.25C159.06 145.21 158.1 145.98 156.85 146.55C158.89 147.2 160.39 148.14 161.39 149.38C162.38 150.66 162.89 152.24 162.89 154.14C162.89 156.92 161.93 159.02 160.03 160.38C158.13 161.77 155.24 162.48 151.41 162.48H138.42ZM167.7 160.16V153.73C169.91 155.09 171.75 156.03 173.26 156.56C174.76 157.1 176.21 157.38 177.63 157.38C179.05 157.38 180.12 157.15 180.86 156.73C181.6 156.28 181.97 155.62 181.97 154.77C181.97 154.09 181.74 153.52 181.29 153.1C180.84 152.67 179.76 152.16 178.09 151.6C173.95 150.13 171.12 148.65 169.56 147.12C168 145.62 167.21 143.69 167.21 141.31C167.21 138.84 168.23 136.83 170.27 135.27C172.28 133.71 174.92 132.95 178.18 132.95C179.82 132.95 181.5 133.15 183.14 133.55C184.81 133.98 186.46 134.54 188.07 135.34V141.29C186.11 140.3 184.36 139.59 182.83 139.11C181.27 138.63 179.85 138.4 178.58 138.4C177.19 138.4 176.14 138.6 175.43 139C174.69 139.43 174.32 139.99 174.32 140.73C174.32 141.35 174.66 141.92 175.31 142.46C175.93 143 176.93 143.51 178.23 143.99C178.51 144.1 178.94 144.25 179.51 144.47C182.29 145.49 184.27 146.37 185.49 147.11C186.74 147.88 187.7 148.87 188.32 150.09C188.97 151.31 189.28 152.75 189.28 154.37C189.28 157.06 188.29 159.16 186.25 160.69C184.21 162.25 181.4 163.01 177.8 163.01C175.99 163.01 174.26 162.78 172.56 162.3C170.87 161.8 169.26 161.1 167.7 160.16Z" fill="white"/>
<path fill-rule="evenodd" clip-rule="evenodd" d="M120.98 83.62L90.93 113.67C77.24 127.36 54.87 127.36 41.18 113.67C27.49 100.01 27.49 77.61 41.18 63.95L94.87 10.26C105.84 -0.710003 122.39 -2.89 135.58 3.74C135.07 6.66 134.62 9.61 134.19 12.56C123.82 5.93 109.81 7.15 100.8 16.19L47.11 69.85C36.68 80.28 36.68 97.35 47.11 107.78C57.51 118.21 74.58 118.21 85.01 107.78L116.9 75.89C117.81 78.72 119.2 81.33 120.98 83.62Z" fill="white"/>
<path fill-rule="evenodd" clip-rule="evenodd" d="M105.62 84.22L83.54 106.3C73.93 115.91 58.2 115.91 48.59 106.3C38.98 96.69 38.98 80.96 48.59 71.35L70.67 49.27L73.36 51.99C70.3 57.52 70.92 75.91 70.5 83.51C79.17 83.2 97.68 85.66 103.69 82.29L105.62 84.22Z" fill="white"/>
<path fill-rule="evenodd" clip-rule="evenodd" d="M138.02 78.75C137.93 78.75 137.88 78.75 137.79 78.75C126.68 78.75 117.69 69.74 117.69 58.65C117.69 45.47 132.86 42.1 138.01 14C143.17 42.09 158.36 45.46 158.36 58.65C158.36 69.73 149.35 78.75 138.23 78.75C138.16 78.75 138.1 78.75 138.02 78.75Z" fill="white"/>
<path fill-rule="evenodd" clip-rule="evenodd" d="M77.39 78.3C77.45 78.3 77.59 78.24 77.56 78.27L80.45 78.18C86.57 78.18 95.59 81.78 102.05 77.5C110.89 71.63 106.9 59.56 98.02 60.41L94.87 60.81C94.87 59.73 95.72 57.41 94.98 54.66C93.14 47.72 83.24 46.18 78.26 53.5C75.57 57.44 75.88 62.49 76.42 65.86L77.39 78.3Z" fill="white"/>
<path d="M33.87 176.52V177.99C33.3 178.27 32.76 178.5 32.2 178.64C31.63 178.78 31.09 178.87 30.53 178.87C29.99 178.87 29.48 178.78 29 178.67C28.52 178.53 28.06 178.3 27.64 178.05C26.96 177.6 26.42 177 26.05 176.32C25.65 175.61 25.45 174.85 25.45 174.02C25.45 173.4 25.59 172.8 25.85 172.21C26.11 171.64 26.45 171.13 26.93 170.68C27.41 170.23 27.98 169.86 28.57 169.63C29.19 169.4 29.87 169.29 30.61 169.29C31.15 169.29 31.66 169.35 32.17 169.46C32.68 169.6 33.22 169.77 33.79 170.03V171.48C33.19 171.17 32.66 170.94 32.12 170.77C31.61 170.63 31.1 170.54 30.62 170.54C29.54 170.54 28.66 170.88 27.96 171.56C27.26 172.24 26.88 173.06 26.88 174.08C26.88 175.07 27.22 175.92 27.93 176.6C28.64 177.25 29.49 177.59 30.54 177.59C31.11 177.59 31.65 177.5 32.18 177.33C32.74 177.14 33.31 176.88 33.87 176.52ZM36.6 174.08C36.6 174.56 36.69 175.02 36.86 175.44C37.03 175.87 37.29 176.23 37.63 176.57C37.94 176.91 38.34 177.17 38.76 177.34C39.19 177.51 39.64 177.6 40.12 177.6C40.6 177.6 41.06 177.51 41.48 177.34C41.91 177.17 42.3 176.91 42.61 176.57C42.95 176.23 43.21 175.86 43.38 175.44C43.58 175.01 43.66 174.56 43.66 174.08C43.66 173.6 43.57 173.17 43.4 172.75C43.2 172.32 42.95 171.93 42.61 171.59C42.27 171.25 41.9 170.99 41.48 170.82C41.05 170.62 40.6 170.54 40.12 170.54C39.67 170.54 39.21 170.63 38.79 170.82C38.36 170.99 37.97 171.25 37.63 171.59C37.29 171.9 37.03 172.3 36.86 172.72C36.69 173.14 36.6 173.6 36.6 174.08ZM35.18 174.02C35.18 173.42 35.29 172.8 35.55 172.23C35.81 171.63 36.17 171.12 36.63 170.67C37.11 170.22 37.65 169.88 38.25 169.65C38.85 169.39 39.47 169.28 40.12 169.28C40.8 169.28 41.42 169.39 42.02 169.65C42.64 169.88 43.15 170.22 43.61 170.67C44.09 171.15 44.46 171.66 44.72 172.23C44.95 172.83 45.09 173.45 45.09 174.1C45.09 174.75 44.95 175.35 44.69 175.94C44.46 176.51 44.09 177.02 43.64 177.47C43.16 177.92 42.62 178.26 42.02 178.49C41.42 178.75 40.8 178.86 40.12 178.86C39.47 178.86 38.82 178.75 38.22 178.49C37.62 178.23 37.09 177.89 36.63 177.47C36.15 176.99 35.78 176.48 35.55 175.88C35.29 175.33 35.18 174.7 35.18 174.02ZM46.83 178.7V169.43H47.99L54.08 176.63V169.43H55.41V178.7H54.22L48.15 171.5V178.7H46.83ZM57.2 177.99V176.23C57.63 176.71 58.02 177.05 58.39 177.28C58.79 177.48 59.18 177.59 59.64 177.59C60.09 177.59 60.46 177.48 60.72 177.28C60.98 177.05 61.12 176.77 61.12 176.4C61.12 176.09 61.03 175.83 60.84 175.61C60.67 175.38 60.24 175.04 59.56 174.62C58.51 173.94 57.86 173.43 57.6 173.06C57.32 172.69 57.2 172.24 57.2 171.73C57.2 171.02 57.46 170.43 57.97 169.97C58.48 169.49 59.13 169.26 59.93 169.26C60.3 169.26 60.64 169.32 60.98 169.43C61.35 169.52 61.69 169.69 62.03 169.91V171.41C61.63 171.07 61.26 170.84 60.92 170.7C60.58 170.53 60.21 170.47 59.87 170.47C59.47 170.47 59.13 170.56 58.85 170.78C58.59 170.98 58.48 171.23 58.48 171.57C58.48 172.02 59.02 172.59 60.1 173.27L60.3 173.38C61.21 173.95 61.77 174.43 62.06 174.83C62.32 175.26 62.46 175.79 62.46 176.42C62.46 177.13 62.2 177.7 61.69 178.15C61.18 178.63 60.53 178.86 59.73 178.86C59.22 178.86 58.77 178.77 58.37 178.63C57.97 178.49 57.57 178.3 57.2 177.99ZM64.18 169.43H65.48V174.76C65.48 175.36 65.51 175.78 65.59 176.01C65.65 176.27 65.76 176.49 65.9 176.66C66.18 176.97 66.5 177.23 66.86 177.37C67.26 177.54 67.68 177.63 68.16 177.63C68.95 177.63 69.61 177.43 70.09 177.01C70.57 176.58 70.83 176.05 70.83 175.37V169.45H72.13V175.4C72.13 176.45 71.76 177.27 71.02 177.92C70.28 178.57 69.32 178.88 68.16 178.88C67.45 178.88 66.8 178.74 66.23 178.51C65.69 178.25 65.21 177.89 64.81 177.4C64.58 177.12 64.41 176.8 64.3 176.44C64.21 176.1 64.16 175.56 64.16 174.82V169.43H64.18ZM74.44 178.7V169.43H75.74V177.51H80.16V178.7H74.44ZM83.31 178.7V170.65H79.88V169.43H88.02V170.65H84.62V178.7H83.31ZM90.17 174.79H93.06L91.59 171.45L90.17 174.79ZM87.11 178.7L91.14 169.43H92.1L96.18 178.7H94.79L93.6 175.98H89.66L88.47 178.7H87.11ZM96.92 177.99V176.23C97.35 176.71 97.74 177.05 98.14 177.28C98.51 177.48 98.93 177.59 99.36 177.59C99.81 177.59 100.18 177.48 100.44 177.28C100.72 177.05 100.84 176.77 100.84 176.4C100.84 176.09 100.75 175.83 100.58 175.61C100.41 175.38 99.96 175.04 99.3 174.62C98.25 173.94 97.6 173.43 97.32 173.06C97.06 172.69 96.92 172.24 96.92 171.73C96.92 171.02 97.18 170.43 97.69 169.97C98.2 169.49 98.85 169.26 99.65 169.26C100.02 169.26 100.39 169.32 100.73 169.43C101.07 169.52 101.41 169.69 101.78 169.91V171.41C101.35 171.07 100.99 170.84 100.65 170.7C100.31 170.53 99.97 170.47 99.63 170.47C99.2 170.47 98.86 170.56 98.61 170.78C98.35 170.98 98.21 171.23 98.21 171.57C98.21 172.02 98.75 172.59 99.85 173.27L100.05 173.38C100.93 173.95 101.5 174.43 101.78 174.83C102.06 175.26 102.21 175.79 102.21 176.42C102.21 177.13 101.95 177.7 101.44 178.15C100.9 178.63 100.25 178.86 99.46 178.86C98.95 178.86 98.52 178.77 98.1 178.63C97.68 178.5 97.31 178.3 96.92 177.99ZM107.38 178.7V169.43H108.54L111.86 173.34L115.2 169.43H116.36V178.7H115.06V171.47L111.86 175.21L108.66 171.47V178.7H107.38ZM118.63 178.7V169.43H124.21V170.62H119.93V173.43H124.07V174.62H119.93V177.51H124.32V178.7H118.63ZM120.5 168.55L121.89 166.23H123.05L121.21 168.55H120.5ZM129.71 170.71H127.61V177.46H129.71C130.84 177.46 131.75 177.15 132.4 176.55C133.05 175.95 133.36 175.13 133.36 174.08C133.36 173.03 133.05 172.21 132.4 171.61C131.75 170.99 130.85 170.71 129.71 170.71ZM129.71 169.43C130.39 169.43 130.99 169.52 131.47 169.63C131.95 169.77 132.41 169.97 132.83 170.25C133.45 170.68 133.94 171.21 134.28 171.87C134.62 172.55 134.79 173.26 134.79 174.08C134.79 174.87 134.62 175.61 134.28 176.26C133.94 176.94 133.46 177.48 132.83 177.9C132.43 178.18 131.98 178.38 131.47 178.5C130.99 178.64 130.39 178.7 129.71 178.7H126.31V169.43H129.71ZM136.69 178.7V169.43H138.02V178.7H136.69ZM148.22 176.52V177.99C147.68 178.27 147.14 178.5 146.58 178.64C146.02 178.78 145.45 178.87 144.91 178.87C144.37 178.87 143.86 178.78 143.38 178.67C142.9 178.53 142.44 178.3 142.02 178.05C141.34 177.6 140.8 177 140.4 176.32C140.03 175.61 139.83 174.85 139.83 174.02C139.83 173.4 139.97 172.8 140.23 172.21C140.46 171.64 140.83 171.13 141.28 170.68C141.79 170.23 142.33 169.86 142.95 169.63C143.57 169.4 144.25 169.29 144.99 169.29C145.5 169.29 146.04 169.35 146.55 169.46C147.06 169.6 147.6 169.77 148.14 170.03V171.48C147.57 171.17 147.01 170.94 146.5 170.77C145.99 170.63 145.48 170.54 145 170.54C143.92 170.54 143.02 170.88 142.31 171.56C141.6 172.24 141.26 173.06 141.26 174.08C141.26 175.07 141.6 175.92 142.31 176.6C142.99 177.25 143.87 177.59 144.92 177.59C145.46 177.59 146 177.5 146.56 177.33C147.09 177.14 147.66 176.88 148.22 176.52ZM151.82 174.79H154.68L153.23 171.45L151.82 174.79ZM148.76 178.7L152.76 169.43H153.75L157.8 178.7H156.44L155.25 175.98H151.28L150.12 178.7H148.76ZM158.57 177.99V176.23C159 176.71 159.39 177.05 159.76 177.28C160.16 177.48 160.55 177.59 160.98 177.59C161.46 177.59 161.8 177.48 162.09 177.28C162.35 177.05 162.49 176.77 162.49 176.4C162.49 176.09 162.4 175.83 162.21 175.61C162.04 175.38 161.61 175.04 160.93 174.62C159.88 173.94 159.23 173.43 158.97 173.06C158.69 172.69 158.54 172.24 158.54 171.73C158.54 171.02 158.8 170.43 159.31 169.97C159.82 169.49 160.5 169.26 161.29 169.26C161.66 169.26 162 169.32 162.34 169.43C162.68 169.52 163.05 169.69 163.39 169.91V171.41C162.99 171.07 162.62 170.84 162.28 170.7C161.91 170.53 161.57 170.47 161.23 170.47C160.83 170.47 160.49 170.56 160.21 170.78C159.95 170.98 159.81 171.23 159.81 171.57C159.81 172.02 160.38 172.59 161.45 173.27L161.65 173.38C162.53 173.95 163.12 174.43 163.41 174.83C163.67 175.26 163.81 175.79 163.81 176.42C163.81 177.13 163.55 177.7 163.04 178.15C162.53 178.63 161.88 178.86 161.08 178.86C160.57 178.86 160.12 178.77 159.72 178.63C159.32 178.49 158.94 178.3 158.57 177.99Z" fill="white"/>
</g>
<defs>
<clipPath id="clip0_6_18">
<rect width="189.27" height="178.87" fill="white"/>
</clipPath>
</defs>
</svg>
