<svg width="262" height="110" viewBox="0 0 262 110" fill="none" xmlns="http://www.w3.org/2000/svg">
<g clip-path="url(#clip0_109_2)">
<path d="M63.1825 83.2928C63.1825 79.1987 62.5105 75.3155 61.2983 71.6895C60.0267 67.9317 58.1622 64.4573 55.8101 61.3521L63.0574 55.801C65.5807 59.1106 67.6495 62.7893 69.2043 66.7318C69.7841 66 70.4166 65.3143 71.0688 64.6551C75.9442 59.7764 82.6644 56.7504 90.1158 56.7504C97.5475 56.7504 104.274 59.7764 109.15 64.6551C114.025 69.5337 117.029 76.2583 117.029 83.7015V109.993H107.878V83.7015C107.878 78.7833 105.902 74.3398 102.686 71.1226C99.4581 67.9053 95.011 65.9077 90.1158 65.9077C85.2009 65.9077 80.7603 67.9053 77.5254 71.1226C74.3103 74.3398 72.3338 78.7833 72.3338 83.7015V109.993H63.1825V83.7015C63.1825 83.5763 63.1825 83.4246 63.1825 83.2928ZM170.81 110V83.7081C170.81 78.7899 168.814 74.3464 165.599 71.1292C162.384 67.9119 157.943 65.9143 153.028 65.9143C148.113 65.9143 143.673 67.9119 140.458 71.1292C137.242 74.3464 135.246 78.7899 135.246 83.7081V110H126.102V83.7081C126.102 83.5565 126.102 83.4114 126.121 83.2598H126.102C126.102 79.2053 125.43 75.3353 124.197 71.7687C122.893 68.0701 120.982 64.6287 118.578 61.5829L125.733 55.8999C128.328 59.1699 130.476 62.8487 132.064 66.8109C132.683 66.0461 133.316 65.3341 134.008 64.6617C138.883 59.783 145.603 56.757 153.041 56.757C160.473 56.757 167.213 59.783 172.075 64.6617C176.951 69.5403 179.975 76.2649 179.975 83.7081V110H170.81ZM233.986 110C233.986 105.082 231.99 100.638 228.775 97.421C225.56 94.2038 221.119 92.2062 216.204 92.2062C211.289 92.2062 206.849 94.2038 203.634 97.421C200.405 100.638 198.422 105.082 198.422 110H189.271V83.7081C189.271 76.2715 192.275 69.5403 197.151 64.6617C202.026 59.783 208.766 56.757 216.198 56.757C223.629 56.757 230.356 59.783 235.231 64.6617C240.107 69.5403 243.111 76.2649 243.111 83.7081V110H233.986ZM216.211 83.0488C223.03 83.0488 229.249 85.5936 233.993 89.7603V83.7081C233.993 78.7899 231.997 74.3464 228.781 71.1292C225.566 67.9119 221.126 65.9143 216.211 65.9143C211.296 65.9143 206.855 67.9119 203.64 71.1292C200.412 74.3464 198.429 78.7899 198.429 83.7081V89.7603C203.172 85.5936 209.392 83.0488 216.211 83.0488ZM44.7087 110C44.7087 105.082 42.7124 100.638 39.4973 97.421C36.2822 94.2038 31.8416 92.2062 26.9267 92.2062C22.0118 92.2062 17.5712 94.2038 14.3561 97.421C11.1278 100.638 9.14467 105.082 9.14467 110H0V83.7081C0 76.2715 3.0043 69.5403 7.8797 64.6617C12.7551 59.783 19.495 56.757 26.9267 56.757C34.3584 56.757 41.0851 59.783 45.9605 64.6617C50.8359 69.5403 53.8402 76.2649 53.8402 83.7081V110H44.7087ZM26.9333 83.0488C33.7523 83.0488 39.9717 85.5936 44.7153 89.7603V83.7081C44.7153 78.7899 42.719 74.3464 39.5039 71.1292C36.2888 67.9119 31.8482 65.9143 26.9333 65.9143C22.0184 65.9143 17.5778 67.9119 14.3627 71.1292C11.1344 74.3464 9.15126 78.7899 9.15126 83.7081V89.7603C13.8949 85.5936 20.1143 83.0488 26.9333 83.0488ZM258.436 42.5496L242.801 41.3695V52.4783H233.67V41.3761L218.135 42.5562L217.443 33.4582L228.07 32.6341L214.57 19.0464L221.033 12.5987L233.677 25.3227V0H242.808V25.415L255.543 12.5921L262.007 19.0399L248.507 32.6275L259.134 33.4516L258.436 42.5496Z" fill="white"/>
</g>
<defs>
<clipPath id="clip0_109_2">
<rect width="262" height="110" fill="white"/>
</clipPath>
</defs>
</svg>
