<svg width="152" height="82" viewBox="0 0 152 82" fill="none" xmlns="http://www.w3.org/2000/svg">
<path d="M151 1H1V81H151V1Z" fill="white" stroke="#BBBDBF" stroke-width="0.5669" stroke-miterlimit="10" stroke-linecap="round" stroke-linejoin="round"/>
<path fill-rule="evenodd" clip-rule="evenodd" d="M34.2695 32.0659V25.3889C34.2695 24.3955 35.3439 23.2288 36.8225 23.2288H47.1036C48.3281 23.2288 49.4601 24.6727 49.4601 26.1976V30.645C44.5275 28.3578 41.1544 29.0624 39.4563 33.0362L34.2695 32.0659ZM52.8679 47.1525C47.5425 48.3886 41.5241 46.1475 35.2052 41.1225C31.7166 37.8533 32.4675 35.7625 34.8125 35.2542C37.4001 34.7112 41.9168 35.8087 44.2387 36.8945C44.2965 32.4702 45.8791 30.9916 49.3677 33.2788C52.8795 35.6007 57.015 44.9923 52.8679 47.1525ZM28.7247 33.4636H26.2064C25.1783 33.4636 24 34.8499 24 35.7856V46.598C24 47.6723 25.444 49.0586 26.4605 49.0586H34.0154V57.1333C34.0154 57.9419 35.1128 59.1664 36.3489 59.1664H46.8841C48.4667 59.1895 49.2753 58.196 49.4717 56.4171V50.5834C40.2303 50.4794 31.6357 44.3801 28.8633 40.8337C26.6569 38.4309 26.5414 35.9819 28.7247 33.4636ZM52.4636 33.4983H56.5067C58.1933 33.4983 59.568 34.8845 59.568 36.5595V45.8587C59.568 47.5453 58.2048 48.9199 56.5067 48.9199H54.7624C57.6966 45.5353 56.4374 40.1521 52.4636 33.4983Z" fill="#ED1F27"/>
<path fill-rule="evenodd" clip-rule="evenodd" d="M72.425 22.8938V25.8279C71.2005 25.0424 69.9645 24.3839 68.636 24.5688C66.73 24.9269 68.1162 26.2207 69.2252 26.6943C70.6691 27.3065 72.0323 28.1498 72.7138 28.9931C73.4647 29.9635 73.3838 31.6038 72.4828 32.5857C70.4843 34.7921 66.7993 34.4686 64.3734 33.2673L64.3503 30.3562C65.6326 31.0955 66.9379 31.6385 68.4281 31.5576C69.7103 31.4998 69.7103 30.6912 68.8209 30.0328C67.2614 28.8429 65.4593 28.8776 64.4543 26.7752C64.1539 26.1629 64.0384 25.5507 64.1539 24.9384C64.5005 23.171 66.2217 22.2353 67.8736 22.0389C69.0981 21.9003 70.5767 22.1198 72.425 22.8938ZM75.648 40.6951V37.4606C73.1643 36.2592 69.4216 36.2361 66.9841 37.5183C65.4593 38.3038 64.5929 39.7709 64.3041 41.3535C63.1143 48.0998 70.2071 50.387 75.6826 47.938L75.6595 44.6689C72.7947 46.6327 69.849 46.0898 68.5552 44.6458C66.7762 42.7051 68.8786 39.9326 70.8771 39.6092C72.425 39.3666 74.0538 39.7363 75.648 40.6951ZM73.0835 34.1452L78.4088 22.062H82.4058L87.6965 34.1452H84.023L82.8678 31.6269H77.9814L76.8147 34.1452H73.0835ZM80.4304 25.4236L78.7554 29.4552H82.1516L80.4304 25.4236ZM75.648 48.6774L80.9733 36.5942H84.9472L90.2379 48.6774H86.5875L85.4323 46.1591H80.5459L79.3561 48.6774H75.648ZM83.0065 39.9557L81.3314 43.9873H84.7161L83.0065 39.9557ZM99.4793 48.6774L104.805 36.5942H108.802L114.069 48.6774H110.419L109.264 46.1591H104.377L103.211 48.6774H99.4793ZM106.838 39.9557L105.163 43.9873H108.559L106.838 39.9557ZM112.845 34.1452L118.159 22.062H122.155L127.446 34.1452H123.773L122.618 31.6269H117.731L116.564 34.1452H112.845ZM120.192 25.4236L118.517 29.4552H121.913L120.192 25.4236ZM106.757 34.1105H110.303V25.0077H114.693V22.0389H110.303H106.757H102.356V25.0077H106.757V34.1105ZM88.2741 34.1683V22.0967H91.5663L97.504 28.5195V22.0505H101.131V34.099H97.9083L91.8436 27.6415V34.1683H88.2741ZM98.636 37.5414V40.4525C97.4115 39.6785 96.1755 39.0316 94.847 39.2164C92.941 39.5745 94.3272 40.8568 95.4362 41.3189C96.8802 41.9311 98.2433 42.7975 98.9248 43.6177C99.6757 44.6111 99.5948 46.2399 98.6938 47.2334C96.6953 49.4282 93.0334 49.1048 90.5844 47.9034L90.5613 44.9923C91.8436 45.7432 93.1489 46.2861 94.6622 46.2168C95.9214 46.1475 95.9214 45.3504 95.0434 44.692C93.4839 43.4906 91.6818 43.5253 90.6768 41.4344C90.3765 40.8221 90.261 40.2099 90.3765 39.5976C90.723 37.8187 92.4443 36.8945 94.0962 36.6981C95.3091 36.5595 96.7762 36.7559 98.636 37.5414Z" fill="#201F1F"/>
<path fill-rule="evenodd" clip-rule="evenodd" d="M68.3124 54.1065C64.0729 52.9513 63.6686 58.1034 66.0483 59.0737C66.6259 59.3048 68.6936 59.3972 69.3752 59.2355V51.3225L68.3355 51.2994L68.3124 54.1065ZM101.131 51.9463C100.865 52.108 100.681 52.339 100.912 52.7318C101.05 52.9628 101.431 53.1592 101.778 52.9166C102.356 52.5239 101.847 51.4611 101.131 51.9463ZM100.9 59.247L101.94 59.2701V54.0141L100.912 54.0372L100.9 59.247ZM108.594 59.2701H109.633V54.0372H108.605L108.594 59.2701ZM96.7414 55.1577V54.0603L95.7017 54.0372V59.2701H96.7298C96.7991 57.8839 96.314 55.3194 97.7233 54.9498C98.3355 54.788 98.7283 55.2385 99.0055 55.4349L99.5138 54.5223C99.2828 54.1642 98.4857 53.7715 97.8965 54.0141C97.1803 54.326 97.1341 54.8227 96.7414 55.1577ZM103.291 54.9729H104.25V56.8096C104.25 57.8377 104.158 58.6117 104.862 59.0622C105.486 59.4781 106.549 59.4896 107.196 59.0275L107.219 58.1149C106.145 58.4037 105.29 59.143 105.29 56.9944V54.9729L106.93 54.9498V54.0372L105.29 54.0141V52.9859L103.291 54.9729ZM92.4788 58.6463L92.5019 59.2701H93.5069L93.53 54.0372H92.4903C92.5134 54.9729 92.4903 55.9201 92.4903 56.8558C92.4903 57.3987 92.6174 57.7337 92.2708 58.0225C92.0398 58.2536 91.751 58.473 91.3005 58.4846C89.4637 58.5539 90.4572 56.0587 90.1453 54.0256L89.1403 54.0025C89.0479 54.7765 89.071 57.907 89.3598 58.4615C89.5908 58.912 90.1337 59.3394 90.85 59.3394C91.6932 59.3741 92.0629 58.9467 92.4788 58.6463ZM117.373 55.7122C117.673 55.5735 118.043 55.0075 118.828 54.9266C119.706 54.8227 119.984 55.227 119.984 56.0472C119.88 56.4746 117.535 56.4399 117.304 57.8955C117.142 58.9236 118.054 59.6629 119.21 59.2817C119.475 59.1893 119.729 58.9813 119.96 58.9236C120.376 59.5127 120.919 59.5474 121.578 59.1199C121.843 58.9351 121.763 58.7618 121.774 58.4153C121.485 58.5077 121.324 58.7618 121.035 58.6001C120.931 58.242 121 56.6594 121 56.1742C121 55.2154 120.931 54.6956 120.33 54.2913C119.464 53.6791 117.881 53.991 117.454 54.5801C117.304 54.7765 117.373 55.4234 117.373 55.7122ZM119.984 56.7172C119.244 56.902 117.662 57.5489 118.505 58.4384C118.852 58.7965 119.545 58.6232 119.833 58.3691C120.122 58.1034 119.984 57.1677 119.984 56.7172ZM75.798 58.7618V57.7915C75.3821 57.9186 74.6428 58.577 73.4761 58.346C72.6905 58.1843 72.2862 57.6067 72.1823 56.7403L75.8673 56.7172C76.0521 53.2978 72.0898 53.0668 71.3043 55.562C70.8538 57.0175 71.3967 58.242 72.2169 58.8889C72.7252 59.2701 73.3143 59.3741 74.0883 59.3163C74.9085 59.2932 75.2204 59.0737 75.798 58.7618ZM72.2169 56.128H74.8623C74.6774 54.2913 72.448 54.4299 72.2169 56.128ZM87.2689 58.7156V57.4565C86.6913 57.6875 86.4949 57.9648 85.5477 58.1958C79.9335 59.5127 79.8642 51.2878 85.4091 52.3853C86.1599 52.5239 86.6451 52.9051 87.1765 53.0553L87.1996 51.8654C83.5261 50.2135 80.1299 51.9925 80.1183 55.2848C80.0952 57.006 81.1811 58.4268 82.3478 58.9582C83.1218 59.3048 83.9535 59.4203 84.9239 59.351C86.0098 59.2701 86.4256 58.9813 87.2689 58.7156ZM111.701 59.016C112.694 59.2817 113.711 59.5589 114.762 59.2008C117.708 58.138 116.564 52.9975 113.411 54.0603C113.122 54.1527 112.891 54.2797 112.741 54.3837V51.3225L111.736 51.2994L111.701 59.016ZM112.764 58.242C113.734 58.5077 114.6 58.4384 115.063 57.7915C116.195 56.1511 114.45 53.9216 112.868 55.2732C112.833 55.3079 112.764 55.3656 112.741 55.4118C112.683 55.5967 112.729 57.9186 112.764 58.242ZM68.3355 58.3922L68.3124 55.0306C67.6886 54.8342 67.0879 54.6494 66.4757 55.0075C66.0252 55.2732 65.7017 55.7584 65.644 56.4861C65.5284 58.5308 66.984 58.4384 68.3355 58.3922Z" fill="#201F1F"/>
</svg>
