<svg width="152" height="82" viewBox="0 0 152 82" fill="none" xmlns="http://www.w3.org/2000/svg">
<path d="M151 1H1V81H151V1Z" fill="white" stroke="#BBBDBF" stroke-width="0.5669" stroke-miterlimit="10" stroke-linecap="round" stroke-linejoin="round"/>
<path d="M83.4901 28.2568C83.4901 28.6842 83.594 29.0885 83.7789 29.4235C84.5875 31.0408 83.0396 34.1482 80.7176 34.1367C78.904 34.1367 77.4138 35.6153 77.4138 37.4405C77.3907 39.2772 78.8925 40.7443 80.7061 40.7674C82.5428 40.7674 84.033 39.2888 84.033 37.4636C84.033 36.8744 83.8713 36.2968 83.6056 35.8117C82.4851 33.8479 84.3103 31.0639 86.0661 30.8444C87.6256 30.6596 89.6125 33.8479 88.4805 35.8232C88.1917 36.3084 88.0299 36.8629 88.0299 37.4751C88.0068 39.3119 89.5086 40.802 91.3337 40.8252C92.5698 40.8252 93.6325 40.1551 94.2332 39.1732C95.4 37.1632 98.7846 37.3943 99.7665 38.9422C100.229 39.6584 101.049 40.1436 101.961 40.1436C103.405 40.1436 104.584 38.9769 104.584 37.5329C104.584 36.0889 103.417 34.9222 101.973 34.9106C101.06 34.9106 100.252 35.3727 99.7781 36.1005C98.7731 37.6484 95.3884 37.8448 94.2217 35.8348C93.6441 34.8413 92.5813 34.1829 91.3568 34.1598C89.0234 34.1598 87.5101 31.0523 88.3303 29.4466C88.5151 29.1001 88.6191 28.7073 88.6191 28.2799C88.6191 26.8821 87.4639 25.727 86.0661 25.7039C84.6568 25.7039 83.5016 26.859 83.4901 28.2568Z" fill="#8CBE3F"/>
<path d="M55.2004 42.9854C56.8176 41.2065 56.8407 38.5264 55.3274 36.7475C53.0055 34.0097 53.3983 30.0936 57.0371 28.2222C59.6594 27.1248 61.4961 29.7817 60.9416 33.3281C60.5604 35.754 61.369 38.3301 63.3097 40.109C65.3429 41.9804 68.1153 42.5234 70.5758 41.7956C75.4507 40.4325 77.2643 43.3782 77.1603 46.1968C77.1257 47.3867 77.5762 48.5881 78.5234 49.4544C80.2331 51.0139 82.89 50.91 84.4726 49.2003C86.0321 47.4791 85.9166 44.8106 84.2069 43.2511C83.2481 42.3847 82.0467 42.0266 80.8569 42.1768H80.8338C78.0267 42.5349 74.9308 40.987 75.8665 36.0082C76.3748 33.4899 75.5777 30.7752 73.5446 28.9269C71.6039 27.1479 68.9586 26.5703 66.5904 27.1595C62.813 28.0952 60.9647 25.9696 61.1611 23.0817C61.2882 21.4067 60.6528 19.697 59.3244 18.4956C57.0256 16.3701 53.4214 16.5318 51.3074 18.8422C49.2974 21.0486 49.3436 24.3986 51.3305 26.5357C54.4033 29.8626 53.1673 33.9057 49.771 35.4883C49.1934 35.754 48.6736 36.1121 48.2462 36.6088C46.4788 38.538 46.6058 41.5184 48.535 43.2858C50.4526 45.0301 53.433 44.9146 55.2004 42.9854Z" fill="#1DA56C"/>
<path d="M52.2544 61.2719C52.5432 60.9831 52.6703 60.5557 52.6703 60.0128C52.6703 59.4583 52.5085 59.054 52.162 58.8229C51.8154 58.5919 51.2841 58.4764 50.5447 58.4764L49.1816 58.4533L49.1585 61.6762H50.718C51.4804 61.6878 51.9772 61.5607 52.2544 61.2719ZM53.2248 57.9681C53.7792 58.4302 54.068 59.1579 54.0565 60.1283C54.0565 61.0986 53.7677 61.8033 53.2132 62.2538C52.6356 62.7043 51.7577 62.9354 50.5909 62.9238H49.1701L49.147 65.2804H47.7954L47.8301 57.2634L50.5794 57.2865C51.7808 57.2634 52.6587 57.4945 53.2248 57.9681Z" fill="#1DA56C"/>
<path d="M58.0071 63.4667C58.3883 63.8826 58.8735 64.0905 59.4973 64.1136C60.1211 64.1136 60.6294 63.8942 60.9875 63.4667C61.3687 63.0393 61.542 62.4617 61.542 61.7224L61.5651 57.2981H62.9166L62.8935 61.7917C62.8935 62.9469 62.5701 63.8248 61.9347 64.4486C61.2878 65.0609 60.4792 65.3843 59.4857 65.3612C58.4923 65.3612 57.6721 65.0609 57.0368 64.4255C56.413 63.8017 56.1011 62.9123 56.1011 61.7455L56.1242 57.2634H57.4757L57.4642 61.7224C57.4642 62.4386 57.649 63.0393 58.0071 63.4667Z" fill="#1DA56C"/>
<path d="M69.2469 64.1133C69.7089 64.1133 70.1132 64.0209 70.4482 63.8823C70.7948 63.7206 71.1298 63.4664 71.511 63.1314L72.3774 64.0325C71.5341 64.9682 70.4944 65.4302 69.2815 65.4302C68.0801 65.4302 67.0751 65.0375 66.278 64.2404C65.4694 63.4664 65.0767 62.473 65.0767 61.2947C65.0998 60.0933 65.5041 59.0999 66.3127 58.3143C67.1213 57.5288 68.161 57.1245 69.4086 57.1245C70.6446 57.1476 71.6727 57.5866 72.5045 58.5107L71.6381 59.4695C71.2569 59.0883 70.8988 58.8457 70.5638 58.6956C70.2403 58.5338 69.8244 58.4645 69.3739 58.4645C68.5653 58.4645 67.8837 58.7302 67.3293 59.25C66.7748 59.7699 66.4975 60.4399 66.4975 61.2485C66.4975 62.0571 66.7632 62.7387 67.3062 63.2932C67.8375 63.8246 68.4844 64.1018 69.2469 64.1133Z" fill="#1DA56C"/>
<path d="M75.9466 65.361H74.5835L74.6182 57.3325L76.7206 57.3556L79.1349 62.3922L81.5608 57.3672H83.6632L83.6285 65.3726H82.277L82.3001 59.1115L79.493 64.6679H78.7421L75.9697 59.0999L75.9466 65.361Z" fill="#8CBE3F"/>
<path d="M92.0849 57.4134V58.6725L87.7991 58.6494V60.775L91.6574 60.7865L91.6343 61.9995L87.7991 61.9764L87.7876 64.1365H92.2119V65.4072L86.436 65.3957L86.4591 57.3672L92.0849 57.4134Z" fill="#8CBE3F"/>
<path d="M100.379 61.4334C100.402 59.5967 99.3396 58.661 97.2371 58.661H95.8856L95.8625 64.1481H97.3758C98.3461 64.1712 99.0854 63.9286 99.6053 63.4665C100.125 63.016 100.379 62.3345 100.379 61.4334ZM100.587 58.4877C101.361 59.1924 101.742 60.1627 101.742 61.3988C101.742 62.6348 101.361 63.6283 100.61 64.3445C99.8594 65.0607 98.7042 65.4188 97.1794 65.4188H94.5225L94.5456 57.4019L97.2949 57.425C98.7158 57.425 99.8132 57.7715 100.587 58.4877Z" fill="#8CBE3F"/>
</svg>
