<svg width="152" height="82" viewBox="0 0 152 82" fill="none" xmlns="http://www.w3.org/2000/svg">
<path d="M151 1H1V81H151V1Z" fill="white" stroke="#BBBDBF" stroke-width="0.5669" stroke-miterlimit="10" stroke-linecap="round" stroke-linejoin="round"/>
<path d="M117.759 63.2471H33.6777V64.4987H117.759V63.2471Z" fill="#234772"/>
<path d="M117.759 44.4502H33.6777V45.7018H117.759V44.4502Z" fill="#234772"/>
<path fill-rule="evenodd" clip-rule="evenodd" d="M86.7238 35.3645H117.759V35.9088H86.7367L86.7238 35.3645ZM81.7058 35.3645H85.1754L85.1577 35.9088H81.7251L81.7058 35.3645ZM76.6154 35.3645H80.1573L80.1396 35.9088H76.6283L76.6154 35.3645ZM71.5203 35.3645H75.067L75.0445 35.9088H71.5348L71.5203 35.3645ZM66.3882 35.3645H69.9718L69.9542 35.9088H66.4075L66.3882 35.3645ZM33.6777 35.3645H64.8397L64.8221 35.9088H33.6777V35.3645Z" fill="#234772"/>
<path d="M117.759 37.8628H94.1099V38.4071H117.759V37.8628Z" fill="#234772"/>
<path d="M117.759 40.635H94.1099V41.1793H117.759V40.635Z" fill="#234772"/>
<path d="M57.6371 37.8628H33.6777V38.4071H57.6371V37.8628Z" fill="#234772"/>
<path d="M57.7098 35.3921H57.1685V45.5191H57.7098V35.3921Z" fill="#234772"/>
<path d="M94.5175 35.4558H93.981V45.5356H94.5175V35.4558Z" fill="#234772"/>
<path d="M57.6371 40.635H33.6777V41.1793H57.6371V40.635Z" fill="#234772"/>
<path d="M117.759 43.0552H33.6777V43.5995H117.759V43.0552Z" fill="#234772"/>
<path d="M58.9349 41.8735H58.5703V43.2457H58.9349V41.8735Z" fill="#234772"/>
<path d="M93.1072 41.8687H58.5752V42.2386H93.1072V41.8687Z" fill="#234772"/>
<path d="M93.1043 41.9517H92.7349V43.3239H93.1043V41.9517Z" fill="#234772"/>
<path d="M60.2152 40.8418H59.8779V42.2189H60.2152V40.8418Z" fill="#234772"/>
<path d="M91.742 40.8386H59.8828V41.2086H91.742V40.8386Z" fill="#234772"/>
<path d="M91.7323 40.9219H91.395V42.2941H91.7323V40.9219Z" fill="#234772"/>
<path fill-rule="evenodd" clip-rule="evenodd" d="M63.6479 39.4893H63.6528V39.4844H67.5769V40.9853H67.2316V39.8674H63.9933V40.9071H63.6479V39.4893Z" fill="#234772"/>
<path fill-rule="evenodd" clip-rule="evenodd" d="M68.7881 39.4893H68.7929V39.4844H72.7187V40.9853H72.3717V39.8674H69.135V40.9071H68.7881V39.4893Z" fill="#234772"/>
<path fill-rule="evenodd" clip-rule="evenodd" d="M73.8481 39.4893H73.8514V39.4844H77.7771V40.9853H77.4302V39.8674H74.1935V40.9071H73.8481V39.4893Z" fill="#234772"/>
<path fill-rule="evenodd" clip-rule="evenodd" d="M78.9014 39.4893H78.9062V39.4844H82.8303V40.9853H82.485V39.8674H79.2467V40.9071H78.9014V39.4893Z" fill="#234772"/>
<path fill-rule="evenodd" clip-rule="evenodd" d="M83.9565 39.4893H83.9598V39.4844H87.8855V40.9853H87.5386V39.8674H84.3019V40.9071H83.9565V39.4893Z" fill="#234772"/>
<path d="M67.0901 38.7363H64.2036V39.3556H67.0901V38.7363Z" fill="#234772"/>
<path d="M72.1712 38.7493H69.2847V39.3686H72.1712V38.7493Z" fill="#234772"/>
<path d="M77.258 38.7493H74.3667V39.3686H77.258V38.7493Z" fill="#234772"/>
<path d="M82.3259 38.7493H79.4346V39.3686H82.3259V38.7493Z" fill="#234772"/>
<path d="M87.4162 38.7493H84.5249V39.3686H87.4162V38.7493Z" fill="#234772"/>
<path fill-rule="evenodd" clip-rule="evenodd" d="M64.7228 38.1578L65.1822 24.4373H66.056L66.448 38.1578H64.7228ZM64.4771 38.4267H66.7082L66.2488 24.1978H65.0152L64.4771 38.4267Z" fill="#234772"/>
<path fill-rule="evenodd" clip-rule="evenodd" d="M69.8771 38.1578L70.3365 24.4373H71.2103L71.6023 38.1578H69.8771ZM69.6313 38.4267H71.8625L71.4031 24.1978H70.1695L69.6313 38.4267Z" fill="#234772"/>
<path fill-rule="evenodd" clip-rule="evenodd" d="M74.9723 38.1578L75.4317 24.4373H76.3055L76.6927 38.1578H74.9723ZM74.7266 38.4267H76.9577L76.4935 24.1978H75.2647L74.7266 38.4267Z" fill="#234772"/>
<path fill-rule="evenodd" clip-rule="evenodd" d="M80.0627 38.1578L80.5221 24.4373H81.3959L81.7878 38.1578H80.0627ZM79.8169 38.4267H82.048L81.5886 24.1978H80.355L79.8169 38.4267Z" fill="#234772"/>
<path fill-rule="evenodd" clip-rule="evenodd" d="M85.0807 38.1578L85.5401 24.4373H86.4139L86.8011 38.1578H85.0807ZM84.835 38.4267H87.0661L86.6067 24.1978H85.3731L84.835 38.4267Z" fill="#234772"/>
<path d="M66.3432 23.5605H64.8413V23.9761H66.3432V23.5605Z" fill="#234772"/>
<path d="M66.7627 22.9087H64.4224V23.4351H66.7627V22.9087Z" fill="#234772"/>
<path d="M71.4965 23.5703H69.9946V23.9859H71.4965V23.5703Z" fill="#234772"/>
<path d="M71.9171 22.9185H69.5815V23.4449H71.9171V22.9185Z" fill="#234772"/>
<path d="M76.5912 23.5784H75.0894V23.9939H76.5912V23.5784Z" fill="#234772"/>
<path d="M77.0074 22.9282H74.6719V23.4546H77.0074V22.9282Z" fill="#234772"/>
<path d="M81.6835 23.593H80.1816V24.0037H81.6835V23.593Z" fill="#234772"/>
<path d="M82.1026 22.9363H79.7671V23.4627H82.1026V22.9363Z" fill="#234772"/>
<path d="M86.6996 23.6028H85.1978V24.0184H86.6996V23.6028Z" fill="#234772"/>
<path d="M87.1158 22.9509H84.7803V23.4724H87.1158V22.9509Z" fill="#234772"/>
<path fill-rule="evenodd" clip-rule="evenodd" d="M114.95 28.8782H117.759V29.4649H114.95V28.8782ZM111.202 28.8782H113.952V29.4649H111.202V28.8782ZM107.606 28.8782H110.201V29.4649H107.606V28.8782ZM103.853 28.8782H106.603V29.4649H103.853V28.8782ZM100.178 28.8782H102.856V29.4649H100.178V28.8782ZM96.3728 28.8782H99.1822V29.4649H96.3728V28.8782ZM86.5423 28.8782H95.3753V29.4649H86.5552L86.5423 28.8782ZM81.5243 28.8782H85.3906L85.381 29.1699L85.3665 29.4649H81.5419L81.5243 28.8782ZM76.4339 28.8782H80.3774L80.3629 29.1454L80.3533 29.4649H76.4516L76.4339 28.8782ZM71.3388 28.8782H75.2822L75.2774 28.9483L75.2597 29.4649H71.3581L71.3388 28.8782ZM66.1842 28.8782H70.1871L70.1823 29.0118L70.1646 29.4649H66.2019L66.1842 28.8782ZM56.2124 28.8782H65.0277L65.0052 29.4649H56.2124V28.8782ZM52.4649 28.8782H55.2149V29.4649H52.4649V28.8782ZM48.8684 28.8782H51.4642V29.4649H48.8684V28.8782ZM45.1161 28.8782H47.8661V29.4649H45.1161V28.8782ZM41.4409 28.8782H44.1186V29.4649H41.4409V28.8782ZM37.6356 28.8782H40.445V29.4649H37.6356V28.8782ZM33.6777 28.8782H36.6381V29.4649H33.6777V28.8782Z" fill="#234772"/>
<path fill-rule="evenodd" clip-rule="evenodd" d="M36.6381 23.9484V34.121H37.6357V23.9484H36.6381ZM36.3779 23.5752H37.8943V34.5333H36.3779V23.5752Z" fill="#234772"/>
<path fill-rule="evenodd" clip-rule="evenodd" d="M40.4902 23.9484V34.121H41.4925V23.9484H40.4902ZM40.23 23.5752H41.7511V34.5333H40.23V23.5752Z" fill="#234772"/>
<path fill-rule="evenodd" clip-rule="evenodd" d="M44.247 23.9484V34.121H45.2445V23.9484H44.247ZM43.9868 23.5752H45.5032V34.5333H43.9868V23.5752Z" fill="#234772"/>
<path fill-rule="evenodd" clip-rule="evenodd" d="M47.9804 23.9484V34.121H48.9828V23.9484H47.9804ZM47.7202 23.5752H49.2414V34.5333H47.7202V23.5752Z" fill="#234772"/>
<path fill-rule="evenodd" clip-rule="evenodd" d="M51.4546 23.9484V34.121H52.4521V23.9484H51.4546ZM51.1943 23.5752H52.7107V34.5333H51.1943V23.5752Z" fill="#234772"/>
<path fill-rule="evenodd" clip-rule="evenodd" d="M55.289 23.9484V34.121H56.2914V23.9484H55.289ZM55.0288 23.5752H56.55V34.5333H55.0288V23.5752Z" fill="#234772"/>
<path d="M38.2046 22.9917H36.0698V23.4855H38.2046V22.9917Z" fill="#234772"/>
<path d="M38.2046 34.7354H36.0698V35.2292H38.2046V34.7354Z" fill="#234772"/>
<path d="M42.0564 22.9917H39.9248V23.4855H42.0564V22.9917Z" fill="#234772"/>
<path d="M45.812 22.9917H43.6772V23.4855H45.812V22.9917Z" fill="#234772"/>
<path d="M49.5466 22.9917H47.415V23.4855H49.5466V22.9917Z" fill="#234772"/>
<path d="M53.0207 22.9917H50.8892V23.4855H53.0207V22.9917Z" fill="#234772"/>
<path d="M56.8552 22.9917H54.7236V23.4855H56.8552V22.9917Z" fill="#234772"/>
<path d="M42.0564 34.6653H39.9248V35.1591H42.0564V34.6653Z" fill="#234772"/>
<path d="M45.812 34.6653H43.6772V35.1591H45.812V34.6653Z" fill="#234772"/>
<path d="M49.5466 34.6653H47.415V35.1591H49.5466V34.6653Z" fill="#234772"/>
<path d="M53.0207 34.6653H50.8892V35.1591H53.0207V34.6653Z" fill="#234772"/>
<path d="M56.8552 34.6653H54.7236V35.1591H56.8552V34.6653Z" fill="#234772"/>
<path fill-rule="evenodd" clip-rule="evenodd" d="M95.3481 23.9484V34.121H96.3456V23.9484H95.3481ZM95.0879 23.5752H96.6042V34.5333H95.0879V23.5752Z" fill="#234772"/>
<path fill-rule="evenodd" clip-rule="evenodd" d="M99.2002 23.9484V34.121H100.202V23.9484H99.2002ZM98.9399 23.5752H100.461V34.5333H98.9399V23.5752Z" fill="#234772"/>
<path fill-rule="evenodd" clip-rule="evenodd" d="M102.955 23.9484V34.121H103.953V23.9484H102.955ZM102.697 23.5752H104.213V34.5333H102.697V23.5752Z" fill="#234772"/>
<path fill-rule="evenodd" clip-rule="evenodd" d="M106.69 23.9484V34.121H107.692V23.9484H106.69ZM106.43 23.5752H107.951V34.5333H106.43V23.5752Z" fill="#234772"/>
<path fill-rule="evenodd" clip-rule="evenodd" d="M110.165 23.9484V34.121H111.162V23.9484H110.165ZM109.904 23.5752H111.421V34.5333H109.904V23.5752Z" fill="#234772"/>
<path fill-rule="evenodd" clip-rule="evenodd" d="M113.998 23.9484V34.121H115.001V23.9484H113.998ZM113.738 23.5752H115.259V34.5333H113.738V23.5752Z" fill="#234772"/>
<path d="M96.9126 22.9917H94.7778V23.4855H96.9126V22.9917Z" fill="#234772"/>
<path d="M96.9126 34.7354H94.7778V35.2292H96.9126V34.7354Z" fill="#234772"/>
<path d="M100.766 22.9917H98.6348V23.4855H100.766V22.9917Z" fill="#234772"/>
<path d="M104.521 22.9917H102.387V23.4855H104.521V22.9917Z" fill="#234772"/>
<path d="M108.256 22.9917H106.125V23.4855H108.256V22.9917Z" fill="#234772"/>
<path d="M111.731 22.9917H109.599V23.4855H111.731V22.9917Z" fill="#234772"/>
<path d="M115.565 22.9917H113.433V23.4855H115.565V22.9917Z" fill="#234772"/>
<path d="M100.766 34.6653H98.6348V35.1591H100.766V34.6653Z" fill="#234772"/>
<path d="M104.521 34.6653H102.387V35.1591H104.521V34.6653Z" fill="#234772"/>
<path d="M108.256 34.6653H106.125V35.1591H108.256V34.6653Z" fill="#234772"/>
<path d="M111.731 34.6653H109.599V35.1591H111.731V34.6653Z" fill="#234772"/>
<path d="M115.565 34.6653H113.433V35.1591H115.565V34.6653Z" fill="#234772"/>
<path d="M117.796 22.4475H33.7471V22.8223H117.796V22.4475Z" fill="#234772"/>
<path d="M35.5317 20.7249H35.0771V22.6006H35.5317V20.7249Z" fill="#234772"/>
<path d="M57.8558 20.6221H57.3643V22.6185H57.8558V20.6221Z" fill="#234772"/>
<path fill-rule="evenodd" clip-rule="evenodd" d="M57.6292 20.4886L35.2135 20.2849L46.3274 16.1324L57.6292 20.4886ZM59.1134 20.72L46.2551 15.6663L33 20.7803L59.1134 20.72Z" fill="#234772"/>
<path d="M94.4021 20.7249H93.9507V22.6006H94.4021V20.7249Z" fill="#234772"/>
<path d="M116.729 20.6221H116.238V22.6185H116.729V20.6221Z" fill="#234772"/>
<path fill-rule="evenodd" clip-rule="evenodd" d="M116.503 20.4886L94.0825 20.2849L105.196 16.1324L116.503 20.4886ZM118 20.632L105.124 15.6663L91.8867 20.6923L118 20.632Z" fill="#234772"/>
<path d="M95.0255 20.3875H58.0615V20.7704H95.0255V20.3875Z" fill="#234772"/>
<path d="M62.6969 20.6548H62.1411V22.5257H62.6969V20.6548Z" fill="#234772"/>
<path d="M89.3791 20.6548H88.8281V22.5257H89.3791V20.6548Z" fill="#234772"/>
<path fill-rule="evenodd" clip-rule="evenodd" d="M90.4346 18.4921L62.0996 18.2607L76.1466 13.5215L90.4346 18.4921ZM76.0743 13H76.0374L59.3047 18.8246L92.3107 18.7545L76.0743 13Z" fill="#234772"/>
<path d="M89.7615 19.4309H61.6724V19.8791H89.7615V19.4309Z" fill="#234772"/>
<path fill-rule="evenodd" clip-rule="evenodd" d="M42.8259 17.172L41.4011 17.8239H33.7021V17.172H42.8259ZM100.302 17.8223H88.4862L87.5161 17.1704H101.454L100.366 17.8125L100.302 17.8223ZM109.8 17.8223L109.044 17.2584L117.708 17.1704L117.75 17.8223H109.8ZM62.8563 17.8223H50.891L49.3249 17.1704H64.2361L62.8563 17.8223Z" fill="#234772"/>
<path fill-rule="evenodd" clip-rule="evenodd" d="M113.456 65.8124L113.943 65.1475H114.425L113.742 65.8124H113.456ZM113.793 65.9835L115.382 68.8893H114.931L114.479 68.0304H113.114L112.662 68.8893H112.211L113.793 65.9835ZM113.793 66.7169L113.238 67.7468H114.349L113.793 66.7169ZM108.907 68.8893V65.9835L111.461 68.2146V66.0943H111.858V69.0001L109.304 66.7869V68.8893H108.907ZM106.959 65.9835L105.378 68.8893H105.829L106.281 68.0304H107.646L108.097 68.8893H108.549L106.959 65.9835ZM106.959 66.7169L106.403 67.7468H107.514L106.959 66.7169ZM103.648 66.3746V67.3084H103.966C104.289 67.3084 104.507 67.2759 104.617 67.2074C104.726 67.1422 104.78 67.0265 104.78 66.8603C104.78 66.6794 104.726 66.5506 104.612 66.4822C104.498 66.4089 104.284 66.3763 103.964 66.3763H103.648V66.3746ZM103.243 68.8893V66.0943H104.062C104.299 66.0943 104.467 66.1041 104.576 66.122C104.686 66.1448 104.782 66.1823 104.864 66.2328C104.968 66.298 105.05 66.386 105.105 66.492C105.164 66.6028 105.192 66.7234 105.192 66.857C105.192 67.0836 105.11 67.2596 104.951 67.3785C104.792 67.4975 104.559 67.5545 104.249 67.5545H104.176L105.511 68.8893H104.983L103.707 67.5545H103.648V68.8893H103.243ZM101.295 65.9835L99.7142 68.8893H100.166L100.617 68.0304H101.982L102.434 68.8893H102.885L101.295 65.9835ZM101.295 66.7169L100.739 67.7468H101.851L101.295 66.7169ZM98.3858 67.3313H98.5946C98.9496 67.3313 99.1905 67.2987 99.3142 67.2302C99.4379 67.165 99.5006 67.0493 99.5006 66.8798C99.5006 66.7038 99.4363 66.58 99.3094 66.505C99.1825 66.43 98.9448 66.3942 98.5946 66.3942H98.3858V67.3313ZM98.3858 67.6328V68.8893H97.981V66.0943H98.7135C98.9689 66.0943 99.1552 66.1041 99.2773 66.1269C99.3961 66.1448 99.5006 66.1823 99.5921 66.2328C99.7013 66.298 99.7929 66.386 99.8523 66.4969C99.9166 66.6077 99.9487 66.7283 99.9487 66.8619C99.9487 67.0004 99.9166 67.121 99.8523 67.2319C99.7929 67.3427 99.7013 67.4307 99.5921 67.4959C99.5006 67.5464 99.401 67.5839 99.2773 67.6018C99.1584 67.6246 98.9673 67.6344 98.7135 67.6344H98.3858V67.6328ZM95.8623 67.4975C95.8623 67.6963 95.8173 67.8854 95.7258 68.0614C95.6294 68.2374 95.4977 68.3938 95.321 68.5324C95.1443 68.6709 94.9435 68.7768 94.7106 68.8518C94.4825 68.9251 94.2416 68.9626 93.9958 68.9626C93.75 68.9626 93.5139 68.9251 93.2858 68.8518C93.0577 68.7784 92.8537 68.6709 92.6754 68.5324C92.4971 68.3938 92.3654 68.2374 92.2706 68.0565C92.1791 67.8805 92.1341 67.6963 92.1341 67.4975C92.1341 67.2938 92.1791 67.1047 92.2706 66.9287C92.367 66.7527 92.4987 66.5914 92.6754 66.4529C92.8537 66.3192 93.0529 66.2133 93.2858 66.1383C93.5139 66.065 93.75 66.0275 93.9958 66.0275C94.2464 66.0275 94.4825 66.065 94.7154 66.1383C94.9435 66.2117 95.1475 66.3192 95.321 66.4529C95.4993 66.5914 95.631 66.7478 95.7258 66.9238C95.8173 67.1047 95.8623 67.2954 95.8623 67.4975ZM93.9958 68.6481C94.187 68.6481 94.3685 68.6204 94.5419 68.565C94.7154 68.5047 94.8696 68.4215 95.0062 68.3107C95.1427 68.1999 95.2471 68.0744 95.321 67.9359C95.3933 67.7974 95.4302 67.6491 95.4302 67.4975C95.4302 67.341 95.3933 67.1879 95.321 67.0493C95.2487 66.9059 95.1427 66.7821 95.0062 66.6745C94.8696 66.5637 94.7154 66.4806 94.5468 66.4252C94.3733 66.3649 94.187 66.3371 93.9958 66.3371C93.8047 66.3371 93.6183 66.3649 93.4448 66.4252C93.2714 66.4806 93.1172 66.5637 92.9854 66.6745C92.8489 66.7853 92.7445 66.9108 92.6706 67.0493C92.6015 67.1927 92.5662 67.341 92.5662 67.4975C92.5662 67.6507 92.6031 67.7974 92.6706 67.9359C92.7429 68.0695 92.8489 68.1999 92.9854 68.3107C93.1268 68.4215 93.281 68.5047 93.4497 68.565C93.6215 68.6204 93.8047 68.6481 93.9958 68.6481ZM88.7497 68.8893V66.0943H89.4195C89.9158 66.0943 90.266 66.1122 90.4668 66.1546C90.6724 66.1921 90.8491 66.2605 91.0001 66.3534C91.2009 66.4789 91.3551 66.6354 91.4595 66.8293C91.5591 67.0233 91.6105 67.2449 91.6105 67.4942C91.6105 67.7436 91.5607 67.9652 91.4595 68.1543C91.3551 68.3433 91.2041 68.5047 91.0001 68.6253C90.8491 68.723 90.6772 68.7866 90.4812 68.829C90.2853 68.8713 89.9849 68.8893 89.5705 68.8893H88.7497ZM89.1689 68.5747H89.4323C89.8644 68.5747 90.1616 68.5601 90.3254 68.5291C90.4941 68.5014 90.6306 68.4509 90.7399 68.3759C90.8812 68.283 90.9904 68.1592 91.0675 68.006C91.1398 67.8577 91.1768 67.6833 91.1768 67.4893C91.1768 67.2954 91.1398 67.1194 91.0675 66.9727C90.9953 66.8244 90.886 66.7055 90.7399 66.6077C90.6306 66.5343 90.4893 66.4789 90.3206 66.4512C90.152 66.4186 89.8564 66.4007 89.4323 66.4007H89.1689V68.5747ZM85.0857 68.8893V66.0943H85.5001V68.5698H86.8205V68.8893H85.0857ZM83.1357 65.9835L81.5519 68.8893H82.0032L82.4578 68.0304H83.82L84.2745 68.8893H84.7259L83.1357 65.9835ZM83.1357 66.7169L82.5799 67.7468H83.6915L83.1357 66.7169ZM79.8251 66.3746V67.3084H80.14C80.4676 67.3084 80.6813 67.2759 80.7953 67.2074C80.9045 67.1422 80.9592 67.0265 80.9592 66.8603C80.9592 66.6794 80.8997 66.5506 80.7857 66.4822C80.6764 66.4089 80.458 66.3763 80.1383 66.3763H79.8251V66.3746ZM79.4203 68.8893V66.0943H80.2395C80.4725 66.0943 80.6443 66.1041 80.7536 66.122C80.8628 66.1448 80.9592 66.1823 81.0411 66.2328C81.1455 66.298 81.2226 66.386 81.282 66.492C81.3366 66.6028 81.3688 66.7234 81.3688 66.857C81.3688 67.0836 81.2868 67.2596 81.1278 67.3785C80.9688 67.4975 80.7359 67.5545 80.4259 67.5545H80.3536L81.6836 68.8893H81.1599L79.8846 67.5545H79.8251V68.8893H79.4203ZM76.876 68.8893V66.0943H78.7152V66.3942H77.2904V67.1976H78.7152V67.5073H77.2904V68.5796H78.7152V68.8893H76.876ZM73.3373 68.8893V66.0943H74.0071C74.5035 66.0943 74.8488 66.1122 75.0544 66.1546C75.2552 66.1921 75.4367 66.2605 75.5877 66.3534C75.7885 66.4789 75.9379 66.6354 76.0423 66.8293C76.1467 67.0233 76.1965 67.2449 76.1965 67.4942C76.1965 67.7436 76.1467 67.9652 76.0423 68.1543C75.9427 68.3433 75.7869 68.5047 75.5877 68.6253C75.4367 68.723 75.26 68.7866 75.0689 68.829C74.8729 68.8713 74.5677 68.8893 74.1581 68.8893H73.3373ZM73.7566 68.5747H74.02C74.4473 68.5747 74.7492 68.5601 74.9131 68.5291C75.0769 68.5014 75.2135 68.4509 75.3227 68.3759C75.4689 68.283 75.5781 68.1592 75.6504 68.006C75.7275 67.8577 75.7644 67.6833 75.7644 67.4893C75.7644 67.2954 75.7275 67.1194 75.6504 66.9727C75.5781 66.8244 75.4689 66.7055 75.3227 66.6077C75.2135 66.5343 75.0769 66.4789 74.9083 66.4512C74.7348 66.4186 74.4441 66.4007 74.02 66.4007H73.7566V68.5747ZM70.793 68.8893V66.0943H72.6322V66.3942H71.2074V67.1976H72.6322V67.5073H71.2074V68.5796H72.6322V68.8893H70.793ZM68.3193 68.8893V66.0943H70.1585V66.3942H68.7337V67.1976H70.1585V67.5073H68.7337V68.8893H68.3193ZM64.3357 68.8893V66.0943H66.1749V66.3942H64.7501V67.1976H66.1749V67.5073H64.7501V68.5796H66.1749V68.8893H64.3357ZM60.7938 68.8893V66.0943H61.4636C61.96 66.0943 62.3101 66.1122 62.5109 66.1546C62.7165 66.1921 62.8932 66.2605 63.0442 66.3534C63.245 66.4789 63.3992 66.6354 63.4988 66.8293C63.6032 67.0233 63.653 67.2449 63.653 67.4942C63.653 67.7436 63.6032 67.9652 63.502 68.1543C63.3976 68.3433 63.2466 68.5047 63.0426 68.6253C62.8916 68.723 62.7197 68.7866 62.5238 68.829C62.3278 68.8713 62.0274 68.8893 61.613 68.8893H60.7938ZM61.2114 68.5747H61.4749C61.907 68.5747 62.2041 68.5601 62.368 68.5291C62.5318 68.5014 62.6732 68.4509 62.7824 68.3759C62.9237 68.283 63.033 68.1592 63.1053 68.006C63.1824 67.8577 63.2193 67.6833 63.2193 67.4893C63.2193 67.2954 63.1824 67.1194 63.1101 66.9727C63.0378 66.8244 62.9286 66.7055 62.7824 66.6077C62.6732 66.5343 62.5318 66.4789 62.3632 66.4512C62.1945 66.4186 61.8989 66.4007 61.4749 66.4007H61.2114V68.5747ZM58.8438 65.9835L60.4324 68.8893H59.981L59.5297 68.0304H58.1643L57.7129 68.8893H57.2616L58.8438 65.9835ZM58.8438 66.7169L58.288 67.7468H59.3995L58.8438 66.7169ZM54.2867 68.8893V66.0943H54.9566C55.4529 66.0943 55.8031 66.1122 56.0039 66.1546C56.2095 66.1921 56.3861 66.2605 56.5371 66.3534C56.7379 66.4789 56.8921 66.6354 56.9917 66.8293C57.0961 67.0233 57.1459 67.2449 57.1459 67.4942C57.1459 67.7436 57.0961 67.9652 56.9949 68.1543C56.8905 68.3433 56.7395 68.5047 56.5355 68.6253C56.3845 68.723 56.2127 68.7866 56.0167 68.829C55.8207 68.8713 55.5204 68.8893 55.1059 68.8893H54.2867ZM54.706 68.5747H54.9694C55.4015 68.5747 55.6987 68.5601 55.8625 68.5291C56.0312 68.5014 56.1677 68.4509 56.2769 68.3759C56.4183 68.283 56.5275 68.1592 56.6046 68.006C56.6769 67.8577 56.7138 67.6833 56.7138 67.4893C56.7138 67.2954 56.6769 67.1194 56.6046 66.9727C56.5323 66.8244 56.4231 66.7055 56.2769 66.6077C56.1677 66.5343 56.0263 66.4789 55.8577 66.4512C55.689 66.4186 55.3935 66.4007 54.9694 66.4007H54.706V68.5747ZM53.0258 68.8893V66.0943H53.445V68.8893H53.0258ZM51.7825 67.3362C52.0106 67.4144 52.1825 67.5171 52.2965 67.6458C52.4106 67.7745 52.47 67.9277 52.47 68.0989C52.47 68.358 52.3704 68.565 52.1648 68.723C51.9592 68.8795 51.6861 68.9593 51.3504 68.9593C51.0774 68.9593 50.8493 68.9039 50.6629 68.7931C50.4766 68.6774 50.3481 68.521 50.2855 68.3123L50.6629 68.1592C50.7127 68.3303 50.7947 68.459 50.9135 68.547C51.0324 68.6301 51.177 68.6758 51.3504 68.6758C51.5592 68.6758 51.7279 68.6301 51.8564 68.5324C51.9881 68.4346 52.0524 68.3107 52.0524 68.1543C52.0524 68.0337 52.0074 67.9229 51.9158 67.8316C51.8243 67.7403 51.6926 67.6605 51.5111 67.5953L51.087 67.4519C50.8541 67.3736 50.6822 67.2759 50.5682 67.152C50.4541 67.0314 50.3947 66.8847 50.3947 66.7136C50.3947 66.5148 50.4911 66.3486 50.6726 66.2198C50.8589 66.0911 51.0918 66.0259 51.3777 66.0259C51.5866 66.0259 51.7697 66.0634 51.9239 66.1318C52.0781 66.2051 52.1969 66.3127 52.2837 66.4512L51.9383 66.6272C51.8612 66.5164 51.7745 66.4382 51.6781 66.3828C51.5785 66.3323 51.4693 66.3045 51.3456 66.3045C51.1914 66.3045 51.0629 66.3469 50.9633 66.4203C50.8669 66.4985 50.8171 66.5963 50.8171 66.712C50.8171 66.813 50.8541 66.8961 50.9312 66.9711C51.0083 67.0444 51.1272 67.1096 51.2862 67.165L51.7825 67.3362ZM48.3033 66.3746V67.3084H48.6213C48.9442 67.3084 49.1627 67.2759 49.2719 67.2074C49.3811 67.1422 49.4357 67.0265 49.4357 66.8603C49.4357 66.6794 49.3811 66.5506 49.2671 66.4822C49.153 66.4089 48.9394 66.3763 48.6197 66.3763H48.3033V66.3746ZM47.8985 68.8893V66.0943H48.7177C48.9538 66.0943 49.1225 66.1041 49.2317 66.122C49.341 66.1448 49.4373 66.1823 49.5193 66.2328C49.6237 66.298 49.7056 66.386 49.7602 66.492C49.8196 66.6028 49.8469 66.7234 49.8469 66.857C49.8469 67.0836 49.7698 67.2596 49.6108 67.3785C49.447 67.4991 49.2141 67.5545 48.9057 67.5545H48.8334L50.1682 68.8893H49.6397L48.3643 67.5545H48.3049V68.8893H47.8985ZM45.3574 68.8893V66.0943H47.1966V66.3942H45.7718V67.1976H47.1966V67.5073H45.7718V68.5796H47.1966V68.8893H45.3574ZM43.523 69.0001L42.0484 66.0943H42.495L43.5246 68.2325L44.5446 66.0943H44.9911L43.523 69.0001ZM41.2645 68.8893V66.0943H41.679V68.8893H41.2645ZM37.4753 68.8893V65.9835L40.0293 68.2146V66.0943H40.4261V69.0001L37.8721 66.7869V68.8893H37.4753ZM33.9479 66.0943H34.3655V67.8316C34.3655 68.1135 34.4426 68.3205 34.5936 68.4558C34.7446 68.5894 34.9759 68.6546 35.2988 68.6546C35.6168 68.6546 35.8546 68.5894 36.0039 68.4558C36.1549 68.3221 36.232 68.1135 36.232 67.8316V66.0943H36.6513V67.8316C36.6513 68.2097 36.5421 68.4916 36.314 68.6823C36.0907 68.8713 35.7502 68.9642 35.2988 68.9642C34.8474 68.9642 34.5117 68.8713 34.2836 68.6823C34.0603 68.4933 33.9463 68.2113 33.9463 67.8316V66.0943H33.9479Z" fill="#221F20"/>
<path fill-rule="evenodd" clip-rule="evenodd" d="M33.9282 47.8186H37.7126L37.7303 55.5564C37.7351 56.8683 38.058 57.8299 39.1197 58.4443C40.1767 59.0538 41.5966 59.3683 43.8551 59.3683C46.1184 59.3683 47.0741 59.119 48.131 58.5046C49.1912 57.8902 49.9429 57.0541 49.9429 55.7422V47.7778L53.6808 47.8609V55.9264C53.6808 57.6816 52.77 59.132 51.1814 60.0055C49.5976 60.8742 47.0339 61.1284 43.8374 61.1284C40.6554 61.1284 38.1142 60.791 36.5288 59.9224C34.9402 59.0538 33.9282 57.6408 33.9282 55.8856V47.8186Z" fill="#221F20"/>
<path fill-rule="evenodd" clip-rule="evenodd" d="M57.2373 47.7534C62.6971 47.7534 68.152 47.7632 73.6198 47.7632V49.463H61.0715V52.8446H73.6616V54.678H61.0715V60.809H57.2373V47.7534Z" fill="#221F20"/>
<path fill-rule="evenodd" clip-rule="evenodd" d="M76.7427 60.8416V47.7029H83.6995C87.3924 47.7029 90.1247 48.0582 91.9221 48.6449C95.8655 49.9242 96.0695 54.295 92.0763 55.7504C90.3271 56.3876 87.8421 56.4658 84.7131 56.4658C84.3211 56.4658 84.0111 56.4658 83.812 56.4658C83.5983 56.4609 83.2016 56.4512 83.0201 56.4479V60.8416H76.7427ZM82.9911 53.9121C83.0682 53.9121 83.9388 53.917 84.0979 53.9218C84.2617 53.9267 84.3806 53.9316 84.4577 53.9316C85.8776 53.9316 86.9571 53.7703 87.704 53.4509C88.4509 53.1282 88.8188 52.6702 88.8188 52.0656C88.8188 51.4414 88.4638 51.1236 87.7586 50.827C87.0615 50.5321 85.9547 50.3837 84.4577 50.3837C84.3806 50.3837 84.2617 50.3837 84.0979 50.3935C83.9388 50.3984 83.0682 50.4033 82.9911 50.4033V53.9121Z" fill="#221F20"/>
<path fill-rule="evenodd" clip-rule="evenodd" d="M98.5991 60.8416V47.7225H105.588C108.707 47.7225 116.421 47.3167 116.421 52.0689C116.421 53.0028 115.979 53.7557 115.096 54.3179C114.207 54.8867 112.879 55.2827 111.09 55.5092L117.674 60.84L110.293 60.9182L104.57 55.6804L104.542 60.84H98.5991V60.8416ZM104.518 53.9627C104.6 53.9627 105.206 53.9675 105.379 53.9724C105.561 53.9773 105.689 53.9822 105.766 53.9822C107.223 53.9822 108.325 53.8209 109.054 53.5063C109.797 53.1869 110.166 52.7208 110.166 52.1015C110.166 51.4725 109.829 51.0161 109.151 50.7244C108.476 50.4376 107.398 50.2942 105.9 50.2942C105.672 50.2942 105.49 50.2991 105.371 50.2991C105.248 50.304 104.656 50.304 104.547 50.3137L104.518 53.9627Z" fill="#221F20"/>
</svg>
