<svg width="152" height="82" viewBox="0 0 152 82" fill="none" xmlns="http://www.w3.org/2000/svg">
<path d="M151 1H1V81H151V1Z" fill="white" stroke="#BBBDBF" stroke-width="0.5669" stroke-miterlimit="10" stroke-linecap="round" stroke-linejoin="round"/>
<path d="M104.903 45.6369C107.941 45.6369 110.425 48.1205 110.425 51.1586H113.267V42.9915C113.267 38.3824 109.513 34.628 104.903 34.628C100.283 34.628 96.5399 38.3824 96.5399 42.9915V51.1586H99.3585C99.3585 48.109 101.842 45.6369 104.903 45.6369ZM99.3585 42.9915C99.3585 39.9534 101.842 37.4698 104.892 37.4698C107.93 37.4698 110.414 39.9534 110.414 42.9915V44.8745C108.935 43.5807 106.994 42.7836 104.892 42.7836C102.766 42.7836 100.826 43.5691 99.3585 44.8745V42.9915ZM105.273 27.3966L105.492 30.2152L110.31 29.8571V33.288H113.151V29.8571L118.003 30.2152L118.223 27.3966L114.93 27.1425L119.124 22.9145L117.114 20.9161L113.163 24.8899V17H110.321V24.8552L106.405 20.9161L104.395 22.9145L108.588 27.1425L105.273 27.3966ZM104.88 62.4101C98.6769 62.4101 93.6172 57.362 93.6172 51.1471V42.98C93.6172 38.3708 89.8745 34.6165 85.2538 34.6165C82.6315 34.6165 80.2865 35.841 78.7617 37.7239C78.2765 36.5225 77.6065 35.3905 76.7863 34.3392L74.5568 36.1067C76.0816 38.0474 76.8903 40.3693 76.8903 42.8298C76.8903 42.8876 76.8903 42.9222 76.8903 42.9684V51.1355H79.732V42.9684C79.732 39.9303 82.2156 37.4467 85.2538 37.4467C88.315 37.4467 90.7755 39.9303 90.7755 42.9684V51.1355C90.7986 58.9099 97.1059 65.2403 104.88 65.2403C112.666 65.2403 118.985 58.9099 118.985 51.1355H116.143C116.143 57.362 111.107 62.4101 104.88 62.4101ZM65.7197 34.628C63.109 34.628 60.7755 35.8294 59.2276 37.7239C57.1829 32.4909 52.0655 28.7713 46.1047 28.7713C38.3304 28.7713 32 35.1017 32 42.876H34.8417C34.8417 36.6727 39.8899 31.613 46.1047 31.613C52.3196 31.613 57.3677 36.6611 57.3677 42.876C57.3677 42.9107 57.3677 42.9684 57.3677 43.0031V51.1702H60.2095V43.0031C60.2095 39.965 62.6931 37.4813 65.7312 37.4813C68.7925 37.4813 71.2645 39.965 71.2645 43.0031V51.1702H74.1063V43.0031C74.0947 38.3824 70.3404 34.628 65.7197 34.628ZM46.0932 34.628C41.484 34.628 37.7297 38.3824 37.7297 42.9915V51.1586H40.5714C40.5714 48.1205 43.0551 45.6369 46.0932 45.6369C49.1544 45.6369 51.6149 48.1205 51.6149 51.1586H54.4567V42.9915C54.4567 38.3824 50.7139 34.628 46.0932 34.628ZM51.6149 44.8745C50.1363 43.5807 48.2187 42.7836 46.0932 42.7836C43.9908 42.7836 42.0501 43.5691 40.5714 44.8745V42.9915C40.5714 39.9534 43.0551 37.4698 46.0932 37.4698C49.1544 37.4698 51.6149 39.9534 51.6149 42.9915V44.8745Z" fill="#050605"/>
</svg>
