<svg width="37" height="37" viewBox="0 0 37 37" fill="none" xmlns="http://www.w3.org/2000/svg">
<path fill-rule="evenodd" clip-rule="evenodd" d="M18.14 0C28.17 0 36.31 8.13998 36.31 18.17C36.31 28.2 28.17 36.31 18.14 36.31C8.13 36.31 0 28.2 0 18.17C0 8.12998 8.14 0 18.14 0Z" fill="white"/>
<path fill-rule="evenodd" clip-rule="evenodd" d="M17.9735 5C21.433 5 24.243 7.76207 24.243 11.1336C24.243 14.5182 21.4197 17.2414 17.9735 17.2414C14.514 17.2414 11.7305 14.5182 11.7305 11.1336C11.7438 7.76207 14.5273 5 17.9735 5ZM27 31H9C9 25.0868 11.2136 21.2224 14.0766 19.4589C15.243 20.0813 16.595 20.4573 17.9868 20.4573C19.4183 20.4573 20.7703 20.0943 21.8969 19.4589C24.7732 21.2224 27 25.0738 27 31Z" fill="#221F20"/>
</svg>
