<svg viewBox="0 0 32 32" xmlns="http://www.w3.org/2000/svg">
  <defs></defs>
  <path fill-rule="evenodd" clip-rule="evenodd" d="M 158.265 188.083 C 158.545 187.803 159.035 187.433 159.345 187.203 C 159.485 187.113 159.605 187.033 159.745 186.943 C 160.055 186.803 160.315 186.633 160.625 186.493 C 163.285 185.303 166.575 185.553 168.955 187.203 C 169.555 187.603 169.745 187.803 170.235 188.223 C 170.265 188.283 170.345 188.363 170.405 188.393 C 170.775 188.733 171.285 189.443 171.535 189.893 C 173.035 192.333 173.295 195.473 171.935 198.223 C 171.485 199.133 170.975 199.813 170.295 200.523 C 170.065 200.753 169.845 200.953 169.585 201.143 C 168.935 201.683 167.885 202.273 167.065 202.563 C 166.755 202.653 166.355 202.793 166.045 202.843 C 165.935 202.643 165.875 202.563 165.705 202.413 C 165.195 201.933 164.515 202.073 163.695 202.073 C 163.155 202.073 162.845 202.183 162.565 202.473 C 161.965 203.123 162.085 204.093 162.845 204.543 C 163.245 204.773 163.725 204.713 164.235 204.713 C 164.775 204.713 165.145 204.773 165.565 204.513 C 165.825 204.343 166.045 204.033 166.135 203.723 C 166.195 203.463 166.105 203.583 166.535 203.443 C 168.945 202.823 170.135 201.803 171.605 200.103 C 171.835 199.823 172.425 198.853 172.595 198.483 C 172.875 197.833 172.765 198.033 173.045 197.883 C 175.425 196.863 175.425 191.733 172.875 190.853 C 172.785 190.823 172.815 190.793 172.765 190.713 C 172.505 190.113 172.195 189.583 171.825 189.043 C 171.665 188.813 171.045 188.053 170.875 187.913 C 170.785 187.823 170.675 187.713 170.615 187.633 C 170.525 187.543 170.415 187.463 170.335 187.373 C 169.175 186.353 167.675 185.613 166.135 185.273 C 163.305 184.623 160.215 185.443 158.095 187.283 C 157.895 187.453 157.755 187.573 157.555 187.773 C 157.525 187.823 157.465 187.853 157.435 187.913 C 157.095 188.193 156.385 189.153 156.165 189.523 C 155.965 189.893 155.705 190.353 155.535 190.743 C 155.515 190.863 155.515 190.833 155.395 190.863 C 154.885 191.033 154.495 191.423 154.235 191.793 C 153.665 192.643 153.355 193.943 153.555 195.193 C 153.755 196.413 154.295 197.373 155.115 197.833 C 155.285 197.923 155.715 198.093 155.905 198.003 C 156.015 197.943 156.105 197.833 156.105 197.693 C 156.105 197.583 156.015 197.383 155.995 197.263 C 155.175 194.993 155.395 192.503 156.505 190.373 C 156.955 189.443 157.525 188.793 158.265 188.083 Z" fill="black"></path>
  <path fill-rule="evenodd" clip-rule="evenodd" d="M 163.645 187.603 C 159.735 187.853 156.475 191.653 157.555 196.073 C 157.755 196.953 158.235 197.913 158.775 198.563 C 158.805 198.623 158.945 198.763 158.945 198.823 L 157.925 201.573 C 157.895 201.633 157.815 201.833 157.815 201.913 C 157.775 202.053 157.895 202.143 158.035 202.143 C 158.095 202.143 160.865 200.843 161.235 200.673 C 161.405 200.583 161.405 200.643 161.545 200.733 C 162.795 201.243 164.235 201.353 165.595 201.073 C 166.645 200.843 167.435 200.423 168.145 199.913 C 168.855 199.433 169.505 198.693 169.955 197.983 C 171.655 195.233 171.085 191.723 169.015 189.673 C 168.675 189.333 168.445 189.103 168.025 188.823 C 167.655 188.563 167.285 188.343 166.835 188.143 C 165.885 187.743 164.835 187.543 163.645 187.603 Z M 162.485 191.393 L 167.335 194.483 L 162.485 197.553 L 162.485 191.393 Z" fill="#049B8A"></path>
  <path fill-rule="evenodd" clip-rule="evenodd" d="M 162.485 191.393 L 167.335 194.483 L 162.485 197.553 L 162.485 191.393 Z" fill="white"></path>
</svg>