<svg width="109" height="87" viewBox="0 0 109 87" fill="none" xmlns="http://www.w3.org/2000/svg">
<path d="M71.2851 20.2414C71.2851 20.9897 71.4604 21.7087 71.7818 22.3433C73.2316 25.2118 70.467 30.8059 66.3255 30.8059C63.0642 30.7949 60.4055 33.4471 60.3946 36.7338C60.3836 40.0096 63.0241 42.6801 66.2963 42.7021C69.5686 42.7131 72.2273 40.0499 72.2383 36.7742C72.2383 35.692 71.9571 34.6723 71.4604 33.7992C69.4517 30.274 72.713 25.2632 75.8611 24.878C78.655 24.5442 82.2084 30.274 80.1669 33.8102C79.6593 34.6833 79.3708 35.703 79.3598 36.7962C79.3489 40.1013 82.0112 42.7864 85.3018 42.7974C87.4967 42.8085 89.4213 41.6126 90.4585 39.8335V39.8445C92.5584 36.2276 98.6172 36.6531 100.385 39.419C101.214 40.7175 102.653 41.5723 104.307 41.5833C106.886 41.5943 108.986 39.4924 108.996 36.9026C109.007 34.3128 106.915 32.2035 104.336 32.1925C102.689 32.1815 101.232 33.0362 100.403 34.3238C98.6136 37.0786 92.5548 37.4638 90.4768 33.8359C89.4505 32.0568 87.5368 30.8499 85.3419 30.8426C81.1786 30.8206 78.4797 25.2375 79.9478 22.3689C80.2692 21.7453 80.4554 21.0264 80.4664 20.278C80.4664 17.7323 78.4285 15.6597 75.8903 15.6524C73.3521 15.645 71.296 17.6956 71.2851 20.2414Z" fill="#8CBE3F"/>
<path d="M7.80455 52.6652C7.8155 50.4936 6.07711 48.7365 3.91143 48.7255C1.7567 48.7255 0.00735535 50.4716 5.11852e-05 52.6358C-0.0109051 54.8001 1.73844 56.5645 3.89317 56.5645C6.04424 56.5719 7.79724 54.8258 7.80455 52.6652Z" fill="#1DA56C"/>
<path d="M20.6855 46.6859C23.5962 43.4945 23.6145 38.6781 20.8937 35.4647H20.9046C16.7522 30.5566 17.468 23.5172 23.9687 20.1571C28.658 18.1799 31.9522 22.9743 30.9552 29.3387C30.2722 33.7076 31.7002 38.3113 35.1879 41.5136C38.8217 44.8628 43.7813 45.8385 48.1784 44.5399C56.9068 42.0859 60.1243 47.3902 59.949 52.4634C59.876 54.6056 60.694 56.7589 62.3923 58.3069C65.4564 61.1351 70.2187 60.915 73.0235 57.8374C75.8283 54.7597 75.6201 49.9763 72.556 47.1591C70.8578 45.6001 68.6848 44.9655 66.5739 45.2259L66.541 45.2369C61.5194 45.8605 55.9829 43.1057 57.6482 34.1515C58.5503 29.6285 57.1406 24.7607 53.5067 21.4153C50.03 18.2129 45.3297 17.1821 41.0641 18.2422C34.3297 19.9406 31.0063 16.1256 31.3678 10.9167H31.3569C31.565 7.92343 30.4658 4.86411 28.0846 2.6815C23.9468 -1.12615 17.5264 -0.843696 13.7392 3.31244C10.1383 7.25214 10.2077 13.2754 13.7721 17.1308C19.2794 23.11 17.0626 30.3695 10.9673 33.2271C9.95203 33.6856 9.02075 34.3495 8.2246 35.2226C5.0765 38.6744 5.31389 44.0411 8.75415 47.2031C12.1835 50.3761 17.5264 50.1377 20.6855 46.6859Z" fill="#1DA56C"/>
<path d="M15.4264 79.5241C15.9121 79.0142 16.1495 78.2549 16.1605 77.2681C16.1605 76.2703 15.861 75.5624 15.2402 75.1478C14.6303 74.7407 13.6661 74.5242 12.3514 74.5242L9.89717 74.5132L9.87526 80.2834L12.6801 80.2944C14.0167 80.2907 14.937 80.0303 15.4264 79.5241ZM17.1539 73.5852C18.1472 74.4289 18.6439 75.7274 18.6329 77.4625C18.6329 79.2086 18.1144 80.4888 17.0918 81.2885C16.0765 82.0992 14.5134 82.4954 12.4135 82.4844L9.86795 82.4734L9.857 86.6955H7.43567L7.4868 72.2939L12.4025 72.316C14.5755 72.327 16.1605 72.7525 17.1539 73.5852Z" fill="#1DA56C"/>
<path d="M25.7144 83.4638C26.3681 84.2341 27.2482 84.6193 28.3767 84.6266C29.4943 84.6266 30.3854 84.2415 31.0391 83.4822C31.7001 82.7118 32.0325 81.6737 32.0434 80.3531L32.0653 72.3894H34.4867L34.4538 80.4705C34.4428 82.5394 33.8731 84.1314 32.7337 85.2539C31.5942 86.3654 30.137 86.9193 28.3658 86.9193C26.5835 86.9083 25.1373 86.3471 24.0088 85.2246C22.8694 84.1021 22.3106 82.4991 22.3216 80.4302L22.3435 72.349L24.7648 72.36L24.7429 80.3348C24.7319 81.6444 25.0533 82.6935 25.7144 83.4638Z" fill="#1DA56C"/>
<path d="M45.7972 84.6266C46.6372 84.6266 47.3493 84.4909 47.9519 84.2121C48.5509 83.9296 49.1827 83.4858 49.8474 82.8695L51.3995 84.4799C49.8766 86.1636 48.025 86.9963 45.8593 86.9853C43.6972 86.9853 41.8931 86.2773 40.4761 84.876C39.0481 83.4601 38.3433 81.6957 38.3543 79.5534C38.3543 77.4111 39.0883 75.632 40.5492 74.2088C42.0209 72.7855 43.8506 72.0775 46.0784 72.0885C48.2952 72.0885 50.1468 72.9212 51.6369 74.5719L50.0957 76.2556C49.4128 75.5917 48.77 75.1332 48.1601 74.8727C47.5502 74.6013 46.8344 74.4765 46.0163 74.4655C44.5664 74.4655 43.354 74.9351 42.3606 75.8705C41.3782 76.8059 40.8815 78.0017 40.8705 79.469C40.8705 80.9253 41.3563 82.1505 42.3314 83.141C43.3028 84.1277 44.4642 84.6156 45.7972 84.6266Z" fill="#1DA56C"/>
<path d="M57.7869 86.8752L55.3656 86.8642L55.4167 72.4626L59.1857 72.481L63.4805 81.5379L67.8375 72.514L71.5881 72.525L71.5443 86.9156L69.123 86.9046L69.1632 75.665L64.1233 85.6354L62.7647 85.6243L57.8271 75.6247L57.7869 86.8752Z" fill="#8CBE3F"/>
<path d="M86.6603 72.5764L86.6494 74.8653L79.0092 74.8323L78.9873 78.64L85.8642 78.6693L85.8532 80.8336L78.9873 80.8116L78.969 84.6596L86.8685 84.6779L86.8575 86.9669L76.5441 86.9376L76.5989 72.5433L86.6603 72.5764Z" fill="#8CBE3F"/>
<path d="M101.473 79.8139C101.495 76.5161 99.6215 74.8654 95.8526 74.8544L93.4422 74.8434L93.402 84.711L96.0936 84.722C97.832 84.722 99.1577 84.3148 100.089 83.4858C101.009 82.6531 101.473 81.4352 101.473 79.8139ZM101.868 74.5096C103.244 75.7678 103.927 77.5249 103.916 79.7588C103.905 81.9928 103.233 83.7609 101.886 85.0631C100.538 86.3654 98.4894 87.0073 95.7247 86.9963L90.9734 86.9853L91.0245 72.5837L95.9402 72.6057C98.5149 72.6168 100.491 73.2514 101.868 74.5096Z" fill="#8CBE3F"/>
</svg>
